<?xml version="1.0" encoding="utf-8" standalone="no"?>
<!DOCTYPE svg PUBLIC "-//W3C//DTD SVG 1.1//EN"
  "http://www.w3.org/Graphics/SVG/1.1/DTD/svg11.dtd">
<svg xmlns:xlink="http://www.w3.org/1999/xlink" width="504pt" height="360pt" viewBox="0 0 504 360" xmlns="http://www.w3.org/2000/svg" version="1.1">
 <metadata>
  <rdf:RDF xmlns:dc="http://purl.org/dc/elements/1.1/" xmlns:cc="http://creativecommons.org/ns#" xmlns:rdf="http://www.w3.org/1999/02/22-rdf-syntax-ns#">
   <cc:Work>
    <dc:type rdf:resource="http://purl.org/dc/dcmitype/StillImage"/>
    <dc:date>2025-10-16T16:20:17.416845</dc:date>
    <dc:format>image/svg+xml</dc:format>
    <dc:creator>
     <cc:Agent>
      <dc:title>Matplotlib v3.10.7, https://matplotlib.org/</dc:title>
     </cc:Agent>
    </dc:creator>
   </cc:Work>
  </rdf:RDF>
 </metadata>
 <defs>
  <style type="text/css">*{stroke-linejoin: round; stroke-linecap: butt}</style>
 </defs>
 <g id="figure_1">
  <g id="patch_1">
   <path d="M 0 360 
L 504 360 
L 504 0 
L 0 0 
z
" style="fill: #ffffff"/>
  </g>
  <g id="axes_1">
   <g id="patch_2">
    <path d="M 37.01 163.52 
L 496.44 163.52 
L 496.44 10.08 
L 37.01 10.08 
z
" style="fill: #ffffff"/>
   </g>
   <g id="matplotlib.axis_1">
    <g id="xtick_1">
     <g id="line2d_1">
      <defs>
       <path id="m1b12c692ea" d="M 0 0 
L 0 3.5 
" style="stroke: #000000; stroke-width: 0.8"/>
      </defs>
      <g>
       <use xlink:href="#m1b12c692ea" x="37.01" y="163.52" style="stroke: #000000; stroke-width: 0.8"/>
      </g>
     </g>
    </g>
    <g id="xtick_2">
     <g id="line2d_2">
      <g>
       <use xlink:href="#m1b12c692ea" x="129.08014" y="163.52" style="stroke: #000000; stroke-width: 0.8"/>
      </g>
     </g>
    </g>
    <g id="xtick_3">
     <g id="line2d_3">
      <g>
       <use xlink:href="#m1b12c692ea" x="221.150281" y="163.52" style="stroke: #000000; stroke-width: 0.8"/>
      </g>
     </g>
    </g>
    <g id="xtick_4">
     <g id="line2d_4">
      <g>
       <use xlink:href="#m1b12c692ea" x="313.220421" y="163.52" style="stroke: #000000; stroke-width: 0.8"/>
      </g>
     </g>
    </g>
    <g id="xtick_5">
     <g id="line2d_5">
      <g>
       <use xlink:href="#m1b12c692ea" x="405.290561" y="163.52" style="stroke: #000000; stroke-width: 0.8"/>
      </g>
     </g>
    </g>
   </g>
   <g id="matplotlib.axis_2">
    <g id="ytick_1">
     <g id="line2d_6">
      <defs>
       <path id="mae22fccc05" d="M 0 0 
L -3.5 0 
" style="stroke: #000000; stroke-width: 0.8"/>
      </defs>
      <g>
       <use xlink:href="#mae22fccc05" x="37.01" y="163.52" style="stroke: #000000; stroke-width: 0.8"/>
      </g>
     </g>
     <g id="text_1">
      <!-- 0.0 -->
      <g transform="translate(21.67 165.667344) scale(0.06 -0.06)">
       <defs>
        <path id="ArialMT-30" d="M 266 2259 
Q 266 3072 433 3567 
Q 600 4063 929 4331 
Q 1259 4600 1759 4600 
Q 2128 4600 2406 4451 
Q 2684 4303 2865 4023 
Q 3047 3744 3150 3342 
Q 3253 2941 3253 2259 
Q 3253 1453 3087 958 
Q 2922 463 2592 192 
Q 2263 -78 1759 -78 
Q 1097 -78 719 397 
Q 266 969 266 2259 
z
M 844 2259 
Q 844 1131 1108 757 
Q 1372 384 1759 384 
Q 2147 384 2411 759 
Q 2675 1134 2675 2259 
Q 2675 3391 2411 3762 
Q 2147 4134 1753 4134 
Q 1366 4134 1134 3806 
Q 844 3388 844 2259 
z
" transform="scale(0.015625)"/>
        <path id="ArialMT-2e" d="M 581 0 
L 581 641 
L 1222 641 
L 1222 0 
L 581 0 
z
" transform="scale(0.015625)"/>
       </defs>
       <use xlink:href="#ArialMT-30"/>
       <use xlink:href="#ArialMT-2e" transform="translate(55.615234 0)"/>
       <use xlink:href="#ArialMT-30" transform="translate(83.398438 0)"/>
      </g>
     </g>
    </g>
    <g id="ytick_2">
     <g id="line2d_7">
      <g>
       <use xlink:href="#mae22fccc05" x="37.01" y="144.34" style="stroke: #000000; stroke-width: 0.8"/>
      </g>
     </g>
     <g id="text_2">
      <!-- 0.5 -->
      <g transform="translate(21.67 146.487344) scale(0.06 -0.06)">
       <defs>
        <path id="ArialMT-35" d="M 266 1200 
L 856 1250 
Q 922 819 1161 601 
Q 1400 384 1738 384 
Q 2144 384 2425 690 
Q 2706 997 2706 1503 
Q 2706 1984 2436 2262 
Q 2166 2541 1728 2541 
Q 1456 2541 1237 2417 
Q 1019 2294 894 2097 
L 366 2166 
L 809 4519 
L 3088 4519 
L 3088 3981 
L 1259 3981 
L 1013 2750 
Q 1425 3038 1878 3038 
Q 2478 3038 2890 2622 
Q 3303 2206 3303 1553 
Q 3303 931 2941 478 
Q 2500 -78 1738 -78 
Q 1113 -78 717 272 
Q 322 622 266 1200 
z
" transform="scale(0.015625)"/>
       </defs>
       <use xlink:href="#ArialMT-30"/>
       <use xlink:href="#ArialMT-2e" transform="translate(55.615234 0)"/>
       <use xlink:href="#ArialMT-35" transform="translate(83.398438 0)"/>
      </g>
     </g>
    </g>
    <g id="ytick_3">
     <g id="line2d_8">
      <g>
       <use xlink:href="#mae22fccc05" x="37.01" y="125.16" style="stroke: #000000; stroke-width: 0.8"/>
      </g>
     </g>
     <g id="text_3">
      <!-- 1.0 -->
      <g transform="translate(21.67 127.307344) scale(0.06 -0.06)">
       <defs>
        <path id="ArialMT-31" d="M 2384 0 
L 1822 0 
L 1822 3584 
Q 1619 3391 1289 3197 
Q 959 3003 697 2906 
L 697 3450 
Q 1169 3672 1522 3987 
Q 1875 4303 2022 4600 
L 2384 4600 
L 2384 0 
z
" transform="scale(0.015625)"/>
       </defs>
       <use xlink:href="#ArialMT-31"/>
       <use xlink:href="#ArialMT-2e" transform="translate(55.615234 0)"/>
       <use xlink:href="#ArialMT-30" transform="translate(83.398438 0)"/>
      </g>
     </g>
    </g>
    <g id="ytick_4">
     <g id="line2d_9">
      <g>
       <use xlink:href="#mae22fccc05" x="37.01" y="105.98" style="stroke: #000000; stroke-width: 0.8"/>
      </g>
     </g>
     <g id="text_4">
      <!-- 1.5 -->
      <g transform="translate(21.67 108.127344) scale(0.06 -0.06)">
       <use xlink:href="#ArialMT-31"/>
       <use xlink:href="#ArialMT-2e" transform="translate(55.615234 0)"/>
       <use xlink:href="#ArialMT-35" transform="translate(83.398438 0)"/>
      </g>
     </g>
    </g>
    <g id="ytick_5">
     <g id="line2d_10">
      <g>
       <use xlink:href="#mae22fccc05" x="37.01" y="86.8" style="stroke: #000000; stroke-width: 0.8"/>
      </g>
     </g>
     <g id="text_5">
      <!-- 2.0 -->
      <g transform="translate(21.67 88.947344) scale(0.06 -0.06)">
       <defs>
        <path id="ArialMT-32" d="M 3222 541 
L 3222 0 
L 194 0 
Q 188 203 259 391 
Q 375 700 629 1000 
Q 884 1300 1366 1694 
Q 2113 2306 2375 2664 
Q 2638 3022 2638 3341 
Q 2638 3675 2398 3904 
Q 2159 4134 1775 4134 
Q 1369 4134 1125 3890 
Q 881 3647 878 3216 
L 300 3275 
Q 359 3922 746 4261 
Q 1134 4600 1788 4600 
Q 2447 4600 2831 4234 
Q 3216 3869 3216 3328 
Q 3216 3053 3103 2787 
Q 2991 2522 2730 2228 
Q 2469 1934 1863 1422 
Q 1356 997 1212 845 
Q 1069 694 975 541 
L 3222 541 
z
" transform="scale(0.015625)"/>
       </defs>
       <use xlink:href="#ArialMT-32"/>
       <use xlink:href="#ArialMT-2e" transform="translate(55.615234 0)"/>
       <use xlink:href="#ArialMT-30" transform="translate(83.398438 0)"/>
      </g>
     </g>
    </g>
    <g id="ytick_6">
     <g id="line2d_11">
      <g>
       <use xlink:href="#mae22fccc05" x="37.01" y="67.62" style="stroke: #000000; stroke-width: 0.8"/>
      </g>
     </g>
     <g id="text_6">
      <!-- 2.5 -->
      <g transform="translate(21.67 69.767344) scale(0.06 -0.06)">
       <use xlink:href="#ArialMT-32"/>
       <use xlink:href="#ArialMT-2e" transform="translate(55.615234 0)"/>
       <use xlink:href="#ArialMT-35" transform="translate(83.398438 0)"/>
      </g>
     </g>
    </g>
    <g id="ytick_7">
     <g id="line2d_12">
      <g>
       <use xlink:href="#mae22fccc05" x="37.01" y="48.44" style="stroke: #000000; stroke-width: 0.8"/>
      </g>
     </g>
     <g id="text_7">
      <!-- 3.0 -->
      <g transform="translate(21.67 50.587344) scale(0.06 -0.06)">
       <defs>
        <path id="ArialMT-33" d="M 269 1209 
L 831 1284 
Q 928 806 1161 595 
Q 1394 384 1728 384 
Q 2125 384 2398 659 
Q 2672 934 2672 1341 
Q 2672 1728 2419 1979 
Q 2166 2231 1775 2231 
Q 1616 2231 1378 2169 
L 1441 2663 
Q 1497 2656 1531 2656 
Q 1891 2656 2178 2843 
Q 2466 3031 2466 3422 
Q 2466 3731 2256 3934 
Q 2047 4138 1716 4138 
Q 1388 4138 1169 3931 
Q 950 3725 888 3313 
L 325 3413 
Q 428 3978 793 4289 
Q 1159 4600 1703 4600 
Q 2078 4600 2393 4439 
Q 2709 4278 2876 4000 
Q 3044 3722 3044 3409 
Q 3044 3113 2884 2869 
Q 2725 2625 2413 2481 
Q 2819 2388 3044 2092 
Q 3269 1797 3269 1353 
Q 3269 753 2831 336 
Q 2394 -81 1725 -81 
Q 1122 -81 723 278 
Q 325 638 269 1209 
z
" transform="scale(0.015625)"/>
       </defs>
       <use xlink:href="#ArialMT-33"/>
       <use xlink:href="#ArialMT-2e" transform="translate(55.615234 0)"/>
       <use xlink:href="#ArialMT-30" transform="translate(83.398438 0)"/>
      </g>
     </g>
    </g>
    <g id="ytick_8">
     <g id="line2d_13">
      <g>
       <use xlink:href="#mae22fccc05" x="37.01" y="29.26" style="stroke: #000000; stroke-width: 0.8"/>
      </g>
     </g>
     <g id="text_8">
      <!-- 3.5 -->
      <g transform="translate(21.67 31.407344) scale(0.06 -0.06)">
       <use xlink:href="#ArialMT-33"/>
       <use xlink:href="#ArialMT-2e" transform="translate(55.615234 0)"/>
       <use xlink:href="#ArialMT-35" transform="translate(83.398438 0)"/>
      </g>
     </g>
    </g>
    <g id="ytick_9">
     <g id="line2d_14">
      <g>
       <use xlink:href="#mae22fccc05" x="37.01" y="10.08" style="stroke: #000000; stroke-width: 0.8"/>
      </g>
     </g>
     <g id="text_9">
      <!-- 4.0 -->
      <g transform="translate(21.67 12.227344) scale(0.06 -0.06)">
       <defs>
        <path id="ArialMT-34" d="M 2069 0 
L 2069 1097 
L 81 1097 
L 81 1613 
L 2172 4581 
L 2631 4581 
L 2631 1613 
L 3250 1613 
L 3250 1097 
L 2631 1097 
L 2631 0 
L 2069 0 
z
M 2069 1613 
L 2069 3678 
L 634 1613 
L 2069 1613 
z
" transform="scale(0.015625)"/>
       </defs>
       <use xlink:href="#ArialMT-34"/>
       <use xlink:href="#ArialMT-2e" transform="translate(55.615234 0)"/>
       <use xlink:href="#ArialMT-30" transform="translate(83.398438 0)"/>
      </g>
     </g>
    </g>
    <g id="text_10">
     <!-- Spacing d/$\lambda_0$ -->
     <g transform="translate(16.13 107.1) rotate(-90) scale(0.07 -0.07)">
      <defs>
       <path id="ArialMT-53" d="M 288 1472 
L 859 1522 
Q 900 1178 1048 958 
Q 1197 738 1509 602 
Q 1822 466 2213 466 
Q 2559 466 2825 569 
Q 3091 672 3220 851 
Q 3350 1031 3350 1244 
Q 3350 1459 3225 1620 
Q 3100 1781 2813 1891 
Q 2628 1963 1997 2114 
Q 1366 2266 1113 2400 
Q 784 2572 623 2826 
Q 463 3081 463 3397 
Q 463 3744 659 4045 
Q 856 4347 1234 4503 
Q 1613 4659 2075 4659 
Q 2584 4659 2973 4495 
Q 3363 4331 3572 4012 
Q 3781 3694 3797 3291 
L 3216 3247 
Q 3169 3681 2898 3903 
Q 2628 4125 2100 4125 
Q 1550 4125 1298 3923 
Q 1047 3722 1047 3438 
Q 1047 3191 1225 3031 
Q 1400 2872 2139 2705 
Q 2878 2538 3153 2413 
Q 3553 2228 3743 1945 
Q 3934 1663 3934 1294 
Q 3934 928 3725 604 
Q 3516 281 3123 101 
Q 2731 -78 2241 -78 
Q 1619 -78 1198 103 
Q 778 284 539 648 
Q 300 1013 288 1472 
z
" transform="scale(0.015625)"/>
       <path id="ArialMT-70" d="M 422 -1272 
L 422 3319 
L 934 3319 
L 934 2888 
Q 1116 3141 1344 3267 
Q 1572 3394 1897 3394 
Q 2322 3394 2647 3175 
Q 2972 2956 3137 2557 
Q 3303 2159 3303 1684 
Q 3303 1175 3120 767 
Q 2938 359 2589 142 
Q 2241 -75 1856 -75 
Q 1575 -75 1351 44 
Q 1128 163 984 344 
L 984 -1272 
L 422 -1272 
z
M 931 1641 
Q 931 1000 1190 694 
Q 1450 388 1819 388 
Q 2194 388 2461 705 
Q 2728 1022 2728 1688 
Q 2728 2322 2467 2637 
Q 2206 2953 1844 2953 
Q 1484 2953 1207 2617 
Q 931 2281 931 1641 
z
" transform="scale(0.015625)"/>
       <path id="ArialMT-61" d="M 2588 409 
Q 2275 144 1986 34 
Q 1697 -75 1366 -75 
Q 819 -75 525 192 
Q 231 459 231 875 
Q 231 1119 342 1320 
Q 453 1522 633 1644 
Q 813 1766 1038 1828 
Q 1203 1872 1538 1913 
Q 2219 1994 2541 2106 
Q 2544 2222 2544 2253 
Q 2544 2597 2384 2738 
Q 2169 2928 1744 2928 
Q 1347 2928 1158 2789 
Q 969 2650 878 2297 
L 328 2372 
Q 403 2725 575 2942 
Q 747 3159 1072 3276 
Q 1397 3394 1825 3394 
Q 2250 3394 2515 3294 
Q 2781 3194 2906 3042 
Q 3031 2891 3081 2659 
Q 3109 2516 3109 2141 
L 3109 1391 
Q 3109 606 3145 398 
Q 3181 191 3288 0 
L 2700 0 
Q 2613 175 2588 409 
z
M 2541 1666 
Q 2234 1541 1622 1453 
Q 1275 1403 1131 1340 
Q 988 1278 909 1158 
Q 831 1038 831 891 
Q 831 666 1001 516 
Q 1172 366 1500 366 
Q 1825 366 2078 508 
Q 2331 650 2450 897 
Q 2541 1088 2541 1459 
L 2541 1666 
z
" transform="scale(0.015625)"/>
       <path id="ArialMT-63" d="M 2588 1216 
L 3141 1144 
Q 3050 572 2676 248 
Q 2303 -75 1759 -75 
Q 1078 -75 664 370 
Q 250 816 250 1647 
Q 250 2184 428 2587 
Q 606 2991 970 3192 
Q 1334 3394 1763 3394 
Q 2303 3394 2647 3120 
Q 2991 2847 3088 2344 
L 2541 2259 
Q 2463 2594 2264 2762 
Q 2066 2931 1784 2931 
Q 1359 2931 1093 2626 
Q 828 2322 828 1663 
Q 828 994 1084 691 
Q 1341 388 1753 388 
Q 2084 388 2306 591 
Q 2528 794 2588 1216 
z
" transform="scale(0.015625)"/>
       <path id="ArialMT-69" d="M 425 3934 
L 425 4581 
L 988 4581 
L 988 3934 
L 425 3934 
z
M 425 0 
L 425 3319 
L 988 3319 
L 988 0 
L 425 0 
z
" transform="scale(0.015625)"/>
       <path id="ArialMT-6e" d="M 422 0 
L 422 3319 
L 928 3319 
L 928 2847 
Q 1294 3394 1984 3394 
Q 2284 3394 2536 3286 
Q 2788 3178 2913 3003 
Q 3038 2828 3088 2588 
Q 3119 2431 3119 2041 
L 3119 0 
L 2556 0 
L 2556 2019 
Q 2556 2363 2490 2533 
Q 2425 2703 2258 2804 
Q 2091 2906 1866 2906 
Q 1506 2906 1245 2678 
Q 984 2450 984 1813 
L 984 0 
L 422 0 
z
" transform="scale(0.015625)"/>
       <path id="ArialMT-67" d="M 319 -275 
L 866 -356 
Q 900 -609 1056 -725 
Q 1266 -881 1628 -881 
Q 2019 -881 2231 -725 
Q 2444 -569 2519 -288 
Q 2563 -116 2559 434 
Q 2191 0 1641 0 
Q 956 0 581 494 
Q 206 988 206 1678 
Q 206 2153 378 2554 
Q 550 2956 876 3175 
Q 1203 3394 1644 3394 
Q 2231 3394 2613 2919 
L 2613 3319 
L 3131 3319 
L 3131 450 
Q 3131 -325 2973 -648 
Q 2816 -972 2473 -1159 
Q 2131 -1347 1631 -1347 
Q 1038 -1347 672 -1080 
Q 306 -813 319 -275 
z
M 784 1719 
Q 784 1066 1043 766 
Q 1303 466 1694 466 
Q 2081 466 2343 764 
Q 2606 1063 2606 1700 
Q 2606 2309 2336 2618 
Q 2066 2928 1684 2928 
Q 1309 2928 1046 2623 
Q 784 2319 784 1719 
z
" transform="scale(0.015625)"/>
       <path id="ArialMT-20" transform="scale(0.015625)"/>
       <path id="ArialMT-64" d="M 2575 0 
L 2575 419 
Q 2259 -75 1647 -75 
Q 1250 -75 917 144 
Q 584 363 401 755 
Q 219 1147 219 1656 
Q 219 2153 384 2558 
Q 550 2963 881 3178 
Q 1213 3394 1622 3394 
Q 1922 3394 2156 3267 
Q 2391 3141 2538 2938 
L 2538 4581 
L 3097 4581 
L 3097 0 
L 2575 0 
z
M 797 1656 
Q 797 1019 1065 703 
Q 1334 388 1700 388 
Q 2069 388 2326 689 
Q 2584 991 2584 1609 
Q 2584 2291 2321 2609 
Q 2059 2928 1675 2928 
Q 1300 2928 1048 2622 
Q 797 2316 797 1656 
z
" transform="scale(0.015625)"/>
       <path id="ArialMT-2f" d="M 0 -78 
L 1328 4659 
L 1778 4659 
L 453 -78 
L 0 -78 
z
" transform="scale(0.015625)"/>
       <path id="DejaVuSans-Oblique-3bb" d="M 2350 4316 
L 3125 0 
L 2516 0 
L 2038 2588 
L 328 0 
L -281 0 
L 1903 3356 
L 1794 3975 
Q 1725 4369 1391 4369 
L 1091 4369 
L 1184 4863 
L 1550 4856 
Q 2253 4847 2350 4316 
z
" transform="scale(0.015625)"/>
       <path id="DejaVuSans-30" d="M 2034 4250 
Q 1547 4250 1301 3770 
Q 1056 3291 1056 2328 
Q 1056 1369 1301 889 
Q 1547 409 2034 409 
Q 2525 409 2770 889 
Q 3016 1369 3016 2328 
Q 3016 3291 2770 3770 
Q 2525 4250 2034 4250 
z
M 2034 4750 
Q 2819 4750 3233 4129 
Q 3647 3509 3647 2328 
Q 3647 1150 3233 529 
Q 2819 -91 2034 -91 
Q 1250 -91 836 529 
Q 422 1150 422 2328 
Q 422 3509 836 4129 
Q 1250 4750 2034 4750 
z
" transform="scale(0.015625)"/>
      </defs>
      <use xlink:href="#ArialMT-53" transform="translate(0 0.015625)"/>
      <use xlink:href="#ArialMT-70" transform="translate(66.699219 0.015625)"/>
      <use xlink:href="#ArialMT-61" transform="translate(122.314453 0.015625)"/>
      <use xlink:href="#ArialMT-63" transform="translate(177.929688 0.015625)"/>
      <use xlink:href="#ArialMT-69" transform="translate(227.929688 0.015625)"/>
      <use xlink:href="#ArialMT-6e" transform="translate(250.146484 0.015625)"/>
      <use xlink:href="#ArialMT-67" transform="translate(305.761719 0.015625)"/>
      <use xlink:href="#ArialMT-20" transform="translate(361.376953 0.015625)"/>
      <use xlink:href="#ArialMT-64" transform="translate(389.160156 0.015625)"/>
      <use xlink:href="#ArialMT-2f" transform="translate(444.775391 0.015625)"/>
      <use xlink:href="#DejaVuSans-Oblique-3bb" transform="translate(472.558594 0.015625)"/>
      <use xlink:href="#DejaVuSans-30" transform="translate(531.738281 -16.390625) scale(0.7)"/>
     </g>
    </g>
   </g>
   <g id="line2d_15">
    <path d="M 37.01 84.948445 
L 37.930701 85.683338 
L 38.851403 85.781502 
L 39.772104 85.451818 
L 40.692806 85.244149 
L 41.613507 85.62421 
L 43.45491 87.021529 
L 44.375611 87.406607 
L 45.296313 87.480917 
L 47.137715 86.982909 
L 48.058417 86.838013 
L 49.89982 86.049192 
L 50.820521 85.694114 
L 51.741222 84.962938 
L 53.582625 83.201035 
L 54.503327 82.441457 
L 57.265431 80.566127 
L 58.186132 79.843511 
L 59.106834 79.516543 
L 62.789639 80.542276 
L 63.710341 80.960469 
L 64.631042 81.144893 
L 65.551743 81.837999 
L 67.393146 84.509494 
L 69.234549 86.668343 
L 70.155251 88.05256 
L 71.075952 88.933927 
L 71.996653 89.073035 
L 72.917355 88.729388 
L 73.838056 88.093001 
L 74.758758 88.019634 
L 76.60016 88.499835 
L 78.441563 89.439274 
L 79.362265 89.419305 
L 80.282966 89.117689 
L 81.203667 89.022131 
L 82.124369 89.729973 
L 83.965772 92.301354 
L 84.886473 93.250313 
L 85.807174 93.549295 
L 86.727876 93.249516 
L 87.648577 92.525483 
L 89.48998 90.452709 
L 90.410681 90.023583 
L 92.252084 90.019974 
L 95.014188 90.163276 
L 95.93489 89.956214 
L 97.776293 90.627448 
L 98.696994 90.434622 
L 100.538397 89.837043 
L 101.459098 89.22076 
L 102.3798 88.768266 
L 103.300501 88.47869 
L 104.221202 88.043655 
L 105.141904 87.9836 
L 107.904008 88.197717 
L 108.824709 88.128053 
L 109.745411 88.423876 
L 111.586814 90.268065 
L 112.507515 90.910992 
L 113.428216 91.725733 
L 114.348918 93.206729 
L 115.269619 95.03912 
L 116.190321 96.178566 
L 117.111022 96.55144 
L 118.031723 96.424862 
L 118.952425 96.687924 
L 120.793828 97.908704 
L 121.714529 98.90231 
L 122.63523 99.664994 
L 123.555932 99.748845 
L 124.476633 99.453508 
L 127.238737 97.902073 
L 128.159439 97.303834 
L 129.08014 96.467246 
L 130.921543 94.557898 
L 131.842244 93.690673 
L 132.762946 92.611565 
L 133.683647 91.25935 
L 135.52505 87.940528 
L 136.445752 86.104812 
L 137.366453 84.703185 
L 139.207856 83.324462 
L 142.890661 79.7929 
L 143.811363 79.418172 
L 145.652766 79.497383 
L 147.494168 80.647448 
L 148.41487 81.583736 
L 149.335571 82.952114 
L 150.256273 83.818183 
L 151.176974 84.238965 
L 155.780481 84.581904 
L 156.701182 84.720024 
L 157.621884 84.596727 
L 158.542585 84.589714 
L 159.463287 84.81573 
L 160.383988 85.19075 
L 162.225391 87.87526 
L 163.146092 88.775115 
L 164.066794 89.289474 
L 164.987495 89.254101 
L 165.908196 89.436827 
L 166.828898 90.116038 
L 167.749599 90.424343 
L 168.670301 90.276007 
L 169.591002 89.923148 
L 170.511703 89.236926 
L 173.273808 86.823981 
L 174.194509 86.61232 
L 175.11521 87.153999 
L 176.035912 88.164202 
L 176.956613 88.974204 
L 177.877315 89.33025 
L 178.798016 89.157638 
L 180.639419 88.010547 
L 181.56012 87.212116 
L 182.480822 86.60253 
L 184.322224 86.919346 
L 185.242926 86.712418 
L 186.163627 86.366041 
L 188.925731 85.742901 
L 189.846433 86.6823 
L 190.767134 87.793831 
L 191.687836 88.24718 
L 193.529238 88.802975 
L 195.370641 89.284767 
L 196.291343 89.27851 
L 199.053447 90.137842 
L 199.974148 90.121793 
L 200.89485 89.784891 
L 202.736253 89.575177 
L 203.656954 89.501375 
L 204.577655 89.254389 
L 205.498357 88.714797 
L 206.419058 88.545322 
L 207.33976 89.622257 
L 208.260461 91.112692 
L 209.181162 91.923503 
L 210.101864 92.282522 
L 211.022565 92.177424 
L 211.943267 92.396232 
L 212.863968 93.362645 
L 213.784669 94.763747 
L 214.705371 96.725614 
L 215.626072 98.354787 
L 216.546774 99.045695 
L 217.467475 99.087588 
L 218.388176 98.789616 
L 219.308878 98.65237 
L 221.150281 99.05821 
L 222.070982 99.382364 
L 222.991683 99.856719 
L 223.912385 100.169809 
L 224.833086 100.164569 
L 225.753788 99.817246 
L 229.436593 96.910829 
L 230.357295 95.821106 
L 231.277996 94.544621 
L 232.198697 93.529904 
L 234.0401 92.031091 
L 234.960802 91.499386 
L 235.881503 90.68542 
L 236.802204 89.714532 
L 237.722906 88.570297 
L 238.643607 87.71061 
L 242.326413 85.15344 
L 243.247114 84.986994 
L 245.088517 85.344286 
L 246.009218 85.544035 
L 247.850621 85.72324 
L 249.692024 86.039529 
L 250.612725 86.397537 
L 251.533427 86.552675 
L 255.216232 85.53211 
L 256.136934 85.563281 
L 257.978337 86.08995 
L 258.899038 86.921894 
L 259.819739 88.010617 
L 260.740441 88.416366 
L 261.661142 88.201154 
L 262.581844 87.534448 
L 264.423246 85.668771 
L 265.343948 85.110726 
L 266.264649 85.344449 
L 267.185351 86.789584 
L 268.106052 88.65025 
L 269.026754 90.131652 
L 269.947455 90.965711 
L 270.868156 91.209423 
L 271.788858 91.221087 
L 272.709559 90.998213 
L 274.550962 90.081253 
L 275.471663 90.408586 
L 278.233768 92.633038 
L 280.07517 93.052915 
L 280.995872 93.142816 
L 281.916573 92.742502 
L 282.837275 92.157928 
L 283.757976 91.97401 
L 285.599379 91.967116 
L 289.282184 92.162272 
L 291.123587 92.468768 
L 292.044289 92.666857 
L 292.96499 92.67172 
L 293.885691 93.262988 
L 294.806393 94.109109 
L 295.727094 94.67519 
L 296.647796 95.504995 
L 297.568497 96.566748 
L 298.489198 98.098087 
L 299.4099 99.299024 
L 301.251303 100.18627 
L 302.172004 100.425022 
L 303.092705 100.987082 
L 304.013407 101.718022 
L 304.934108 102.292963 
L 305.85481 102.487787 
L 306.775511 102.163122 
L 307.696212 101.562031 
L 309.537615 99.882502 
L 311.379018 98.216949 
L 312.299719 97.407013 
L 315.982525 93.302299 
L 316.903226 92.147691 
L 317.823928 90.735696 
L 319.665331 87.327794 
L 320.586032 85.456672 
L 321.506733 84.013317 
L 324.268838 81.617171 
L 325.189539 80.58409 
L 327.030942 78.909937 
L 327.951643 78.507461 
L 329.793046 78.503726 
L 331.634449 79.592017 
L 332.55515 80.490719 
L 335.317255 86.268006 
L 336.237956 87.56167 
L 337.158657 88.566116 
L 339.00006 89.658614 
L 340.841463 90.187881 
L 341.762164 90.462466 
L 342.682866 90.28369 
L 343.603567 89.861434 
L 344.524269 89.149571 
L 346.365671 88.156073 
L 347.286373 87.762764 
L 348.207074 87.686082 
L 350.048477 88.096143 
L 350.969178 88.905237 
L 354.651984 93.129913 
L 355.572685 93.294078 
L 356.493387 93.243338 
L 357.414088 93.632644 
L 358.33479 94.730424 
L 360.176192 97.533543 
L 361.096894 98.432485 
L 362.017595 98.9522 
L 362.938297 99.022283 
L 363.858998 98.614592 
L 364.779699 97.909261 
L 365.700401 97.732478 
L 367.541804 98.484541 
L 368.462505 98.484632 
L 369.383206 98.32756 
L 372.145311 98.28518 
L 373.066012 97.948826 
L 373.986713 97.403217 
L 374.907415 96.711956 
L 376.748818 95.823351 
L 377.669519 95.06311 
L 378.59022 94.085027 
L 379.510922 93.270254 
L 380.431623 92.893973 
L 382.273026 93.601128 
L 384.114429 94.030782 
L 385.955832 94.013119 
L 386.876533 93.839901 
L 387.797234 93.428012 
L 388.717936 92.856109 
L 389.638637 92.085666 
L 390.559339 91.850005 
L 391.48004 91.790484 
L 393.321443 91.090501 
L 394.242144 90.595504 
L 395.162846 89.842399 
L 396.083547 89.525385 
L 397.004248 90.08613 
L 397.92495 90.506035 
L 398.845651 90.480121 
L 399.766353 90.226758 
L 400.687054 89.635929 
L 402.528457 88.275067 
L 403.449158 87.83966 
L 404.36986 87.870219 
L 405.290561 88.555664 
L 406.211263 89.43961 
L 407.131964 89.987015 
L 408.052665 90.107228 
L 408.973367 89.739595 
L 409.894068 88.949208 
L 410.81477 87.824294 
L 413.576874 83.742883 
L 415.418277 82.622848 
L 419.101082 79.336566 
L 420.021784 78.984648 
L 421.863186 79.069521 
L 423.704589 80.214646 
L 424.625291 81.141244 
L 425.545992 82.490564 
L 426.466693 83.341238 
L 427.387395 83.747506 
L 429.228798 83.876217 
L 430.149499 84.006719 
L 431.990902 84.098235 
L 432.911603 84.236631 
L 433.832305 84.122213 
L 434.753006 84.12775 
L 435.673707 84.365759 
L 436.594409 84.744318 
L 438.435812 87.446745 
L 439.356513 88.352329 
L 441.197916 89.862731 
L 443.039319 92.393041 
L 443.96002 93.148533 
L 444.880721 93.335099 
L 445.801423 93.212763 
L 446.722124 92.674635 
L 448.563527 91.274532 
L 449.484228 91.037382 
L 450.40493 91.960277 
L 452.246333 95.461438 
L 453.167034 96.85895 
L 454.087735 97.610538 
L 455.008437 97.800621 
L 455.929138 97.527123 
L 457.770541 95.976621 
L 458.691242 95.994788 
L 461.453347 98.088276 
L 462.374048 98.415584 
L 463.294749 98.352085 
L 465.136152 97.807357 
L 466.977555 96.880647 
L 467.898257 96.727095 
L 471.581062 98.01759 
L 474.343166 97.924897 
L 477.105271 97.167181 
L 478.946673 96.005626 
L 480.788076 94.512459 
L 481.708778 93.568613 
L 482.629479 93.250043 
L 483.55018 93.156408 
L 486.312285 91.968832 
L 487.232986 91.253758 
L 488.153687 90.9991 
L 489.074389 91.628531 
L 489.99509 92.086896 
L 490.915792 92.065062 
L 491.836493 91.781871 
L 493.677896 90.42113 
L 494.598597 89.769008 
L 495.519299 89.294236 
L 496.44 89.248289 
L 496.44 89.248289 
" clip-path="url(#p7962749a40)" style="fill: none; stroke: #1f77b4; stroke-width: 1.5; stroke-linecap: square"/>
   </g>
   <g id="line2d_16">
    <path d="M 37.01 84.214377 
L 40.692806 83.889882 
L 42.534208 83.106079 
L 43.45491 83.189189 
L 44.375611 83.570381 
L 45.296313 84.120997 
L 46.217014 84.80593 
L 47.137715 84.965155 
L 48.058417 84.804072 
L 50.820521 86.520468 
L 51.741222 87.491635 
L 52.661924 88.196671 
L 53.582625 89.13835 
L 58.186132 97.506401 
L 59.106834 98.405322 
L 60.027535 98.111208 
L 62.789639 96.710671 
L 64.631042 94.700485 
L 66.472445 91.874918 
L 68.313848 89.778435 
L 69.234549 88.361544 
L 70.155251 86.387625 
L 71.075952 84.718145 
L 71.996653 83.86012 
L 72.917355 83.740747 
L 74.758758 85.009081 
L 76.60016 86.956825 
L 77.520862 87.120587 
L 81.203667 85.358408 
L 82.124369 84.649557 
L 83.04507 84.309214 
L 85.807174 85.179687 
L 86.727876 85.519936 
L 87.648577 86.651765 
L 88.569279 89.398908 
L 89.48998 92.86562 
L 90.410681 95.524061 
L 91.331383 97.509822 
L 92.252084 98.860802 
L 93.172786 99.41135 
L 94.093487 99.570356 
L 95.014188 99.535361 
L 95.93489 100.094074 
L 96.855591 100.259348 
L 97.776293 99.932689 
L 99.617695 100.641475 
L 100.538397 100.659806 
L 102.3798 101.7111 
L 103.300501 101.8416 
L 104.221202 102.25224 
L 105.141904 102.21768 
L 106.062605 101.718905 
L 106.983307 100.99703 
L 108.824709 98.928751 
L 109.745411 97.307576 
L 113.428216 87.416332 
L 114.348918 84.025886 
L 115.269619 80.156792 
L 116.190321 76.934969 
L 117.111022 74.43512 
L 118.031723 72.323728 
L 119.873126 67.319767 
L 123.555932 59.868147 
L 124.476633 58.602754 
L 125.397335 57.5891 
L 126.318036 57.534436 
L 127.238737 59.354588 
L 130.000842 68.553878 
L 131.842244 71.967005 
L 132.762946 74.685753 
L 133.683647 78.438493 
L 134.604349 82.757371 
L 135.52505 86.459097 
L 136.445752 89.219114 
L 137.366453 91.480139 
L 139.207856 95.084075 
L 140.128557 97.2802 
L 141.049259 100.093597 
L 142.890661 106.097771 
L 143.811363 108.020029 
L 144.732064 109.377132 
L 145.652766 110.082964 
L 146.573467 109.940931 
L 147.494168 110.131001 
L 148.41487 109.79481 
L 149.335571 108.986537 
L 152.097675 107.961763 
L 153.939078 106.759332 
L 154.85978 106.138249 
L 156.701182 104.681345 
L 158.542585 103.775858 
L 160.383988 102.325684 
L 161.304689 100.904917 
L 162.225391 99.088994 
L 164.066794 96.178238 
L 164.987495 95.153991 
L 165.908196 93.628528 
L 166.828898 91.524663 
L 167.749599 89.775251 
L 168.670301 88.466537 
L 169.591002 87.602448 
L 170.511703 87.619235 
L 171.432405 88.627423 
L 172.353106 90.728544 
L 173.273808 93.744019 
L 174.194509 96.328825 
L 175.11521 97.429514 
L 176.035912 97.192924 
L 177.877315 95.575319 
L 178.798016 95.086939 
L 180.639419 95.104393 
L 181.56012 95.346352 
L 182.480822 95.827711 
L 183.401523 95.789271 
L 186.163627 95.089215 
L 187.084329 94.449768 
L 188.925731 93.357242 
L 189.846433 92.117911 
L 190.767134 91.189372 
L 192.608537 90.090795 
L 197.212044 87.774731 
L 198.132745 86.978083 
L 199.053447 86.469759 
L 199.974148 86.378061 
L 200.89485 86.675787 
L 201.815551 86.451332 
L 202.736253 86.76043 
L 203.656954 87.365237 
L 204.577655 87.78541 
L 205.498357 88.453205 
L 206.419058 88.492695 
L 207.33976 87.14991 
L 208.260461 85.408967 
L 210.101864 82.862281 
L 211.022565 81.957082 
L 211.943267 80.580908 
L 212.863968 78.243597 
L 215.626072 70.249857 
L 216.546774 68.698177 
L 217.467475 68.005459 
L 218.388176 68.061462 
L 220.229579 68.542001 
L 221.150281 68.306066 
L 222.070982 67.569101 
L 222.991683 66.672996 
L 223.912385 66.874536 
L 224.833086 68.563709 
L 226.674489 73.438911 
L 227.59519 74.875379 
L 228.515892 75.506791 
L 229.436593 76.298957 
L 230.357295 78.842277 
L 231.277996 82.40223 
L 232.198697 85.029906 
L 234.0401 88.647927 
L 234.960802 90.253189 
L 235.881503 91.524977 
L 236.802204 93.237495 
L 240.48501 101.967702 
L 242.326413 106.026291 
L 243.247114 107.099422 
L 244.167816 107.348474 
L 245.088517 107.118053 
L 246.92992 106.345488 
L 247.850621 105.672547 
L 249.692024 104.862379 
L 252.454128 101.901923 
L 253.37483 101.558619 
L 255.216232 101.199768 
L 257.057635 101.948056 
L 257.978337 101.913267 
L 259.819739 99.980914 
L 260.740441 99.885411 
L 261.661142 100.443571 
L 262.581844 101.621275 
L 264.423246 105.498705 
L 265.343948 106.670043 
L 266.264649 106.421606 
L 267.185351 104.492867 
L 269.026754 99.482443 
L 269.947455 97.526313 
L 272.709559 92.760586 
L 273.630261 91.681315 
L 274.550962 90.823507 
L 275.471663 89.175158 
L 278.233768 82.721496 
L 279.154469 81.178068 
L 280.995872 78.749264 
L 281.916573 78.082397 
L 282.837275 77.946313 
L 283.757976 77.606788 
L 284.678677 77.816898 
L 288.361483 80.175579 
L 289.282184 80.36911 
L 291.123587 80.40167 
L 292.044289 80.65869 
L 292.96499 81.110832 
L 294.806393 80.34512 
L 295.727094 80.283443 
L 296.647796 79.843442 
L 297.568497 78.80185 
L 299.4099 74.882055 
L 301.251303 71.912731 
L 302.172004 70.593825 
L 304.013407 67.231259 
L 304.934108 65.947969 
L 305.85481 65.223432 
L 306.775511 65.138491 
L 307.696212 65.689002 
L 308.616914 67.622191 
L 311.379018 78.30328 
L 312.299719 80.303321 
L 313.220421 81.882843 
L 314.141122 84.254806 
L 315.982525 91.517394 
L 317.823928 98.62248 
L 318.744629 101.348549 
L 319.665331 103.617622 
L 320.586032 106.973629 
L 322.427435 114.645095 
L 323.348136 117.93328 
L 324.268838 120.552618 
L 325.189539 122.300869 
L 326.11024 123.268834 
L 327.030942 123.857332 
L 327.951643 123.65424 
L 330.713747 121.638787 
L 331.634449 120.706052 
L 332.55515 119.006373 
L 337.158657 103.575121 
L 340.841463 93.513552 
L 341.762164 91.164217 
L 342.682866 89.898638 
L 343.603567 89.407741 
L 344.524269 89.14308 
L 345.44497 88.649692 
L 346.365671 88.754566 
L 347.286373 89.700443 
L 348.207074 90.067977 
L 349.127776 89.750208 
L 350.048477 89.263551 
L 350.969178 88.224268 
L 351.88988 86.864752 
L 352.810581 85.710738 
L 354.651984 82.737563 
L 356.493387 80.337339 
L 357.414088 78.439145 
L 358.33479 75.68545 
L 360.176192 69.822818 
L 361.096894 68.230875 
L 362.017595 67.700525 
L 362.938297 67.875844 
L 364.779699 69.001235 
L 365.700401 70.081433 
L 366.621102 71.96712 
L 368.462505 77.259944 
L 370.303908 82.635008 
L 371.224609 84.625768 
L 372.145311 86.218275 
L 373.066012 87.466907 
L 374.907415 91.295778 
L 375.828116 92.567822 
L 376.748818 94.034734 
L 378.59022 97.710671 
L 379.510922 100.123844 
L 380.431623 101.917113 
L 382.273026 103.222833 
L 383.193727 103.616286 
L 385.03513 104.087752 
L 385.955832 103.83468 
L 387.797234 102.954279 
L 388.717936 103.008857 
L 390.559339 104.556607 
L 391.48004 104.783758 
L 392.400741 104.870179 
L 396.083547 104.711749 
L 398.845651 102.426537 
L 402.528457 98.966377 
L 404.36986 96.480375 
L 405.290561 95.480815 
L 406.211263 94.785191 
L 407.131964 94.572617 
L 408.052665 94.895165 
L 408.973367 95.785837 
L 411.735471 99.240674 
L 412.656172 101.495518 
L 416.338978 113.066019 
L 417.259679 115.32002 
L 418.180381 116.857664 
L 419.101082 118.019977 
L 420.021784 118.370855 
L 420.942485 118.016699 
L 421.863186 117.221625 
L 423.704589 114.693984 
L 424.625291 112.926409 
L 425.545992 110.538672 
L 427.387395 106.610365 
L 431.990902 97.974648 
L 432.911603 96.089392 
L 434.753006 92.836684 
L 436.594409 88.856221 
L 438.435812 83.317798 
L 440.277214 79.167775 
L 441.197916 77.091333 
L 442.118617 74.517621 
L 443.039319 71.611302 
L 443.96002 69.281692 
L 444.880721 67.850591 
L 445.801423 67.263475 
L 447.642826 67.320604 
L 448.563527 67.016827 
L 450.40493 65.502092 
L 451.325631 65.117777 
L 452.246333 65.339186 
L 453.167034 65.801492 
L 455.929138 67.633741 
L 456.84984 68.199858 
L 458.691242 71.498358 
L 460.532645 73.840604 
L 461.453347 75.114198 
L 463.294749 78.166796 
L 465.136152 80.347876 
L 466.056854 82.011285 
L 467.898257 86.312013 
L 468.818958 87.398632 
L 473.422465 90.189906 
L 474.343166 90.484561 
L 475.263868 90.993067 
L 476.184569 92.02682 
L 477.105271 94.155338 
L 478.025972 96.669965 
L 479.867375 102.43363 
L 482.629479 107.918993 
L 484.470882 109.642725 
L 486.312285 111.445586 
L 487.232986 112.179067 
L 488.153687 112.051977 
L 490.915792 108.06626 
L 491.836493 107.019694 
L 492.757194 106.173393 
L 494.598597 104.935318 
L 495.519299 104.692369 
L 496.44 105.169808 
L 496.44 105.169808 
" clip-path="url(#p7962749a40)" style="fill: none; stroke: #ff7f0e; stroke-width: 1.5; stroke-linecap: square"/>
   </g>
   <g id="line2d_17">
    <path d="M 37.01 84.211338 
L 38.851403 84.525872 
L 41.613507 84.935451 
L 42.534208 85.001536 
L 43.45491 84.929033 
L 44.375611 84.570775 
L 46.217014 82.89098 
L 47.137715 82.795125 
L 48.979118 84.364887 
L 51.741222 87.25512 
L 52.661924 87.833878 
L 53.582625 87.883614 
L 54.503327 86.986982 
L 55.424028 85.613603 
L 57.265431 81.866643 
L 59.106834 79.590187 
L 60.027535 79.260343 
L 60.948236 79.506697 
L 61.868938 80.082869 
L 62.789639 81.26053 
L 63.710341 83.14793 
L 64.631042 85.771188 
L 65.551743 89.052119 
L 66.472445 91.149466 
L 67.393146 92.509978 
L 68.313848 94.10081 
L 69.234549 95.315099 
L 71.075952 97.230551 
L 71.996653 98.91653 
L 72.917355 100.286203 
L 73.838056 101.015135 
L 74.758758 101.425666 
L 75.679459 101.03882 
L 77.520862 98.908067 
L 78.441563 98.192181 
L 79.362265 97.710757 
L 81.203667 97.226145 
L 82.124369 97.069844 
L 83.04507 96.120793 
L 83.965772 94.476072 
L 84.886473 93.126855 
L 85.807174 92.296369 
L 86.727876 91.817981 
L 87.648577 90.663502 
L 88.569279 87.884263 
L 91.331383 76.799047 
L 92.252084 73.570175 
L 93.172786 71.041182 
L 94.093487 69.179041 
L 95.014188 67.917625 
L 96.855591 64.903901 
L 97.776293 64.203297 
L 99.617695 63.178921 
L 100.538397 63.16471 
L 101.459098 63.543705 
L 102.3798 63.710521 
L 103.300501 64.230561 
L 105.141904 66.123451 
L 106.062605 67.827699 
L 107.904008 73.033097 
L 109.745411 76.603339 
L 110.666112 79.708529 
L 111.586814 84.282173 
L 112.507515 89.420962 
L 113.428216 93.927872 
L 114.348918 97.283265 
L 115.269619 100.16037 
L 116.190321 103.754038 
L 117.111022 108.723326 
L 118.952425 119.787001 
L 119.873126 123.693297 
L 121.714529 129.948716 
L 122.63523 132.367419 
L 123.555932 134.042584 
L 125.397335 136.70794 
L 126.318036 137.099428 
L 128.159439 134.0766 
L 129.08014 133.173103 
L 130.000842 132.913769 
L 130.921543 133.036334 
L 131.842244 132.491184 
L 132.762946 130.690818 
L 135.52505 122.826574 
L 137.366453 120.281987 
L 138.287154 118.559311 
L 139.207856 116.463072 
L 140.128557 113.976788 
L 141.049259 110.813379 
L 142.890661 103.423067 
L 144.732064 97.184455 
L 145.652766 94.609776 
L 147.494168 90.199002 
L 148.41487 88.638218 
L 149.335571 87.641772 
L 150.256273 86.355844 
L 151.176974 85.510164 
L 152.097675 85.649317 
L 153.018377 87.280068 
L 153.939078 89.995883 
L 154.85978 93.210994 
L 155.780481 97.370554 
L 156.701182 100.797238 
L 157.621884 103.637042 
L 158.542585 105.912005 
L 159.463287 107.601389 
L 160.383988 108.732556 
L 161.304689 109.499947 
L 162.225391 110.663998 
L 164.066794 113.997424 
L 164.987495 116.296271 
L 167.749599 126.077203 
L 168.670301 128.503058 
L 169.591002 130.17616 
L 170.511703 131.401377 
L 171.432405 131.745731 
L 172.353106 130.512214 
L 175.11521 123.042447 
L 176.035912 121.208766 
L 176.956613 119.883652 
L 177.877315 118.847612 
L 180.639419 116.296093 
L 182.480822 115.90725 
L 184.322224 114.830466 
L 187.084329 113.985646 
L 188.00503 113.511837 
L 188.925731 112.76426 
L 190.767134 110.419263 
L 191.687836 109.783071 
L 192.608537 109.956734 
L 194.44994 112.147162 
L 195.370641 113.810627 
L 196.291343 115.817751 
L 197.212044 117.063844 
L 198.132745 117.760717 
L 199.053447 117.849571 
L 200.89485 117.539312 
L 201.815551 117.273349 
L 202.736253 116.097515 
L 204.577655 112.944314 
L 206.419058 109.920277 
L 209.181162 105.680749 
L 210.101864 104.536572 
L 211.022565 103.675653 
L 211.943267 103.496864 
L 212.863968 104.463998 
L 213.784669 105.767181 
L 214.705371 106.452021 
L 215.626072 106.854137 
L 216.546774 107.652309 
L 217.467475 109.14436 
L 219.308878 112.848211 
L 220.229579 114.046647 
L 221.150281 114.782783 
L 222.070982 115.32126 
L 222.991683 115.495484 
L 223.912385 114.411988 
L 224.833086 111.92095 
L 225.753788 108.791466 
L 226.674489 106.066613 
L 227.59519 104.092975 
L 229.436593 100.772113 
L 230.357295 97.438542 
L 231.277996 93.294793 
L 232.198697 89.851414 
L 238.643607 69.076605 
L 241.405711 58.265997 
L 242.326413 54.834449 
L 243.247114 52.440897 
L 244.167816 50.873128 
L 245.088517 50.373856 
L 246.009218 51.437547 
L 246.92992 53.060841 
L 248.771323 57.152595 
L 250.612725 59.431215 
L 251.533427 61.571617 
L 254.295531 72.330529 
L 255.216232 74.520953 
L 256.136934 75.532902 
L 257.057635 76.727693 
L 257.978337 78.397525 
L 258.899038 79.458263 
L 259.819739 79.726009 
L 260.740441 79.633956 
L 261.661142 79.86445 
L 262.581844 80.460158 
L 263.502545 81.275114 
L 265.343948 82.212236 
L 266.264649 82.854213 
L 267.185351 83.317974 
L 268.106052 83.91678 
L 269.026754 85.463867 
L 269.947455 88.723533 
L 271.788858 96.742157 
L 272.709559 99.546601 
L 274.550962 104.085608 
L 275.471663 106.03874 
L 276.392365 108.552216 
L 279.154469 118.062301 
L 280.07517 120.156556 
L 280.995872 121.71029 
L 281.916573 122.634285 
L 282.837275 123.770232 
L 283.757976 125.12067 
L 285.599379 125.146487 
L 286.52008 125.337491 
L 287.440782 124.944317 
L 288.361483 124.300465 
L 289.282184 123.31302 
L 291.123587 120.844088 
L 293.885691 115.124221 
L 297.568497 105.800518 
L 298.489198 104.157605 
L 299.4099 102.93371 
L 301.251303 101.014308 
L 302.172004 100.747677 
L 303.092705 101.839073 
L 304.934108 107.33351 
L 305.85481 109.085605 
L 306.775511 110.582146 
L 307.696212 112.546607 
L 308.616914 114.094042 
L 309.537615 113.657344 
L 310.458317 112.722669 
L 311.379018 112.088354 
L 312.299719 111.705888 
L 313.220421 111.202631 
L 314.141122 109.508032 
L 315.061824 106.216284 
L 316.903226 98.608536 
L 317.823928 95.325232 
L 318.744629 92.828121 
L 319.665331 90.803894 
L 320.586032 87.604149 
L 324.268838 70.247586 
L 325.189539 67.540223 
L 326.11024 65.375403 
L 327.030942 63.783265 
L 327.951643 62.944401 
L 328.872345 62.49185 
L 329.793046 62.681491 
L 330.713747 63.35317 
L 331.634449 64.302319 
L 332.55515 66.347671 
L 334.396553 72.641339 
L 336.237956 77.240544 
L 337.158657 80.923754 
L 339.920762 96.594738 
L 340.841463 100.144327 
L 344.524269 111.86613 
L 345.44497 114.085908 
L 346.365671 115.545644 
L 347.286373 115.780217 
L 348.207074 115.876509 
L 349.127776 116.232668 
L 350.969178 117.358481 
L 351.88988 117.387666 
L 352.810581 116.902336 
L 354.651984 115.384412 
L 356.493387 114.499115 
L 357.414088 114.162994 
L 358.33479 113.979713 
L 359.255491 114.707198 
L 360.176192 116.946995 
L 361.096894 119.621542 
L 362.017595 121.845342 
L 362.938297 123.184166 
L 363.858998 123.77964 
L 364.779699 124.070137 
L 365.700401 122.780266 
L 368.462505 113.998099 
L 371.224609 105.096258 
L 372.145311 102.486568 
L 373.066012 100.29721 
L 377.669519 86.083018 
L 378.59022 83.179743 
L 381.352325 72.471647 
L 382.273026 69.152769 
L 383.193727 66.344834 
L 384.114429 63.981798 
L 385.03513 62.044399 
L 385.955832 60.979886 
L 386.876533 61.446115 
L 387.797234 63.354184 
L 388.717936 66.398416 
L 389.638637 68.733443 
L 391.48004 71.292006 
L 392.400741 72.779715 
L 394.242144 77.577829 
L 395.162846 79.395828 
L 396.083547 80.417503 
L 397.004248 80.839755 
L 397.92495 81.867572 
L 398.845651 83.9736 
L 399.766353 87.247686 
L 402.528457 100.996612 
L 403.449158 103.937598 
L 404.36986 105.97912 
L 405.290561 107.369412 
L 406.211263 108.54351 
L 408.052665 110.419385 
L 409.894068 111.98484 
L 410.81477 112.756231 
L 411.735471 113.267305 
L 412.656172 112.294548 
L 413.576874 109.866046 
L 414.497575 106.740617 
L 416.338978 99.573487 
L 418.180381 94.102878 
L 419.101082 91.93608 
L 420.021784 90.435882 
L 420.942485 89.39378 
L 421.863186 89.468204 
L 422.783888 89.996721 
L 423.704589 91.385685 
L 424.625291 93.926734 
L 425.545992 96.11925 
L 426.466693 97.746031 
L 427.387395 99.899509 
L 428.308096 103.627177 
L 430.149499 113.161267 
L 432.911603 123.667219 
L 433.832305 126.453467 
L 436.594409 136.65139 
L 437.51511 139.550851 
L 438.435812 141.54235 
L 439.356513 142.987955 
L 441.197916 144.985842 
L 442.118617 146.226433 
L 446.722124 154.440421 
L 447.642826 155.371323 
L 448.563527 156.537139 
L 449.484228 158.253914 
L 450.40493 159.334401 
L 451.325631 158.562273 
L 454.087735 152.539518 
L 455.008437 151.023762 
L 455.929138 150.115972 
L 456.84984 149.671052 
L 457.770541 148.494853 
L 458.691242 146.164242 
L 459.611944 143.38133 
L 461.453347 136.732671 
L 463.294749 129.926243 
L 466.056854 122.623778 
L 468.818958 116.420198 
L 470.660361 112.864974 
L 473.422465 106.544691 
L 475.263868 102.428115 
L 476.184569 99.595063 
L 478.025972 91.634992 
L 479.867375 82.671179 
L 484.470882 65.707909 
L 485.391583 62.668966 
L 486.312285 60.20138 
L 487.232986 58.93179 
L 488.153687 58.914164 
L 489.074389 60.116695 
L 489.99509 62.373504 
L 490.915792 66.061725 
L 492.757194 75.846209 
L 493.677896 79.485981 
L 494.598597 81.817427 
L 495.519299 83.597284 
L 496.44 84.932694 
L 496.44 84.932694 
" clip-path="url(#p7962749a40)" style="fill: none; stroke: #2ca02c; stroke-width: 1.5; stroke-linecap: square"/>
   </g>
   <g id="patch_3">
    <path d="M 37.01 163.52 
L 37.01 10.08 
" style="fill: none; stroke: #000000; stroke-width: 0.8; stroke-linejoin: miter; stroke-linecap: square"/>
   </g>
   <g id="patch_4">
    <path d="M 496.44 163.52 
L 496.44 10.08 
" style="fill: none; stroke: #000000; stroke-width: 0.8; stroke-linejoin: miter; stroke-linecap: square"/>
   </g>
   <g id="patch_5">
    <path d="M 37.01 163.52 
L 496.44 163.52 
" style="fill: none; stroke: #000000; stroke-width: 0.8; stroke-linejoin: miter; stroke-linecap: square"/>
   </g>
   <g id="patch_6">
    <path d="M 37.01 10.08 
L 496.44 10.08 
" style="fill: none; stroke: #000000; stroke-width: 0.8; stroke-linejoin: miter; stroke-linecap: square"/>
   </g>
   <g id="legend_1">
    <g id="patch_7">
     <path d="M 445.010781 45.693594 
L 491.54 45.693594 
Q 492.94 45.693594 492.94 44.293594 
L 492.94 14.98 
Q 492.94 13.58 491.54 13.58 
L 445.010781 13.58 
Q 443.610781 13.58 443.610781 14.98 
L 443.610781 44.293594 
Q 443.610781 45.693594 445.010781 45.693594 
z
" style="fill: #ffffff; opacity: 0.8; stroke: #cccccc; stroke-linejoin: miter"/>
    </g>
    <g id="line2d_18">
     <path d="M 446.410781 18.96125 
L 453.410781 18.96125 
L 460.410781 18.96125 
" style="fill: none; stroke: #1f77b4; stroke-width: 1.5; stroke-linecap: square"/>
    </g>
    <g id="text_11">
     <!-- Agent 1 -->
     <g transform="translate(466.010781 21.41125) scale(0.07 -0.07)">
      <defs>
       <path id="ArialMT-41" d="M -9 0 
L 1750 4581 
L 2403 4581 
L 4278 0 
L 3588 0 
L 3053 1388 
L 1138 1388 
L 634 0 
L -9 0 
z
M 1313 1881 
L 2866 1881 
L 2388 3150 
Q 2169 3728 2063 4100 
Q 1975 3659 1816 3225 
L 1313 1881 
z
" transform="scale(0.015625)"/>
       <path id="ArialMT-65" d="M 2694 1069 
L 3275 997 
Q 3138 488 2766 206 
Q 2394 -75 1816 -75 
Q 1088 -75 661 373 
Q 234 822 234 1631 
Q 234 2469 665 2931 
Q 1097 3394 1784 3394 
Q 2450 3394 2872 2941 
Q 3294 2488 3294 1666 
Q 3294 1616 3291 1516 
L 816 1516 
Q 847 969 1125 678 
Q 1403 388 1819 388 
Q 2128 388 2347 550 
Q 2566 713 2694 1069 
z
M 847 1978 
L 2700 1978 
Q 2663 2397 2488 2606 
Q 2219 2931 1791 2931 
Q 1403 2931 1139 2672 
Q 875 2413 847 1978 
z
" transform="scale(0.015625)"/>
       <path id="ArialMT-74" d="M 1650 503 
L 1731 6 
Q 1494 -44 1306 -44 
Q 1000 -44 831 53 
Q 663 150 594 308 
Q 525 466 525 972 
L 525 2881 
L 113 2881 
L 113 3319 
L 525 3319 
L 525 4141 
L 1084 4478 
L 1084 3319 
L 1650 3319 
L 1650 2881 
L 1084 2881 
L 1084 941 
Q 1084 700 1114 631 
Q 1144 563 1211 522 
Q 1278 481 1403 481 
Q 1497 481 1650 503 
z
" transform="scale(0.015625)"/>
      </defs>
      <use xlink:href="#ArialMT-41"/>
      <use xlink:href="#ArialMT-67" transform="translate(66.699219 0)"/>
      <use xlink:href="#ArialMT-65" transform="translate(122.314453 0)"/>
      <use xlink:href="#ArialMT-6e" transform="translate(177.929688 0)"/>
      <use xlink:href="#ArialMT-74" transform="translate(233.544922 0)"/>
      <use xlink:href="#ArialMT-20" transform="translate(261.328125 0)"/>
      <use xlink:href="#ArialMT-31" transform="translate(289.111328 0)"/>
     </g>
    </g>
    <g id="line2d_19">
     <path d="M 446.410781 28.965781 
L 453.410781 28.965781 
L 460.410781 28.965781 
" style="fill: none; stroke: #ff7f0e; stroke-width: 1.5; stroke-linecap: square"/>
    </g>
    <g id="text_12">
     <!-- Agent 2 -->
     <g transform="translate(466.010781 31.415781) scale(0.07 -0.07)">
      <use xlink:href="#ArialMT-41"/>
      <use xlink:href="#ArialMT-67" transform="translate(66.699219 0)"/>
      <use xlink:href="#ArialMT-65" transform="translate(122.314453 0)"/>
      <use xlink:href="#ArialMT-6e" transform="translate(177.929688 0)"/>
      <use xlink:href="#ArialMT-74" transform="translate(233.544922 0)"/>
      <use xlink:href="#ArialMT-20" transform="translate(261.328125 0)"/>
      <use xlink:href="#ArialMT-32" transform="translate(289.111328 0)"/>
     </g>
    </g>
    <g id="line2d_20">
     <path d="M 446.410781 38.970313 
L 453.410781 38.970313 
L 460.410781 38.970313 
" style="fill: none; stroke: #2ca02c; stroke-width: 1.5; stroke-linecap: square"/>
    </g>
    <g id="text_13">
     <!-- Agent 3 -->
     <g transform="translate(466.010781 41.420313) scale(0.07 -0.07)">
      <use xlink:href="#ArialMT-41"/>
      <use xlink:href="#ArialMT-67" transform="translate(66.699219 0)"/>
      <use xlink:href="#ArialMT-65" transform="translate(122.314453 0)"/>
      <use xlink:href="#ArialMT-6e" transform="translate(177.929688 0)"/>
      <use xlink:href="#ArialMT-74" transform="translate(233.544922 0)"/>
      <use xlink:href="#ArialMT-20" transform="translate(261.328125 0)"/>
      <use xlink:href="#ArialMT-33" transform="translate(289.111328 0)"/>
     </g>
    </g>
   </g>
  </g>
  <g id="axes_2">
   <g id="patch_8">
    <path d="M 37.01 328.48 
L 496.44 328.48 
L 496.44 175.04 
L 37.01 175.04 
z
" style="fill: #ffffff"/>
   </g>
   <g id="matplotlib.axis_3">
    <g id="xtick_6">
     <g id="line2d_21">
      <g>
       <use xlink:href="#m1b12c692ea" x="37.01" y="328.48" style="stroke: #000000; stroke-width: 0.8"/>
      </g>
     </g>
     <g id="text_14">
      <!-- 0 -->
      <g transform="translate(35.341719 339.774688) scale(0.06 -0.06)">
       <use xlink:href="#ArialMT-30"/>
      </g>
     </g>
    </g>
    <g id="xtick_7">
     <g id="line2d_22">
      <g>
       <use xlink:href="#m1b12c692ea" x="129.08014" y="328.48" style="stroke: #000000; stroke-width: 0.8"/>
      </g>
     </g>
     <g id="text_15">
      <!-- 100 -->
      <g transform="translate(124.075297 339.774688) scale(0.06 -0.06)">
       <use xlink:href="#ArialMT-31"/>
       <use xlink:href="#ArialMT-30" transform="translate(55.615234 0)"/>
       <use xlink:href="#ArialMT-30" transform="translate(111.230469 0)"/>
      </g>
     </g>
    </g>
    <g id="xtick_8">
     <g id="line2d_23">
      <g>
       <use xlink:href="#m1b12c692ea" x="221.150281" y="328.48" style="stroke: #000000; stroke-width: 0.8"/>
      </g>
     </g>
     <g id="text_16">
      <!-- 200 -->
      <g transform="translate(216.145437 339.774688) scale(0.06 -0.06)">
       <use xlink:href="#ArialMT-32"/>
       <use xlink:href="#ArialMT-30" transform="translate(55.615234 0)"/>
       <use xlink:href="#ArialMT-30" transform="translate(111.230469 0)"/>
      </g>
     </g>
    </g>
    <g id="xtick_9">
     <g id="line2d_24">
      <g>
       <use xlink:href="#m1b12c692ea" x="313.220421" y="328.48" style="stroke: #000000; stroke-width: 0.8"/>
      </g>
     </g>
     <g id="text_17">
      <!-- 300 -->
      <g transform="translate(308.215577 339.774688) scale(0.06 -0.06)">
       <use xlink:href="#ArialMT-33"/>
       <use xlink:href="#ArialMT-30" transform="translate(55.615234 0)"/>
       <use xlink:href="#ArialMT-30" transform="translate(111.230469 0)"/>
      </g>
     </g>
    </g>
    <g id="xtick_10">
     <g id="line2d_25">
      <g>
       <use xlink:href="#m1b12c692ea" x="405.290561" y="328.48" style="stroke: #000000; stroke-width: 0.8"/>
      </g>
     </g>
     <g id="text_18">
      <!-- 400 -->
      <g transform="translate(400.285717 339.774688) scale(0.06 -0.06)">
       <use xlink:href="#ArialMT-34"/>
       <use xlink:href="#ArialMT-30" transform="translate(55.615234 0)"/>
       <use xlink:href="#ArialMT-30" transform="translate(111.230469 0)"/>
      </g>
     </g>
    </g>
    <g id="text_19">
     <!-- Timesteps (0.1 s) -->
     <g transform="translate(239.823672 350.062969) scale(0.07 -0.07)">
      <defs>
       <path id="ArialMT-54" d="M 1659 0 
L 1659 4041 
L 150 4041 
L 150 4581 
L 3781 4581 
L 3781 4041 
L 2266 4041 
L 2266 0 
L 1659 0 
z
" transform="scale(0.015625)"/>
       <path id="ArialMT-6d" d="M 422 0 
L 422 3319 
L 925 3319 
L 925 2853 
Q 1081 3097 1340 3245 
Q 1600 3394 1931 3394 
Q 2300 3394 2536 3241 
Q 2772 3088 2869 2813 
Q 3263 3394 3894 3394 
Q 4388 3394 4653 3120 
Q 4919 2847 4919 2278 
L 4919 0 
L 4359 0 
L 4359 2091 
Q 4359 2428 4304 2576 
Q 4250 2725 4106 2815 
Q 3963 2906 3769 2906 
Q 3419 2906 3187 2673 
Q 2956 2441 2956 1928 
L 2956 0 
L 2394 0 
L 2394 2156 
Q 2394 2531 2256 2718 
Q 2119 2906 1806 2906 
Q 1569 2906 1367 2781 
Q 1166 2656 1075 2415 
Q 984 2175 984 1722 
L 984 0 
L 422 0 
z
" transform="scale(0.015625)"/>
       <path id="ArialMT-73" d="M 197 991 
L 753 1078 
Q 800 744 1014 566 
Q 1228 388 1613 388 
Q 2000 388 2187 545 
Q 2375 703 2375 916 
Q 2375 1106 2209 1216 
Q 2094 1291 1634 1406 
Q 1016 1563 777 1677 
Q 538 1791 414 1992 
Q 291 2194 291 2438 
Q 291 2659 392 2848 
Q 494 3038 669 3163 
Q 800 3259 1026 3326 
Q 1253 3394 1513 3394 
Q 1903 3394 2198 3281 
Q 2494 3169 2634 2976 
Q 2775 2784 2828 2463 
L 2278 2388 
Q 2241 2644 2061 2787 
Q 1881 2931 1553 2931 
Q 1166 2931 1000 2803 
Q 834 2675 834 2503 
Q 834 2394 903 2306 
Q 972 2216 1119 2156 
Q 1203 2125 1616 2013 
Q 2213 1853 2448 1751 
Q 2684 1650 2818 1456 
Q 2953 1263 2953 975 
Q 2953 694 2789 445 
Q 2625 197 2315 61 
Q 2006 -75 1616 -75 
Q 969 -75 630 194 
Q 291 463 197 991 
z
" transform="scale(0.015625)"/>
       <path id="ArialMT-28" d="M 1497 -1347 
Q 1031 -759 709 28 
Q 388 816 388 1659 
Q 388 2403 628 3084 
Q 909 3875 1497 4659 
L 1900 4659 
Q 1522 4009 1400 3731 
Q 1209 3300 1100 2831 
Q 966 2247 966 1656 
Q 966 153 1900 -1347 
L 1497 -1347 
z
" transform="scale(0.015625)"/>
       <path id="ArialMT-29" d="M 791 -1347 
L 388 -1347 
Q 1322 153 1322 1656 
Q 1322 2244 1188 2822 
Q 1081 3291 891 3722 
Q 769 4003 388 4659 
L 791 4659 
Q 1378 3875 1659 3084 
Q 1900 2403 1900 1659 
Q 1900 816 1576 28 
Q 1253 -759 791 -1347 
z
" transform="scale(0.015625)"/>
      </defs>
      <use xlink:href="#ArialMT-54"/>
      <use xlink:href="#ArialMT-69" transform="translate(57.333984 0)"/>
      <use xlink:href="#ArialMT-6d" transform="translate(79.550781 0)"/>
      <use xlink:href="#ArialMT-65" transform="translate(162.851562 0)"/>
      <use xlink:href="#ArialMT-73" transform="translate(218.466797 0)"/>
      <use xlink:href="#ArialMT-74" transform="translate(268.466797 0)"/>
      <use xlink:href="#ArialMT-65" transform="translate(296.25 0)"/>
      <use xlink:href="#ArialMT-70" transform="translate(351.865234 0)"/>
      <use xlink:href="#ArialMT-73" transform="translate(407.480469 0)"/>
      <use xlink:href="#ArialMT-20" transform="translate(457.480469 0)"/>
      <use xlink:href="#ArialMT-28" transform="translate(485.263672 0)"/>
      <use xlink:href="#ArialMT-30" transform="translate(518.564453 0)"/>
      <use xlink:href="#ArialMT-2e" transform="translate(574.179688 0)"/>
      <use xlink:href="#ArialMT-31" transform="translate(601.962891 0)"/>
      <use xlink:href="#ArialMT-20" transform="translate(657.578125 0)"/>
      <use xlink:href="#ArialMT-73" transform="translate(685.361328 0)"/>
      <use xlink:href="#ArialMT-29" transform="translate(735.361328 0)"/>
     </g>
    </g>
   </g>
   <g id="matplotlib.axis_4">
    <g id="ytick_10">
     <g id="line2d_26">
      <g>
       <use xlink:href="#mae22fccc05" x="37.01" y="328.48" style="stroke: #000000; stroke-width: 0.8"/>
      </g>
     </g>
     <g id="text_20">
      <!-- 0 -->
      <g transform="translate(26.673438 330.627344) scale(0.06 -0.06)">
       <use xlink:href="#ArialMT-30"/>
      </g>
     </g>
    </g>
    <g id="ytick_11">
     <g id="line2d_27">
      <g>
       <use xlink:href="#mae22fccc05" x="37.01" y="308.021333" style="stroke: #000000; stroke-width: 0.8"/>
      </g>
     </g>
     <g id="text_21">
      <!-- 2 -->
      <g transform="translate(26.673438 310.168677) scale(0.06 -0.06)">
       <use xlink:href="#ArialMT-32"/>
      </g>
     </g>
    </g>
    <g id="ytick_12">
     <g id="line2d_28">
      <g>
       <use xlink:href="#mae22fccc05" x="37.01" y="287.562667" style="stroke: #000000; stroke-width: 0.8"/>
      </g>
     </g>
     <g id="text_22">
      <!-- 4 -->
      <g transform="translate(26.673438 289.71001) scale(0.06 -0.06)">
       <use xlink:href="#ArialMT-34"/>
      </g>
     </g>
    </g>
    <g id="ytick_13">
     <g id="line2d_29">
      <g>
       <use xlink:href="#mae22fccc05" x="37.01" y="267.104" style="stroke: #000000; stroke-width: 0.8"/>
      </g>
     </g>
     <g id="text_23">
      <!-- 6 -->
      <g transform="translate(26.673438 269.251344) scale(0.06 -0.06)">
       <defs>
        <path id="ArialMT-36" d="M 3184 3459 
L 2625 3416 
Q 2550 3747 2413 3897 
Q 2184 4138 1850 4138 
Q 1581 4138 1378 3988 
Q 1113 3794 959 3422 
Q 806 3050 800 2363 
Q 1003 2672 1297 2822 
Q 1591 2972 1913 2972 
Q 2475 2972 2870 2558 
Q 3266 2144 3266 1488 
Q 3266 1056 3080 686 
Q 2894 316 2569 119 
Q 2244 -78 1831 -78 
Q 1128 -78 684 439 
Q 241 956 241 2144 
Q 241 3472 731 4075 
Q 1159 4600 1884 4600 
Q 2425 4600 2770 4297 
Q 3116 3994 3184 3459 
z
M 888 1484 
Q 888 1194 1011 928 
Q 1134 663 1356 523 
Q 1578 384 1822 384 
Q 2178 384 2434 671 
Q 2691 959 2691 1453 
Q 2691 1928 2437 2201 
Q 2184 2475 1800 2475 
Q 1419 2475 1153 2201 
Q 888 1928 888 1484 
z
" transform="scale(0.015625)"/>
       </defs>
       <use xlink:href="#ArialMT-36"/>
      </g>
     </g>
    </g>
    <g id="ytick_14">
     <g id="line2d_30">
      <g>
       <use xlink:href="#mae22fccc05" x="37.01" y="246.645333" style="stroke: #000000; stroke-width: 0.8"/>
      </g>
     </g>
     <g id="text_24">
      <!-- 8 -->
      <g transform="translate(26.673438 248.792677) scale(0.06 -0.06)">
       <defs>
        <path id="ArialMT-38" d="M 1131 2484 
Q 781 2613 612 2850 
Q 444 3088 444 3419 
Q 444 3919 803 4259 
Q 1163 4600 1759 4600 
Q 2359 4600 2725 4251 
Q 3091 3903 3091 3403 
Q 3091 3084 2923 2848 
Q 2756 2613 2416 2484 
Q 2838 2347 3058 2040 
Q 3278 1734 3278 1309 
Q 3278 722 2862 322 
Q 2447 -78 1769 -78 
Q 1091 -78 675 323 
Q 259 725 259 1325 
Q 259 1772 486 2073 
Q 713 2375 1131 2484 
z
M 1019 3438 
Q 1019 3113 1228 2906 
Q 1438 2700 1772 2700 
Q 2097 2700 2305 2904 
Q 2513 3109 2513 3406 
Q 2513 3716 2298 3927 
Q 2084 4138 1766 4138 
Q 1444 4138 1231 3931 
Q 1019 3725 1019 3438 
z
M 838 1322 
Q 838 1081 952 856 
Q 1066 631 1291 507 
Q 1516 384 1775 384 
Q 2178 384 2440 643 
Q 2703 903 2703 1303 
Q 2703 1709 2433 1975 
Q 2163 2241 1756 2241 
Q 1359 2241 1098 1978 
Q 838 1716 838 1322 
z
" transform="scale(0.015625)"/>
       </defs>
       <use xlink:href="#ArialMT-38"/>
      </g>
     </g>
    </g>
    <g id="ytick_15">
     <g id="line2d_31">
      <g>
       <use xlink:href="#mae22fccc05" x="37.01" y="226.186667" style="stroke: #000000; stroke-width: 0.8"/>
      </g>
     </g>
     <g id="text_25">
      <!-- 10 -->
      <g transform="translate(23.336875 228.33401) scale(0.06 -0.06)">
       <use xlink:href="#ArialMT-31"/>
       <use xlink:href="#ArialMT-30" transform="translate(55.615234 0)"/>
      </g>
     </g>
    </g>
    <g id="ytick_16">
     <g id="line2d_32">
      <g>
       <use xlink:href="#mae22fccc05" x="37.01" y="205.728" style="stroke: #000000; stroke-width: 0.8"/>
      </g>
     </g>
     <g id="text_26">
      <!-- 12 -->
      <g transform="translate(23.336875 207.875344) scale(0.06 -0.06)">
       <use xlink:href="#ArialMT-31"/>
       <use xlink:href="#ArialMT-32" transform="translate(55.615234 0)"/>
      </g>
     </g>
    </g>
    <g id="ytick_17">
     <g id="line2d_33">
      <g>
       <use xlink:href="#mae22fccc05" x="37.01" y="185.269333" style="stroke: #000000; stroke-width: 0.8"/>
      </g>
     </g>
     <g id="text_27">
      <!-- 14 -->
      <g transform="translate(23.336875 187.416677) scale(0.06 -0.06)">
       <use xlink:href="#ArialMT-31"/>
       <use xlink:href="#ArialMT-34" transform="translate(55.615234 0)"/>
      </g>
     </g>
    </g>
    <g id="text_28">
     <!-- Distance from leader (d/$\lambda_0$) -->
     <g transform="translate(17.796875 294.005) rotate(-90) scale(0.07 -0.07)">
      <defs>
       <path id="ArialMT-44" d="M 494 0 
L 494 4581 
L 2072 4581 
Q 2606 4581 2888 4516 
Q 3281 4425 3559 4188 
Q 3922 3881 4101 3404 
Q 4281 2928 4281 2316 
Q 4281 1794 4159 1391 
Q 4038 988 3847 723 
Q 3656 459 3429 307 
Q 3203 156 2883 78 
Q 2563 0 2147 0 
L 494 0 
z
M 1100 541 
L 2078 541 
Q 2531 541 2789 625 
Q 3047 709 3200 863 
Q 3416 1078 3536 1442 
Q 3656 1806 3656 2325 
Q 3656 3044 3420 3430 
Q 3184 3816 2847 3947 
Q 2603 4041 2063 4041 
L 1100 4041 
L 1100 541 
z
" transform="scale(0.015625)"/>
       <path id="ArialMT-66" d="M 556 0 
L 556 2881 
L 59 2881 
L 59 3319 
L 556 3319 
L 556 3672 
Q 556 4006 616 4169 
Q 697 4388 901 4523 
Q 1106 4659 1475 4659 
Q 1713 4659 2000 4603 
L 1916 4113 
Q 1741 4144 1584 4144 
Q 1328 4144 1222 4034 
Q 1116 3925 1116 3625 
L 1116 3319 
L 1763 3319 
L 1763 2881 
L 1116 2881 
L 1116 0 
L 556 0 
z
" transform="scale(0.015625)"/>
       <path id="ArialMT-72" d="M 416 0 
L 416 3319 
L 922 3319 
L 922 2816 
Q 1116 3169 1280 3281 
Q 1444 3394 1641 3394 
Q 1925 3394 2219 3213 
L 2025 2691 
Q 1819 2813 1613 2813 
Q 1428 2813 1281 2702 
Q 1134 2591 1072 2394 
Q 978 2094 978 1738 
L 978 0 
L 416 0 
z
" transform="scale(0.015625)"/>
       <path id="ArialMT-6f" d="M 213 1659 
Q 213 2581 725 3025 
Q 1153 3394 1769 3394 
Q 2453 3394 2887 2945 
Q 3322 2497 3322 1706 
Q 3322 1066 3130 698 
Q 2938 331 2570 128 
Q 2203 -75 1769 -75 
Q 1072 -75 642 372 
Q 213 819 213 1659 
z
M 791 1659 
Q 791 1022 1069 705 
Q 1347 388 1769 388 
Q 2188 388 2466 706 
Q 2744 1025 2744 1678 
Q 2744 2294 2464 2611 
Q 2184 2928 1769 2928 
Q 1347 2928 1069 2612 
Q 791 2297 791 1659 
z
" transform="scale(0.015625)"/>
       <path id="ArialMT-6c" d="M 409 0 
L 409 4581 
L 972 4581 
L 972 0 
L 409 0 
z
" transform="scale(0.015625)"/>
      </defs>
      <use xlink:href="#ArialMT-44" transform="translate(0 0.015625)"/>
      <use xlink:href="#ArialMT-69" transform="translate(72.216797 0.015625)"/>
      <use xlink:href="#ArialMT-73" transform="translate(94.433594 0.015625)"/>
      <use xlink:href="#ArialMT-74" transform="translate(144.433594 0.015625)"/>
      <use xlink:href="#ArialMT-61" transform="translate(172.216797 0.015625)"/>
      <use xlink:href="#ArialMT-6e" transform="translate(227.832031 0.015625)"/>
      <use xlink:href="#ArialMT-63" transform="translate(283.447266 0.015625)"/>
      <use xlink:href="#ArialMT-65" transform="translate(333.447266 0.015625)"/>
      <use xlink:href="#ArialMT-20" transform="translate(389.0625 0.015625)"/>
      <use xlink:href="#ArialMT-66" transform="translate(416.845703 0.015625)"/>
      <use xlink:href="#ArialMT-72" transform="translate(444.628906 0.015625)"/>
      <use xlink:href="#ArialMT-6f" transform="translate(477.929688 0.015625)"/>
      <use xlink:href="#ArialMT-6d" transform="translate(533.544922 0.015625)"/>
      <use xlink:href="#ArialMT-20" transform="translate(616.845703 0.015625)"/>
      <use xlink:href="#ArialMT-6c" transform="translate(644.628906 0.015625)"/>
      <use xlink:href="#ArialMT-65" transform="translate(666.845703 0.015625)"/>
      <use xlink:href="#ArialMT-61" transform="translate(722.460938 0.015625)"/>
      <use xlink:href="#ArialMT-64" transform="translate(778.076172 0.015625)"/>
      <use xlink:href="#ArialMT-65" transform="translate(833.691406 0.015625)"/>
      <use xlink:href="#ArialMT-72" transform="translate(889.306641 0.015625)"/>
      <use xlink:href="#ArialMT-20" transform="translate(922.607422 0.015625)"/>
      <use xlink:href="#ArialMT-28" transform="translate(950.390625 0.015625)"/>
      <use xlink:href="#ArialMT-64" transform="translate(983.691406 0.015625)"/>
      <use xlink:href="#ArialMT-2f" transform="translate(1039.306641 0.015625)"/>
      <use xlink:href="#DejaVuSans-Oblique-3bb" transform="translate(1067.089844 0.015625)"/>
      <use xlink:href="#DejaVuSans-30" transform="translate(1126.269531 -16.390625) scale(0.7)"/>
      <use xlink:href="#ArialMT-29" transform="translate(1173.540039 0.015625)"/>
     </g>
    </g>
   </g>
   <g id="line2d_34">
    <path d="M 37.01 305.177699 
L 37.930701 305.373671 
L 38.851403 305.399848 
L 40.692806 305.256553 
L 42.534208 305.560028 
L 44.375611 305.833209 
L 46.217014 305.776862 
L 49.89982 305.471232 
L 51.741222 305.181564 
L 54.503327 304.509169 
L 59.106834 303.729192 
L 64.631042 304.163419 
L 65.551743 304.348247 
L 67.393146 305.060645 
L 69.234549 305.636339 
L 70.155251 306.005463 
L 71.075952 306.240494 
L 71.996653 306.27759 
L 74.758758 305.996683 
L 77.520862 306.255991 
L 78.441563 306.375253 
L 82.124369 306.452773 
L 84.886473 307.391531 
L 85.807174 307.471259 
L 86.727876 307.391318 
L 88.569279 306.92454 
L 89.48998 306.645503 
L 91.331383 306.526 
L 96.855591 306.594382 
L 97.776293 306.6921 
L 100.538397 306.481325 
L 102.3798 306.196318 
L 105.141904 305.987074 
L 109.745411 306.104481 
L 111.586814 306.596265 
L 113.428216 306.984976 
L 116.190321 308.172398 
L 117.111022 308.271831 
L 118.952425 308.308227 
L 120.793828 308.633768 
L 122.63523 309.102112 
L 124.476633 309.045716 
L 128.159439 308.472469 
L 131.842244 307.50896 
L 133.683647 306.860607 
L 137.366453 305.112296 
L 140.128557 304.508081 
L 142.890661 303.802887 
L 144.732064 303.700276 
L 145.652766 303.724083 
L 148.41487 304.280443 
L 149.335571 304.645344 
L 150.256273 304.876296 
L 152.097675 305.00371 
L 160.383988 305.242314 
L 163.146092 306.198145 
L 164.066794 306.335307 
L 165.908196 306.374601 
L 167.749599 306.637939 
L 169.591002 306.504287 
L 174.194509 305.621399 
L 175.11521 305.765847 
L 176.956613 306.251235 
L 177.877315 306.346181 
L 179.718717 306.158897 
L 182.480822 305.618788 
L 185.242926 305.648092 
L 188.925731 305.389554 
L 191.687836 306.057362 
L 195.370641 306.334052 
L 197.212044 306.411575 
L 199.053447 306.561538 
L 200.89485 306.467418 
L 206.419058 306.136866 
L 209.181162 307.037714 
L 210.101864 307.133453 
L 211.943267 307.163776 
L 212.863968 307.421486 
L 213.784669 307.795113 
L 215.626072 308.752724 
L 216.546774 308.936966 
L 218.388176 308.868678 
L 220.229579 308.879403 
L 222.991683 309.153239 
L 224.833086 309.235332 
L 226.674489 308.947812 
L 230.357295 308.077075 
L 232.198697 307.466088 
L 234.0401 307.066405 
L 235.881503 306.707559 
L 239.564309 305.738084 
L 242.326413 305.232364 
L 244.167816 305.225408 
L 251.533427 305.605494 
L 256.136934 305.341655 
L 257.978337 305.4821 
L 260.740441 306.102478 
L 261.661142 306.045088 
L 263.502545 305.60669 
L 265.343948 305.220974 
L 266.264649 305.2833 
L 268.106052 306.164847 
L 269.026754 306.559888 
L 269.947455 306.782303 
L 271.788858 306.850404 
L 273.630261 306.658557 
L 274.550962 306.546448 
L 275.471663 306.633737 
L 278.233768 307.226924 
L 280.995872 307.362865 
L 283.757976 307.051183 
L 292.96499 307.237239 
L 295.727094 307.771498 
L 297.568497 308.275913 
L 299.4099 309.00452 
L 305.85481 309.854857 
L 307.696212 309.607989 
L 312.299719 308.499984 
L 316.903226 307.097498 
L 318.744629 306.287878 
L 321.506733 304.928332 
L 325.189539 304.013871 
L 327.951643 303.460103 
L 329.793046 303.459107 
L 332.55515 303.988972 
L 335.317255 305.529582 
L 337.158657 306.142411 
L 339.00006 306.433744 
L 342.682866 306.600431 
L 344.524269 306.297999 
L 347.286373 305.928184 
L 349.127776 305.963234 
L 350.048477 306.017085 
L 351.88988 306.524614 
L 354.651984 307.359424 
L 357.414088 307.493485 
L 359.255491 308.180915 
L 361.096894 308.773443 
L 362.017595 308.912034 
L 362.938297 308.930723 
L 365.700401 308.586774 
L 367.541804 308.787325 
L 372.145311 308.734162 
L 373.986713 308.498972 
L 375.828116 308.179553 
L 377.669519 307.874943 
L 379.510922 307.396848 
L 380.431623 307.296507 
L 384.114429 307.599656 
L 386.876533 307.548754 
L 388.717936 307.28641 
L 389.638637 307.080958 
L 394.242144 306.683581 
L 395.162846 306.482753 
L 396.083547 306.398216 
L 397.92495 306.659723 
L 399.766353 306.585249 
L 403.449158 305.94869 
L 404.36986 305.956839 
L 407.131964 306.521318 
L 408.052665 306.553375 
L 408.973367 306.455339 
L 410.81477 305.944592 
L 413.576874 304.856216 
L 416.338978 304.344176 
L 419.101082 303.681198 
L 420.942485 303.586458 
L 421.863186 303.609986 
L 424.625291 304.162445 
L 425.545992 304.522264 
L 426.466693 304.74911 
L 428.308096 304.869018 
L 436.594409 305.123265 
L 439.356513 306.085401 
L 441.197916 306.488175 
L 443.96002 307.364389 
L 445.801423 307.381517 
L 449.484228 306.801416 
L 450.40493 307.047521 
L 453.167034 308.353834 
L 454.087735 308.554257 
L 455.008437 308.604946 
L 455.929138 308.532013 
L 457.770541 308.118546 
L 458.691242 308.123391 
L 462.374048 308.768936 
L 464.215451 308.685299 
L 467.898257 308.318672 
L 472.501764 308.663712 
L 475.263868 308.575025 
L 477.105271 308.436029 
L 479.867375 307.943612 
L 482.629479 307.391459 
L 484.470882 307.27034 
L 486.312285 307.049802 
L 487.232986 306.859116 
L 488.153687 306.791207 
L 489.99509 307.081286 
L 491.836493 306.999946 
L 495.519299 306.336577 
L 496.44 306.324324 
L 496.44 306.324324 
" clip-path="url(#p743d24b0ae)" style="fill: none; stroke: #1f77b4; stroke-width: 1.5; stroke-linecap: square"/>
   </g>
   <g id="line2d_35">
    <path d="M 37.01 281.679646 
L 37.930701 281.852357 
L 38.851403 281.860719 
L 40.692806 281.671969 
L 42.534208 281.766429 
L 46.217014 282.436557 
L 49.89982 282.428324 
L 51.741222 282.557447 
L 53.582625 282.52673 
L 55.424028 283.044718 
L 57.265431 283.665497 
L 59.106834 284.015392 
L 61.868938 283.913305 
L 63.710341 283.693123 
L 65.551743 283.277276 
L 69.234549 283.244197 
L 73.838056 282.547923 
L 74.758758 282.710551 
L 77.520862 283.532928 
L 78.441563 283.530789 
L 82.124369 283.070769 
L 83.04507 283.325628 
L 84.886473 284.062416 
L 85.807174 284.230623 
L 87.648577 284.35016 
L 88.569279 284.809029 
L 90.410681 286.048932 
L 91.331383 286.5734 
L 92.252084 286.937768 
L 94.093487 287.175065 
L 95.014188 287.155864 
L 97.776293 287.385597 
L 99.617695 287.431761 
L 101.459098 287.361409 
L 105.141904 287.289902 
L 106.983307 286.988313 
L 108.824709 286.451375 
L 110.666112 285.690211 
L 113.428216 284.340778 
L 116.190321 282.73317 
L 119.873126 280.461899 
L 126.318036 278.154707 
L 127.238737 278.50467 
L 129.08014 279.865217 
L 130.000842 280.311507 
L 131.842244 280.744941 
L 132.762946 281.182179 
L 135.52505 283.076128 
L 139.207856 284.145171 
L 140.128557 284.494248 
L 141.049259 284.976313 
L 142.890661 286.140406 
L 144.732064 286.912292 
L 147.494168 287.443814 
L 150.256273 287.893499 
L 152.097675 287.838294 
L 154.85978 287.40358 
L 157.621884 286.934861 
L 160.383988 286.573943 
L 162.225391 286.426695 
L 164.066794 286.027617 
L 165.908196 285.386989 
L 169.591002 283.90972 
L 170.511703 283.731204 
L 171.432405 283.774592 
L 172.353106 284.106063 
L 174.194509 285.353866 
L 175.11521 285.791831 
L 176.035912 285.998128 
L 176.956613 286.005327 
L 180.639419 285.400211 
L 181.56012 285.251819 
L 185.242926 285.118403 
L 187.084329 284.733373 
L 188.925731 284.329599 
L 189.846433 284.249617 
L 191.687836 284.26436 
L 197.212044 283.862951 
L 199.053447 283.664921 
L 202.736253 283.592389 
L 204.577655 283.780174 
L 206.419058 283.779699 
L 209.181162 283.493694 
L 211.022565 283.005429 
L 215.626072 281.530799 
L 217.467475 281.127707 
L 219.308878 281.105055 
L 221.150281 281.200034 
L 222.991683 280.977485 
L 223.912385 281.114719 
L 224.833086 281.563768 
L 225.753788 282.143398 
L 226.674489 282.576302 
L 227.59519 282.75214 
L 229.436593 282.758837 
L 230.357295 283.146463 
L 231.277996 283.755388 
L 232.198697 284.18551 
L 234.960802 285.036914 
L 236.802204 285.356768 
L 238.643607 285.947914 
L 240.48501 286.803114 
L 243.247114 287.792605 
L 245.088517 287.892851 
L 246.92992 287.750542 
L 248.771323 287.538593 
L 249.692024 287.476736 
L 251.533427 287.031724 
L 253.37483 286.599904 
L 255.216232 286.364728 
L 257.978337 286.703752 
L 259.819739 286.700636 
L 262.581844 287.011087 
L 265.343948 287.711099 
L 266.264649 287.707175 
L 268.106052 287.375699 
L 269.947455 286.8341 
L 271.788858 286.036652 
L 273.630261 285.151688 
L 278.233768 283.33077 
L 280.07517 282.707418 
L 281.916573 282.122867 
L 283.757976 281.791107 
L 285.599379 281.999678 
L 289.282184 282.577929 
L 293.885691 282.95471 
L 296.647796 283.329144 
L 297.568497 283.33452 
L 299.4099 283.017848 
L 304.934108 281.433809 
L 306.775511 281.183324 
L 307.696212 281.169836 
L 308.616914 281.476512 
L 311.379018 283.641622 
L 312.299719 283.958983 
L 313.220421 284.11349 
L 314.141122 284.447776 
L 317.823928 287.065075 
L 318.744629 287.358938 
L 319.665331 287.488338 
L 320.586032 287.884308 
L 323.348136 290.027802 
L 324.268838 290.481504 
L 325.189539 290.672217 
L 327.030942 290.640833 
L 330.713747 290.095672 
L 332.55515 289.768785 
L 334.396553 289.146671 
L 336.237956 288.304083 
L 339.00006 286.709832 
L 341.762164 285.003343 
L 342.682866 284.618181 
L 346.365671 283.745731 
L 348.207074 283.970643 
L 350.969178 283.804096 
L 354.651984 283.467555 
L 356.493387 282.857741 
L 360.176192 281.197924 
L 361.096894 281.013123 
L 362.938297 281.075728 
L 365.700401 281.319937 
L 366.621102 281.931558 
L 370.303908 284.831209 
L 372.145311 285.770482 
L 373.986713 286.359559 
L 374.907415 286.704957 
L 376.748818 287.198383 
L 379.510922 288.14132 
L 381.352325 288.78897 
L 383.193727 289.212498 
L 385.03513 289.407634 
L 386.876533 289.149986 
L 388.717936 288.800218 
L 390.559339 288.944657 
L 391.48004 288.989359 
L 393.321443 288.812658 
L 396.083547 288.36613 
L 397.92495 288.22336 
L 399.766353 287.719256 
L 401.607756 286.949486 
L 403.449158 286.053483 
L 404.36986 285.729719 
L 405.290561 285.645955 
L 408.052665 285.903532 
L 409.894068 286.155399 
L 411.735471 286.086765 
L 412.656172 286.279125 
L 414.497575 287.322289 
L 416.338978 288.539895 
L 417.259679 288.890312 
L 419.101082 289.197972 
L 420.942485 289.102358 
L 424.625291 288.320935 
L 426.466693 287.720423 
L 429.228798 286.449632 
L 439.356513 281.769365 
L 442.118617 280.717881 
L 444.880721 279.552411 
L 449.484228 278.532601 
L 450.40493 278.559526 
L 451.325631 278.92643 
L 453.167034 279.945679 
L 454.087735 280.32095 
L 455.008437 280.54944 
L 457.770541 280.767979 
L 461.453347 282.756887 
L 463.294749 283.641262 
L 466.056854 284.408985 
L 468.818958 285.760814 
L 472.501764 286.626556 
L 474.343166 286.812083 
L 475.263868 286.884623 
L 476.184569 287.109582 
L 478.025972 288.11877 
L 479.867375 289.304027 
L 483.55018 290.404352 
L 486.312285 290.813406 
L 488.153687 290.716515 
L 489.99509 290.247835 
L 491.836493 289.583311 
L 494.598597 288.490714 
L 495.519299 288.299322 
L 496.44 288.414387 
L 496.44 288.414387 
" clip-path="url(#p743d24b0ae)" style="fill: none; stroke: #ff7f0e; stroke-width: 1.5; stroke-linecap: square"/>
   </g>
   <g id="line2d_36">
    <path d="M 37.01 258.180784 
L 37.930701 258.385241 
L 38.851403 258.445732 
L 40.692806 258.332818 
L 42.534208 258.478286 
L 44.375611 258.760411 
L 47.137715 258.545858 
L 48.979118 258.912128 
L 51.741222 259.87026 
L 53.582625 260.007141 
L 55.424028 259.919793 
L 58.186132 259.424588 
L 60.027535 259.185298 
L 61.868938 259.313517 
L 62.789639 259.551268 
L 64.631042 260.378759 
L 66.472445 261.627469 
L 68.313848 262.455806 
L 69.234549 262.706338 
L 71.075952 262.849707 
L 74.758758 263.802176 
L 75.679459 264.007258 
L 76.60016 264.044869 
L 78.441563 263.760151 
L 81.203667 263.04279 
L 86.727876 262.77099 
L 88.569279 262.289613 
L 90.410681 261.549792 
L 95.014188 259.312011 
L 96.855591 258.727476 
L 98.696994 258.447982 
L 100.538397 258.257424 
L 104.221202 258.730792 
L 106.062605 259.307364 
L 107.904008 260.26234 
L 109.745411 260.570285 
L 110.666112 260.990599 
L 113.428216 263.432991 
L 114.348918 263.818576 
L 115.269619 264.042683 
L 116.190321 264.445694 
L 117.111022 265.203644 
L 118.952425 266.965696 
L 121.714529 268.537612 
L 122.63523 268.847091 
L 123.555932 268.923562 
L 127.238737 268.731509 
L 128.159439 268.984311 
L 130.000842 269.799959 
L 130.921543 270.032841 
L 131.842244 270.120704 
L 135.52505 269.874661 
L 137.366453 269.671757 
L 139.207856 269.24677 
L 141.049259 268.571327 
L 144.732064 266.872927 
L 147.494168 265.541662 
L 148.41487 265.285478 
L 150.256273 264.966505 
L 151.176974 264.748947 
L 152.097675 264.722892 
L 153.018377 265.03623 
L 154.85978 266.304626 
L 155.780481 267.232989 
L 156.701182 268.000636 
L 157.621884 268.616186 
L 158.542585 269.088362 
L 160.383988 269.614072 
L 162.225391 269.981875 
L 164.987495 270.802171 
L 167.749599 272.288154 
L 168.670301 272.546502 
L 172.353106 272.954101 
L 174.194509 272.840214 
L 176.035912 272.365246 
L 178.798016 271.209708 
L 180.639419 270.457283 
L 181.56012 270.256219 
L 184.322224 269.891689 
L 186.163627 269.463671 
L 188.00503 268.83525 
L 189.846433 268.044664 
L 191.687836 267.584626 
L 192.608537 267.579031 
L 194.44994 268.054768 
L 197.212044 269.124756 
L 198.132745 269.194405 
L 200.89485 269.014339 
L 202.736253 268.596507 
L 204.577655 267.943438 
L 207.33976 266.687627 
L 211.943267 264.340742 
L 212.863968 264.233072 
L 214.705371 264.18959 
L 216.546774 264.053323 
L 217.467475 264.27765 
L 220.229579 265.65927 
L 221.150281 265.853557 
L 222.991683 265.821061 
L 224.833086 265.454135 
L 226.674489 264.905512 
L 228.515892 264.140914 
L 232.198697 262.190667 
L 235.881503 260.069897 
L 243.247114 255.821625 
L 244.167816 255.507396 
L 245.088517 255.37066 
L 246.92992 255.94488 
L 249.692024 257.075276 
L 250.612725 257.191668 
L 251.533427 257.495602 
L 252.454128 258.18926 
L 253.37483 259.116171 
L 254.295531 259.808536 
L 257.978337 261.654539 
L 258.899038 261.921599 
L 261.661142 262.216788 
L 262.581844 262.51191 
L 264.423246 263.382778 
L 265.343948 263.679142 
L 266.264649 263.846412 
L 268.106052 263.798287 
L 269.026754 263.968464 
L 269.947455 264.538489 
L 270.868156 265.301474 
L 271.788858 265.879341 
L 273.630261 266.367045 
L 276.392365 267.075168 
L 279.154469 268.507438 
L 280.07517 268.793946 
L 280.995872 268.908306 
L 281.916573 268.870124 
L 285.599379 269.416855 
L 286.52008 269.63462 
L 287.440782 269.736233 
L 288.361483 269.680338 
L 290.202886 269.253374 
L 292.044289 268.570187 
L 294.806393 267.204476 
L 299.4099 264.511618 
L 301.251303 263.444557 
L 302.172004 263.085414 
L 303.092705 263.076637 
L 305.85481 264.426828 
L 306.775511 264.716677 
L 307.696212 265.227045 
L 309.537615 266.574483 
L 310.458317 267.14318 
L 311.379018 267.57663 
L 312.299719 267.792 
L 313.220421 267.812305 
L 315.061824 267.47242 
L 317.823928 266.529917 
L 319.665331 265.747491 
L 323.348136 263.80001 
L 327.030942 261.694484 
L 328.872345 261.0066 
L 329.793046 260.932221 
L 331.634449 261.174445 
L 332.55515 261.506278 
L 333.475852 262.106009 
L 334.396553 262.562475 
L 336.237956 262.946342 
L 337.158657 263.431672 
L 339.920762 265.939046 
L 340.841463 266.306544 
L 341.762164 266.550925 
L 345.44497 268.300764 
L 347.286373 268.812588 
L 350.969178 269.144471 
L 351.88988 269.081487 
L 353.731283 268.626629 
L 355.572685 267.88268 
L 359.255491 266.210391 
L 360.176192 266.42857 
L 362.938297 267.96962 
L 363.858998 268.177767 
L 364.779699 268.209177 
L 371.224609 267.433583 
L 373.066012 266.804459 
L 374.907415 265.962801 
L 378.59022 263.941125 
L 381.352325 262.159523 
L 383.193727 260.949235 
L 385.03513 259.997587 
L 385.955832 259.635057 
L 386.876533 259.580397 
L 387.797234 259.877401 
L 389.638637 261.194275 
L 391.48004 262.04534 
L 392.400741 262.374916 
L 394.242144 263.379389 
L 395.162846 263.696913 
L 397.92495 264.099493 
L 398.845651 264.449077 
L 399.766353 265.030086 
L 402.528457 267.477823 
L 404.36986 268.035598 
L 406.211263 268.685891 
L 409.894068 270.062803 
L 410.81477 270.264705 
L 411.735471 270.336161 
L 413.576874 270.093305 
L 415.418277 269.509059 
L 417.259679 268.713773 
L 420.021784 267.358711 
L 420.942485 266.98548 
L 421.863186 266.816834 
L 422.783888 266.761973 
L 423.704589 266.959492 
L 424.625291 267.412844 
L 425.545992 267.720604 
L 427.387395 268.016309 
L 428.308096 268.566987 
L 430.149499 270.234205 
L 432.911603 271.679206 
L 433.832305 271.976108 
L 436.594409 273.348189 
L 437.51511 273.729309 
L 438.435812 273.896179 
L 440.277214 273.882253 
L 442.118617 273.756377 
L 444.880721 273.918495 
L 446.722124 274.44936 
L 448.563527 274.568607 
L 451.325631 275.254484 
L 453.167034 275.173722 
L 455.929138 274.688164 
L 459.611944 274.00052 
L 461.453347 273.263713 
L 465.136152 271.469777 
L 466.056854 271.15344 
L 468.818958 270.85098 
L 470.660361 270.37875 
L 472.501764 269.647874 
L 475.263868 268.243567 
L 478.946673 266.01047 
L 483.55018 262.799172 
L 485.391583 261.455012 
L 486.312285 260.911887 
L 487.232986 260.578238 
L 488.153687 260.471739 
L 489.074389 260.590123 
L 489.99509 260.92555 
L 490.915792 261.599154 
L 492.757194 263.462375 
L 493.677896 264.057776 
L 495.519299 264.636712 
L 496.44 265.107885 
L 496.44 265.107885 
" clip-path="url(#p743d24b0ae)" style="fill: none; stroke: #2ca02c; stroke-width: 1.5; stroke-linecap: square"/>
   </g>
   <g id="patch_9">
    <path d="M 37.01 328.48 
L 37.01 175.04 
" style="fill: none; stroke: #000000; stroke-width: 0.8; stroke-linejoin: miter; stroke-linecap: square"/>
   </g>
   <g id="patch_10">
    <path d="M 496.44 328.48 
L 496.44 175.04 
" style="fill: none; stroke: #000000; stroke-width: 0.8; stroke-linejoin: miter; stroke-linecap: square"/>
   </g>
   <g id="patch_11">
    <path d="M 37.01 328.48 
L 496.44 328.48 
" style="fill: none; stroke: #000000; stroke-width: 0.8; stroke-linejoin: miter; stroke-linecap: square"/>
   </g>
   <g id="patch_12">
    <path d="M 37.01 175.04 
L 496.44 175.04 
" style="fill: none; stroke: #000000; stroke-width: 0.8; stroke-linejoin: miter; stroke-linecap: square"/>
   </g>
   <g id="legend_2">
    <g id="patch_13">
     <path d="M 445.010781 210.653594 
L 491.54 210.653594 
Q 492.94 210.653594 492.94 209.253594 
L 492.94 179.94 
Q 492.94 178.54 491.54 178.54 
L 445.010781 178.54 
Q 443.610781 178.54 443.610781 179.94 
L 443.610781 209.253594 
Q 443.610781 210.653594 445.010781 210.653594 
z
" style="fill: #ffffff; opacity: 0.8; stroke: #cccccc; stroke-linejoin: miter"/>
    </g>
    <g id="line2d_37">
     <path d="M 446.410781 183.92125 
L 453.410781 183.92125 
L 460.410781 183.92125 
" style="fill: none; stroke: #1f77b4; stroke-width: 1.5; stroke-linecap: square"/>
    </g>
    <g id="text_29">
     <!-- Agent 1 -->
     <g transform="translate(466.010781 186.37125) scale(0.07 -0.07)">
      <use xlink:href="#ArialMT-41"/>
      <use xlink:href="#ArialMT-67" transform="translate(66.699219 0)"/>
      <use xlink:href="#ArialMT-65" transform="translate(122.314453 0)"/>
      <use xlink:href="#ArialMT-6e" transform="translate(177.929688 0)"/>
      <use xlink:href="#ArialMT-74" transform="translate(233.544922 0)"/>
      <use xlink:href="#ArialMT-20" transform="translate(261.328125 0)"/>
      <use xlink:href="#ArialMT-31" transform="translate(289.111328 0)"/>
     </g>
    </g>
    <g id="line2d_38">
     <path d="M 446.410781 193.925781 
L 453.410781 193.925781 
L 460.410781 193.925781 
" style="fill: none; stroke: #ff7f0e; stroke-width: 1.5; stroke-linecap: square"/>
    </g>
    <g id="text_30">
     <!-- Agent 2 -->
     <g transform="translate(466.010781 196.375781) scale(0.07 -0.07)">
      <use xlink:href="#ArialMT-41"/>
      <use xlink:href="#ArialMT-67" transform="translate(66.699219 0)"/>
      <use xlink:href="#ArialMT-65" transform="translate(122.314453 0)"/>
      <use xlink:href="#ArialMT-6e" transform="translate(177.929688 0)"/>
      <use xlink:href="#ArialMT-74" transform="translate(233.544922 0)"/>
      <use xlink:href="#ArialMT-20" transform="translate(261.328125 0)"/>
      <use xlink:href="#ArialMT-32" transform="translate(289.111328 0)"/>
     </g>
    </g>
    <g id="line2d_39">
     <path d="M 446.410781 203.930313 
L 453.410781 203.930313 
L 460.410781 203.930313 
" style="fill: none; stroke: #2ca02c; stroke-width: 1.5; stroke-linecap: square"/>
    </g>
    <g id="text_31">
     <!-- Agent 3 -->
     <g transform="translate(466.010781 206.380313) scale(0.07 -0.07)">
      <use xlink:href="#ArialMT-41"/>
      <use xlink:href="#ArialMT-67" transform="translate(66.699219 0)"/>
      <use xlink:href="#ArialMT-65" transform="translate(122.314453 0)"/>
      <use xlink:href="#ArialMT-6e" transform="translate(177.929688 0)"/>
      <use xlink:href="#ArialMT-74" transform="translate(233.544922 0)"/>
      <use xlink:href="#ArialMT-20" transform="translate(261.328125 0)"/>
      <use xlink:href="#ArialMT-33" transform="translate(289.111328 0)"/>
     </g>
    </g>
   </g>
  </g>
 </g>
 <defs>
  <clipPath id="p7962749a40">
   <rect x="37.01" y="10.08" width="459.43" height="153.44"/>
  </clipPath>
  <clipPath id="p743d24b0ae">
   <rect x="37.01" y="175.04" width="459.43" height="153.44"/>
  </clipPath>
 </defs>
</svg>
