<?xml version="1.0" encoding="utf-8" standalone="no"?>
<!DOCTYPE svg PUBLIC "-//W3C//DTD SVG 1.1//EN"
  "http://www.w3.org/Graphics/SVG/1.1/DTD/svg11.dtd">
<svg xmlns:xlink="http://www.w3.org/1999/xlink" width="504pt" height="360pt" viewBox="0 0 504 360" xmlns="http://www.w3.org/2000/svg" version="1.1">
 <metadata>
  <rdf:RDF xmlns:dc="http://purl.org/dc/elements/1.1/" xmlns:cc="http://creativecommons.org/ns#" xmlns:rdf="http://www.w3.org/1999/02/22-rdf-syntax-ns#">
   <cc:Work>
    <dc:type rdf:resource="http://purl.org/dc/dcmitype/StillImage"/>
    <dc:date>2025-10-16T16:20:20.674231</dc:date>
    <dc:format>image/svg+xml</dc:format>
    <dc:creator>
     <cc:Agent>
      <dc:title>Matplotlib v3.10.7, https://matplotlib.org/</dc:title>
     </cc:Agent>
    </dc:creator>
   </cc:Work>
  </rdf:RDF>
 </metadata>
 <defs>
  <style type="text/css">*{stroke-linejoin: round; stroke-linecap: butt}</style>
 </defs>
 <g id="figure_1">
  <g id="patch_1">
   <path d="M 0 360 
L 504 360 
L 504 0 
L 0 0 
z
" style="fill: #ffffff"/>
  </g>
  <g id="axes_1">
   <g id="patch_2">
    <path d="M 37.01 163.52 
L 496.44 163.52 
L 496.44 10.08 
L 37.01 10.08 
z
" style="fill: #ffffff"/>
   </g>
   <g id="matplotlib.axis_1">
    <g id="xtick_1">
     <g id="line2d_1">
      <defs>
       <path id="m7acfff9c10" d="M 0 0 
L 0 3.5 
" style="stroke: #000000; stroke-width: 0.8"/>
      </defs>
      <g>
       <use xlink:href="#m7acfff9c10" x="37.01" y="163.52" style="stroke: #000000; stroke-width: 0.8"/>
      </g>
     </g>
    </g>
    <g id="xtick_2">
     <g id="line2d_2">
      <g>
       <use xlink:href="#m7acfff9c10" x="90.933709" y="163.52" style="stroke: #000000; stroke-width: 0.8"/>
      </g>
     </g>
    </g>
    <g id="xtick_3">
     <g id="line2d_3">
      <g>
       <use xlink:href="#m7acfff9c10" x="144.857418" y="163.52" style="stroke: #000000; stroke-width: 0.8"/>
      </g>
     </g>
    </g>
    <g id="xtick_4">
     <g id="line2d_4">
      <g>
       <use xlink:href="#m7acfff9c10" x="198.781127" y="163.52" style="stroke: #000000; stroke-width: 0.8"/>
      </g>
     </g>
    </g>
    <g id="xtick_5">
     <g id="line2d_5">
      <g>
       <use xlink:href="#m7acfff9c10" x="252.704836" y="163.52" style="stroke: #000000; stroke-width: 0.8"/>
      </g>
     </g>
    </g>
    <g id="xtick_6">
     <g id="line2d_6">
      <g>
       <use xlink:href="#m7acfff9c10" x="306.628545" y="163.52" style="stroke: #000000; stroke-width: 0.8"/>
      </g>
     </g>
    </g>
    <g id="xtick_7">
     <g id="line2d_7">
      <g>
       <use xlink:href="#m7acfff9c10" x="360.552254" y="163.52" style="stroke: #000000; stroke-width: 0.8"/>
      </g>
     </g>
    </g>
    <g id="xtick_8">
     <g id="line2d_8">
      <g>
       <use xlink:href="#m7acfff9c10" x="414.475962" y="163.52" style="stroke: #000000; stroke-width: 0.8"/>
      </g>
     </g>
    </g>
    <g id="xtick_9">
     <g id="line2d_9">
      <g>
       <use xlink:href="#m7acfff9c10" x="468.399671" y="163.52" style="stroke: #000000; stroke-width: 0.8"/>
      </g>
     </g>
    </g>
   </g>
   <g id="matplotlib.axis_2">
    <g id="ytick_1">
     <g id="line2d_10">
      <defs>
       <path id="m3fdf2db75f" d="M 0 0 
L -3.5 0 
" style="stroke: #000000; stroke-width: 0.8"/>
      </defs>
      <g>
       <use xlink:href="#m3fdf2db75f" x="37.01" y="163.52" style="stroke: #000000; stroke-width: 0.8"/>
      </g>
     </g>
     <g id="text_1">
      <!-- 0.0 -->
      <g transform="translate(21.67 165.667344) scale(0.06 -0.06)">
       <defs>
        <path id="ArialMT-30" d="M 266 2259 
Q 266 3072 433 3567 
Q 600 4063 929 4331 
Q 1259 4600 1759 4600 
Q 2128 4600 2406 4451 
Q 2684 4303 2865 4023 
Q 3047 3744 3150 3342 
Q 3253 2941 3253 2259 
Q 3253 1453 3087 958 
Q 2922 463 2592 192 
Q 2263 -78 1759 -78 
Q 1097 -78 719 397 
Q 266 969 266 2259 
z
M 844 2259 
Q 844 1131 1108 757 
Q 1372 384 1759 384 
Q 2147 384 2411 759 
Q 2675 1134 2675 2259 
Q 2675 3391 2411 3762 
Q 2147 4134 1753 4134 
Q 1366 4134 1134 3806 
Q 844 3388 844 2259 
z
" transform="scale(0.015625)"/>
        <path id="ArialMT-2e" d="M 581 0 
L 581 641 
L 1222 641 
L 1222 0 
L 581 0 
z
" transform="scale(0.015625)"/>
       </defs>
       <use xlink:href="#ArialMT-30"/>
       <use xlink:href="#ArialMT-2e" transform="translate(55.615234 0)"/>
       <use xlink:href="#ArialMT-30" transform="translate(83.398438 0)"/>
      </g>
     </g>
    </g>
    <g id="ytick_2">
     <g id="line2d_11">
      <g>
       <use xlink:href="#m3fdf2db75f" x="37.01" y="144.34" style="stroke: #000000; stroke-width: 0.8"/>
      </g>
     </g>
     <g id="text_2">
      <!-- 0.5 -->
      <g transform="translate(21.67 146.487344) scale(0.06 -0.06)">
       <defs>
        <path id="ArialMT-35" d="M 266 1200 
L 856 1250 
Q 922 819 1161 601 
Q 1400 384 1738 384 
Q 2144 384 2425 690 
Q 2706 997 2706 1503 
Q 2706 1984 2436 2262 
Q 2166 2541 1728 2541 
Q 1456 2541 1237 2417 
Q 1019 2294 894 2097 
L 366 2166 
L 809 4519 
L 3088 4519 
L 3088 3981 
L 1259 3981 
L 1013 2750 
Q 1425 3038 1878 3038 
Q 2478 3038 2890 2622 
Q 3303 2206 3303 1553 
Q 3303 931 2941 478 
Q 2500 -78 1738 -78 
Q 1113 -78 717 272 
Q 322 622 266 1200 
z
" transform="scale(0.015625)"/>
       </defs>
       <use xlink:href="#ArialMT-30"/>
       <use xlink:href="#ArialMT-2e" transform="translate(55.615234 0)"/>
       <use xlink:href="#ArialMT-35" transform="translate(83.398438 0)"/>
      </g>
     </g>
    </g>
    <g id="ytick_3">
     <g id="line2d_12">
      <g>
       <use xlink:href="#m3fdf2db75f" x="37.01" y="125.16" style="stroke: #000000; stroke-width: 0.8"/>
      </g>
     </g>
     <g id="text_3">
      <!-- 1.0 -->
      <g transform="translate(21.67 127.307344) scale(0.06 -0.06)">
       <defs>
        <path id="ArialMT-31" d="M 2384 0 
L 1822 0 
L 1822 3584 
Q 1619 3391 1289 3197 
Q 959 3003 697 2906 
L 697 3450 
Q 1169 3672 1522 3987 
Q 1875 4303 2022 4600 
L 2384 4600 
L 2384 0 
z
" transform="scale(0.015625)"/>
       </defs>
       <use xlink:href="#ArialMT-31"/>
       <use xlink:href="#ArialMT-2e" transform="translate(55.615234 0)"/>
       <use xlink:href="#ArialMT-30" transform="translate(83.398438 0)"/>
      </g>
     </g>
    </g>
    <g id="ytick_4">
     <g id="line2d_13">
      <g>
       <use xlink:href="#m3fdf2db75f" x="37.01" y="105.98" style="stroke: #000000; stroke-width: 0.8"/>
      </g>
     </g>
     <g id="text_4">
      <!-- 1.5 -->
      <g transform="translate(21.67 108.127344) scale(0.06 -0.06)">
       <use xlink:href="#ArialMT-31"/>
       <use xlink:href="#ArialMT-2e" transform="translate(55.615234 0)"/>
       <use xlink:href="#ArialMT-35" transform="translate(83.398438 0)"/>
      </g>
     </g>
    </g>
    <g id="ytick_5">
     <g id="line2d_14">
      <g>
       <use xlink:href="#m3fdf2db75f" x="37.01" y="86.8" style="stroke: #000000; stroke-width: 0.8"/>
      </g>
     </g>
     <g id="text_5">
      <!-- 2.0 -->
      <g transform="translate(21.67 88.947344) scale(0.06 -0.06)">
       <defs>
        <path id="ArialMT-32" d="M 3222 541 
L 3222 0 
L 194 0 
Q 188 203 259 391 
Q 375 700 629 1000 
Q 884 1300 1366 1694 
Q 2113 2306 2375 2664 
Q 2638 3022 2638 3341 
Q 2638 3675 2398 3904 
Q 2159 4134 1775 4134 
Q 1369 4134 1125 3890 
Q 881 3647 878 3216 
L 300 3275 
Q 359 3922 746 4261 
Q 1134 4600 1788 4600 
Q 2447 4600 2831 4234 
Q 3216 3869 3216 3328 
Q 3216 3053 3103 2787 
Q 2991 2522 2730 2228 
Q 2469 1934 1863 1422 
Q 1356 997 1212 845 
Q 1069 694 975 541 
L 3222 541 
z
" transform="scale(0.015625)"/>
       </defs>
       <use xlink:href="#ArialMT-32"/>
       <use xlink:href="#ArialMT-2e" transform="translate(55.615234 0)"/>
       <use xlink:href="#ArialMT-30" transform="translate(83.398438 0)"/>
      </g>
     </g>
    </g>
    <g id="ytick_6">
     <g id="line2d_15">
      <g>
       <use xlink:href="#m3fdf2db75f" x="37.01" y="67.62" style="stroke: #000000; stroke-width: 0.8"/>
      </g>
     </g>
     <g id="text_6">
      <!-- 2.5 -->
      <g transform="translate(21.67 69.767344) scale(0.06 -0.06)">
       <use xlink:href="#ArialMT-32"/>
       <use xlink:href="#ArialMT-2e" transform="translate(55.615234 0)"/>
       <use xlink:href="#ArialMT-35" transform="translate(83.398438 0)"/>
      </g>
     </g>
    </g>
    <g id="ytick_7">
     <g id="line2d_16">
      <g>
       <use xlink:href="#m3fdf2db75f" x="37.01" y="48.44" style="stroke: #000000; stroke-width: 0.8"/>
      </g>
     </g>
     <g id="text_7">
      <!-- 3.0 -->
      <g transform="translate(21.67 50.587344) scale(0.06 -0.06)">
       <defs>
        <path id="ArialMT-33" d="M 269 1209 
L 831 1284 
Q 928 806 1161 595 
Q 1394 384 1728 384 
Q 2125 384 2398 659 
Q 2672 934 2672 1341 
Q 2672 1728 2419 1979 
Q 2166 2231 1775 2231 
Q 1616 2231 1378 2169 
L 1441 2663 
Q 1497 2656 1531 2656 
Q 1891 2656 2178 2843 
Q 2466 3031 2466 3422 
Q 2466 3731 2256 3934 
Q 2047 4138 1716 4138 
Q 1388 4138 1169 3931 
Q 950 3725 888 3313 
L 325 3413 
Q 428 3978 793 4289 
Q 1159 4600 1703 4600 
Q 2078 4600 2393 4439 
Q 2709 4278 2876 4000 
Q 3044 3722 3044 3409 
Q 3044 3113 2884 2869 
Q 2725 2625 2413 2481 
Q 2819 2388 3044 2092 
Q 3269 1797 3269 1353 
Q 3269 753 2831 336 
Q 2394 -81 1725 -81 
Q 1122 -81 723 278 
Q 325 638 269 1209 
z
" transform="scale(0.015625)"/>
       </defs>
       <use xlink:href="#ArialMT-33"/>
       <use xlink:href="#ArialMT-2e" transform="translate(55.615234 0)"/>
       <use xlink:href="#ArialMT-30" transform="translate(83.398438 0)"/>
      </g>
     </g>
    </g>
    <g id="ytick_8">
     <g id="line2d_17">
      <g>
       <use xlink:href="#m3fdf2db75f" x="37.01" y="29.26" style="stroke: #000000; stroke-width: 0.8"/>
      </g>
     </g>
     <g id="text_8">
      <!-- 3.5 -->
      <g transform="translate(21.67 31.407344) scale(0.06 -0.06)">
       <use xlink:href="#ArialMT-33"/>
       <use xlink:href="#ArialMT-2e" transform="translate(55.615234 0)"/>
       <use xlink:href="#ArialMT-35" transform="translate(83.398438 0)"/>
      </g>
     </g>
    </g>
    <g id="ytick_9">
     <g id="line2d_18">
      <g>
       <use xlink:href="#m3fdf2db75f" x="37.01" y="10.08" style="stroke: #000000; stroke-width: 0.8"/>
      </g>
     </g>
     <g id="text_9">
      <!-- 4.0 -->
      <g transform="translate(21.67 12.227344) scale(0.06 -0.06)">
       <defs>
        <path id="ArialMT-34" d="M 2069 0 
L 2069 1097 
L 81 1097 
L 81 1613 
L 2172 4581 
L 2631 4581 
L 2631 1613 
L 3250 1613 
L 3250 1097 
L 2631 1097 
L 2631 0 
L 2069 0 
z
M 2069 1613 
L 2069 3678 
L 634 1613 
L 2069 1613 
z
" transform="scale(0.015625)"/>
       </defs>
       <use xlink:href="#ArialMT-34"/>
       <use xlink:href="#ArialMT-2e" transform="translate(55.615234 0)"/>
       <use xlink:href="#ArialMT-30" transform="translate(83.398438 0)"/>
      </g>
     </g>
    </g>
    <g id="text_10">
     <!-- Spacing d/$\lambda_0$ -->
     <g transform="translate(16.13 107.1) rotate(-90) scale(0.07 -0.07)">
      <defs>
       <path id="ArialMT-53" d="M 288 1472 
L 859 1522 
Q 900 1178 1048 958 
Q 1197 738 1509 602 
Q 1822 466 2213 466 
Q 2559 466 2825 569 
Q 3091 672 3220 851 
Q 3350 1031 3350 1244 
Q 3350 1459 3225 1620 
Q 3100 1781 2813 1891 
Q 2628 1963 1997 2114 
Q 1366 2266 1113 2400 
Q 784 2572 623 2826 
Q 463 3081 463 3397 
Q 463 3744 659 4045 
Q 856 4347 1234 4503 
Q 1613 4659 2075 4659 
Q 2584 4659 2973 4495 
Q 3363 4331 3572 4012 
Q 3781 3694 3797 3291 
L 3216 3247 
Q 3169 3681 2898 3903 
Q 2628 4125 2100 4125 
Q 1550 4125 1298 3923 
Q 1047 3722 1047 3438 
Q 1047 3191 1225 3031 
Q 1400 2872 2139 2705 
Q 2878 2538 3153 2413 
Q 3553 2228 3743 1945 
Q 3934 1663 3934 1294 
Q 3934 928 3725 604 
Q 3516 281 3123 101 
Q 2731 -78 2241 -78 
Q 1619 -78 1198 103 
Q 778 284 539 648 
Q 300 1013 288 1472 
z
" transform="scale(0.015625)"/>
       <path id="ArialMT-70" d="M 422 -1272 
L 422 3319 
L 934 3319 
L 934 2888 
Q 1116 3141 1344 3267 
Q 1572 3394 1897 3394 
Q 2322 3394 2647 3175 
Q 2972 2956 3137 2557 
Q 3303 2159 3303 1684 
Q 3303 1175 3120 767 
Q 2938 359 2589 142 
Q 2241 -75 1856 -75 
Q 1575 -75 1351 44 
Q 1128 163 984 344 
L 984 -1272 
L 422 -1272 
z
M 931 1641 
Q 931 1000 1190 694 
Q 1450 388 1819 388 
Q 2194 388 2461 705 
Q 2728 1022 2728 1688 
Q 2728 2322 2467 2637 
Q 2206 2953 1844 2953 
Q 1484 2953 1207 2617 
Q 931 2281 931 1641 
z
" transform="scale(0.015625)"/>
       <path id="ArialMT-61" d="M 2588 409 
Q 2275 144 1986 34 
Q 1697 -75 1366 -75 
Q 819 -75 525 192 
Q 231 459 231 875 
Q 231 1119 342 1320 
Q 453 1522 633 1644 
Q 813 1766 1038 1828 
Q 1203 1872 1538 1913 
Q 2219 1994 2541 2106 
Q 2544 2222 2544 2253 
Q 2544 2597 2384 2738 
Q 2169 2928 1744 2928 
Q 1347 2928 1158 2789 
Q 969 2650 878 2297 
L 328 2372 
Q 403 2725 575 2942 
Q 747 3159 1072 3276 
Q 1397 3394 1825 3394 
Q 2250 3394 2515 3294 
Q 2781 3194 2906 3042 
Q 3031 2891 3081 2659 
Q 3109 2516 3109 2141 
L 3109 1391 
Q 3109 606 3145 398 
Q 3181 191 3288 0 
L 2700 0 
Q 2613 175 2588 409 
z
M 2541 1666 
Q 2234 1541 1622 1453 
Q 1275 1403 1131 1340 
Q 988 1278 909 1158 
Q 831 1038 831 891 
Q 831 666 1001 516 
Q 1172 366 1500 366 
Q 1825 366 2078 508 
Q 2331 650 2450 897 
Q 2541 1088 2541 1459 
L 2541 1666 
z
" transform="scale(0.015625)"/>
       <path id="ArialMT-63" d="M 2588 1216 
L 3141 1144 
Q 3050 572 2676 248 
Q 2303 -75 1759 -75 
Q 1078 -75 664 370 
Q 250 816 250 1647 
Q 250 2184 428 2587 
Q 606 2991 970 3192 
Q 1334 3394 1763 3394 
Q 2303 3394 2647 3120 
Q 2991 2847 3088 2344 
L 2541 2259 
Q 2463 2594 2264 2762 
Q 2066 2931 1784 2931 
Q 1359 2931 1093 2626 
Q 828 2322 828 1663 
Q 828 994 1084 691 
Q 1341 388 1753 388 
Q 2084 388 2306 591 
Q 2528 794 2588 1216 
z
" transform="scale(0.015625)"/>
       <path id="ArialMT-69" d="M 425 3934 
L 425 4581 
L 988 4581 
L 988 3934 
L 425 3934 
z
M 425 0 
L 425 3319 
L 988 3319 
L 988 0 
L 425 0 
z
" transform="scale(0.015625)"/>
       <path id="ArialMT-6e" d="M 422 0 
L 422 3319 
L 928 3319 
L 928 2847 
Q 1294 3394 1984 3394 
Q 2284 3394 2536 3286 
Q 2788 3178 2913 3003 
Q 3038 2828 3088 2588 
Q 3119 2431 3119 2041 
L 3119 0 
L 2556 0 
L 2556 2019 
Q 2556 2363 2490 2533 
Q 2425 2703 2258 2804 
Q 2091 2906 1866 2906 
Q 1506 2906 1245 2678 
Q 984 2450 984 1813 
L 984 0 
L 422 0 
z
" transform="scale(0.015625)"/>
       <path id="ArialMT-67" d="M 319 -275 
L 866 -356 
Q 900 -609 1056 -725 
Q 1266 -881 1628 -881 
Q 2019 -881 2231 -725 
Q 2444 -569 2519 -288 
Q 2563 -116 2559 434 
Q 2191 0 1641 0 
Q 956 0 581 494 
Q 206 988 206 1678 
Q 206 2153 378 2554 
Q 550 2956 876 3175 
Q 1203 3394 1644 3394 
Q 2231 3394 2613 2919 
L 2613 3319 
L 3131 3319 
L 3131 450 
Q 3131 -325 2973 -648 
Q 2816 -972 2473 -1159 
Q 2131 -1347 1631 -1347 
Q 1038 -1347 672 -1080 
Q 306 -813 319 -275 
z
M 784 1719 
Q 784 1066 1043 766 
Q 1303 466 1694 466 
Q 2081 466 2343 764 
Q 2606 1063 2606 1700 
Q 2606 2309 2336 2618 
Q 2066 2928 1684 2928 
Q 1309 2928 1046 2623 
Q 784 2319 784 1719 
z
" transform="scale(0.015625)"/>
       <path id="ArialMT-20" transform="scale(0.015625)"/>
       <path id="ArialMT-64" d="M 2575 0 
L 2575 419 
Q 2259 -75 1647 -75 
Q 1250 -75 917 144 
Q 584 363 401 755 
Q 219 1147 219 1656 
Q 219 2153 384 2558 
Q 550 2963 881 3178 
Q 1213 3394 1622 3394 
Q 1922 3394 2156 3267 
Q 2391 3141 2538 2938 
L 2538 4581 
L 3097 4581 
L 3097 0 
L 2575 0 
z
M 797 1656 
Q 797 1019 1065 703 
Q 1334 388 1700 388 
Q 2069 388 2326 689 
Q 2584 991 2584 1609 
Q 2584 2291 2321 2609 
Q 2059 2928 1675 2928 
Q 1300 2928 1048 2622 
Q 797 2316 797 1656 
z
" transform="scale(0.015625)"/>
       <path id="ArialMT-2f" d="M 0 -78 
L 1328 4659 
L 1778 4659 
L 453 -78 
L 0 -78 
z
" transform="scale(0.015625)"/>
       <path id="DejaVuSans-Oblique-3bb" d="M 2350 4316 
L 3125 0 
L 2516 0 
L 2038 2588 
L 328 0 
L -281 0 
L 1903 3356 
L 1794 3975 
Q 1725 4369 1391 4369 
L 1091 4369 
L 1184 4863 
L 1550 4856 
Q 2253 4847 2350 4316 
z
" transform="scale(0.015625)"/>
       <path id="DejaVuSans-30" d="M 2034 4250 
Q 1547 4250 1301 3770 
Q 1056 3291 1056 2328 
Q 1056 1369 1301 889 
Q 1547 409 2034 409 
Q 2525 409 2770 889 
Q 3016 1369 3016 2328 
Q 3016 3291 2770 3770 
Q 2525 4250 2034 4250 
z
M 2034 4750 
Q 2819 4750 3233 4129 
Q 3647 3509 3647 2328 
Q 3647 1150 3233 529 
Q 2819 -91 2034 -91 
Q 1250 -91 836 529 
Q 422 1150 422 2328 
Q 422 3509 836 4129 
Q 1250 4750 2034 4750 
z
" transform="scale(0.015625)"/>
      </defs>
      <use xlink:href="#ArialMT-53" transform="translate(0 0.015625)"/>
      <use xlink:href="#ArialMT-70" transform="translate(66.699219 0.015625)"/>
      <use xlink:href="#ArialMT-61" transform="translate(122.314453 0.015625)"/>
      <use xlink:href="#ArialMT-63" transform="translate(177.929688 0.015625)"/>
      <use xlink:href="#ArialMT-69" transform="translate(227.929688 0.015625)"/>
      <use xlink:href="#ArialMT-6e" transform="translate(250.146484 0.015625)"/>
      <use xlink:href="#ArialMT-67" transform="translate(305.761719 0.015625)"/>
      <use xlink:href="#ArialMT-20" transform="translate(361.376953 0.015625)"/>
      <use xlink:href="#ArialMT-64" transform="translate(389.160156 0.015625)"/>
      <use xlink:href="#ArialMT-2f" transform="translate(444.775391 0.015625)"/>
      <use xlink:href="#DejaVuSans-Oblique-3bb" transform="translate(472.558594 0.015625)"/>
      <use xlink:href="#DejaVuSans-30" transform="translate(531.738281 -16.390625) scale(0.7)"/>
     </g>
    </g>
   </g>
   <g id="line2d_19">
    <path d="M 37.01 84.948445 
L 39.166948 85.683338 
L 41.323897 85.781502 
L 43.480845 85.451818 
L 45.637793 85.244149 
L 47.794742 85.62421 
L 49.95169 86.382177 
L 52.108638 87.021529 
L 54.265587 87.406607 
L 56.422535 87.480917 
L 60.736432 86.982909 
L 62.89338 86.838013 
L 67.207277 86.049192 
L 69.364225 85.694114 
L 71.521174 84.962938 
L 75.83507 83.201035 
L 77.992019 82.441457 
L 80.148967 81.853672 
L 82.305915 81.394075 
L 86.619812 79.843511 
L 88.776761 79.516543 
L 97.404554 80.542276 
L 99.561502 80.960469 
L 101.718451 81.144893 
L 103.875399 81.837999 
L 106.032347 83.274846 
L 108.189296 84.509494 
L 110.346244 85.526248 
L 112.503192 86.668343 
L 114.660141 88.05256 
L 116.817089 88.933927 
L 118.974038 89.073035 
L 121.130986 88.729388 
L 123.287934 88.093001 
L 125.444883 88.019634 
L 129.758779 88.499835 
L 134.072676 89.439274 
L 136.229624 89.419305 
L 138.386573 89.117689 
L 140.543521 89.022131 
L 142.700469 89.729973 
L 147.014366 92.301354 
L 149.171315 93.250313 
L 151.328263 93.549295 
L 153.485211 93.249516 
L 155.64216 92.525483 
L 159.956056 90.452709 
L 162.113005 90.023583 
L 166.426901 90.019974 
L 172.897746 90.163276 
L 175.054695 89.956214 
L 179.368592 90.627448 
L 181.52554 90.434622 
L 185.839437 89.837043 
L 187.996385 89.22076 
L 190.153333 88.768266 
L 192.310282 88.47869 
L 194.46723 88.043655 
L 196.624178 87.9836 
L 203.095023 88.197717 
L 205.251972 88.128053 
L 207.40892 88.423876 
L 211.722817 90.268065 
L 213.879765 90.910992 
L 216.036714 91.725733 
L 218.193662 93.206729 
L 220.35061 95.03912 
L 222.507559 96.178566 
L 224.664507 96.55144 
L 226.821455 96.424862 
L 228.978404 96.687924 
L 233.2923 97.908704 
L 235.449249 98.90231 
L 237.606197 99.664994 
L 239.763146 99.748845 
L 241.920094 99.453508 
L 248.390939 97.902073 
L 250.547887 97.303834 
L 252.704836 96.467246 
L 257.018732 94.557898 
L 259.175681 93.690673 
L 261.332629 92.611565 
L 263.489577 91.25935 
L 265.646526 89.684126 
L 269.960423 86.104812 
L 272.117371 84.703185 
L 276.431268 83.324462 
L 285.059061 79.7929 
L 287.216009 79.418172 
L 291.529906 79.497383 
L 295.843803 80.647448 
L 298.000751 81.583736 
L 300.1577 82.952114 
L 302.314648 83.818183 
L 304.471596 84.238965 
L 315.256338 84.581904 
L 317.413286 84.720024 
L 319.570235 84.596727 
L 321.727183 84.589714 
L 323.884131 84.81573 
L 326.04108 85.19075 
L 328.198028 86.45613 
L 330.354977 87.87526 
L 332.511925 88.775115 
L 334.668873 89.289474 
L 336.825822 89.254101 
L 338.98277 89.436827 
L 341.139718 90.116038 
L 343.296667 90.424343 
L 345.453615 90.276007 
L 347.610563 89.923148 
L 349.767512 89.236926 
L 354.081408 87.53334 
L 356.238357 86.823981 
L 358.395305 86.61232 
L 360.552254 87.153999 
L 362.709202 88.164202 
L 364.86615 88.974204 
L 367.023099 89.33025 
L 369.180047 89.157638 
L 373.493944 88.010547 
L 375.650892 87.212116 
L 377.80784 86.60253 
L 382.121737 86.919346 
L 384.278685 86.712418 
L 386.435634 86.366041 
L 392.906479 85.742901 
L 395.063427 86.6823 
L 397.220376 87.793831 
L 399.377324 88.24718 
L 403.691221 88.802975 
L 408.005117 89.284767 
L 410.162066 89.27851 
L 416.632911 90.137842 
L 418.789859 90.121793 
L 420.946808 89.784891 
L 425.260704 89.575177 
L 427.417653 89.501375 
L 429.574601 89.254389 
L 431.731549 88.714797 
L 433.888498 88.545322 
L 436.045446 89.622257 
L 438.202394 91.112692 
L 440.359343 91.923503 
L 442.516291 92.282522 
L 444.673239 92.177424 
L 446.830188 92.396232 
L 448.987136 93.362645 
L 451.144085 94.763747 
L 453.301033 96.725614 
L 455.457981 98.354787 
L 457.61493 99.045695 
L 459.771878 99.087588 
L 461.928826 98.789616 
L 464.085775 98.65237 
L 468.399671 99.05821 
L 470.55662 99.382364 
L 472.713568 99.856719 
L 474.870516 100.169809 
L 477.027465 100.164569 
L 479.184413 99.817246 
L 487.812207 96.910829 
L 489.969155 95.821106 
L 492.126103 94.544621 
L 494.283052 93.529904 
L 496.44 92.709992 
L 496.44 92.709992 
" clip-path="url(#p581b9734c8)" style="fill: none; stroke: #1f77b4; stroke-width: 1.5; stroke-linecap: square"/>
   </g>
   <g id="line2d_20">
    <path d="M 37.01 84.214377 
L 45.637793 83.889882 
L 49.95169 83.106079 
L 52.108638 83.189189 
L 54.265587 83.570381 
L 56.422535 84.120997 
L 58.579484 84.80593 
L 60.736432 84.965155 
L 62.89338 84.804072 
L 69.364225 86.520468 
L 71.521174 87.491635 
L 73.678122 88.196671 
L 75.83507 89.13835 
L 82.305915 94.119444 
L 84.462864 96.043635 
L 86.619812 97.506401 
L 88.776761 98.405322 
L 90.933709 98.111208 
L 97.404554 96.710671 
L 101.718451 94.700485 
L 106.032347 91.874918 
L 110.346244 89.778435 
L 112.503192 88.361544 
L 114.660141 86.387625 
L 116.817089 84.718145 
L 118.974038 83.86012 
L 121.130986 83.740747 
L 125.444883 85.009081 
L 127.601831 85.917867 
L 129.758779 86.956825 
L 131.915728 87.120587 
L 140.543521 85.358408 
L 142.700469 84.649557 
L 144.857418 84.309214 
L 151.328263 85.179687 
L 153.485211 85.519936 
L 155.64216 86.651765 
L 157.799108 89.398908 
L 159.956056 92.86562 
L 162.113005 95.524061 
L 164.269953 97.509822 
L 166.426901 98.860802 
L 168.58385 99.41135 
L 170.740798 99.570356 
L 172.897746 99.535361 
L 175.054695 100.094074 
L 177.211643 100.259348 
L 179.368592 99.932689 
L 183.682488 100.641475 
L 185.839437 100.659806 
L 187.996385 101.248672 
L 190.153333 101.7111 
L 192.310282 101.8416 
L 194.46723 102.25224 
L 196.624178 102.21768 
L 198.781127 101.718905 
L 200.938075 100.99703 
L 205.251972 98.928751 
L 207.40892 97.307576 
L 211.722817 92.347952 
L 213.879765 90.035534 
L 216.036714 87.416332 
L 218.193662 84.025886 
L 220.35061 80.156792 
L 222.507559 76.934969 
L 224.664507 74.43512 
L 226.821455 72.323728 
L 231.135352 67.319767 
L 235.449249 63.36124 
L 237.606197 61.3404 
L 239.763146 59.868147 
L 241.920094 58.602754 
L 244.077042 57.5891 
L 246.233991 57.534436 
L 248.390939 59.354588 
L 250.547887 62.506952 
L 252.704836 65.891463 
L 254.861784 68.553878 
L 259.175681 71.967005 
L 261.332629 74.685753 
L 263.489577 78.438493 
L 265.646526 82.757371 
L 267.803474 86.459097 
L 269.960423 89.219114 
L 272.117371 91.480139 
L 276.431268 95.084075 
L 278.588216 97.2802 
L 280.745164 100.093597 
L 282.902113 103.271443 
L 285.059061 106.097771 
L 287.216009 108.020029 
L 289.372958 109.377132 
L 291.529906 110.082964 
L 293.686854 109.940931 
L 295.843803 110.131001 
L 298.000751 109.79481 
L 300.1577 108.986537 
L 306.628545 107.961763 
L 308.785493 107.421261 
L 317.413286 104.681345 
L 321.727183 103.775858 
L 326.04108 102.325684 
L 328.198028 100.904917 
L 330.354977 99.088994 
L 332.511925 97.553356 
L 334.668873 96.178238 
L 336.825822 95.153991 
L 338.98277 93.628528 
L 341.139718 91.524663 
L 343.296667 89.775251 
L 345.453615 88.466537 
L 347.610563 87.602448 
L 349.767512 87.619235 
L 351.92446 88.627423 
L 354.081408 90.728544 
L 356.238357 93.744019 
L 358.395305 96.328825 
L 360.552254 97.429514 
L 362.709202 97.192924 
L 367.023099 95.575319 
L 369.180047 95.086939 
L 373.493944 95.104393 
L 375.650892 95.346352 
L 377.80784 95.827711 
L 379.964789 95.789271 
L 386.435634 95.089215 
L 388.592582 94.449768 
L 392.906479 93.357242 
L 395.063427 92.117911 
L 397.220376 91.189372 
L 401.534272 90.090795 
L 412.319014 87.774731 
L 414.475962 86.978083 
L 416.632911 86.469759 
L 418.789859 86.378061 
L 420.946808 86.675787 
L 423.103756 86.451332 
L 425.260704 86.76043 
L 427.417653 87.365237 
L 429.574601 87.78541 
L 431.731549 88.453205 
L 433.888498 88.492695 
L 436.045446 87.14991 
L 438.202394 85.408967 
L 440.359343 84.041998 
L 442.516291 82.862281 
L 444.673239 81.957082 
L 446.830188 80.580908 
L 448.987136 78.243597 
L 451.144085 75.603028 
L 453.301033 72.729549 
L 455.457981 70.249857 
L 457.61493 68.698177 
L 459.771878 68.005459 
L 461.928826 68.061462 
L 466.242723 68.542001 
L 468.399671 68.306066 
L 470.55662 67.569101 
L 472.713568 66.672996 
L 474.870516 66.874536 
L 477.027465 68.563709 
L 481.341362 73.438911 
L 483.49831 74.875379 
L 485.655258 75.506791 
L 487.812207 76.298957 
L 489.969155 78.842277 
L 492.126103 82.40223 
L 494.283052 85.029906 
L 496.44 86.87754 
L 496.44 86.87754 
" clip-path="url(#p581b9734c8)" style="fill: none; stroke: #ff7f0e; stroke-width: 1.5; stroke-linecap: square"/>
   </g>
   <g id="line2d_21">
    <path d="M 37.01 84.211338 
L 41.323897 84.525872 
L 47.794742 84.935451 
L 49.95169 85.001536 
L 52.108638 84.929033 
L 54.265587 84.570775 
L 58.579484 82.89098 
L 60.736432 82.795125 
L 65.050329 84.364887 
L 71.521174 87.25512 
L 73.678122 87.833878 
L 75.83507 87.883614 
L 77.992019 86.986982 
L 80.148967 85.613603 
L 82.305915 83.626656 
L 84.462864 81.866643 
L 88.776761 79.590187 
L 90.933709 79.260343 
L 93.090657 79.506697 
L 95.247606 80.082869 
L 97.404554 81.26053 
L 99.561502 83.14793 
L 101.718451 85.771188 
L 103.875399 89.052119 
L 106.032347 91.149466 
L 108.189296 92.509978 
L 110.346244 94.10081 
L 112.503192 95.315099 
L 114.660141 96.208553 
L 116.817089 97.230551 
L 118.974038 98.91653 
L 121.130986 100.286203 
L 123.287934 101.015135 
L 125.444883 101.425666 
L 127.601831 101.03882 
L 129.758779 99.907821 
L 131.915728 98.908067 
L 134.072676 98.192181 
L 136.229624 97.710757 
L 140.543521 97.226145 
L 142.700469 97.069844 
L 144.857418 96.120793 
L 147.014366 94.476072 
L 149.171315 93.126855 
L 151.328263 92.296369 
L 153.485211 91.817981 
L 155.64216 90.663502 
L 157.799108 87.884263 
L 164.269953 76.799047 
L 166.426901 73.570175 
L 168.58385 71.041182 
L 170.740798 69.179041 
L 172.897746 67.917625 
L 177.211643 64.903901 
L 179.368592 64.203297 
L 183.682488 63.178921 
L 185.839437 63.16471 
L 187.996385 63.543705 
L 190.153333 63.710521 
L 192.310282 64.230561 
L 196.624178 66.123451 
L 198.781127 67.827699 
L 200.938075 70.558838 
L 203.095023 73.033097 
L 207.40892 76.603339 
L 209.565869 79.708529 
L 211.722817 84.282173 
L 213.879765 89.420962 
L 216.036714 93.927872 
L 218.193662 97.283265 
L 220.35061 100.16037 
L 222.507559 103.754038 
L 224.664507 108.723326 
L 226.821455 114.531268 
L 228.978404 119.787001 
L 231.135352 123.693297 
L 233.2923 126.957513 
L 235.449249 129.948716 
L 237.606197 132.367419 
L 239.763146 134.042584 
L 244.077042 136.70794 
L 246.233991 137.099428 
L 248.390939 135.682717 
L 250.547887 134.0766 
L 252.704836 133.173103 
L 254.861784 132.913769 
L 257.018732 133.036334 
L 259.175681 132.491184 
L 261.332629 130.690818 
L 263.489577 127.974071 
L 265.646526 124.996583 
L 267.803474 122.826574 
L 272.117371 120.281987 
L 274.274319 118.559311 
L 276.431268 116.463072 
L 278.588216 113.976788 
L 280.745164 110.813379 
L 282.902113 106.948966 
L 285.059061 103.423067 
L 289.372958 97.184455 
L 291.529906 94.609776 
L 295.843803 90.199002 
L 298.000751 88.638218 
L 300.1577 87.641772 
L 302.314648 86.355844 
L 304.471596 85.510164 
L 306.628545 85.649317 
L 308.785493 87.280068 
L 310.942441 89.995883 
L 313.09939 93.210994 
L 315.256338 97.370554 
L 317.413286 100.797238 
L 319.570235 103.637042 
L 321.727183 105.912005 
L 323.884131 107.601389 
L 326.04108 108.732556 
L 328.198028 109.499947 
L 330.354977 110.663998 
L 334.668873 113.997424 
L 336.825822 116.296271 
L 343.296667 126.077203 
L 345.453615 128.503058 
L 347.610563 130.17616 
L 349.767512 131.401377 
L 351.92446 131.745731 
L 354.081408 130.512214 
L 356.238357 128.057202 
L 358.395305 125.405878 
L 360.552254 123.042447 
L 362.709202 121.208766 
L 364.86615 119.883652 
L 367.023099 118.847612 
L 373.493944 116.296093 
L 377.80784 115.90725 
L 382.121737 114.830466 
L 388.592582 113.985646 
L 390.749531 113.511837 
L 392.906479 112.76426 
L 397.220376 110.419263 
L 399.377324 109.783071 
L 401.534272 109.956734 
L 405.848169 112.147162 
L 408.005117 113.810627 
L 410.162066 115.817751 
L 412.319014 117.063844 
L 414.475962 117.760717 
L 416.632911 117.849571 
L 420.946808 117.539312 
L 423.103756 117.273349 
L 425.260704 116.097515 
L 427.417653 114.433798 
L 438.202394 106.996139 
L 440.359343 105.680749 
L 442.516291 104.536572 
L 444.673239 103.675653 
L 446.830188 103.496864 
L 448.987136 104.463998 
L 451.144085 105.767181 
L 453.301033 106.452021 
L 455.457981 106.854137 
L 457.61493 107.652309 
L 459.771878 109.14436 
L 464.085775 112.848211 
L 466.242723 114.046647 
L 468.399671 114.782783 
L 470.55662 115.32126 
L 472.713568 115.495484 
L 474.870516 114.411988 
L 477.027465 111.92095 
L 479.184413 108.791466 
L 481.341362 106.066613 
L 483.49831 104.092975 
L 485.655258 102.523009 
L 487.812207 100.772113 
L 489.969155 97.438542 
L 492.126103 93.294793 
L 494.283052 89.851414 
L 496.44 86.920427 
L 496.44 86.920427 
" clip-path="url(#p581b9734c8)" style="fill: none; stroke: #2ca02c; stroke-width: 1.5; stroke-linecap: square"/>
   </g>
   <g id="line2d_22">
    <path d="M 37.01 84.211338 
L 41.323897 84.199867 
L 43.480845 84.322902 
L 47.794742 84.737254 
L 54.265587 85.290024 
L 58.579484 85.95273 
L 60.736432 85.911105 
L 67.207277 85.428719 
L 69.364225 84.877965 
L 71.521174 84.04901 
L 75.83507 83.062291 
L 77.992019 82.940796 
L 82.305915 84.239616 
L 84.462864 84.389563 
L 86.619812 84.412819 
L 88.776761 84.634598 
L 90.933709 85.070035 
L 95.247606 86.174073 
L 97.404554 86.071059 
L 99.561502 84.759467 
L 101.718451 83.102863 
L 103.875399 80.947727 
L 112.503192 74.022572 
L 116.817089 71.50255 
L 121.130986 68.043217 
L 123.287934 66.630198 
L 125.444883 65.432347 
L 127.601831 64.773028 
L 129.758779 64.62992 
L 131.915728 65.173092 
L 136.229624 67.406277 
L 140.543521 68.675505 
L 142.700469 69.886481 
L 144.857418 72.146302 
L 147.014366 74.77282 
L 149.171315 76.659685 
L 153.485211 78.552793 
L 155.64216 80.24067 
L 157.799108 83.306336 
L 159.956056 87.40187 
L 162.113005 91.178456 
L 164.269953 94.057631 
L 166.426901 96.592639 
L 168.58385 99.912997 
L 170.740798 104.270836 
L 172.897746 108.911699 
L 175.054695 112.92347 
L 177.211643 116.520634 
L 179.368592 119.096654 
L 181.52554 120.645696 
L 183.682488 121.787378 
L 185.839437 122.564064 
L 187.996385 122.56092 
L 190.153333 123.145187 
L 192.310282 123.938875 
L 194.46723 124.293083 
L 196.624178 125.007883 
L 198.781127 125.101751 
L 203.095023 122.107088 
L 205.251972 121.405882 
L 207.40892 120.554513 
L 209.565869 118.422186 
L 211.722817 114.611483 
L 213.879765 110.214368 
L 216.036714 106.694571 
L 218.193662 104.323865 
L 220.35061 102.304936 
L 222.507559 99.397122 
L 224.664507 95.076712 
L 226.821455 89.937242 
L 228.978404 85.156965 
L 235.449249 73.584347 
L 237.606197 70.365046 
L 239.763146 68.052588 
L 241.920094 66.447655 
L 244.077042 65.252243 
L 246.233991 64.72165 
L 250.547887 65.556271 
L 252.704836 65.500612 
L 254.861784 65.150328 
L 257.018732 64.597474 
L 259.175681 64.291223 
L 261.332629 65.668331 
L 263.489577 68.828921 
L 265.646526 72.201732 
L 267.803474 74.598066 
L 272.117371 77.354267 
L 274.274319 80.066774 
L 276.431268 84.307494 
L 278.588216 89.042058 
L 280.745164 92.989844 
L 282.902113 95.812573 
L 285.059061 98.289485 
L 287.216009 101.762205 
L 289.372958 106.711059 
L 291.529906 112.151666 
L 293.686854 116.710781 
L 295.843803 120.79469 
L 298.000751 124.451296 
L 302.314648 129.181449 
L 304.471596 131.604307 
L 306.628545 133.196697 
L 308.785493 133.245835 
L 310.942441 131.956052 
L 313.09939 129.730398 
L 315.256338 126.436358 
L 317.413286 123.729931 
L 319.570235 121.355877 
L 321.727183 119.158093 
L 323.884131 117.31338 
L 328.198028 113.815567 
L 330.354977 111.612354 
L 332.511925 109.203093 
L 334.668873 107.019016 
L 336.825822 104.392765 
L 343.296667 94.542455 
L 345.453615 91.999525 
L 347.610563 89.783648 
L 349.767512 87.366717 
L 351.92446 85.188562 
L 354.081408 83.974909 
L 356.238357 83.489573 
L 358.395305 83.650596 
L 362.709202 84.995872 
L 364.86615 85.948984 
L 367.023099 88.361817 
L 369.180047 92.488028 
L 371.336995 97.280643 
L 373.493944 101.470475 
L 375.650892 104.0265 
L 377.80784 105.319477 
L 382.121737 107.02773 
L 384.278685 107.625073 
L 386.435634 108.447839 
L 388.592582 110.165209 
L 392.906479 114.950674 
L 395.063427 116.726835 
L 397.220376 117.678515 
L 399.377324 118.963076 
L 401.534272 120.037445 
L 403.691221 120.654282 
L 405.848169 121.09145 
L 408.005117 120.356724 
L 410.162066 119.187209 
L 412.319014 118.59607 
L 414.475962 118.199497 
L 416.632911 117.935886 
L 418.789859 117.424774 
L 420.946808 116.783126 
L 423.103756 116.481912 
L 425.260704 116.404539 
L 427.417653 116.975682 
L 429.574601 118.903435 
L 431.731549 121.702094 
L 433.888498 125.489033 
L 436.045446 130.575496 
L 438.202394 136.082713 
L 442.516291 144.990763 
L 444.673239 149.102234 
L 446.830188 151.681052 
L 448.987136 152.429698 
L 451.144085 152.463949 
L 453.301033 153.712566 
L 455.457981 155.927356 
L 457.61493 157.871096 
L 459.771878 158.191769 
L 461.928826 156.947164 
L 464.085775 155.237085 
L 466.242723 154.199185 
L 468.399671 154.325748 
L 472.713568 155.851028 
L 474.870516 156.444688 
L 477.027465 156.784416 
L 479.184413 156.863734 
L 481.341362 156.794735 
L 483.49831 156.884924 
L 485.655258 157.498499 
L 489.969155 159.463007 
L 492.126103 160.97417 
L 496.44 165.9884 
L 496.44 165.9884 
" clip-path="url(#p581b9734c8)" style="fill: none; stroke: #d62728; stroke-width: 1.5; stroke-linecap: square"/>
   </g>
   <g id="patch_3">
    <path d="M 37.01 163.52 
L 37.01 10.08 
" style="fill: none; stroke: #000000; stroke-width: 0.8; stroke-linejoin: miter; stroke-linecap: square"/>
   </g>
   <g id="patch_4">
    <path d="M 496.44 163.52 
L 496.44 10.08 
" style="fill: none; stroke: #000000; stroke-width: 0.8; stroke-linejoin: miter; stroke-linecap: square"/>
   </g>
   <g id="patch_5">
    <path d="M 37.01 163.52 
L 496.44 163.52 
" style="fill: none; stroke: #000000; stroke-width: 0.8; stroke-linejoin: miter; stroke-linecap: square"/>
   </g>
   <g id="patch_6">
    <path d="M 37.01 10.08 
L 496.44 10.08 
" style="fill: none; stroke: #000000; stroke-width: 0.8; stroke-linejoin: miter; stroke-linecap: square"/>
   </g>
   <g id="legend_1">
    <g id="patch_7">
     <path d="M 445.010781 55.677344 
L 491.54 55.677344 
Q 492.94 55.677344 492.94 54.277344 
L 492.94 14.98 
Q 492.94 13.58 491.54 13.58 
L 445.010781 13.58 
Q 443.610781 13.58 443.610781 14.98 
L 443.610781 54.277344 
Q 443.610781 55.677344 445.010781 55.677344 
z
" style="fill: #ffffff; opacity: 0.8; stroke: #cccccc; stroke-linejoin: miter"/>
    </g>
    <g id="line2d_23">
     <path d="M 446.410781 18.96125 
L 453.410781 18.96125 
L 460.410781 18.96125 
" style="fill: none; stroke: #1f77b4; stroke-width: 1.5; stroke-linecap: square"/>
    </g>
    <g id="text_11">
     <!-- Agent 1 -->
     <g transform="translate(466.010781 21.41125) scale(0.07 -0.07)">
      <defs>
       <path id="ArialMT-41" d="M -9 0 
L 1750 4581 
L 2403 4581 
L 4278 0 
L 3588 0 
L 3053 1388 
L 1138 1388 
L 634 0 
L -9 0 
z
M 1313 1881 
L 2866 1881 
L 2388 3150 
Q 2169 3728 2063 4100 
Q 1975 3659 1816 3225 
L 1313 1881 
z
" transform="scale(0.015625)"/>
       <path id="ArialMT-65" d="M 2694 1069 
L 3275 997 
Q 3138 488 2766 206 
Q 2394 -75 1816 -75 
Q 1088 -75 661 373 
Q 234 822 234 1631 
Q 234 2469 665 2931 
Q 1097 3394 1784 3394 
Q 2450 3394 2872 2941 
Q 3294 2488 3294 1666 
Q 3294 1616 3291 1516 
L 816 1516 
Q 847 969 1125 678 
Q 1403 388 1819 388 
Q 2128 388 2347 550 
Q 2566 713 2694 1069 
z
M 847 1978 
L 2700 1978 
Q 2663 2397 2488 2606 
Q 2219 2931 1791 2931 
Q 1403 2931 1139 2672 
Q 875 2413 847 1978 
z
" transform="scale(0.015625)"/>
       <path id="ArialMT-74" d="M 1650 503 
L 1731 6 
Q 1494 -44 1306 -44 
Q 1000 -44 831 53 
Q 663 150 594 308 
Q 525 466 525 972 
L 525 2881 
L 113 2881 
L 113 3319 
L 525 3319 
L 525 4141 
L 1084 4478 
L 1084 3319 
L 1650 3319 
L 1650 2881 
L 1084 2881 
L 1084 941 
Q 1084 700 1114 631 
Q 1144 563 1211 522 
Q 1278 481 1403 481 
Q 1497 481 1650 503 
z
" transform="scale(0.015625)"/>
      </defs>
      <use xlink:href="#ArialMT-41"/>
      <use xlink:href="#ArialMT-67" transform="translate(66.699219 0)"/>
      <use xlink:href="#ArialMT-65" transform="translate(122.314453 0)"/>
      <use xlink:href="#ArialMT-6e" transform="translate(177.929688 0)"/>
      <use xlink:href="#ArialMT-74" transform="translate(233.544922 0)"/>
      <use xlink:href="#ArialMT-20" transform="translate(261.328125 0)"/>
      <use xlink:href="#ArialMT-31" transform="translate(289.111328 0)"/>
     </g>
    </g>
    <g id="line2d_24">
     <path d="M 446.410781 28.965781 
L 453.410781 28.965781 
L 460.410781 28.965781 
" style="fill: none; stroke: #ff7f0e; stroke-width: 1.5; stroke-linecap: square"/>
    </g>
    <g id="text_12">
     <!-- Agent 2 -->
     <g transform="translate(466.010781 31.415781) scale(0.07 -0.07)">
      <use xlink:href="#ArialMT-41"/>
      <use xlink:href="#ArialMT-67" transform="translate(66.699219 0)"/>
      <use xlink:href="#ArialMT-65" transform="translate(122.314453 0)"/>
      <use xlink:href="#ArialMT-6e" transform="translate(177.929688 0)"/>
      <use xlink:href="#ArialMT-74" transform="translate(233.544922 0)"/>
      <use xlink:href="#ArialMT-20" transform="translate(261.328125 0)"/>
      <use xlink:href="#ArialMT-32" transform="translate(289.111328 0)"/>
     </g>
    </g>
    <g id="line2d_25">
     <path d="M 446.410781 38.970313 
L 453.410781 38.970313 
L 460.410781 38.970313 
" style="fill: none; stroke: #2ca02c; stroke-width: 1.5; stroke-linecap: square"/>
    </g>
    <g id="text_13">
     <!-- Agent 3 -->
     <g transform="translate(466.010781 41.420313) scale(0.07 -0.07)">
      <use xlink:href="#ArialMT-41"/>
      <use xlink:href="#ArialMT-67" transform="translate(66.699219 0)"/>
      <use xlink:href="#ArialMT-65" transform="translate(122.314453 0)"/>
      <use xlink:href="#ArialMT-6e" transform="translate(177.929688 0)"/>
      <use xlink:href="#ArialMT-74" transform="translate(233.544922 0)"/>
      <use xlink:href="#ArialMT-20" transform="translate(261.328125 0)"/>
      <use xlink:href="#ArialMT-33" transform="translate(289.111328 0)"/>
     </g>
    </g>
    <g id="line2d_26">
     <path d="M 446.410781 48.954063 
L 453.410781 48.954063 
L 460.410781 48.954063 
" style="fill: none; stroke: #d62728; stroke-width: 1.5; stroke-linecap: square"/>
    </g>
    <g id="text_14">
     <!-- Agent 4 -->
     <g transform="translate(466.010781 51.404063) scale(0.07 -0.07)">
      <use xlink:href="#ArialMT-41"/>
      <use xlink:href="#ArialMT-67" transform="translate(66.699219 0)"/>
      <use xlink:href="#ArialMT-65" transform="translate(122.314453 0)"/>
      <use xlink:href="#ArialMT-6e" transform="translate(177.929688 0)"/>
      <use xlink:href="#ArialMT-74" transform="translate(233.544922 0)"/>
      <use xlink:href="#ArialMT-20" transform="translate(261.328125 0)"/>
      <use xlink:href="#ArialMT-34" transform="translate(289.111328 0)"/>
     </g>
    </g>
   </g>
  </g>
  <g id="axes_2">
   <g id="patch_8">
    <path d="M 37.01 328.48 
L 496.44 328.48 
L 496.44 175.04 
L 37.01 175.04 
z
" style="fill: #ffffff"/>
   </g>
   <g id="matplotlib.axis_3">
    <g id="xtick_10">
     <g id="line2d_27">
      <g>
       <use xlink:href="#m7acfff9c10" x="37.01" y="328.48" style="stroke: #000000; stroke-width: 0.8"/>
      </g>
     </g>
     <g id="text_15">
      <!-- 0 -->
      <g transform="translate(35.341719 339.774688) scale(0.06 -0.06)">
       <use xlink:href="#ArialMT-30"/>
      </g>
     </g>
    </g>
    <g id="xtick_11">
     <g id="line2d_28">
      <g>
       <use xlink:href="#m7acfff9c10" x="90.933709" y="328.48" style="stroke: #000000; stroke-width: 0.8"/>
      </g>
     </g>
     <g id="text_16">
      <!-- 25 -->
      <g transform="translate(87.597146 339.774688) scale(0.06 -0.06)">
       <use xlink:href="#ArialMT-32"/>
       <use xlink:href="#ArialMT-35" transform="translate(55.615234 0)"/>
      </g>
     </g>
    </g>
    <g id="xtick_12">
     <g id="line2d_29">
      <g>
       <use xlink:href="#m7acfff9c10" x="144.857418" y="328.48" style="stroke: #000000; stroke-width: 0.8"/>
      </g>
     </g>
     <g id="text_17">
      <!-- 50 -->
      <g transform="translate(141.520855 339.774688) scale(0.06 -0.06)">
       <use xlink:href="#ArialMT-35"/>
       <use xlink:href="#ArialMT-30" transform="translate(55.615234 0)"/>
      </g>
     </g>
    </g>
    <g id="xtick_13">
     <g id="line2d_30">
      <g>
       <use xlink:href="#m7acfff9c10" x="198.781127" y="328.48" style="stroke: #000000; stroke-width: 0.8"/>
      </g>
     </g>
     <g id="text_18">
      <!-- 75 -->
      <g transform="translate(195.444564 339.774688) scale(0.06 -0.06)">
       <defs>
        <path id="ArialMT-37" d="M 303 3981 
L 303 4522 
L 3269 4522 
L 3269 4084 
Q 2831 3619 2401 2847 
Q 1972 2075 1738 1259 
Q 1569 684 1522 0 
L 944 0 
Q 953 541 1156 1306 
Q 1359 2072 1739 2783 
Q 2119 3494 2547 3981 
L 303 3981 
z
" transform="scale(0.015625)"/>
       </defs>
       <use xlink:href="#ArialMT-37"/>
       <use xlink:href="#ArialMT-35" transform="translate(55.615234 0)"/>
      </g>
     </g>
    </g>
    <g id="xtick_14">
     <g id="line2d_31">
      <g>
       <use xlink:href="#m7acfff9c10" x="252.704836" y="328.48" style="stroke: #000000; stroke-width: 0.8"/>
      </g>
     </g>
     <g id="text_19">
      <!-- 100 -->
      <g transform="translate(247.699992 339.774688) scale(0.06 -0.06)">
       <use xlink:href="#ArialMT-31"/>
       <use xlink:href="#ArialMT-30" transform="translate(55.615234 0)"/>
       <use xlink:href="#ArialMT-30" transform="translate(111.230469 0)"/>
      </g>
     </g>
    </g>
    <g id="xtick_15">
     <g id="line2d_32">
      <g>
       <use xlink:href="#m7acfff9c10" x="306.628545" y="328.48" style="stroke: #000000; stroke-width: 0.8"/>
      </g>
     </g>
     <g id="text_20">
      <!-- 125 -->
      <g transform="translate(301.623701 339.774688) scale(0.06 -0.06)">
       <use xlink:href="#ArialMT-31"/>
       <use xlink:href="#ArialMT-32" transform="translate(55.615234 0)"/>
       <use xlink:href="#ArialMT-35" transform="translate(111.230469 0)"/>
      </g>
     </g>
    </g>
    <g id="xtick_16">
     <g id="line2d_33">
      <g>
       <use xlink:href="#m7acfff9c10" x="360.552254" y="328.48" style="stroke: #000000; stroke-width: 0.8"/>
      </g>
     </g>
     <g id="text_21">
      <!-- 150 -->
      <g transform="translate(355.54741 339.774688) scale(0.06 -0.06)">
       <use xlink:href="#ArialMT-31"/>
       <use xlink:href="#ArialMT-35" transform="translate(55.615234 0)"/>
       <use xlink:href="#ArialMT-30" transform="translate(111.230469 0)"/>
      </g>
     </g>
    </g>
    <g id="xtick_17">
     <g id="line2d_34">
      <g>
       <use xlink:href="#m7acfff9c10" x="414.475962" y="328.48" style="stroke: #000000; stroke-width: 0.8"/>
      </g>
     </g>
     <g id="text_22">
      <!-- 175 -->
      <g transform="translate(409.471119 339.774688) scale(0.06 -0.06)">
       <use xlink:href="#ArialMT-31"/>
       <use xlink:href="#ArialMT-37" transform="translate(55.615234 0)"/>
       <use xlink:href="#ArialMT-35" transform="translate(111.230469 0)"/>
      </g>
     </g>
    </g>
    <g id="xtick_18">
     <g id="line2d_35">
      <g>
       <use xlink:href="#m7acfff9c10" x="468.399671" y="328.48" style="stroke: #000000; stroke-width: 0.8"/>
      </g>
     </g>
     <g id="text_23">
      <!-- 200 -->
      <g transform="translate(463.394828 339.774688) scale(0.06 -0.06)">
       <use xlink:href="#ArialMT-32"/>
       <use xlink:href="#ArialMT-30" transform="translate(55.615234 0)"/>
       <use xlink:href="#ArialMT-30" transform="translate(111.230469 0)"/>
      </g>
     </g>
    </g>
    <g id="text_24">
     <!-- Timesteps (0.1 s) -->
     <g transform="translate(239.823672 350.062969) scale(0.07 -0.07)">
      <defs>
       <path id="ArialMT-54" d="M 1659 0 
L 1659 4041 
L 150 4041 
L 150 4581 
L 3781 4581 
L 3781 4041 
L 2266 4041 
L 2266 0 
L 1659 0 
z
" transform="scale(0.015625)"/>
       <path id="ArialMT-6d" d="M 422 0 
L 422 3319 
L 925 3319 
L 925 2853 
Q 1081 3097 1340 3245 
Q 1600 3394 1931 3394 
Q 2300 3394 2536 3241 
Q 2772 3088 2869 2813 
Q 3263 3394 3894 3394 
Q 4388 3394 4653 3120 
Q 4919 2847 4919 2278 
L 4919 0 
L 4359 0 
L 4359 2091 
Q 4359 2428 4304 2576 
Q 4250 2725 4106 2815 
Q 3963 2906 3769 2906 
Q 3419 2906 3187 2673 
Q 2956 2441 2956 1928 
L 2956 0 
L 2394 0 
L 2394 2156 
Q 2394 2531 2256 2718 
Q 2119 2906 1806 2906 
Q 1569 2906 1367 2781 
Q 1166 2656 1075 2415 
Q 984 2175 984 1722 
L 984 0 
L 422 0 
z
" transform="scale(0.015625)"/>
       <path id="ArialMT-73" d="M 197 991 
L 753 1078 
Q 800 744 1014 566 
Q 1228 388 1613 388 
Q 2000 388 2187 545 
Q 2375 703 2375 916 
Q 2375 1106 2209 1216 
Q 2094 1291 1634 1406 
Q 1016 1563 777 1677 
Q 538 1791 414 1992 
Q 291 2194 291 2438 
Q 291 2659 392 2848 
Q 494 3038 669 3163 
Q 800 3259 1026 3326 
Q 1253 3394 1513 3394 
Q 1903 3394 2198 3281 
Q 2494 3169 2634 2976 
Q 2775 2784 2828 2463 
L 2278 2388 
Q 2241 2644 2061 2787 
Q 1881 2931 1553 2931 
Q 1166 2931 1000 2803 
Q 834 2675 834 2503 
Q 834 2394 903 2306 
Q 972 2216 1119 2156 
Q 1203 2125 1616 2013 
Q 2213 1853 2448 1751 
Q 2684 1650 2818 1456 
Q 2953 1263 2953 975 
Q 2953 694 2789 445 
Q 2625 197 2315 61 
Q 2006 -75 1616 -75 
Q 969 -75 630 194 
Q 291 463 197 991 
z
" transform="scale(0.015625)"/>
       <path id="ArialMT-28" d="M 1497 -1347 
Q 1031 -759 709 28 
Q 388 816 388 1659 
Q 388 2403 628 3084 
Q 909 3875 1497 4659 
L 1900 4659 
Q 1522 4009 1400 3731 
Q 1209 3300 1100 2831 
Q 966 2247 966 1656 
Q 966 153 1900 -1347 
L 1497 -1347 
z
" transform="scale(0.015625)"/>
       <path id="ArialMT-29" d="M 791 -1347 
L 388 -1347 
Q 1322 153 1322 1656 
Q 1322 2244 1188 2822 
Q 1081 3291 891 3722 
Q 769 4003 388 4659 
L 791 4659 
Q 1378 3875 1659 3084 
Q 1900 2403 1900 1659 
Q 1900 816 1576 28 
Q 1253 -759 791 -1347 
z
" transform="scale(0.015625)"/>
      </defs>
      <use xlink:href="#ArialMT-54"/>
      <use xlink:href="#ArialMT-69" transform="translate(57.333984 0)"/>
      <use xlink:href="#ArialMT-6d" transform="translate(79.550781 0)"/>
      <use xlink:href="#ArialMT-65" transform="translate(162.851562 0)"/>
      <use xlink:href="#ArialMT-73" transform="translate(218.466797 0)"/>
      <use xlink:href="#ArialMT-74" transform="translate(268.466797 0)"/>
      <use xlink:href="#ArialMT-65" transform="translate(296.25 0)"/>
      <use xlink:href="#ArialMT-70" transform="translate(351.865234 0)"/>
      <use xlink:href="#ArialMT-73" transform="translate(407.480469 0)"/>
      <use xlink:href="#ArialMT-20" transform="translate(457.480469 0)"/>
      <use xlink:href="#ArialMT-28" transform="translate(485.263672 0)"/>
      <use xlink:href="#ArialMT-30" transform="translate(518.564453 0)"/>
      <use xlink:href="#ArialMT-2e" transform="translate(574.179688 0)"/>
      <use xlink:href="#ArialMT-31" transform="translate(601.962891 0)"/>
      <use xlink:href="#ArialMT-20" transform="translate(657.578125 0)"/>
      <use xlink:href="#ArialMT-73" transform="translate(685.361328 0)"/>
      <use xlink:href="#ArialMT-29" transform="translate(735.361328 0)"/>
     </g>
    </g>
   </g>
   <g id="matplotlib.axis_4">
    <g id="ytick_10">
     <g id="line2d_36">
      <g>
       <use xlink:href="#m3fdf2db75f" x="37.01" y="328.48" style="stroke: #000000; stroke-width: 0.8"/>
      </g>
     </g>
     <g id="text_25">
      <!-- 0 -->
      <g transform="translate(26.673438 330.627344) scale(0.06 -0.06)">
       <use xlink:href="#ArialMT-30"/>
      </g>
     </g>
    </g>
    <g id="ytick_11">
     <g id="line2d_37">
      <g>
       <use xlink:href="#m3fdf2db75f" x="37.01" y="308.021333" style="stroke: #000000; stroke-width: 0.8"/>
      </g>
     </g>
     <g id="text_26">
      <!-- 2 -->
      <g transform="translate(26.673438 310.168677) scale(0.06 -0.06)">
       <use xlink:href="#ArialMT-32"/>
      </g>
     </g>
    </g>
    <g id="ytick_12">
     <g id="line2d_38">
      <g>
       <use xlink:href="#m3fdf2db75f" x="37.01" y="287.562667" style="stroke: #000000; stroke-width: 0.8"/>
      </g>
     </g>
     <g id="text_27">
      <!-- 4 -->
      <g transform="translate(26.673438 289.71001) scale(0.06 -0.06)">
       <use xlink:href="#ArialMT-34"/>
      </g>
     </g>
    </g>
    <g id="ytick_13">
     <g id="line2d_39">
      <g>
       <use xlink:href="#m3fdf2db75f" x="37.01" y="267.104" style="stroke: #000000; stroke-width: 0.8"/>
      </g>
     </g>
     <g id="text_28">
      <!-- 6 -->
      <g transform="translate(26.673438 269.251344) scale(0.06 -0.06)">
       <defs>
        <path id="ArialMT-36" d="M 3184 3459 
L 2625 3416 
Q 2550 3747 2413 3897 
Q 2184 4138 1850 4138 
Q 1581 4138 1378 3988 
Q 1113 3794 959 3422 
Q 806 3050 800 2363 
Q 1003 2672 1297 2822 
Q 1591 2972 1913 2972 
Q 2475 2972 2870 2558 
Q 3266 2144 3266 1488 
Q 3266 1056 3080 686 
Q 2894 316 2569 119 
Q 2244 -78 1831 -78 
Q 1128 -78 684 439 
Q 241 956 241 2144 
Q 241 3472 731 4075 
Q 1159 4600 1884 4600 
Q 2425 4600 2770 4297 
Q 3116 3994 3184 3459 
z
M 888 1484 
Q 888 1194 1011 928 
Q 1134 663 1356 523 
Q 1578 384 1822 384 
Q 2178 384 2434 671 
Q 2691 959 2691 1453 
Q 2691 1928 2437 2201 
Q 2184 2475 1800 2475 
Q 1419 2475 1153 2201 
Q 888 1928 888 1484 
z
" transform="scale(0.015625)"/>
       </defs>
       <use xlink:href="#ArialMT-36"/>
      </g>
     </g>
    </g>
    <g id="ytick_14">
     <g id="line2d_40">
      <g>
       <use xlink:href="#m3fdf2db75f" x="37.01" y="246.645333" style="stroke: #000000; stroke-width: 0.8"/>
      </g>
     </g>
     <g id="text_29">
      <!-- 8 -->
      <g transform="translate(26.673438 248.792677) scale(0.06 -0.06)">
       <defs>
        <path id="ArialMT-38" d="M 1131 2484 
Q 781 2613 612 2850 
Q 444 3088 444 3419 
Q 444 3919 803 4259 
Q 1163 4600 1759 4600 
Q 2359 4600 2725 4251 
Q 3091 3903 3091 3403 
Q 3091 3084 2923 2848 
Q 2756 2613 2416 2484 
Q 2838 2347 3058 2040 
Q 3278 1734 3278 1309 
Q 3278 722 2862 322 
Q 2447 -78 1769 -78 
Q 1091 -78 675 323 
Q 259 725 259 1325 
Q 259 1772 486 2073 
Q 713 2375 1131 2484 
z
M 1019 3438 
Q 1019 3113 1228 2906 
Q 1438 2700 1772 2700 
Q 2097 2700 2305 2904 
Q 2513 3109 2513 3406 
Q 2513 3716 2298 3927 
Q 2084 4138 1766 4138 
Q 1444 4138 1231 3931 
Q 1019 3725 1019 3438 
z
M 838 1322 
Q 838 1081 952 856 
Q 1066 631 1291 507 
Q 1516 384 1775 384 
Q 2178 384 2440 643 
Q 2703 903 2703 1303 
Q 2703 1709 2433 1975 
Q 2163 2241 1756 2241 
Q 1359 2241 1098 1978 
Q 838 1716 838 1322 
z
" transform="scale(0.015625)"/>
       </defs>
       <use xlink:href="#ArialMT-38"/>
      </g>
     </g>
    </g>
    <g id="ytick_15">
     <g id="line2d_41">
      <g>
       <use xlink:href="#m3fdf2db75f" x="37.01" y="226.186667" style="stroke: #000000; stroke-width: 0.8"/>
      </g>
     </g>
     <g id="text_30">
      <!-- 10 -->
      <g transform="translate(23.336875 228.33401) scale(0.06 -0.06)">
       <use xlink:href="#ArialMT-31"/>
       <use xlink:href="#ArialMT-30" transform="translate(55.615234 0)"/>
      </g>
     </g>
    </g>
    <g id="ytick_16">
     <g id="line2d_42">
      <g>
       <use xlink:href="#m3fdf2db75f" x="37.01" y="205.728" style="stroke: #000000; stroke-width: 0.8"/>
      </g>
     </g>
     <g id="text_31">
      <!-- 12 -->
      <g transform="translate(23.336875 207.875344) scale(0.06 -0.06)">
       <use xlink:href="#ArialMT-31"/>
       <use xlink:href="#ArialMT-32" transform="translate(55.615234 0)"/>
      </g>
     </g>
    </g>
    <g id="ytick_17">
     <g id="line2d_43">
      <g>
       <use xlink:href="#m3fdf2db75f" x="37.01" y="185.269333" style="stroke: #000000; stroke-width: 0.8"/>
      </g>
     </g>
     <g id="text_32">
      <!-- 14 -->
      <g transform="translate(23.336875 187.416677) scale(0.06 -0.06)">
       <use xlink:href="#ArialMT-31"/>
       <use xlink:href="#ArialMT-34" transform="translate(55.615234 0)"/>
      </g>
     </g>
    </g>
    <g id="text_33">
     <!-- Distance from leader (d/$\lambda_0$) -->
     <g transform="translate(17.796875 294.005) rotate(-90) scale(0.07 -0.07)">
      <defs>
       <path id="ArialMT-44" d="M 494 0 
L 494 4581 
L 2072 4581 
Q 2606 4581 2888 4516 
Q 3281 4425 3559 4188 
Q 3922 3881 4101 3404 
Q 4281 2928 4281 2316 
Q 4281 1794 4159 1391 
Q 4038 988 3847 723 
Q 3656 459 3429 307 
Q 3203 156 2883 78 
Q 2563 0 2147 0 
L 494 0 
z
M 1100 541 
L 2078 541 
Q 2531 541 2789 625 
Q 3047 709 3200 863 
Q 3416 1078 3536 1442 
Q 3656 1806 3656 2325 
Q 3656 3044 3420 3430 
Q 3184 3816 2847 3947 
Q 2603 4041 2063 4041 
L 1100 4041 
L 1100 541 
z
" transform="scale(0.015625)"/>
       <path id="ArialMT-66" d="M 556 0 
L 556 2881 
L 59 2881 
L 59 3319 
L 556 3319 
L 556 3672 
Q 556 4006 616 4169 
Q 697 4388 901 4523 
Q 1106 4659 1475 4659 
Q 1713 4659 2000 4603 
L 1916 4113 
Q 1741 4144 1584 4144 
Q 1328 4144 1222 4034 
Q 1116 3925 1116 3625 
L 1116 3319 
L 1763 3319 
L 1763 2881 
L 1116 2881 
L 1116 0 
L 556 0 
z
" transform="scale(0.015625)"/>
       <path id="ArialMT-72" d="M 416 0 
L 416 3319 
L 922 3319 
L 922 2816 
Q 1116 3169 1280 3281 
Q 1444 3394 1641 3394 
Q 1925 3394 2219 3213 
L 2025 2691 
Q 1819 2813 1613 2813 
Q 1428 2813 1281 2702 
Q 1134 2591 1072 2394 
Q 978 2094 978 1738 
L 978 0 
L 416 0 
z
" transform="scale(0.015625)"/>
       <path id="ArialMT-6f" d="M 213 1659 
Q 213 2581 725 3025 
Q 1153 3394 1769 3394 
Q 2453 3394 2887 2945 
Q 3322 2497 3322 1706 
Q 3322 1066 3130 698 
Q 2938 331 2570 128 
Q 2203 -75 1769 -75 
Q 1072 -75 642 372 
Q 213 819 213 1659 
z
M 791 1659 
Q 791 1022 1069 705 
Q 1347 388 1769 388 
Q 2188 388 2466 706 
Q 2744 1025 2744 1678 
Q 2744 2294 2464 2611 
Q 2184 2928 1769 2928 
Q 1347 2928 1069 2612 
Q 791 2297 791 1659 
z
" transform="scale(0.015625)"/>
       <path id="ArialMT-6c" d="M 409 0 
L 409 4581 
L 972 4581 
L 972 0 
L 409 0 
z
" transform="scale(0.015625)"/>
      </defs>
      <use xlink:href="#ArialMT-44" transform="translate(0 0.015625)"/>
      <use xlink:href="#ArialMT-69" transform="translate(72.216797 0.015625)"/>
      <use xlink:href="#ArialMT-73" transform="translate(94.433594 0.015625)"/>
      <use xlink:href="#ArialMT-74" transform="translate(144.433594 0.015625)"/>
      <use xlink:href="#ArialMT-61" transform="translate(172.216797 0.015625)"/>
      <use xlink:href="#ArialMT-6e" transform="translate(227.832031 0.015625)"/>
      <use xlink:href="#ArialMT-63" transform="translate(283.447266 0.015625)"/>
      <use xlink:href="#ArialMT-65" transform="translate(333.447266 0.015625)"/>
      <use xlink:href="#ArialMT-20" transform="translate(389.0625 0.015625)"/>
      <use xlink:href="#ArialMT-66" transform="translate(416.845703 0.015625)"/>
      <use xlink:href="#ArialMT-72" transform="translate(444.628906 0.015625)"/>
      <use xlink:href="#ArialMT-6f" transform="translate(477.929688 0.015625)"/>
      <use xlink:href="#ArialMT-6d" transform="translate(533.544922 0.015625)"/>
      <use xlink:href="#ArialMT-20" transform="translate(616.845703 0.015625)"/>
      <use xlink:href="#ArialMT-6c" transform="translate(644.628906 0.015625)"/>
      <use xlink:href="#ArialMT-65" transform="translate(666.845703 0.015625)"/>
      <use xlink:href="#ArialMT-61" transform="translate(722.460938 0.015625)"/>
      <use xlink:href="#ArialMT-64" transform="translate(778.076172 0.015625)"/>
      <use xlink:href="#ArialMT-65" transform="translate(833.691406 0.015625)"/>
      <use xlink:href="#ArialMT-72" transform="translate(889.306641 0.015625)"/>
      <use xlink:href="#ArialMT-20" transform="translate(922.607422 0.015625)"/>
      <use xlink:href="#ArialMT-28" transform="translate(950.390625 0.015625)"/>
      <use xlink:href="#ArialMT-64" transform="translate(983.691406 0.015625)"/>
      <use xlink:href="#ArialMT-2f" transform="translate(1039.306641 0.015625)"/>
      <use xlink:href="#DejaVuSans-Oblique-3bb" transform="translate(1067.089844 0.015625)"/>
      <use xlink:href="#DejaVuSans-30" transform="translate(1126.269531 -16.390625) scale(0.7)"/>
      <use xlink:href="#ArialMT-29" transform="translate(1173.540039 0.015625)"/>
     </g>
    </g>
   </g>
   <g id="line2d_44">
    <path d="M 37.01 305.177699 
L 39.166948 305.373671 
L 41.323897 305.399848 
L 45.637793 305.256553 
L 49.95169 305.560028 
L 54.265587 305.833209 
L 58.579484 305.776862 
L 67.207277 305.471232 
L 71.521174 305.181564 
L 77.992019 304.509169 
L 88.776761 303.729192 
L 101.718451 304.163419 
L 103.875399 304.348247 
L 108.189296 305.060645 
L 112.503192 305.636339 
L 114.660141 306.005463 
L 116.817089 306.240494 
L 118.974038 306.27759 
L 125.444883 305.996683 
L 131.915728 306.255991 
L 134.072676 306.375253 
L 142.700469 306.452773 
L 149.171315 307.391531 
L 151.328263 307.471259 
L 153.485211 307.391318 
L 157.799108 306.92454 
L 159.956056 306.645503 
L 164.269953 306.526 
L 177.211643 306.594382 
L 179.368592 306.6921 
L 185.839437 306.481325 
L 190.153333 306.196318 
L 196.624178 305.987074 
L 207.40892 306.104481 
L 211.722817 306.596265 
L 216.036714 306.984976 
L 222.507559 308.172398 
L 224.664507 308.271831 
L 228.978404 308.308227 
L 233.2923 308.633768 
L 237.606197 309.102112 
L 241.920094 309.045716 
L 250.547887 308.472469 
L 259.175681 307.50896 
L 263.489577 306.860607 
L 267.803474 305.975588 
L 269.960423 305.486064 
L 272.117371 305.112296 
L 278.588216 304.508081 
L 285.059061 303.802887 
L 289.372958 303.700276 
L 291.529906 303.724083 
L 298.000751 304.280443 
L 300.1577 304.645344 
L 302.314648 304.876296 
L 306.628545 305.00371 
L 326.04108 305.242314 
L 332.511925 306.198145 
L 334.668873 306.335307 
L 338.98277 306.374601 
L 343.296667 306.637939 
L 347.610563 306.504287 
L 358.395305 305.621399 
L 360.552254 305.765847 
L 364.86615 306.251235 
L 367.023099 306.346181 
L 371.336995 306.158897 
L 377.80784 305.618788 
L 384.278685 305.648092 
L 392.906479 305.389554 
L 399.377324 306.057362 
L 408.005117 306.334052 
L 412.319014 306.411575 
L 416.632911 306.561538 
L 420.946808 306.467418 
L 433.888498 306.136866 
L 440.359343 307.037714 
L 442.516291 307.133453 
L 446.830188 307.163776 
L 448.987136 307.421486 
L 451.144085 307.795113 
L 455.457981 308.752724 
L 457.61493 308.936966 
L 461.928826 308.868678 
L 466.242723 308.879403 
L 472.713568 309.153239 
L 477.027465 309.235332 
L 481.341362 308.947812 
L 489.969155 308.077075 
L 494.283052 307.466088 
L 496.44 307.247445 
L 496.44 307.247445 
" clip-path="url(#p5cab399467)" style="fill: none; stroke: #1f77b4; stroke-width: 1.5; stroke-linecap: square"/>
   </g>
   <g id="line2d_45">
    <path d="M 37.01 281.679646 
L 39.166948 281.852357 
L 41.323897 281.860719 
L 45.637793 281.671969 
L 49.95169 281.766429 
L 58.579484 282.436557 
L 67.207277 282.428324 
L 71.521174 282.557447 
L 75.83507 282.52673 
L 80.148967 283.044718 
L 84.462864 283.665497 
L 88.776761 284.015392 
L 95.247606 283.913305 
L 99.561502 283.693123 
L 103.875399 283.277276 
L 112.503192 283.244197 
L 123.287934 282.547923 
L 125.444883 282.710551 
L 131.915728 283.532928 
L 134.072676 283.530789 
L 142.700469 283.070769 
L 144.857418 283.325628 
L 149.171315 284.062416 
L 151.328263 284.230623 
L 155.64216 284.35016 
L 157.799108 284.809029 
L 162.113005 286.048932 
L 164.269953 286.5734 
L 166.426901 286.937768 
L 170.740798 287.175065 
L 172.897746 287.155864 
L 179.368592 287.385597 
L 183.682488 287.431761 
L 187.996385 287.361409 
L 196.624178 287.289902 
L 200.938075 286.988313 
L 205.251972 286.451375 
L 209.565869 285.690211 
L 216.036714 284.340778 
L 222.507559 282.73317 
L 231.135352 280.461899 
L 246.233991 278.154707 
L 248.390939 278.50467 
L 252.704836 279.865217 
L 254.861784 280.311507 
L 259.175681 280.744941 
L 261.332629 281.182179 
L 267.803474 283.076128 
L 276.431268 284.145171 
L 278.588216 284.494248 
L 280.745164 284.976313 
L 285.059061 286.140406 
L 289.372958 286.912292 
L 295.843803 287.443814 
L 302.314648 287.893499 
L 306.628545 287.838294 
L 313.09939 287.40358 
L 319.570235 286.934861 
L 326.04108 286.573943 
L 330.354977 286.426695 
L 334.668873 286.027617 
L 338.98277 285.386989 
L 347.610563 283.90972 
L 349.767512 283.731204 
L 351.92446 283.774592 
L 354.081408 284.106063 
L 358.395305 285.353866 
L 360.552254 285.791831 
L 362.709202 285.998128 
L 364.86615 286.005327 
L 373.493944 285.400211 
L 375.650892 285.251819 
L 384.278685 285.118403 
L 388.592582 284.733373 
L 392.906479 284.329599 
L 395.063427 284.249617 
L 399.377324 284.26436 
L 412.319014 283.862951 
L 416.632911 283.664921 
L 425.260704 283.592389 
L 429.574601 283.780174 
L 433.888498 283.779699 
L 440.359343 283.493694 
L 444.673239 283.005429 
L 455.457981 281.530799 
L 459.771878 281.127707 
L 464.085775 281.105055 
L 468.399671 281.200034 
L 472.713568 280.977485 
L 474.870516 281.114719 
L 477.027465 281.563768 
L 479.184413 282.143398 
L 481.341362 282.576302 
L 483.49831 282.75214 
L 487.812207 282.758837 
L 489.969155 283.146463 
L 492.126103 283.755388 
L 494.283052 284.18551 
L 496.44 284.45957 
L 496.44 284.45957 
" clip-path="url(#p5cab399467)" style="fill: none; stroke: #ff7f0e; stroke-width: 1.5; stroke-linecap: square"/>
   </g>
   <g id="line2d_46">
    <path d="M 37.01 258.180784 
L 39.166948 258.385241 
L 41.323897 258.445732 
L 45.637793 258.332818 
L 49.95169 258.478286 
L 54.265587 258.760411 
L 60.736432 258.545858 
L 65.050329 258.912128 
L 71.521174 259.87026 
L 75.83507 260.007141 
L 80.148967 259.919793 
L 86.619812 259.424588 
L 90.933709 259.185298 
L 95.247606 259.313517 
L 97.404554 259.551268 
L 101.718451 260.378759 
L 103.875399 261.069289 
L 106.032347 261.627469 
L 110.346244 262.455806 
L 112.503192 262.706338 
L 116.817089 262.849707 
L 125.444883 263.802176 
L 127.601831 264.007258 
L 129.758779 264.044869 
L 134.072676 263.760151 
L 140.543521 263.04279 
L 153.485211 262.77099 
L 157.799108 262.289613 
L 162.113005 261.549792 
L 172.897746 259.312011 
L 177.211643 258.727476 
L 181.52554 258.447982 
L 185.839437 258.257424 
L 194.46723 258.730792 
L 198.781127 259.307364 
L 200.938075 259.848784 
L 203.095023 260.26234 
L 207.40892 260.570285 
L 209.565869 260.990599 
L 211.722817 261.787192 
L 213.879765 262.712338 
L 216.036714 263.432991 
L 218.193662 263.818576 
L 220.35061 264.042683 
L 222.507559 264.445694 
L 224.664507 265.203644 
L 226.821455 266.155637 
L 228.978404 266.965696 
L 235.449249 268.537612 
L 237.606197 268.847091 
L 239.763146 268.923562 
L 248.390939 268.731509 
L 250.547887 268.984311 
L 254.861784 269.799959 
L 257.018732 270.032841 
L 259.175681 270.120704 
L 267.803474 269.874661 
L 272.117371 269.671757 
L 276.431268 269.24677 
L 280.745164 268.571327 
L 289.372958 266.872927 
L 295.843803 265.541662 
L 298.000751 265.285478 
L 302.314648 264.966505 
L 304.471596 264.748947 
L 306.628545 264.722892 
L 308.785493 265.03623 
L 313.09939 266.304626 
L 315.256338 267.232989 
L 317.413286 268.000636 
L 319.570235 268.616186 
L 321.727183 269.088362 
L 326.04108 269.614072 
L 330.354977 269.981875 
L 336.825822 270.802171 
L 343.296667 272.288154 
L 345.453615 272.546502 
L 354.081408 272.954101 
L 358.395305 272.840214 
L 362.709202 272.365246 
L 367.023099 271.615189 
L 373.493944 270.457283 
L 375.650892 270.256219 
L 382.121737 269.891689 
L 386.435634 269.463671 
L 390.749531 268.83525 
L 395.063427 268.044664 
L 399.377324 267.584626 
L 401.534272 267.579031 
L 405.848169 268.054768 
L 412.319014 269.124756 
L 414.475962 269.194405 
L 420.946808 269.014339 
L 425.260704 268.596507 
L 429.574601 267.943438 
L 436.045446 266.687627 
L 442.516291 265.196041 
L 444.673239 264.69705 
L 446.830188 264.340742 
L 448.987136 264.233072 
L 453.301033 264.18959 
L 457.61493 264.053323 
L 459.771878 264.27765 
L 466.242723 265.65927 
L 468.399671 265.853557 
L 472.713568 265.821061 
L 477.027465 265.454135 
L 481.341362 264.905512 
L 485.655258 264.140914 
L 494.283052 262.190667 
L 496.44 261.68313 
L 496.44 261.68313 
" clip-path="url(#p5cab399467)" style="fill: none; stroke: #2ca02c; stroke-width: 1.5; stroke-linecap: square"/>
   </g>
   <g id="line2d_47">
    <path d="M 37.01 234.681921 
L 39.166948 234.886379 
L 43.480845 234.904512 
L 47.794742 235.013754 
L 56.422535 235.598874 
L 60.736432 235.500267 
L 62.89338 235.57546 
L 71.521174 236.328109 
L 84.462864 236.090046 
L 88.776761 235.898228 
L 90.933709 235.915421 
L 99.561502 236.55799 
L 103.875399 236.700129 
L 108.189296 236.787826 
L 112.503192 236.490471 
L 118.974038 235.749118 
L 123.287934 235.342906 
L 127.601831 235.324846 
L 131.915728 235.377465 
L 136.229624 235.517764 
L 140.543521 235.401039 
L 142.700469 235.682016 
L 149.171315 237.428387 
L 155.64216 238.014167 
L 157.799108 238.549416 
L 159.956056 239.298119 
L 162.113005 239.908828 
L 164.269953 240.224741 
L 166.426901 240.404079 
L 168.58385 240.780284 
L 170.740798 241.517926 
L 172.897746 242.399911 
L 177.211643 243.844426 
L 179.368592 244.355145 
L 181.52554 244.664948 
L 185.839437 244.985955 
L 190.153333 245.281808 
L 194.46723 245.920394 
L 198.781127 246.712611 
L 203.095023 246.869011 
L 207.40892 246.762936 
L 211.722817 246.395035 
L 220.35061 245.36878 
L 226.821455 244.183682 
L 233.2923 242.717148 
L 244.077042 240.26154 
L 246.233991 240.063222 
L 248.390939 240.147286 
L 254.861784 241.21816 
L 259.175681 241.309811 
L 261.332629 241.634179 
L 267.803474 243.812259 
L 272.117371 244.344342 
L 274.274319 244.88672 
L 278.588216 246.722167 
L 280.745164 247.413399 
L 287.216009 248.51636 
L 293.686854 251.106165 
L 298.000751 252.517271 
L 302.314648 253.459672 
L 306.628545 254.286792 
L 310.942441 254.849266 
L 317.413286 255.040065 
L 321.727183 254.908634 
L 326.04108 254.491008 
L 330.354977 253.78995 
L 347.610563 250.655229 
L 351.92446 249.713297 
L 354.081408 249.39219 
L 356.238357 249.223062 
L 362.709202 249.075592 
L 364.86615 248.983591 
L 367.023099 249.223121 
L 369.180047 249.917963 
L 371.336995 250.809482 
L 373.493944 251.560857 
L 375.650892 252.041399 
L 377.80784 252.30098 
L 382.121737 252.477197 
L 386.435634 252.427875 
L 388.592582 252.596495 
L 392.906479 253.143142 
L 399.377324 253.352893 
L 403.691221 254.022872 
L 405.848169 254.390602 
L 410.162066 254.700997 
L 412.319014 254.795155 
L 416.632911 254.630604 
L 423.103756 253.95338 
L 425.260704 253.682498 
L 427.417653 253.532746 
L 429.574601 253.695801 
L 431.731549 254.055373 
L 433.888498 254.645075 
L 440.359343 257.262518 
L 444.673239 258.502427 
L 446.830188 258.833803 
L 451.144085 258.951896 
L 453.301033 259.224388 
L 457.61493 260.197062 
L 459.771878 260.506902 
L 466.242723 260.823833 
L 472.713568 261.426115 
L 474.870516 261.432727 
L 479.184413 261.074346 
L 485.655258 260.185294 
L 489.969155 259.743104 
L 492.126103 259.650005 
L 496.44 259.991484 
L 496.44 259.991484 
" clip-path="url(#p5cab399467)" style="fill: none; stroke: #d62728; stroke-width: 1.5; stroke-linecap: square"/>
   </g>
   <g id="patch_9">
    <path d="M 37.01 328.48 
L 37.01 175.04 
" style="fill: none; stroke: #000000; stroke-width: 0.8; stroke-linejoin: miter; stroke-linecap: square"/>
   </g>
   <g id="patch_10">
    <path d="M 496.44 328.48 
L 496.44 175.04 
" style="fill: none; stroke: #000000; stroke-width: 0.8; stroke-linejoin: miter; stroke-linecap: square"/>
   </g>
   <g id="patch_11">
    <path d="M 37.01 328.48 
L 496.44 328.48 
" style="fill: none; stroke: #000000; stroke-width: 0.8; stroke-linejoin: miter; stroke-linecap: square"/>
   </g>
   <g id="patch_12">
    <path d="M 37.01 175.04 
L 496.44 175.04 
" style="fill: none; stroke: #000000; stroke-width: 0.8; stroke-linejoin: miter; stroke-linecap: square"/>
   </g>
   <g id="legend_2">
    <g id="patch_13">
     <path d="M 445.010781 220.637344 
L 491.54 220.637344 
Q 492.94 220.637344 492.94 219.237344 
L 492.94 179.94 
Q 492.94 178.54 491.54 178.54 
L 445.010781 178.54 
Q 443.610781 178.54 443.610781 179.94 
L 443.610781 219.237344 
Q 443.610781 220.637344 445.010781 220.637344 
z
" style="fill: #ffffff; opacity: 0.8; stroke: #cccccc; stroke-linejoin: miter"/>
    </g>
    <g id="line2d_48">
     <path d="M 446.410781 183.92125 
L 453.410781 183.92125 
L 460.410781 183.92125 
" style="fill: none; stroke: #1f77b4; stroke-width: 1.5; stroke-linecap: square"/>
    </g>
    <g id="text_34">
     <!-- Agent 1 -->
     <g transform="translate(466.010781 186.37125) scale(0.07 -0.07)">
      <use xlink:href="#ArialMT-41"/>
      <use xlink:href="#ArialMT-67" transform="translate(66.699219 0)"/>
      <use xlink:href="#ArialMT-65" transform="translate(122.314453 0)"/>
      <use xlink:href="#ArialMT-6e" transform="translate(177.929688 0)"/>
      <use xlink:href="#ArialMT-74" transform="translate(233.544922 0)"/>
      <use xlink:href="#ArialMT-20" transform="translate(261.328125 0)"/>
      <use xlink:href="#ArialMT-31" transform="translate(289.111328 0)"/>
     </g>
    </g>
    <g id="line2d_49">
     <path d="M 446.410781 193.925781 
L 453.410781 193.925781 
L 460.410781 193.925781 
" style="fill: none; stroke: #ff7f0e; stroke-width: 1.5; stroke-linecap: square"/>
    </g>
    <g id="text_35">
     <!-- Agent 2 -->
     <g transform="translate(466.010781 196.375781) scale(0.07 -0.07)">
      <use xlink:href="#ArialMT-41"/>
      <use xlink:href="#ArialMT-67" transform="translate(66.699219 0)"/>
      <use xlink:href="#ArialMT-65" transform="translate(122.314453 0)"/>
      <use xlink:href="#ArialMT-6e" transform="translate(177.929688 0)"/>
      <use xlink:href="#ArialMT-74" transform="translate(233.544922 0)"/>
      <use xlink:href="#ArialMT-20" transform="translate(261.328125 0)"/>
      <use xlink:href="#ArialMT-32" transform="translate(289.111328 0)"/>
     </g>
    </g>
    <g id="line2d_50">
     <path d="M 446.410781 203.930313 
L 453.410781 203.930313 
L 460.410781 203.930313 
" style="fill: none; stroke: #2ca02c; stroke-width: 1.5; stroke-linecap: square"/>
    </g>
    <g id="text_36">
     <!-- Agent 3 -->
     <g transform="translate(466.010781 206.380313) scale(0.07 -0.07)">
      <use xlink:href="#ArialMT-41"/>
      <use xlink:href="#ArialMT-67" transform="translate(66.699219 0)"/>
      <use xlink:href="#ArialMT-65" transform="translate(122.314453 0)"/>
      <use xlink:href="#ArialMT-6e" transform="translate(177.929688 0)"/>
      <use xlink:href="#ArialMT-74" transform="translate(233.544922 0)"/>
      <use xlink:href="#ArialMT-20" transform="translate(261.328125 0)"/>
      <use xlink:href="#ArialMT-33" transform="translate(289.111328 0)"/>
     </g>
    </g>
    <g id="line2d_51">
     <path d="M 446.410781 213.914063 
L 453.410781 213.914063 
L 460.410781 213.914063 
" style="fill: none; stroke: #d62728; stroke-width: 1.5; stroke-linecap: square"/>
    </g>
    <g id="text_37">
     <!-- Agent 4 -->
     <g transform="translate(466.010781 216.364063) scale(0.07 -0.07)">
      <use xlink:href="#ArialMT-41"/>
      <use xlink:href="#ArialMT-67" transform="translate(66.699219 0)"/>
      <use xlink:href="#ArialMT-65" transform="translate(122.314453 0)"/>
      <use xlink:href="#ArialMT-6e" transform="translate(177.929688 0)"/>
      <use xlink:href="#ArialMT-74" transform="translate(233.544922 0)"/>
      <use xlink:href="#ArialMT-20" transform="translate(261.328125 0)"/>
      <use xlink:href="#ArialMT-34" transform="translate(289.111328 0)"/>
     </g>
    </g>
   </g>
  </g>
 </g>
 <defs>
  <clipPath id="p581b9734c8">
   <rect x="37.01" y="10.08" width="459.43" height="153.44"/>
  </clipPath>
  <clipPath id="p5cab399467">
   <rect x="37.01" y="175.04" width="459.43" height="153.44"/>
  </clipPath>
 </defs>
</svg>
