<?xml version="1.0" encoding="utf-8" standalone="no"?>
<!DOCTYPE svg PUBLIC "-//W3C//DTD SVG 1.1//EN"
  "http://www.w3.org/Graphics/SVG/1.1/DTD/svg11.dtd">
<svg xmlns:xlink="http://www.w3.org/1999/xlink" width="504pt" height="360pt" viewBox="0 0 504 360" xmlns="http://www.w3.org/2000/svg" version="1.1">
 <metadata>
  <rdf:RDF xmlns:dc="http://purl.org/dc/elements/1.1/" xmlns:cc="http://creativecommons.org/ns#" xmlns:rdf="http://www.w3.org/1999/02/22-rdf-syntax-ns#">
   <cc:Work>
    <dc:type rdf:resource="http://purl.org/dc/dcmitype/StillImage"/>
    <dc:date>2025-10-16T16:12:18.793223</dc:date>
    <dc:format>image/svg+xml</dc:format>
    <dc:creator>
     <cc:Agent>
      <dc:title>Matplotlib v3.10.7, https://matplotlib.org/</dc:title>
     </cc:Agent>
    </dc:creator>
   </cc:Work>
  </rdf:RDF>
 </metadata>
 <defs>
  <style type="text/css">*{stroke-linejoin: round; stroke-linecap: butt}</style>
 </defs>
 <g id="figure_1">
  <g id="patch_1">
   <path d="M 0 360 
L 504 360 
L 504 0 
L 0 0 
z
" style="fill: #ffffff"/>
  </g>
  <g id="axes_1">
   <g id="patch_2">
    <path d="M 37.01 163.52 
L 496.44 163.52 
L 496.44 10.08 
L 37.01 10.08 
z
" style="fill: #ffffff"/>
   </g>
   <g id="matplotlib.axis_1">
    <g id="xtick_1">
     <g id="line2d_1">
      <defs>
       <path id="m221a1bdcd2" d="M 0 0 
L 0 3.5 
" style="stroke: #000000; stroke-width: 0.8"/>
      </defs>
      <g>
       <use xlink:href="#m221a1bdcd2" x="37.01" y="163.52" style="stroke: #000000; stroke-width: 0.8"/>
      </g>
     </g>
    </g>
    <g id="xtick_2">
     <g id="line2d_2">
      <g>
       <use xlink:href="#m221a1bdcd2" x="134.761064" y="163.52" style="stroke: #000000; stroke-width: 0.8"/>
      </g>
     </g>
    </g>
    <g id="xtick_3">
     <g id="line2d_3">
      <g>
       <use xlink:href="#m221a1bdcd2" x="232.512128" y="163.52" style="stroke: #000000; stroke-width: 0.8"/>
      </g>
     </g>
    </g>
    <g id="xtick_4">
     <g id="line2d_4">
      <g>
       <use xlink:href="#m221a1bdcd2" x="330.263191" y="163.52" style="stroke: #000000; stroke-width: 0.8"/>
      </g>
     </g>
    </g>
    <g id="xtick_5">
     <g id="line2d_5">
      <g>
       <use xlink:href="#m221a1bdcd2" x="428.014255" y="163.52" style="stroke: #000000; stroke-width: 0.8"/>
      </g>
     </g>
    </g>
   </g>
   <g id="matplotlib.axis_2">
    <g id="ytick_1">
     <g id="line2d_6">
      <defs>
       <path id="m4f50ce7ff6" d="M 0 0 
L -3.5 0 
" style="stroke: #000000; stroke-width: 0.8"/>
      </defs>
      <g>
       <use xlink:href="#m4f50ce7ff6" x="37.01" y="163.52" style="stroke: #000000; stroke-width: 0.8"/>
      </g>
     </g>
     <g id="text_1">
      <!-- 0.0 -->
      <g transform="translate(21.67 165.667344) scale(0.06 -0.06)">
       <defs>
        <path id="ArialMT-30" d="M 266 2259 
Q 266 3072 433 3567 
Q 600 4063 929 4331 
Q 1259 4600 1759 4600 
Q 2128 4600 2406 4451 
Q 2684 4303 2865 4023 
Q 3047 3744 3150 3342 
Q 3253 2941 3253 2259 
Q 3253 1453 3087 958 
Q 2922 463 2592 192 
Q 2263 -78 1759 -78 
Q 1097 -78 719 397 
Q 266 969 266 2259 
z
M 844 2259 
Q 844 1131 1108 757 
Q 1372 384 1759 384 
Q 2147 384 2411 759 
Q 2675 1134 2675 2259 
Q 2675 3391 2411 3762 
Q 2147 4134 1753 4134 
Q 1366 4134 1134 3806 
Q 844 3388 844 2259 
z
" transform="scale(0.015625)"/>
        <path id="ArialMT-2e" d="M 581 0 
L 581 641 
L 1222 641 
L 1222 0 
L 581 0 
z
" transform="scale(0.015625)"/>
       </defs>
       <use xlink:href="#ArialMT-30"/>
       <use xlink:href="#ArialMT-2e" transform="translate(55.615234 0)"/>
       <use xlink:href="#ArialMT-30" transform="translate(83.398438 0)"/>
      </g>
     </g>
    </g>
    <g id="ytick_2">
     <g id="line2d_7">
      <g>
       <use xlink:href="#m4f50ce7ff6" x="37.01" y="144.34" style="stroke: #000000; stroke-width: 0.8"/>
      </g>
     </g>
     <g id="text_2">
      <!-- 0.5 -->
      <g transform="translate(21.67 146.487344) scale(0.06 -0.06)">
       <defs>
        <path id="ArialMT-35" d="M 266 1200 
L 856 1250 
Q 922 819 1161 601 
Q 1400 384 1738 384 
Q 2144 384 2425 690 
Q 2706 997 2706 1503 
Q 2706 1984 2436 2262 
Q 2166 2541 1728 2541 
Q 1456 2541 1237 2417 
Q 1019 2294 894 2097 
L 366 2166 
L 809 4519 
L 3088 4519 
L 3088 3981 
L 1259 3981 
L 1013 2750 
Q 1425 3038 1878 3038 
Q 2478 3038 2890 2622 
Q 3303 2206 3303 1553 
Q 3303 931 2941 478 
Q 2500 -78 1738 -78 
Q 1113 -78 717 272 
Q 322 622 266 1200 
z
" transform="scale(0.015625)"/>
       </defs>
       <use xlink:href="#ArialMT-30"/>
       <use xlink:href="#ArialMT-2e" transform="translate(55.615234 0)"/>
       <use xlink:href="#ArialMT-35" transform="translate(83.398438 0)"/>
      </g>
     </g>
    </g>
    <g id="ytick_3">
     <g id="line2d_8">
      <g>
       <use xlink:href="#m4f50ce7ff6" x="37.01" y="125.16" style="stroke: #000000; stroke-width: 0.8"/>
      </g>
     </g>
     <g id="text_3">
      <!-- 1.0 -->
      <g transform="translate(21.67 127.307344) scale(0.06 -0.06)">
       <defs>
        <path id="ArialMT-31" d="M 2384 0 
L 1822 0 
L 1822 3584 
Q 1619 3391 1289 3197 
Q 959 3003 697 2906 
L 697 3450 
Q 1169 3672 1522 3987 
Q 1875 4303 2022 4600 
L 2384 4600 
L 2384 0 
z
" transform="scale(0.015625)"/>
       </defs>
       <use xlink:href="#ArialMT-31"/>
       <use xlink:href="#ArialMT-2e" transform="translate(55.615234 0)"/>
       <use xlink:href="#ArialMT-30" transform="translate(83.398438 0)"/>
      </g>
     </g>
    </g>
    <g id="ytick_4">
     <g id="line2d_9">
      <g>
       <use xlink:href="#m4f50ce7ff6" x="37.01" y="105.98" style="stroke: #000000; stroke-width: 0.8"/>
      </g>
     </g>
     <g id="text_4">
      <!-- 1.5 -->
      <g transform="translate(21.67 108.127344) scale(0.06 -0.06)">
       <use xlink:href="#ArialMT-31"/>
       <use xlink:href="#ArialMT-2e" transform="translate(55.615234 0)"/>
       <use xlink:href="#ArialMT-35" transform="translate(83.398438 0)"/>
      </g>
     </g>
    </g>
    <g id="ytick_5">
     <g id="line2d_10">
      <g>
       <use xlink:href="#m4f50ce7ff6" x="37.01" y="86.8" style="stroke: #000000; stroke-width: 0.8"/>
      </g>
     </g>
     <g id="text_5">
      <!-- 2.0 -->
      <g transform="translate(21.67 88.947344) scale(0.06 -0.06)">
       <defs>
        <path id="ArialMT-32" d="M 3222 541 
L 3222 0 
L 194 0 
Q 188 203 259 391 
Q 375 700 629 1000 
Q 884 1300 1366 1694 
Q 2113 2306 2375 2664 
Q 2638 3022 2638 3341 
Q 2638 3675 2398 3904 
Q 2159 4134 1775 4134 
Q 1369 4134 1125 3890 
Q 881 3647 878 3216 
L 300 3275 
Q 359 3922 746 4261 
Q 1134 4600 1788 4600 
Q 2447 4600 2831 4234 
Q 3216 3869 3216 3328 
Q 3216 3053 3103 2787 
Q 2991 2522 2730 2228 
Q 2469 1934 1863 1422 
Q 1356 997 1212 845 
Q 1069 694 975 541 
L 3222 541 
z
" transform="scale(0.015625)"/>
       </defs>
       <use xlink:href="#ArialMT-32"/>
       <use xlink:href="#ArialMT-2e" transform="translate(55.615234 0)"/>
       <use xlink:href="#ArialMT-30" transform="translate(83.398438 0)"/>
      </g>
     </g>
    </g>
    <g id="ytick_6">
     <g id="line2d_11">
      <g>
       <use xlink:href="#m4f50ce7ff6" x="37.01" y="67.62" style="stroke: #000000; stroke-width: 0.8"/>
      </g>
     </g>
     <g id="text_6">
      <!-- 2.5 -->
      <g transform="translate(21.67 69.767344) scale(0.06 -0.06)">
       <use xlink:href="#ArialMT-32"/>
       <use xlink:href="#ArialMT-2e" transform="translate(55.615234 0)"/>
       <use xlink:href="#ArialMT-35" transform="translate(83.398438 0)"/>
      </g>
     </g>
    </g>
    <g id="ytick_7">
     <g id="line2d_12">
      <g>
       <use xlink:href="#m4f50ce7ff6" x="37.01" y="48.44" style="stroke: #000000; stroke-width: 0.8"/>
      </g>
     </g>
     <g id="text_7">
      <!-- 3.0 -->
      <g transform="translate(21.67 50.587344) scale(0.06 -0.06)">
       <defs>
        <path id="ArialMT-33" d="M 269 1209 
L 831 1284 
Q 928 806 1161 595 
Q 1394 384 1728 384 
Q 2125 384 2398 659 
Q 2672 934 2672 1341 
Q 2672 1728 2419 1979 
Q 2166 2231 1775 2231 
Q 1616 2231 1378 2169 
L 1441 2663 
Q 1497 2656 1531 2656 
Q 1891 2656 2178 2843 
Q 2466 3031 2466 3422 
Q 2466 3731 2256 3934 
Q 2047 4138 1716 4138 
Q 1388 4138 1169 3931 
Q 950 3725 888 3313 
L 325 3413 
Q 428 3978 793 4289 
Q 1159 4600 1703 4600 
Q 2078 4600 2393 4439 
Q 2709 4278 2876 4000 
Q 3044 3722 3044 3409 
Q 3044 3113 2884 2869 
Q 2725 2625 2413 2481 
Q 2819 2388 3044 2092 
Q 3269 1797 3269 1353 
Q 3269 753 2831 336 
Q 2394 -81 1725 -81 
Q 1122 -81 723 278 
Q 325 638 269 1209 
z
" transform="scale(0.015625)"/>
       </defs>
       <use xlink:href="#ArialMT-33"/>
       <use xlink:href="#ArialMT-2e" transform="translate(55.615234 0)"/>
       <use xlink:href="#ArialMT-30" transform="translate(83.398438 0)"/>
      </g>
     </g>
    </g>
    <g id="ytick_8">
     <g id="line2d_13">
      <g>
       <use xlink:href="#m4f50ce7ff6" x="37.01" y="29.26" style="stroke: #000000; stroke-width: 0.8"/>
      </g>
     </g>
     <g id="text_8">
      <!-- 3.5 -->
      <g transform="translate(21.67 31.407344) scale(0.06 -0.06)">
       <use xlink:href="#ArialMT-33"/>
       <use xlink:href="#ArialMT-2e" transform="translate(55.615234 0)"/>
       <use xlink:href="#ArialMT-35" transform="translate(83.398438 0)"/>
      </g>
     </g>
    </g>
    <g id="ytick_9">
     <g id="line2d_14">
      <g>
       <use xlink:href="#m4f50ce7ff6" x="37.01" y="10.08" style="stroke: #000000; stroke-width: 0.8"/>
      </g>
     </g>
     <g id="text_9">
      <!-- 4.0 -->
      <g transform="translate(21.67 12.227344) scale(0.06 -0.06)">
       <defs>
        <path id="ArialMT-34" d="M 2069 0 
L 2069 1097 
L 81 1097 
L 81 1613 
L 2172 4581 
L 2631 4581 
L 2631 1613 
L 3250 1613 
L 3250 1097 
L 2631 1097 
L 2631 0 
L 2069 0 
z
M 2069 1613 
L 2069 3678 
L 634 1613 
L 2069 1613 
z
" transform="scale(0.015625)"/>
       </defs>
       <use xlink:href="#ArialMT-34"/>
       <use xlink:href="#ArialMT-2e" transform="translate(55.615234 0)"/>
       <use xlink:href="#ArialMT-30" transform="translate(83.398438 0)"/>
      </g>
     </g>
    </g>
    <g id="text_10">
     <!-- Spacing d/$\lambda_0$ -->
     <g transform="translate(16.13 107.1) rotate(-90) scale(0.07 -0.07)">
      <defs>
       <path id="ArialMT-53" d="M 288 1472 
L 859 1522 
Q 900 1178 1048 958 
Q 1197 738 1509 602 
Q 1822 466 2213 466 
Q 2559 466 2825 569 
Q 3091 672 3220 851 
Q 3350 1031 3350 1244 
Q 3350 1459 3225 1620 
Q 3100 1781 2813 1891 
Q 2628 1963 1997 2114 
Q 1366 2266 1113 2400 
Q 784 2572 623 2826 
Q 463 3081 463 3397 
Q 463 3744 659 4045 
Q 856 4347 1234 4503 
Q 1613 4659 2075 4659 
Q 2584 4659 2973 4495 
Q 3363 4331 3572 4012 
Q 3781 3694 3797 3291 
L 3216 3247 
Q 3169 3681 2898 3903 
Q 2628 4125 2100 4125 
Q 1550 4125 1298 3923 
Q 1047 3722 1047 3438 
Q 1047 3191 1225 3031 
Q 1400 2872 2139 2705 
Q 2878 2538 3153 2413 
Q 3553 2228 3743 1945 
Q 3934 1663 3934 1294 
Q 3934 928 3725 604 
Q 3516 281 3123 101 
Q 2731 -78 2241 -78 
Q 1619 -78 1198 103 
Q 778 284 539 648 
Q 300 1013 288 1472 
z
" transform="scale(0.015625)"/>
       <path id="ArialMT-70" d="M 422 -1272 
L 422 3319 
L 934 3319 
L 934 2888 
Q 1116 3141 1344 3267 
Q 1572 3394 1897 3394 
Q 2322 3394 2647 3175 
Q 2972 2956 3137 2557 
Q 3303 2159 3303 1684 
Q 3303 1175 3120 767 
Q 2938 359 2589 142 
Q 2241 -75 1856 -75 
Q 1575 -75 1351 44 
Q 1128 163 984 344 
L 984 -1272 
L 422 -1272 
z
M 931 1641 
Q 931 1000 1190 694 
Q 1450 388 1819 388 
Q 2194 388 2461 705 
Q 2728 1022 2728 1688 
Q 2728 2322 2467 2637 
Q 2206 2953 1844 2953 
Q 1484 2953 1207 2617 
Q 931 2281 931 1641 
z
" transform="scale(0.015625)"/>
       <path id="ArialMT-61" d="M 2588 409 
Q 2275 144 1986 34 
Q 1697 -75 1366 -75 
Q 819 -75 525 192 
Q 231 459 231 875 
Q 231 1119 342 1320 
Q 453 1522 633 1644 
Q 813 1766 1038 1828 
Q 1203 1872 1538 1913 
Q 2219 1994 2541 2106 
Q 2544 2222 2544 2253 
Q 2544 2597 2384 2738 
Q 2169 2928 1744 2928 
Q 1347 2928 1158 2789 
Q 969 2650 878 2297 
L 328 2372 
Q 403 2725 575 2942 
Q 747 3159 1072 3276 
Q 1397 3394 1825 3394 
Q 2250 3394 2515 3294 
Q 2781 3194 2906 3042 
Q 3031 2891 3081 2659 
Q 3109 2516 3109 2141 
L 3109 1391 
Q 3109 606 3145 398 
Q 3181 191 3288 0 
L 2700 0 
Q 2613 175 2588 409 
z
M 2541 1666 
Q 2234 1541 1622 1453 
Q 1275 1403 1131 1340 
Q 988 1278 909 1158 
Q 831 1038 831 891 
Q 831 666 1001 516 
Q 1172 366 1500 366 
Q 1825 366 2078 508 
Q 2331 650 2450 897 
Q 2541 1088 2541 1459 
L 2541 1666 
z
" transform="scale(0.015625)"/>
       <path id="ArialMT-63" d="M 2588 1216 
L 3141 1144 
Q 3050 572 2676 248 
Q 2303 -75 1759 -75 
Q 1078 -75 664 370 
Q 250 816 250 1647 
Q 250 2184 428 2587 
Q 606 2991 970 3192 
Q 1334 3394 1763 3394 
Q 2303 3394 2647 3120 
Q 2991 2847 3088 2344 
L 2541 2259 
Q 2463 2594 2264 2762 
Q 2066 2931 1784 2931 
Q 1359 2931 1093 2626 
Q 828 2322 828 1663 
Q 828 994 1084 691 
Q 1341 388 1753 388 
Q 2084 388 2306 591 
Q 2528 794 2588 1216 
z
" transform="scale(0.015625)"/>
       <path id="ArialMT-69" d="M 425 3934 
L 425 4581 
L 988 4581 
L 988 3934 
L 425 3934 
z
M 425 0 
L 425 3319 
L 988 3319 
L 988 0 
L 425 0 
z
" transform="scale(0.015625)"/>
       <path id="ArialMT-6e" d="M 422 0 
L 422 3319 
L 928 3319 
L 928 2847 
Q 1294 3394 1984 3394 
Q 2284 3394 2536 3286 
Q 2788 3178 2913 3003 
Q 3038 2828 3088 2588 
Q 3119 2431 3119 2041 
L 3119 0 
L 2556 0 
L 2556 2019 
Q 2556 2363 2490 2533 
Q 2425 2703 2258 2804 
Q 2091 2906 1866 2906 
Q 1506 2906 1245 2678 
Q 984 2450 984 1813 
L 984 0 
L 422 0 
z
" transform="scale(0.015625)"/>
       <path id="ArialMT-67" d="M 319 -275 
L 866 -356 
Q 900 -609 1056 -725 
Q 1266 -881 1628 -881 
Q 2019 -881 2231 -725 
Q 2444 -569 2519 -288 
Q 2563 -116 2559 434 
Q 2191 0 1641 0 
Q 956 0 581 494 
Q 206 988 206 1678 
Q 206 2153 378 2554 
Q 550 2956 876 3175 
Q 1203 3394 1644 3394 
Q 2231 3394 2613 2919 
L 2613 3319 
L 3131 3319 
L 3131 450 
Q 3131 -325 2973 -648 
Q 2816 -972 2473 -1159 
Q 2131 -1347 1631 -1347 
Q 1038 -1347 672 -1080 
Q 306 -813 319 -275 
z
M 784 1719 
Q 784 1066 1043 766 
Q 1303 466 1694 466 
Q 2081 466 2343 764 
Q 2606 1063 2606 1700 
Q 2606 2309 2336 2618 
Q 2066 2928 1684 2928 
Q 1309 2928 1046 2623 
Q 784 2319 784 1719 
z
" transform="scale(0.015625)"/>
       <path id="ArialMT-20" transform="scale(0.015625)"/>
       <path id="ArialMT-64" d="M 2575 0 
L 2575 419 
Q 2259 -75 1647 -75 
Q 1250 -75 917 144 
Q 584 363 401 755 
Q 219 1147 219 1656 
Q 219 2153 384 2558 
Q 550 2963 881 3178 
Q 1213 3394 1622 3394 
Q 1922 3394 2156 3267 
Q 2391 3141 2538 2938 
L 2538 4581 
L 3097 4581 
L 3097 0 
L 2575 0 
z
M 797 1656 
Q 797 1019 1065 703 
Q 1334 388 1700 388 
Q 2069 388 2326 689 
Q 2584 991 2584 1609 
Q 2584 2291 2321 2609 
Q 2059 2928 1675 2928 
Q 1300 2928 1048 2622 
Q 797 2316 797 1656 
z
" transform="scale(0.015625)"/>
       <path id="ArialMT-2f" d="M 0 -78 
L 1328 4659 
L 1778 4659 
L 453 -78 
L 0 -78 
z
" transform="scale(0.015625)"/>
       <path id="DejaVuSans-Oblique-3bb" d="M 2350 4316 
L 3125 0 
L 2516 0 
L 2038 2588 
L 328 0 
L -281 0 
L 1903 3356 
L 1794 3975 
Q 1725 4369 1391 4369 
L 1091 4369 
L 1184 4863 
L 1550 4856 
Q 2253 4847 2350 4316 
z
" transform="scale(0.015625)"/>
       <path id="DejaVuSans-30" d="M 2034 4250 
Q 1547 4250 1301 3770 
Q 1056 3291 1056 2328 
Q 1056 1369 1301 889 
Q 1547 409 2034 409 
Q 2525 409 2770 889 
Q 3016 1369 3016 2328 
Q 3016 3291 2770 3770 
Q 2525 4250 2034 4250 
z
M 2034 4750 
Q 2819 4750 3233 4129 
Q 3647 3509 3647 2328 
Q 3647 1150 3233 529 
Q 2819 -91 2034 -91 
Q 1250 -91 836 529 
Q 422 1150 422 2328 
Q 422 3509 836 4129 
Q 1250 4750 2034 4750 
z
" transform="scale(0.015625)"/>
      </defs>
      <use xlink:href="#ArialMT-53" transform="translate(0 0.015625)"/>
      <use xlink:href="#ArialMT-70" transform="translate(66.699219 0.015625)"/>
      <use xlink:href="#ArialMT-61" transform="translate(122.314453 0.015625)"/>
      <use xlink:href="#ArialMT-63" transform="translate(177.929688 0.015625)"/>
      <use xlink:href="#ArialMT-69" transform="translate(227.929688 0.015625)"/>
      <use xlink:href="#ArialMT-6e" transform="translate(250.146484 0.015625)"/>
      <use xlink:href="#ArialMT-67" transform="translate(305.761719 0.015625)"/>
      <use xlink:href="#ArialMT-20" transform="translate(361.376953 0.015625)"/>
      <use xlink:href="#ArialMT-64" transform="translate(389.160156 0.015625)"/>
      <use xlink:href="#ArialMT-2f" transform="translate(444.775391 0.015625)"/>
      <use xlink:href="#DejaVuSans-Oblique-3bb" transform="translate(472.558594 0.015625)"/>
      <use xlink:href="#DejaVuSans-30" transform="translate(531.738281 -16.390625) scale(0.7)"/>
     </g>
    </g>
   </g>
   <g id="line2d_15">
    <path d="M 37.01 84.088105 
L 38.965021 84.09184 
L 40.920043 83.719538 
L 44.830085 82.108585 
L 46.785106 81.727353 
L 48.740128 81.981913 
L 50.695149 82.510656 
L 52.65017 82.910302 
L 54.605191 83.001838 
L 58.515234 82.300715 
L 60.470255 82.753714 
L 62.425277 83.558872 
L 72.200383 86.53971 
L 78.065447 87.742897 
L 81.975489 87.59398 
L 83.930511 87.441814 
L 85.885532 87.707233 
L 87.840553 88.394474 
L 89.795574 88.831488 
L 91.750596 88.724663 
L 93.705617 88.743941 
L 95.660638 89.009123 
L 101.525702 89.286634 
L 103.480723 89.817465 
L 107.390766 91.684171 
L 109.345787 92.108921 
L 111.300809 92.178675 
L 113.25583 91.811236 
L 115.210851 91.584557 
L 117.165872 91.699771 
L 119.120894 92.080193 
L 121.075915 93.061409 
L 123.030936 94.467646 
L 124.985957 95.368529 
L 126.940979 95.52142 
L 128.896 95.359955 
L 130.851021 95.465091 
L 132.806043 96.065378 
L 138.671106 98.502512 
L 140.626128 98.633039 
L 142.581149 98.251545 
L 144.53617 97.475211 
L 146.491191 96.473302 
L 148.446213 95.839532 
L 150.401234 95.932827 
L 152.356255 96.515638 
L 154.311277 97.249409 
L 156.266298 97.658154 
L 160.17634 97.887149 
L 162.131362 97.635483 
L 164.086383 97.032891 
L 166.041404 96.165459 
L 173.861489 94.125065 
L 179.726553 93.168781 
L 183.636596 93.449172 
L 187.546638 93.341757 
L 189.50166 93.093374 
L 195.366723 91.012087 
L 197.321745 90.152072 
L 199.276766 89.757703 
L 201.231787 90.182972 
L 203.186809 91.125586 
L 205.14183 91.624244 
L 209.051872 91.896542 
L 211.006894 92.177302 
L 214.916936 93.467934 
L 218.826979 94.121496 
L 220.782 94.112628 
L 222.737021 93.669826 
L 226.647064 92.497623 
L 228.602085 92.114702 
L 230.557106 92.211584 
L 232.512128 92.619741 
L 234.467149 92.872614 
L 236.42217 92.901369 
L 238.377191 92.625586 
L 240.332213 91.992737 
L 242.287234 91.199876 
L 244.242255 90.22427 
L 248.152298 87.86935 
L 250.107319 87.376559 
L 252.06234 87.003327 
L 255.972383 85.828603 
L 261.837447 84.836216 
L 263.792468 85.075216 
L 265.747489 85.741545 
L 267.702511 86.747107 
L 269.657532 87.548971 
L 273.567574 89.50814 
L 277.477617 90.434034 
L 281.38766 91.067996 
L 283.342681 91.243356 
L 293.117787 90.818351 
L 295.072809 90.598413 
L 297.02783 90.794443 
L 298.982851 91.568543 
L 300.937872 92.626049 
L 302.892894 93.306866 
L 304.847915 93.433744 
L 308.757957 92.875706 
L 312.668 92.862905 
L 314.623021 92.623745 
L 316.578043 92.52876 
L 318.533064 92.913364 
L 320.488085 93.161259 
L 322.443106 92.852299 
L 324.398128 92.4074 
L 326.353149 92.362933 
L 328.30817 93.415173 
L 332.218213 96.707877 
L 334.173234 97.943925 
L 336.128255 98.566122 
L 338.083277 98.64817 
L 340.038298 98.287173 
L 341.993319 97.498062 
L 343.94834 96.581526 
L 345.903362 96.428185 
L 351.768426 97.831856 
L 353.723447 97.960733 
L 355.678468 97.728707 
L 359.588511 96.86983 
L 365.453574 95.272898 
L 373.27366 95.773201 
L 375.228681 96.124379 
L 377.183702 96.714468 
L 381.093745 97.413452 
L 383.048766 98.244088 
L 385.003787 99.236108 
L 386.958809 99.809028 
L 388.91383 100.015425 
L 390.868851 100.050482 
L 392.823872 100.645107 
L 394.778894 101.483955 
L 396.733915 101.781048 
L 398.688936 101.576407 
L 402.598979 100.440589 
L 406.509021 100.083935 
L 408.464043 99.719048 
L 410.419064 99.530787 
L 414.329106 99.932596 
L 416.284128 99.578964 
L 418.239149 98.948936 
L 422.149191 97.42255 
L 424.104213 96.909936 
L 428.014255 96.647474 
L 433.879319 96.439151 
L 435.83434 95.883668 
L 437.789362 95.013474 
L 439.744383 93.900796 
L 441.699404 92.560361 
L 443.654426 91.422561 
L 445.609447 91.18066 
L 447.564468 91.715714 
L 451.474511 93.311136 
L 453.429532 93.651409 
L 455.384553 93.530358 
L 457.339574 93.028158 
L 459.294596 92.329389 
L 461.249617 91.404602 
L 463.204638 90.607691 
L 465.15966 90.089178 
L 469.069702 89.337288 
L 472.979745 87.968501 
L 474.934766 87.150869 
L 476.889787 86.716598 
L 482.754851 86.044733 
L 486.664894 85.523964 
L 488.619915 85.498799 
L 490.574936 85.70326 
L 492.529957 85.733787 
L 496.44 85.04152 
L 496.44 85.04152 
" clip-path="url(#p02e668bdc3)" style="fill: none; stroke: #1f77b4; stroke-width: 1.5; stroke-linecap: square"/>
   </g>
   <g id="line2d_16">
    <path d="M 37.01 84.208516 
L 50.695149 83.782679 
L 52.65017 84.194608 
L 54.605191 84.850945 
L 56.560213 85.782854 
L 58.515234 86.187265 
L 60.470255 85.566078 
L 64.380298 83.457016 
L 68.29034 82.332259 
L 72.200383 81.461046 
L 74.155404 80.897591 
L 76.110426 80.453584 
L 78.065447 80.139005 
L 80.020468 79.985734 
L 81.975489 79.994818 
L 83.930511 80.365725 
L 85.885532 80.278456 
L 89.795574 78.760259 
L 95.660638 77.408843 
L 97.61566 77.10624 
L 101.525702 76.926402 
L 103.480723 76.669152 
L 105.435745 76.144503 
L 107.390766 75.210918 
L 109.345787 74.415896 
L 111.300809 73.823334 
L 113.25583 73.410936 
L 115.210851 72.568934 
L 117.165872 71.579932 
L 119.120894 71.210795 
L 123.030936 71.485537 
L 128.896 72.247922 
L 130.851021 72.440029 
L 132.806043 72.930591 
L 136.716085 74.451253 
L 140.626128 75.491984 
L 144.53617 76.268893 
L 146.491191 77.462216 
L 148.446213 79.304367 
L 150.401234 80.799575 
L 152.356255 81.918153 
L 154.311277 82.622497 
L 156.266298 83.158377 
L 158.221319 83.539284 
L 162.131362 83.738287 
L 164.086383 84.247434 
L 169.951447 87.893187 
L 171.906468 88.907355 
L 173.861489 89.200201 
L 175.816511 89.371872 
L 177.771532 89.732954 
L 181.681574 89.875402 
L 183.636596 90.119893 
L 185.591617 90.50659 
L 187.546638 91.467274 
L 189.50166 92.648466 
L 191.456681 94.254746 
L 195.366723 99.04795 
L 197.321745 101.57992 
L 199.276766 103.604438 
L 201.231787 104.893061 
L 203.186809 105.127526 
L 209.051872 105.174708 
L 211.006894 104.760362 
L 212.961915 103.927386 
L 214.916936 103.37188 
L 216.871957 103.087265 
L 224.692043 99.986142 
L 226.647064 99.138897 
L 228.602085 98.539149 
L 232.512128 97.671584 
L 234.467149 97.550875 
L 238.377191 97.845251 
L 240.332213 97.920597 
L 242.287234 97.820337 
L 244.242255 98.092246 
L 246.197277 99.420427 
L 248.152298 101.588131 
L 250.107319 102.900806 
L 252.06234 103.371133 
L 254.017362 103.699803 
L 255.972383 103.751292 
L 257.927404 103.295557 
L 259.882426 102.996869 
L 261.837447 103.600719 
L 263.792468 104.32233 
L 265.747489 104.387893 
L 267.702511 103.988682 
L 271.612553 103.602383 
L 273.567574 103.576712 
L 275.522596 103.986413 
L 277.477617 104.083597 
L 279.432638 104.294711 
L 281.38766 104.339846 
L 283.342681 103.92992 
L 289.207745 102.219026 
L 295.072809 99.722515 
L 297.02783 98.412217 
L 298.982851 96.570586 
L 300.937872 94.488198 
L 302.892894 93.113098 
L 304.847915 92.463109 
L 308.757957 92.059069 
L 312.668 90.672865 
L 314.623021 89.867338 
L 316.578043 88.799317 
L 320.488085 85.583913 
L 322.443106 84.311207 
L 324.398128 83.302537 
L 328.30817 81.839751 
L 330.263191 80.651352 
L 334.173234 77.893268 
L 336.128255 76.866346 
L 338.083277 76.109833 
L 340.038298 75.478645 
L 341.993319 75.469403 
L 343.94834 76.837685 
L 345.903362 77.99752 
L 347.858383 78.143723 
L 351.768426 77.967826 
L 355.678468 78.349053 
L 357.633489 78.66953 
L 359.588511 79.858605 
L 361.543532 81.248995 
L 363.498553 82.357252 
L 365.453574 83.111104 
L 369.363617 83.850663 
L 371.318638 84.201103 
L 375.228681 84.334458 
L 379.138723 83.386363 
L 381.093745 82.842575 
L 385.003787 80.376857 
L 388.91383 78.982956 
L 390.868851 78.150894 
L 392.823872 76.834264 
L 394.778894 75.970144 
L 396.733915 75.832151 
L 398.688936 75.991546 
L 400.643957 77.318027 
L 402.598979 78.800964 
L 408.464043 79.939107 
L 412.374085 81.571563 
L 416.284128 83.082439 
L 418.239149 83.54207 
L 420.19417 83.659867 
L 422.149191 83.544128 
L 424.104213 83.695651 
L 426.059234 84.498657 
L 428.014255 86.161448 
L 429.969277 88.035504 
L 431.924298 89.340918 
L 433.879319 90.195846 
L 437.789362 91.290857 
L 439.744383 92.780677 
L 441.699404 95.806652 
L 443.654426 99.101061 
L 445.609447 100.890504 
L 447.564468 100.950135 
L 451.474511 99.524089 
L 453.429532 99.445909 
L 455.384553 99.653732 
L 457.339574 100.307693 
L 459.294596 101.575583 
L 461.249617 102.659955 
L 463.204638 104.333094 
L 465.15966 106.649128 
L 467.114681 108.379749 
L 471.024723 110.725987 
L 472.979745 111.576839 
L 474.934766 112.741465 
L 476.889787 113.591158 
L 480.79983 114.519581 
L 482.754851 114.704461 
L 488.619915 116.749617 
L 490.574936 117.19797 
L 492.529957 117.39701 
L 496.44 118.197818 
L 496.44 118.197818 
" clip-path="url(#p02e668bdc3)" style="fill: none; stroke: #ff7f0e; stroke-width: 1.5; stroke-linecap: square"/>
   </g>
   <g id="line2d_17">
    <path d="M 37.01 84.211338 
L 40.920043 84.432567 
L 46.785106 84.730525 
L 50.695149 84.800496 
L 52.65017 84.479794 
L 54.605191 83.689666 
L 58.515234 81.678713 
L 60.470255 80.981867 
L 62.425277 81.021122 
L 64.380298 81.553022 
L 66.335319 81.310361 
L 68.29034 80.941898 
L 74.155404 80.474906 
L 76.110426 80.691047 
L 78.065447 80.790005 
L 80.020468 81.362986 
L 81.975489 82.138814 
L 85.885532 83.313328 
L 87.840553 83.713402 
L 89.795574 84.61204 
L 91.750596 86.585254 
L 93.705617 88.173547 
L 95.660638 89.071747 
L 97.61566 89.601405 
L 103.480723 89.233498 
L 105.435745 88.633926 
L 109.345787 88.11357 
L 111.300809 87.792759 
L 113.25583 87.867599 
L 115.210851 88.095338 
L 117.165872 87.984869 
L 121.075915 88.376017 
L 123.030936 88.132284 
L 126.940979 87.33637 
L 130.851021 86.907559 
L 132.806043 86.080073 
L 134.761064 84.430142 
L 138.671106 80.351963 
L 140.626128 78.708166 
L 142.581149 77.535837 
L 144.53617 76.547353 
L 146.491191 74.822206 
L 148.446213 72.039788 
L 154.311277 62.062721 
L 156.266298 59.422989 
L 158.221319 57.542537 
L 160.17634 56.045614 
L 162.131362 55.927707 
L 164.086383 57.050917 
L 169.951447 59.02217 
L 171.906468 59.521144 
L 173.861489 60.351478 
L 175.816511 60.899562 
L 177.771532 61.784135 
L 179.726553 63.273474 
L 181.681574 64.085608 
L 183.636596 64.668173 
L 185.591617 65.427442 
L 189.50166 65.530695 
L 191.456681 65.295451 
L 193.411702 64.175193 
L 195.366723 62.843518 
L 197.321745 61.172373 
L 199.276766 59.202368 
L 201.231787 56.953469 
L 203.186809 55.317987 
L 207.096851 53.134627 
L 212.961915 50.257535 
L 214.916936 49.327179 
L 216.871957 49.446532 
L 218.826979 51.73231 
L 222.737021 59.970627 
L 224.692043 63.357754 
L 226.647064 65.744105 
L 228.602085 67.734829 
L 230.557106 69.997067 
L 232.512128 72.729842 
L 234.467149 75.170999 
L 236.42217 76.871657 
L 238.377191 78.071742 
L 240.332213 78.993931 
L 242.287234 80.4121 
L 244.242255 82.89578 
L 246.197277 85.674754 
L 248.152298 87.774238 
L 252.06234 90.884373 
L 254.017362 92.034635 
L 255.972383 94.350886 
L 257.927404 98.1303 
L 259.882426 101.598337 
L 261.837447 103.059453 
L 263.792468 103.094185 
L 265.747489 103.005566 
L 267.702511 102.668179 
L 269.657532 102.00081 
L 271.612553 100.839662 
L 273.567574 99.254688 
L 281.38766 91.706004 
L 283.342681 90.487818 
L 285.297702 90.002834 
L 287.252723 89.721241 
L 289.207745 90.133596 
L 291.162766 91.554804 
L 293.117787 94.107629 
L 295.072809 97.821903 
L 297.02783 101.177112 
L 300.937872 106.911791 
L 302.892894 109.50637 
L 306.802936 116.226972 
L 308.757957 118.467651 
L 310.712979 120.250463 
L 312.668 122.319023 
L 316.578043 128.330326 
L 318.533064 130.652359 
L 320.488085 132.311692 
L 324.398128 135.001123 
L 326.353149 136.284817 
L 328.30817 136.627542 
L 330.263191 136.242336 
L 332.218213 136.115342 
L 338.083277 136.748501 
L 341.993319 138.32411 
L 345.903362 137.923205 
L 347.858383 137.974598 
L 349.813404 137.693999 
L 351.768426 136.922128 
L 355.678468 134.676669 
L 357.633489 133.480342 
L 361.543532 129.092588 
L 367.408596 123.489391 
L 381.093745 108.5634 
L 386.958809 102.886441 
L 388.91383 101.501077 
L 392.823872 99.996377 
L 394.778894 98.821507 
L 396.733915 97.503676 
L 398.688936 96.48318 
L 400.643957 94.68615 
L 402.598979 92.663498 
L 406.509021 89.819898 
L 408.464043 88.178198 
L 410.419064 85.969122 
L 414.329106 80.796516 
L 416.284128 78.733635 
L 418.239149 77.171932 
L 420.19417 76.133059 
L 422.149191 75.557745 
L 424.104213 74.838508 
L 426.059234 73.435166 
L 428.014255 71.060927 
L 429.969277 68.226793 
L 431.924298 65.919505 
L 433.879319 64.268156 
L 435.83434 63.614122 
L 437.789362 64.216867 
L 439.744383 64.680956 
L 441.699404 64.027609 
L 443.654426 62.842843 
L 445.609447 61.875923 
L 447.564468 61.425997 
L 449.519489 61.244313 
L 451.474511 60.837789 
L 453.429532 60.152399 
L 457.339574 60.4822 
L 459.294596 59.913952 
L 461.249617 59.783791 
L 463.204638 58.997515 
L 465.15966 57.023296 
L 467.114681 55.24465 
L 469.069702 53.832103 
L 471.024723 53.154821 
L 472.979745 53.431353 
L 478.844809 56.149538 
L 480.79983 57.272612 
L 482.754851 58.033525 
L 486.664894 57.396564 
L 488.619915 57.412802 
L 490.574936 57.825733 
L 492.529957 58.86324 
L 494.484979 60.257889 
L 496.44 62.253702 
L 496.44 62.253702 
" clip-path="url(#p02e668bdc3)" style="fill: none; stroke: #2ca02c; stroke-width: 1.5; stroke-linecap: square"/>
   </g>
   <g id="line2d_18">
    <path d="M 37.01 84.211338 
L 50.695149 84.270297 
L 52.65017 84.381827 
L 56.560213 84.890477 
L 58.515234 85.470353 
L 62.425277 87.849846 
L 64.380298 88.945555 
L 68.29034 92.084066 
L 70.245362 92.970591 
L 72.200383 93.551747 
L 74.155404 93.820872 
L 76.110426 93.40278 
L 78.065447 92.71096 
L 80.020468 91.570995 
L 83.930511 88.258058 
L 85.885532 86.637524 
L 87.840553 85.419699 
L 89.795574 83.914659 
L 91.750596 81.416048 
L 93.705617 79.168275 
L 95.660638 77.502711 
L 97.61566 76.179073 
L 101.525702 75.020159 
L 103.480723 74.630719 
L 105.435745 75.028189 
L 107.390766 76.13015 
L 109.345787 77.710637 
L 111.300809 79.035195 
L 113.25583 79.606001 
L 115.210851 80.010876 
L 117.165872 80.532019 
L 119.120894 80.615498 
L 121.075915 79.951645 
L 124.985957 77.622749 
L 126.940979 76.764536 
L 128.896 76.149607 
L 130.851021 75.801615 
L 132.806043 76.398905 
L 134.761064 78.299973 
L 136.716085 80.977763 
L 138.671106 83.446352 
L 142.581149 86.904032 
L 144.53617 89.907041 
L 146.491191 94.534798 
L 150.401234 104.586513 
L 152.356255 108.460404 
L 154.311277 111.516153 
L 156.266298 114.080187 
L 158.221319 115.688165 
L 160.17634 116.856687 
L 162.131362 117.133582 
L 164.086383 116.211504 
L 166.041404 115.026733 
L 167.996426 113.107677 
L 169.951447 110.947668 
L 173.861489 107.175467 
L 175.816511 105.266192 
L 177.771532 102.754467 
L 181.681574 96.595181 
L 183.636596 93.603382 
L 191.456681 80.719897 
L 193.411702 77.960967 
L 195.366723 75.629181 
L 197.321745 73.667792 
L 199.276766 72.590451 
L 201.231787 73.168289 
L 203.186809 75.167696 
L 205.14183 77.741634 
L 207.096851 79.833334 
L 209.051872 81.201728 
L 211.006894 83.04566 
L 212.961915 85.787831 
L 214.916936 89.284429 
L 216.871957 92.220711 
L 218.826979 92.75243 
L 220.782 91.117729 
L 222.737021 89.280664 
L 224.692043 88.291537 
L 226.647064 88.088424 
L 228.602085 87.41692 
L 230.557106 85.252031 
L 232.512128 81.963274 
L 234.467149 78.430788 
L 236.42217 75.28718 
L 238.377191 72.803808 
L 240.332213 70.776767 
L 242.287234 68.451614 
L 244.242255 64.791885 
L 250.107319 50.933003 
L 252.06234 47.406725 
L 254.017362 45.065324 
L 255.972383 41.927323 
L 259.882426 33.13975 
L 261.837447 29.818368 
L 263.792468 27.635899 
L 265.747489 26.366307 
L 267.702511 26.008382 
L 269.657532 26.68117 
L 273.567574 27.594146 
L 275.522596 29.517478 
L 277.477617 33.375085 
L 279.432638 38.239459 
L 281.38766 42.718897 
L 283.342681 45.838204 
L 285.297702 47.838541 
L 287.252723 50.19958 
L 289.207745 53.279532 
L 291.162766 55.28763 
L 293.117787 55.076983 
L 297.02783 51.897992 
L 298.982851 50.568051 
L 300.937872 48.971731 
L 302.892894 47.096442 
L 306.802936 40.655927 
L 308.757957 38.283893 
L 310.712979 36.203004 
L 312.668 33.711447 
L 316.578043 27.159281 
L 318.533064 24.837781 
L 320.488085 23.785125 
L 322.443106 24.006291 
L 324.398128 25.321972 
L 326.353149 27.407719 
L 328.30817 29.791383 
L 330.263191 31.863017 
L 332.218213 32.918443 
L 334.173234 33.603429 
L 336.128255 35.526417 
L 338.083277 39.205641 
L 340.038298 43.13746 
L 341.993319 46.446788 
L 343.94834 48.843651 
L 345.903362 50.09683 
L 347.858383 50.677201 
L 349.813404 51.512009 
L 351.768426 53.904716 
L 353.723447 56.864863 
L 355.678468 59.214312 
L 357.633489 61.057446 
L 359.588511 63.562821 
L 361.543532 67.553192 
L 365.453574 77.162688 
L 367.408596 80.650598 
L 369.363617 83.228915 
L 371.318638 86.124995 
L 373.27366 90.395477 
L 377.183702 101.323215 
L 379.138723 105.734395 
L 383.048766 112.553074 
L 385.003787 116.928394 
L 388.91383 127.769348 
L 390.868851 132.302739 
L 392.823872 136.431718 
L 394.778894 139.659364 
L 396.733915 142.256276 
L 398.688936 143.976872 
L 400.643957 144.986153 
L 402.598979 145.6257 
L 410.419064 147.050661 
L 414.329106 148.302197 
L 416.284128 149.203556 
L 418.239149 150.578657 
L 420.19417 152.186333 
L 422.149191 153.449834 
L 424.104213 153.982119 
L 426.059234 153.810021 
L 429.969277 153.11867 
L 433.879319 152.506805 
L 435.83434 151.795623 
L 437.789362 150.12416 
L 439.744383 147.681786 
L 445.609447 139.413341 
L 447.564468 137.194664 
L 449.519489 135.349552 
L 451.474511 133.812487 
L 453.429532 132.578801 
L 459.294596 127.899302 
L 461.249617 126.129116 
L 463.204638 124.185636 
L 465.15966 122.445041 
L 469.069702 119.359502 
L 471.024723 117.304477 
L 472.979745 114.764669 
L 476.889787 108.339226 
L 480.79983 102.312951 
L 482.754851 99.758649 
L 486.664894 95.719918 
L 488.619915 93.108807 
L 490.574936 89.97592 
L 492.529957 86.536185 
L 494.484979 82.803722 
L 496.44 78.563861 
L 496.44 78.563861 
" clip-path="url(#p02e668bdc3)" style="fill: none; stroke: #d62728; stroke-width: 1.5; stroke-linecap: square"/>
   </g>
   <g id="line2d_19">
    <path d="M 37.01 84.211338 
L 56.560213 84.120759 
L 58.515234 83.703937 
L 60.470255 82.526035 
L 62.425277 80.879013 
L 64.380298 78.716878 
L 66.335319 76.337059 
L 68.29034 74.540057 
L 72.200383 71.45015 
L 74.155404 70.943745 
L 78.065447 71.79054 
L 80.020468 72.051342 
L 81.975489 72.739623 
L 83.930511 74.589308 
L 85.885532 77.761745 
L 87.840553 81.2903 
L 89.795574 84.068166 
L 91.750596 86.041263 
L 93.705617 87.774817 
L 95.660638 89.851304 
L 101.525702 95.002585 
L 105.435745 97.053289 
L 107.390766 97.892635 
L 109.345787 98.20339 
L 115.210851 99.656419 
L 117.165872 99.694936 
L 119.120894 98.611353 
L 121.075915 96.754735 
L 123.030936 95.250584 
L 124.985957 94.202581 
L 126.940979 93.41045 
L 128.896 92.838085 
L 130.851021 92.467841 
L 132.806043 91.61518 
L 136.716085 88.8004 
L 138.671106 87.647128 
L 140.626128 86.865804 
L 142.581149 85.911285 
L 144.53617 83.597055 
L 146.491191 79.587893 
L 150.401234 70.439747 
L 152.356255 66.915733 
L 154.311277 64.115371 
L 156.266298 61.510449 
L 158.221319 59.53624 
L 162.131362 56.791219 
L 164.086383 55.880409 
L 166.041404 55.700926 
L 167.996426 56.816917 
L 169.951447 60.018363 
L 171.906468 63.869479 
L 173.861489 67.106552 
L 177.771532 72.099357 
L 179.726553 75.968708 
L 185.591617 91.605123 
L 187.546638 95.155002 
L 189.50166 98.440341 
L 191.456681 102.748242 
L 193.411702 108.170239 
L 195.366723 112.831621 
L 197.321745 116.53644 
L 199.276766 119.91387 
L 201.231787 121.867541 
L 203.186809 122.026296 
L 207.096851 120.506707 
L 209.051872 120.231542 
L 211.006894 119.454811 
L 212.961915 117.374461 
L 214.916936 113.876895 
L 216.871957 109.753023 
L 218.826979 106.249645 
L 222.737021 100.632328 
L 224.692043 98.165401 
L 226.647064 96.133028 
L 228.602085 94.825501 
L 230.557106 94.542945 
L 232.512128 95.106868 
L 236.42217 96.678582 
L 238.377191 98.152376 
L 240.332213 101.411179 
L 242.287234 106.322781 
L 244.242255 111.673855 
L 246.197277 116.077303 
L 248.152298 119.209055 
L 250.107319 121.773928 
L 252.06234 124.060093 
L 255.972383 129.124976 
L 257.927404 131.210884 
L 259.882426 132.704062 
L 261.837447 134.046472 
L 263.792468 134.960893 
L 265.747489 135.052121 
L 267.702511 134.340807 
L 269.657532 132.939553 
L 273.567574 131.46054 
L 275.522596 129.647176 
L 277.477617 126.109076 
L 279.432638 121.946342 
L 281.38766 118.576633 
L 283.342681 116.540724 
L 285.297702 115.159615 
L 287.252723 113.049758 
L 291.162766 105.784883 
L 295.072809 100.765712 
L 298.982851 96.637485 
L 300.937872 94.692074 
L 302.892894 93.090194 
L 304.847915 92.420414 
L 306.802936 92.983171 
L 308.757957 94.53854 
L 310.712979 97.049312 
L 312.668 100.333041 
L 314.623021 104.627279 
L 316.578043 109.300853 
L 318.533064 112.700489 
L 320.488085 114.897991 
L 322.443106 116.584796 
L 324.398128 117.47227 
L 326.353149 116.476477 
L 328.30817 114.23741 
L 330.263191 112.239031 
L 334.173234 109.591829 
L 336.128255 106.913343 
L 338.083277 102.591734 
L 341.993319 92.908964 
L 343.94834 88.753386 
L 345.903362 85.05521 
L 347.858383 82.152568 
L 349.813404 79.662351 
L 353.723447 73.459577 
L 355.678468 71.381493 
L 357.633489 69.77528 
L 359.588511 67.381557 
L 361.543532 63.35942 
L 365.453574 53.206687 
L 367.408596 49.334447 
L 369.363617 46.443233 
L 371.318638 43.33722 
L 373.27366 38.964461 
L 377.183702 28.273019 
L 379.138723 24.100392 
L 383.048766 18.105443 
L 385.003787 14.162803 
L 388.91383 4.107899 
L 391.317591 -1 
M 410.916988 -1 
L 412.374085 2.350616 
L 414.329106 6.115987 
L 416.284128 8.39061 
L 418.239149 9.622225 
L 420.19417 11.204463 
L 422.149191 14.282749 
L 426.059234 22.529742 
L 428.014255 25.570409 
L 429.969277 27.822601 
L 431.924298 30.430762 
L 433.879319 34.394189 
L 437.789362 44.078499 
L 439.744383 47.74078 
L 441.699404 50.531046 
L 443.654426 53.600996 
L 445.609447 58.051367 
L 449.519489 69.028301 
L 451.474511 73.205719 
L 453.429532 76.001171 
L 455.384553 77.75878 
L 457.339574 80.137925 
L 459.294596 84.420821 
L 461.249617 89.359473 
L 463.204638 93.547981 
L 467.114681 99.515788 
L 469.069702 103.510382 
L 472.979745 114.671373 
L 474.934766 119.425564 
L 476.889787 122.743601 
L 478.844809 125.44749 
L 480.79983 128.894266 
L 482.754851 133.733347 
L 484.709872 139.304553 
L 486.664894 144.17407 
L 492.529957 157.435234 
L 496.44 167.155685 
L 496.44 167.155685 
" clip-path="url(#p02e668bdc3)" style="fill: none; stroke: #9467bd; stroke-width: 1.5; stroke-linecap: square"/>
   </g>
   <g id="patch_3">
    <path d="M 37.01 163.52 
L 37.01 10.08 
" style="fill: none; stroke: #000000; stroke-width: 0.8; stroke-linejoin: miter; stroke-linecap: square"/>
   </g>
   <g id="patch_4">
    <path d="M 496.44 163.52 
L 496.44 10.08 
" style="fill: none; stroke: #000000; stroke-width: 0.8; stroke-linejoin: miter; stroke-linecap: square"/>
   </g>
   <g id="patch_5">
    <path d="M 37.01 163.52 
L 496.44 163.52 
" style="fill: none; stroke: #000000; stroke-width: 0.8; stroke-linejoin: miter; stroke-linecap: square"/>
   </g>
   <g id="patch_6">
    <path d="M 37.01 10.08 
L 496.44 10.08 
" style="fill: none; stroke: #000000; stroke-width: 0.8; stroke-linejoin: miter; stroke-linecap: square"/>
   </g>
   <g id="legend_1">
    <g id="patch_7">
     <path d="M 445.010781 65.661094 
L 491.54 65.661094 
Q 492.94 65.661094 492.94 64.261094 
L 492.94 14.98 
Q 492.94 13.58 491.54 13.58 
L 445.010781 13.58 
Q 443.610781 13.58 443.610781 14.98 
L 443.610781 64.261094 
Q 443.610781 65.661094 445.010781 65.661094 
z
" style="fill: #ffffff; opacity: 0.8; stroke: #cccccc; stroke-linejoin: miter"/>
    </g>
    <g id="line2d_20">
     <path d="M 446.410781 18.96125 
L 453.410781 18.96125 
L 460.410781 18.96125 
" style="fill: none; stroke: #1f77b4; stroke-width: 1.5; stroke-linecap: square"/>
    </g>
    <g id="text_11">
     <!-- Agent 1 -->
     <g transform="translate(466.010781 21.41125) scale(0.07 -0.07)">
      <defs>
       <path id="ArialMT-41" d="M -9 0 
L 1750 4581 
L 2403 4581 
L 4278 0 
L 3588 0 
L 3053 1388 
L 1138 1388 
L 634 0 
L -9 0 
z
M 1313 1881 
L 2866 1881 
L 2388 3150 
Q 2169 3728 2063 4100 
Q 1975 3659 1816 3225 
L 1313 1881 
z
" transform="scale(0.015625)"/>
       <path id="ArialMT-65" d="M 2694 1069 
L 3275 997 
Q 3138 488 2766 206 
Q 2394 -75 1816 -75 
Q 1088 -75 661 373 
Q 234 822 234 1631 
Q 234 2469 665 2931 
Q 1097 3394 1784 3394 
Q 2450 3394 2872 2941 
Q 3294 2488 3294 1666 
Q 3294 1616 3291 1516 
L 816 1516 
Q 847 969 1125 678 
Q 1403 388 1819 388 
Q 2128 388 2347 550 
Q 2566 713 2694 1069 
z
M 847 1978 
L 2700 1978 
Q 2663 2397 2488 2606 
Q 2219 2931 1791 2931 
Q 1403 2931 1139 2672 
Q 875 2413 847 1978 
z
" transform="scale(0.015625)"/>
       <path id="ArialMT-74" d="M 1650 503 
L 1731 6 
Q 1494 -44 1306 -44 
Q 1000 -44 831 53 
Q 663 150 594 308 
Q 525 466 525 972 
L 525 2881 
L 113 2881 
L 113 3319 
L 525 3319 
L 525 4141 
L 1084 4478 
L 1084 3319 
L 1650 3319 
L 1650 2881 
L 1084 2881 
L 1084 941 
Q 1084 700 1114 631 
Q 1144 563 1211 522 
Q 1278 481 1403 481 
Q 1497 481 1650 503 
z
" transform="scale(0.015625)"/>
      </defs>
      <use xlink:href="#ArialMT-41"/>
      <use xlink:href="#ArialMT-67" transform="translate(66.699219 0)"/>
      <use xlink:href="#ArialMT-65" transform="translate(122.314453 0)"/>
      <use xlink:href="#ArialMT-6e" transform="translate(177.929688 0)"/>
      <use xlink:href="#ArialMT-74" transform="translate(233.544922 0)"/>
      <use xlink:href="#ArialMT-20" transform="translate(261.328125 0)"/>
      <use xlink:href="#ArialMT-31" transform="translate(289.111328 0)"/>
     </g>
    </g>
    <g id="line2d_21">
     <path d="M 446.410781 28.965781 
L 453.410781 28.965781 
L 460.410781 28.965781 
" style="fill: none; stroke: #ff7f0e; stroke-width: 1.5; stroke-linecap: square"/>
    </g>
    <g id="text_12">
     <!-- Agent 2 -->
     <g transform="translate(466.010781 31.415781) scale(0.07 -0.07)">
      <use xlink:href="#ArialMT-41"/>
      <use xlink:href="#ArialMT-67" transform="translate(66.699219 0)"/>
      <use xlink:href="#ArialMT-65" transform="translate(122.314453 0)"/>
      <use xlink:href="#ArialMT-6e" transform="translate(177.929688 0)"/>
      <use xlink:href="#ArialMT-74" transform="translate(233.544922 0)"/>
      <use xlink:href="#ArialMT-20" transform="translate(261.328125 0)"/>
      <use xlink:href="#ArialMT-32" transform="translate(289.111328 0)"/>
     </g>
    </g>
    <g id="line2d_22">
     <path d="M 446.410781 38.970313 
L 453.410781 38.970313 
L 460.410781 38.970313 
" style="fill: none; stroke: #2ca02c; stroke-width: 1.5; stroke-linecap: square"/>
    </g>
    <g id="text_13">
     <!-- Agent 3 -->
     <g transform="translate(466.010781 41.420313) scale(0.07 -0.07)">
      <use xlink:href="#ArialMT-41"/>
      <use xlink:href="#ArialMT-67" transform="translate(66.699219 0)"/>
      <use xlink:href="#ArialMT-65" transform="translate(122.314453 0)"/>
      <use xlink:href="#ArialMT-6e" transform="translate(177.929688 0)"/>
      <use xlink:href="#ArialMT-74" transform="translate(233.544922 0)"/>
      <use xlink:href="#ArialMT-20" transform="translate(261.328125 0)"/>
      <use xlink:href="#ArialMT-33" transform="translate(289.111328 0)"/>
     </g>
    </g>
    <g id="line2d_23">
     <path d="M 446.410781 48.954063 
L 453.410781 48.954063 
L 460.410781 48.954063 
" style="fill: none; stroke: #d62728; stroke-width: 1.5; stroke-linecap: square"/>
    </g>
    <g id="text_14">
     <!-- Agent 4 -->
     <g transform="translate(466.010781 51.404063) scale(0.07 -0.07)">
      <use xlink:href="#ArialMT-41"/>
      <use xlink:href="#ArialMT-67" transform="translate(66.699219 0)"/>
      <use xlink:href="#ArialMT-65" transform="translate(122.314453 0)"/>
      <use xlink:href="#ArialMT-6e" transform="translate(177.929688 0)"/>
      <use xlink:href="#ArialMT-74" transform="translate(233.544922 0)"/>
      <use xlink:href="#ArialMT-20" transform="translate(261.328125 0)"/>
      <use xlink:href="#ArialMT-34" transform="translate(289.111328 0)"/>
     </g>
    </g>
    <g id="line2d_24">
     <path d="M 446.410781 58.937812 
L 453.410781 58.937812 
L 460.410781 58.937812 
" style="fill: none; stroke: #9467bd; stroke-width: 1.5; stroke-linecap: square"/>
    </g>
    <g id="text_15">
     <!-- Agent 5 -->
     <g transform="translate(466.010781 61.387812) scale(0.07 -0.07)">
      <use xlink:href="#ArialMT-41"/>
      <use xlink:href="#ArialMT-67" transform="translate(66.699219 0)"/>
      <use xlink:href="#ArialMT-65" transform="translate(122.314453 0)"/>
      <use xlink:href="#ArialMT-6e" transform="translate(177.929688 0)"/>
      <use xlink:href="#ArialMT-74" transform="translate(233.544922 0)"/>
      <use xlink:href="#ArialMT-20" transform="translate(261.328125 0)"/>
      <use xlink:href="#ArialMT-35" transform="translate(289.111328 0)"/>
     </g>
    </g>
   </g>
  </g>
  <g id="axes_2">
   <g id="patch_8">
    <path d="M 37.01 328.48 
L 496.44 328.48 
L 496.44 175.04 
L 37.01 175.04 
z
" style="fill: #ffffff"/>
   </g>
   <g id="matplotlib.axis_3">
    <g id="xtick_6">
     <g id="line2d_25">
      <g>
       <use xlink:href="#m221a1bdcd2" x="37.01" y="328.48" style="stroke: #000000; stroke-width: 0.8"/>
      </g>
     </g>
     <g id="text_16">
      <!-- 0 -->
      <g transform="translate(35.341719 339.774688) scale(0.06 -0.06)">
       <use xlink:href="#ArialMT-30"/>
      </g>
     </g>
    </g>
    <g id="xtick_7">
     <g id="line2d_26">
      <g>
       <use xlink:href="#m221a1bdcd2" x="134.761064" y="328.48" style="stroke: #000000; stroke-width: 0.8"/>
      </g>
     </g>
     <g id="text_17">
      <!-- 50 -->
      <g transform="translate(131.424501 339.774688) scale(0.06 -0.06)">
       <use xlink:href="#ArialMT-35"/>
       <use xlink:href="#ArialMT-30" transform="translate(55.615234 0)"/>
      </g>
     </g>
    </g>
    <g id="xtick_8">
     <g id="line2d_27">
      <g>
       <use xlink:href="#m221a1bdcd2" x="232.512128" y="328.48" style="stroke: #000000; stroke-width: 0.8"/>
      </g>
     </g>
     <g id="text_18">
      <!-- 100 -->
      <g transform="translate(227.507284 339.774688) scale(0.06 -0.06)">
       <use xlink:href="#ArialMT-31"/>
       <use xlink:href="#ArialMT-30" transform="translate(55.615234 0)"/>
       <use xlink:href="#ArialMT-30" transform="translate(111.230469 0)"/>
      </g>
     </g>
    </g>
    <g id="xtick_9">
     <g id="line2d_28">
      <g>
       <use xlink:href="#m221a1bdcd2" x="330.263191" y="328.48" style="stroke: #000000; stroke-width: 0.8"/>
      </g>
     </g>
     <g id="text_19">
      <!-- 150 -->
      <g transform="translate(325.258348 339.774688) scale(0.06 -0.06)">
       <use xlink:href="#ArialMT-31"/>
       <use xlink:href="#ArialMT-35" transform="translate(55.615234 0)"/>
       <use xlink:href="#ArialMT-30" transform="translate(111.230469 0)"/>
      </g>
     </g>
    </g>
    <g id="xtick_10">
     <g id="line2d_29">
      <g>
       <use xlink:href="#m221a1bdcd2" x="428.014255" y="328.48" style="stroke: #000000; stroke-width: 0.8"/>
      </g>
     </g>
     <g id="text_20">
      <!-- 200 -->
      <g transform="translate(423.009412 339.774688) scale(0.06 -0.06)">
       <use xlink:href="#ArialMT-32"/>
       <use xlink:href="#ArialMT-30" transform="translate(55.615234 0)"/>
       <use xlink:href="#ArialMT-30" transform="translate(111.230469 0)"/>
      </g>
     </g>
    </g>
    <g id="text_21">
     <!-- Timesteps (0.1 s) -->
     <g transform="translate(239.823672 350.062969) scale(0.07 -0.07)">
      <defs>
       <path id="ArialMT-54" d="M 1659 0 
L 1659 4041 
L 150 4041 
L 150 4581 
L 3781 4581 
L 3781 4041 
L 2266 4041 
L 2266 0 
L 1659 0 
z
" transform="scale(0.015625)"/>
       <path id="ArialMT-6d" d="M 422 0 
L 422 3319 
L 925 3319 
L 925 2853 
Q 1081 3097 1340 3245 
Q 1600 3394 1931 3394 
Q 2300 3394 2536 3241 
Q 2772 3088 2869 2813 
Q 3263 3394 3894 3394 
Q 4388 3394 4653 3120 
Q 4919 2847 4919 2278 
L 4919 0 
L 4359 0 
L 4359 2091 
Q 4359 2428 4304 2576 
Q 4250 2725 4106 2815 
Q 3963 2906 3769 2906 
Q 3419 2906 3187 2673 
Q 2956 2441 2956 1928 
L 2956 0 
L 2394 0 
L 2394 2156 
Q 2394 2531 2256 2718 
Q 2119 2906 1806 2906 
Q 1569 2906 1367 2781 
Q 1166 2656 1075 2415 
Q 984 2175 984 1722 
L 984 0 
L 422 0 
z
" transform="scale(0.015625)"/>
       <path id="ArialMT-73" d="M 197 991 
L 753 1078 
Q 800 744 1014 566 
Q 1228 388 1613 388 
Q 2000 388 2187 545 
Q 2375 703 2375 916 
Q 2375 1106 2209 1216 
Q 2094 1291 1634 1406 
Q 1016 1563 777 1677 
Q 538 1791 414 1992 
Q 291 2194 291 2438 
Q 291 2659 392 2848 
Q 494 3038 669 3163 
Q 800 3259 1026 3326 
Q 1253 3394 1513 3394 
Q 1903 3394 2198 3281 
Q 2494 3169 2634 2976 
Q 2775 2784 2828 2463 
L 2278 2388 
Q 2241 2644 2061 2787 
Q 1881 2931 1553 2931 
Q 1166 2931 1000 2803 
Q 834 2675 834 2503 
Q 834 2394 903 2306 
Q 972 2216 1119 2156 
Q 1203 2125 1616 2013 
Q 2213 1853 2448 1751 
Q 2684 1650 2818 1456 
Q 2953 1263 2953 975 
Q 2953 694 2789 445 
Q 2625 197 2315 61 
Q 2006 -75 1616 -75 
Q 969 -75 630 194 
Q 291 463 197 991 
z
" transform="scale(0.015625)"/>
       <path id="ArialMT-28" d="M 1497 -1347 
Q 1031 -759 709 28 
Q 388 816 388 1659 
Q 388 2403 628 3084 
Q 909 3875 1497 4659 
L 1900 4659 
Q 1522 4009 1400 3731 
Q 1209 3300 1100 2831 
Q 966 2247 966 1656 
Q 966 153 1900 -1347 
L 1497 -1347 
z
" transform="scale(0.015625)"/>
       <path id="ArialMT-29" d="M 791 -1347 
L 388 -1347 
Q 1322 153 1322 1656 
Q 1322 2244 1188 2822 
Q 1081 3291 891 3722 
Q 769 4003 388 4659 
L 791 4659 
Q 1378 3875 1659 3084 
Q 1900 2403 1900 1659 
Q 1900 816 1576 28 
Q 1253 -759 791 -1347 
z
" transform="scale(0.015625)"/>
      </defs>
      <use xlink:href="#ArialMT-54"/>
      <use xlink:href="#ArialMT-69" transform="translate(57.333984 0)"/>
      <use xlink:href="#ArialMT-6d" transform="translate(79.550781 0)"/>
      <use xlink:href="#ArialMT-65" transform="translate(162.851562 0)"/>
      <use xlink:href="#ArialMT-73" transform="translate(218.466797 0)"/>
      <use xlink:href="#ArialMT-74" transform="translate(268.466797 0)"/>
      <use xlink:href="#ArialMT-65" transform="translate(296.25 0)"/>
      <use xlink:href="#ArialMT-70" transform="translate(351.865234 0)"/>
      <use xlink:href="#ArialMT-73" transform="translate(407.480469 0)"/>
      <use xlink:href="#ArialMT-20" transform="translate(457.480469 0)"/>
      <use xlink:href="#ArialMT-28" transform="translate(485.263672 0)"/>
      <use xlink:href="#ArialMT-30" transform="translate(518.564453 0)"/>
      <use xlink:href="#ArialMT-2e" transform="translate(574.179688 0)"/>
      <use xlink:href="#ArialMT-31" transform="translate(601.962891 0)"/>
      <use xlink:href="#ArialMT-20" transform="translate(657.578125 0)"/>
      <use xlink:href="#ArialMT-73" transform="translate(685.361328 0)"/>
      <use xlink:href="#ArialMT-29" transform="translate(735.361328 0)"/>
     </g>
    </g>
   </g>
   <g id="matplotlib.axis_4">
    <g id="ytick_10">
     <g id="line2d_30">
      <g>
       <use xlink:href="#m4f50ce7ff6" x="37.01" y="328.48" style="stroke: #000000; stroke-width: 0.8"/>
      </g>
     </g>
     <g id="text_22">
      <!-- 0 -->
      <g transform="translate(26.673438 330.627344) scale(0.06 -0.06)">
       <use xlink:href="#ArialMT-30"/>
      </g>
     </g>
    </g>
    <g id="ytick_11">
     <g id="line2d_31">
      <g>
       <use xlink:href="#m4f50ce7ff6" x="37.01" y="308.021333" style="stroke: #000000; stroke-width: 0.8"/>
      </g>
     </g>
     <g id="text_23">
      <!-- 2 -->
      <g transform="translate(26.673438 310.168677) scale(0.06 -0.06)">
       <use xlink:href="#ArialMT-32"/>
      </g>
     </g>
    </g>
    <g id="ytick_12">
     <g id="line2d_32">
      <g>
       <use xlink:href="#m4f50ce7ff6" x="37.01" y="287.562667" style="stroke: #000000; stroke-width: 0.8"/>
      </g>
     </g>
     <g id="text_24">
      <!-- 4 -->
      <g transform="translate(26.673438 289.71001) scale(0.06 -0.06)">
       <use xlink:href="#ArialMT-34"/>
      </g>
     </g>
    </g>
    <g id="ytick_13">
     <g id="line2d_33">
      <g>
       <use xlink:href="#m4f50ce7ff6" x="37.01" y="267.104" style="stroke: #000000; stroke-width: 0.8"/>
      </g>
     </g>
     <g id="text_25">
      <!-- 6 -->
      <g transform="translate(26.673438 269.251344) scale(0.06 -0.06)">
       <defs>
        <path id="ArialMT-36" d="M 3184 3459 
L 2625 3416 
Q 2550 3747 2413 3897 
Q 2184 4138 1850 4138 
Q 1581 4138 1378 3988 
Q 1113 3794 959 3422 
Q 806 3050 800 2363 
Q 1003 2672 1297 2822 
Q 1591 2972 1913 2972 
Q 2475 2972 2870 2558 
Q 3266 2144 3266 1488 
Q 3266 1056 3080 686 
Q 2894 316 2569 119 
Q 2244 -78 1831 -78 
Q 1128 -78 684 439 
Q 241 956 241 2144 
Q 241 3472 731 4075 
Q 1159 4600 1884 4600 
Q 2425 4600 2770 4297 
Q 3116 3994 3184 3459 
z
M 888 1484 
Q 888 1194 1011 928 
Q 1134 663 1356 523 
Q 1578 384 1822 384 
Q 2178 384 2434 671 
Q 2691 959 2691 1453 
Q 2691 1928 2437 2201 
Q 2184 2475 1800 2475 
Q 1419 2475 1153 2201 
Q 888 1928 888 1484 
z
" transform="scale(0.015625)"/>
       </defs>
       <use xlink:href="#ArialMT-36"/>
      </g>
     </g>
    </g>
    <g id="ytick_14">
     <g id="line2d_34">
      <g>
       <use xlink:href="#m4f50ce7ff6" x="37.01" y="246.645333" style="stroke: #000000; stroke-width: 0.8"/>
      </g>
     </g>
     <g id="text_26">
      <!-- 8 -->
      <g transform="translate(26.673438 248.792677) scale(0.06 -0.06)">
       <defs>
        <path id="ArialMT-38" d="M 1131 2484 
Q 781 2613 612 2850 
Q 444 3088 444 3419 
Q 444 3919 803 4259 
Q 1163 4600 1759 4600 
Q 2359 4600 2725 4251 
Q 3091 3903 3091 3403 
Q 3091 3084 2923 2848 
Q 2756 2613 2416 2484 
Q 2838 2347 3058 2040 
Q 3278 1734 3278 1309 
Q 3278 722 2862 322 
Q 2447 -78 1769 -78 
Q 1091 -78 675 323 
Q 259 725 259 1325 
Q 259 1772 486 2073 
Q 713 2375 1131 2484 
z
M 1019 3438 
Q 1019 3113 1228 2906 
Q 1438 2700 1772 2700 
Q 2097 2700 2305 2904 
Q 2513 3109 2513 3406 
Q 2513 3716 2298 3927 
Q 2084 4138 1766 4138 
Q 1444 4138 1231 3931 
Q 1019 3725 1019 3438 
z
M 838 1322 
Q 838 1081 952 856 
Q 1066 631 1291 507 
Q 1516 384 1775 384 
Q 2178 384 2440 643 
Q 2703 903 2703 1303 
Q 2703 1709 2433 1975 
Q 2163 2241 1756 2241 
Q 1359 2241 1098 1978 
Q 838 1716 838 1322 
z
" transform="scale(0.015625)"/>
       </defs>
       <use xlink:href="#ArialMT-38"/>
      </g>
     </g>
    </g>
    <g id="ytick_15">
     <g id="line2d_35">
      <g>
       <use xlink:href="#m4f50ce7ff6" x="37.01" y="226.186667" style="stroke: #000000; stroke-width: 0.8"/>
      </g>
     </g>
     <g id="text_27">
      <!-- 10 -->
      <g transform="translate(23.336875 228.33401) scale(0.06 -0.06)">
       <use xlink:href="#ArialMT-31"/>
       <use xlink:href="#ArialMT-30" transform="translate(55.615234 0)"/>
      </g>
     </g>
    </g>
    <g id="ytick_16">
     <g id="line2d_36">
      <g>
       <use xlink:href="#m4f50ce7ff6" x="37.01" y="205.728" style="stroke: #000000; stroke-width: 0.8"/>
      </g>
     </g>
     <g id="text_28">
      <!-- 12 -->
      <g transform="translate(23.336875 207.875344) scale(0.06 -0.06)">
       <use xlink:href="#ArialMT-31"/>
       <use xlink:href="#ArialMT-32" transform="translate(55.615234 0)"/>
      </g>
     </g>
    </g>
    <g id="ytick_17">
     <g id="line2d_37">
      <g>
       <use xlink:href="#m4f50ce7ff6" x="37.01" y="185.269333" style="stroke: #000000; stroke-width: 0.8"/>
      </g>
     </g>
     <g id="text_29">
      <!-- 14 -->
      <g transform="translate(23.336875 187.416677) scale(0.06 -0.06)">
       <use xlink:href="#ArialMT-31"/>
       <use xlink:href="#ArialMT-34" transform="translate(55.615234 0)"/>
      </g>
     </g>
    </g>
    <g id="text_30">
     <!-- Distance from leader (d/$\lambda_0$) -->
     <g transform="translate(17.796875 294.005) rotate(-90) scale(0.07 -0.07)">
      <defs>
       <path id="ArialMT-44" d="M 494 0 
L 494 4581 
L 2072 4581 
Q 2606 4581 2888 4516 
Q 3281 4425 3559 4188 
Q 3922 3881 4101 3404 
Q 4281 2928 4281 2316 
Q 4281 1794 4159 1391 
Q 4038 988 3847 723 
Q 3656 459 3429 307 
Q 3203 156 2883 78 
Q 2563 0 2147 0 
L 494 0 
z
M 1100 541 
L 2078 541 
Q 2531 541 2789 625 
Q 3047 709 3200 863 
Q 3416 1078 3536 1442 
Q 3656 1806 3656 2325 
Q 3656 3044 3420 3430 
Q 3184 3816 2847 3947 
Q 2603 4041 2063 4041 
L 1100 4041 
L 1100 541 
z
" transform="scale(0.015625)"/>
       <path id="ArialMT-66" d="M 556 0 
L 556 2881 
L 59 2881 
L 59 3319 
L 556 3319 
L 556 3672 
Q 556 4006 616 4169 
Q 697 4388 901 4523 
Q 1106 4659 1475 4659 
Q 1713 4659 2000 4603 
L 1916 4113 
Q 1741 4144 1584 4144 
Q 1328 4144 1222 4034 
Q 1116 3925 1116 3625 
L 1116 3319 
L 1763 3319 
L 1763 2881 
L 1116 2881 
L 1116 0 
L 556 0 
z
" transform="scale(0.015625)"/>
       <path id="ArialMT-72" d="M 416 0 
L 416 3319 
L 922 3319 
L 922 2816 
Q 1116 3169 1280 3281 
Q 1444 3394 1641 3394 
Q 1925 3394 2219 3213 
L 2025 2691 
Q 1819 2813 1613 2813 
Q 1428 2813 1281 2702 
Q 1134 2591 1072 2394 
Q 978 2094 978 1738 
L 978 0 
L 416 0 
z
" transform="scale(0.015625)"/>
       <path id="ArialMT-6f" d="M 213 1659 
Q 213 2581 725 3025 
Q 1153 3394 1769 3394 
Q 2453 3394 2887 2945 
Q 3322 2497 3322 1706 
Q 3322 1066 3130 698 
Q 2938 331 2570 128 
Q 2203 -75 1769 -75 
Q 1072 -75 642 372 
Q 213 819 213 1659 
z
M 791 1659 
Q 791 1022 1069 705 
Q 1347 388 1769 388 
Q 2188 388 2466 706 
Q 2744 1025 2744 1678 
Q 2744 2294 2464 2611 
Q 2184 2928 1769 2928 
Q 1347 2928 1069 2612 
Q 791 2297 791 1659 
z
" transform="scale(0.015625)"/>
       <path id="ArialMT-6c" d="M 409 0 
L 409 4581 
L 972 4581 
L 972 0 
L 409 0 
z
" transform="scale(0.015625)"/>
      </defs>
      <use xlink:href="#ArialMT-44" transform="translate(0 0.015625)"/>
      <use xlink:href="#ArialMT-69" transform="translate(72.216797 0.015625)"/>
      <use xlink:href="#ArialMT-73" transform="translate(94.433594 0.015625)"/>
      <use xlink:href="#ArialMT-74" transform="translate(144.433594 0.015625)"/>
      <use xlink:href="#ArialMT-61" transform="translate(172.216797 0.015625)"/>
      <use xlink:href="#ArialMT-6e" transform="translate(227.832031 0.015625)"/>
      <use xlink:href="#ArialMT-63" transform="translate(283.447266 0.015625)"/>
      <use xlink:href="#ArialMT-65" transform="translate(333.447266 0.015625)"/>
      <use xlink:href="#ArialMT-20" transform="translate(389.0625 0.015625)"/>
      <use xlink:href="#ArialMT-66" transform="translate(416.845703 0.015625)"/>
      <use xlink:href="#ArialMT-72" transform="translate(444.628906 0.015625)"/>
      <use xlink:href="#ArialMT-6f" transform="translate(477.929688 0.015625)"/>
      <use xlink:href="#ArialMT-6d" transform="translate(533.544922 0.015625)"/>
      <use xlink:href="#ArialMT-20" transform="translate(616.845703 0.015625)"/>
      <use xlink:href="#ArialMT-6c" transform="translate(644.628906 0.015625)"/>
      <use xlink:href="#ArialMT-65" transform="translate(666.845703 0.015625)"/>
      <use xlink:href="#ArialMT-61" transform="translate(722.460938 0.015625)"/>
      <use xlink:href="#ArialMT-64" transform="translate(778.076172 0.015625)"/>
      <use xlink:href="#ArialMT-65" transform="translate(833.691406 0.015625)"/>
      <use xlink:href="#ArialMT-72" transform="translate(889.306641 0.015625)"/>
      <use xlink:href="#ArialMT-20" transform="translate(922.607422 0.015625)"/>
      <use xlink:href="#ArialMT-28" transform="translate(950.390625 0.015625)"/>
      <use xlink:href="#ArialMT-64" transform="translate(983.691406 0.015625)"/>
      <use xlink:href="#ArialMT-2f" transform="translate(1039.306641 0.015625)"/>
      <use xlink:href="#DejaVuSans-Oblique-3bb" transform="translate(1067.089844 0.015625)"/>
      <use xlink:href="#DejaVuSans-30" transform="translate(1126.269531 -16.390625) scale(0.7)"/>
      <use xlink:href="#ArialMT-29" transform="translate(1173.540039 0.015625)"/>
     </g>
    </g>
   </g>
   <g id="line2d_38">
    <path d="M 37.01 304.948275 
L 40.920043 304.84999 
L 46.785106 304.318741 
L 50.695149 304.527622 
L 54.605191 304.658604 
L 58.515234 304.471638 
L 62.425277 304.807146 
L 76.110426 305.819415 
L 78.065447 305.922886 
L 85.885532 305.913376 
L 89.795574 306.213177 
L 93.705617 306.189831 
L 97.61566 306.275761 
L 101.525702 306.334549 
L 103.480723 306.476104 
L 107.390766 306.973893 
L 111.300809 307.10576 
L 115.210851 306.947329 
L 119.120894 307.079499 
L 121.075915 307.341156 
L 123.030936 307.716153 
L 124.985957 307.956388 
L 132.806043 308.142214 
L 138.671106 308.792117 
L 140.626128 308.826924 
L 144.53617 308.51817 
L 148.446213 308.081989 
L 150.401234 308.106868 
L 156.266298 308.566955 
L 160.17634 308.62802 
L 164.086383 308.400218 
L 167.996426 308.030577 
L 179.726553 307.369789 
L 185.591617 307.428215 
L 189.50166 307.34968 
L 199.276766 306.460168 
L 201.231787 306.573573 
L 203.186809 306.824937 
L 207.096851 306.992551 
L 211.006894 307.105394 
L 216.871957 307.536373 
L 220.782 307.621481 
L 230.557106 307.114536 
L 234.467149 307.290811 
L 238.377191 307.224937 
L 242.287234 306.844747 
L 250.107319 305.825196 
L 254.017362 305.558812 
L 259.882426 305.224095 
L 261.837447 305.147771 
L 263.792468 305.211505 
L 267.702511 305.657342 
L 277.477617 306.640523 
L 283.342681 306.856342 
L 297.02783 306.736632 
L 302.892894 307.406611 
L 306.802936 307.369519 
L 310.712979 307.299995 
L 318.533064 307.301677 
L 320.488085 307.367783 
L 326.353149 307.154896 
L 328.30817 307.435493 
L 332.218213 308.313548 
L 334.173234 308.64316 
L 336.128255 308.80908 
L 338.083277 308.830959 
L 340.038298 308.734693 
L 343.94834 308.279854 
L 345.903362 308.238963 
L 353.723447 308.647643 
L 359.588511 308.356735 
L 365.453574 307.930887 
L 375.228681 308.157948 
L 379.138723 308.423487 
L 381.093745 308.501701 
L 386.958809 309.140521 
L 392.823872 309.363476 
L 394.778894 309.587168 
L 396.733915 309.666393 
L 400.643957 309.465197 
L 404.554 309.263443 
L 412.374085 309.130979 
L 414.329106 309.173473 
L 418.239149 308.911163 
L 424.104213 308.36743 
L 435.83434 308.093759 
L 439.744383 307.564993 
L 443.654426 306.90413 
L 445.609447 306.839623 
L 449.519489 307.202553 
L 451.474511 307.40775 
L 453.429532 307.498489 
L 457.339574 307.332289 
L 467.114681 306.447406 
L 471.024723 306.176141 
L 476.889787 305.649206 
L 488.619915 305.32446 
L 492.529957 305.387124 
L 496.44 305.202519 
L 496.44 305.202519 
" clip-path="url(#pfbb727d803)" style="fill: none; stroke: #1f77b4; stroke-width: 1.5; stroke-linecap: square"/>
   </g>
   <g id="line2d_39">
    <path d="M 37.01 281.44866 
L 40.920043 281.314585 
L 46.785106 280.721777 
L 48.740128 280.75293 
L 58.515234 281.499689 
L 70.245362 281.305678 
L 74.155404 281.328873 
L 89.795574 281.260693 
L 93.705617 281.000576 
L 101.525702 280.893037 
L 107.390766 281.074918 
L 111.300809 280.836763 
L 119.120894 280.113824 
L 121.075915 280.407373 
L 124.985957 281.140963 
L 126.940979 281.266236 
L 130.851021 281.344259 
L 132.806043 281.635153 
L 136.716085 282.516551 
L 138.671106 282.837096 
L 140.626128 283.0029 
L 146.491191 282.952366 
L 150.401234 283.698201 
L 154.311277 284.535402 
L 158.221319 284.931091 
L 162.131362 284.935899 
L 164.086383 284.910981 
L 167.996426 285.196101 
L 169.951447 285.399786 
L 171.906468 285.490363 
L 181.681574 285.430607 
L 185.591617 285.608086 
L 191.456681 286.345996 
L 201.231787 288.589836 
L 203.186809 288.903724 
L 207.096851 289.122212 
L 216.871957 289.07109 
L 220.782 288.737844 
L 224.692043 288.054514 
L 226.647064 287.672633 
L 228.602085 287.410588 
L 232.512128 287.313914 
L 238.377191 287.361784 
L 242.287234 286.974951 
L 244.242255 286.787298 
L 246.197277 286.818349 
L 250.107319 287.310191 
L 254.017362 287.256873 
L 257.927404 286.922422 
L 259.882426 286.734707 
L 261.837447 286.81941 
L 265.747489 287.270744 
L 271.612553 287.795763 
L 275.522596 288.296101 
L 281.38766 288.678319 
L 285.297702 288.448695 
L 291.162766 287.841235 
L 304.847915 286.142055 
L 310.712979 285.719279 
L 314.623021 285.23385 
L 320.488085 284.23494 
L 324.398128 283.425544 
L 326.353149 283.22873 
L 334.173234 283.459479 
L 338.083277 283.171695 
L 341.993319 282.694218 
L 343.94834 282.814684 
L 347.858383 283.247243 
L 353.723447 283.522022 
L 357.633489 283.499797 
L 363.498553 284.031789 
L 377.183702 284.731622 
L 381.093745 284.637835 
L 385.003787 284.466351 
L 388.91383 284.302462 
L 392.823872 283.897393 
L 398.688936 283.921015 
L 402.598979 284.367308 
L 410.419064 284.6562 
L 414.329106 285.163959 
L 416.284128 285.279268 
L 418.239149 285.233829 
L 424.104213 284.731051 
L 426.059234 284.902219 
L 431.924298 286.16075 
L 433.879319 286.338893 
L 439.744383 286.351287 
L 441.699404 286.800764 
L 443.654426 287.37586 
L 445.609447 287.788538 
L 447.564468 287.94712 
L 457.339574 288.125788 
L 463.204638 288.55377 
L 465.15966 289.033109 
L 467.114681 289.393453 
L 471.024723 289.747851 
L 474.934766 289.874183 
L 480.79983 290.098218 
L 484.709872 290.204153 
L 494.484979 290.769584 
L 496.44 290.766718 
L 496.44 290.766718 
" clip-path="url(#pfbb727d803)" style="fill: none; stroke: #ff7f0e; stroke-width: 1.5; stroke-linecap: square"/>
   </g>
   <g id="line2d_40">
    <path d="M 37.01 257.949797 
L 40.920043 257.874716 
L 46.785106 257.361364 
L 48.740128 257.409206 
L 52.65017 257.703596 
L 54.605191 257.692327 
L 58.515234 257.325459 
L 60.470255 257.094784 
L 70.245362 256.886373 
L 78.065447 256.92685 
L 81.975489 257.208371 
L 85.885532 257.627412 
L 89.795574 257.868685 
L 93.705617 258.558303 
L 97.61566 258.820694 
L 109.345787 258.517911 
L 117.165872 257.618227 
L 119.120894 257.660531 
L 123.030936 258.370466 
L 124.985957 258.569714 
L 134.761064 258.635243 
L 138.671106 258.309067 
L 142.581149 257.724409 
L 148.446213 256.529991 
L 158.221319 254.320547 
L 160.17634 253.978674 
L 162.131362 253.894735 
L 167.996426 254.812552 
L 169.951447 255.183812 
L 173.861489 255.594806 
L 175.816511 255.707254 
L 177.771532 255.931367 
L 181.681574 256.564883 
L 193.411702 257.954009 
L 197.321745 258.055505 
L 203.186809 257.699968 
L 207.096851 257.336226 
L 214.916936 256.258873 
L 216.871957 256.301612 
L 218.826979 256.798778 
L 222.737021 258.464185 
L 224.692043 258.994696 
L 228.602085 259.517989 
L 230.557106 260.041819 
L 234.467149 261.439538 
L 236.42217 261.949796 
L 238.377191 262.225696 
L 242.287234 262.462958 
L 244.242255 262.93762 
L 250.107319 265.185501 
L 252.06234 265.616697 
L 254.017362 265.844223 
L 255.972383 266.329216 
L 259.882426 267.872377 
L 261.837447 268.346711 
L 265.747489 268.783675 
L 269.657532 268.826509 
L 273.567574 268.571552 
L 277.477617 267.971533 
L 285.297702 266.494231 
L 287.252723 266.239721 
L 289.207745 266.163863 
L 291.162766 266.30063 
L 293.117787 266.728872 
L 295.072809 267.45243 
L 297.02783 268.050014 
L 302.892894 269.52803 
L 306.802936 271.059283 
L 308.757957 271.521655 
L 312.668 272.175619 
L 316.578043 273.189915 
L 318.533064 273.488318 
L 320.488085 273.562838 
L 324.398128 273.470624 
L 330.263191 273.818049 
L 336.128255 273.808429 
L 340.038298 273.615529 
L 343.94834 273.697179 
L 347.858383 274.085249 
L 349.813404 274.118141 
L 353.723447 273.785914 
L 359.588511 272.768746 
L 369.363617 270.801548 
L 375.228681 269.357672 
L 381.093745 267.632855 
L 385.003787 266.432791 
L 390.868851 264.989181 
L 394.778894 264.287836 
L 408.464043 262.037369 
L 416.284128 260.319685 
L 422.149191 259.020854 
L 426.059234 258.529711 
L 431.924298 257.784065 
L 435.83434 257.352623 
L 437.789362 257.419994 
L 445.609447 258.333565 
L 449.519489 258.351725 
L 453.429532 258.147599 
L 459.294596 258.299388 
L 465.15966 258.284102 
L 471.024723 257.967251 
L 472.979745 258.074793 
L 480.79983 259.415695 
L 482.754851 259.623066 
L 486.664894 259.680032 
L 490.574936 260.141531 
L 494.484979 260.883134 
L 496.44 261.412485 
L 496.44 261.412485 
" clip-path="url(#pfbb727d803)" style="fill: none; stroke: #2ca02c; stroke-width: 1.5; stroke-linecap: square"/>
   </g>
   <g id="line2d_41">
    <path d="M 37.01 234.450934 
L 40.920043 234.379521 
L 46.785106 233.874754 
L 48.740128 233.922684 
L 52.65017 234.250197 
L 54.605191 234.302436 
L 58.515234 234.162334 
L 60.470255 234.266396 
L 64.380298 234.821999 
L 68.29034 235.490307 
L 72.200383 235.873563 
L 76.110426 235.833066 
L 80.020468 235.488892 
L 95.660638 233.457101 
L 99.570681 232.988121 
L 103.480723 232.752677 
L 105.435745 232.81916 
L 111.300809 233.413778 
L 115.210851 233.26171 
L 117.165872 233.138212 
L 119.120894 233.202778 
L 121.075915 233.384311 
L 123.030936 233.424519 
L 126.940979 233.116039 
L 128.896 232.904762 
L 130.851021 232.822933 
L 132.806043 233.052441 
L 138.671106 234.606208 
L 142.581149 234.943597 
L 144.53617 235.378721 
L 146.491191 236.203794 
L 150.401234 238.017313 
L 152.356255 238.58093 
L 156.266298 239.144377 
L 160.17634 239.185237 
L 166.041404 239.163582 
L 169.951447 238.814637 
L 173.861489 238.219711 
L 177.771532 237.377339 
L 183.636596 235.816621 
L 189.50166 234.017448 
L 193.411702 232.78838 
L 197.321745 231.74503 
L 199.276766 231.367111 
L 201.231787 231.378533 
L 203.186809 231.789467 
L 205.14183 232.332955 
L 207.096851 232.669896 
L 211.006894 232.981937 
L 212.961915 233.410988 
L 214.916936 234.112834 
L 216.871957 234.938582 
L 218.826979 235.57754 
L 222.737021 236.317142 
L 226.647064 236.784201 
L 228.602085 236.873948 
L 230.557106 236.820474 
L 234.467149 236.399195 
L 238.377191 235.684825 
L 244.242255 234.260236 
L 254.017362 231.906423 
L 259.882426 230.754424 
L 263.792468 230.02649 
L 265.747489 229.859471 
L 267.702511 229.835748 
L 269.657532 229.986268 
L 273.567574 229.974771 
L 275.522596 230.227185 
L 277.477617 230.916336 
L 279.432638 231.83472 
L 281.38766 232.61452 
L 283.342681 233.058934 
L 285.297702 233.295956 
L 287.252723 233.671056 
L 291.162766 235.088778 
L 295.072809 235.764159 
L 298.982851 236.060318 
L 302.892894 236.131862 
L 306.802936 235.945644 
L 310.712979 235.529764 
L 320.488085 233.950319 
L 322.443106 233.953465 
L 324.398128 234.26793 
L 330.263191 236.359634 
L 336.128255 237.326921 
L 338.083277 238.18236 
L 341.993319 240.056018 
L 343.94834 240.766933 
L 345.903362 241.311319 
L 349.813404 241.899457 
L 353.723447 242.994657 
L 355.678468 243.317452 
L 357.633489 243.466101 
L 359.588511 243.763612 
L 361.543532 244.445206 
L 365.453574 246.248046 
L 367.408596 246.777301 
L 371.318638 247.359842 
L 373.27366 248.018591 
L 377.183702 249.877558 
L 379.138723 250.47763 
L 383.048766 251.061491 
L 385.003787 251.658477 
L 390.868851 254.314692 
L 392.823872 255.034446 
L 394.778894 255.575113 
L 396.733915 255.958629 
L 398.688936 256.133256 
L 400.643957 256.130293 
L 404.554 255.771498 
L 416.284128 254.15208 
L 420.19417 254.037583 
L 424.104213 253.839445 
L 428.014255 253.267343 
L 439.744383 251.070912 
L 445.609447 249.555236 
L 451.474511 247.988589 
L 455.384553 247.210934 
L 459.294596 246.450649 
L 465.15966 244.980893 
L 471.024723 243.293225 
L 476.889787 241.687245 
L 488.619915 238.731128 
L 494.484979 237.008907 
L 496.44 236.407628 
L 496.44 236.407628 
" clip-path="url(#pfbb727d803)" style="fill: none; stroke: #d62728; stroke-width: 1.5; stroke-linecap: square"/>
   </g>
   <g id="line2d_42">
    <path d="M 37.01 210.952072 
L 40.920043 210.880658 
L 46.785106 210.373969 
L 48.740128 210.41893 
L 52.65017 210.74082 
L 54.605191 210.787251 
L 56.560213 210.713935 
L 62.425277 210.114842 
L 68.29034 209.412436 
L 74.155404 208.86042 
L 78.065447 208.883477 
L 81.975489 208.689983 
L 83.930511 208.954054 
L 89.795574 210.753665 
L 103.480723 212.41092 
L 111.300809 213.774192 
L 115.210851 213.881535 
L 119.120894 213.543919 
L 123.030936 212.869455 
L 128.896 211.706365 
L 130.851021 211.525805 
L 132.806043 211.527936 
L 136.716085 211.886331 
L 138.671106 212.023555 
L 142.581149 211.898054 
L 146.491191 211.472013 
L 150.401234 210.846026 
L 154.311277 210.054875 
L 160.17634 208.74956 
L 162.131362 208.364243 
L 164.086383 208.150077 
L 166.041404 208.061942 
L 167.996426 208.215338 
L 173.861489 210.159572 
L 177.771532 210.648614 
L 179.726553 211.19558 
L 183.636596 213.033231 
L 185.591617 213.713483 
L 191.456681 214.817295 
L 193.411702 215.678558 
L 195.366723 216.401064 
L 199.276766 217.388923 
L 203.186809 218.374593 
L 205.14183 218.722234 
L 209.051872 218.895814 
L 211.006894 218.881334 
L 214.916936 218.524787 
L 220.782 217.598546 
L 226.647064 216.464456 
L 228.602085 216.205529 
L 230.557106 216.076707 
L 234.467149 216.024874 
L 236.42217 215.896893 
L 238.377191 215.903572 
L 240.332213 216.329292 
L 246.197277 218.778481 
L 248.152298 219.149941 
L 254.017362 219.700921 
L 255.972383 220.032724 
L 257.927404 220.188159 
L 261.837447 220.133563 
L 265.747489 219.91815 
L 281.38766 218.279736 
L 285.297702 218.049967 
L 289.207745 217.624963 
L 295.072809 216.679796 
L 300.937872 215.421194 
L 302.892894 215.000694 
L 304.847915 214.7677 
L 306.802936 214.785937 
L 308.757957 215.030531 
L 310.712979 215.454361 
L 312.668 216.010377 
L 318.533064 218.254751 
L 322.443106 219.087525 
L 326.353149 220.074808 
L 328.30817 220.280238 
L 332.218213 220.284575 
L 336.128255 219.881926 
L 340.038298 219.244474 
L 345.903362 218.037488 
L 349.813404 217.187531 
L 353.723447 216.628658 
L 357.633489 216.117623 
L 361.543532 215.385832 
L 367.408596 213.977934 
L 385.003787 209.480004 
L 388.91383 208.671023 
L 394.778894 207.761447 
L 398.688936 207.266479 
L 400.643957 207.265126 
L 402.598979 207.389445 
L 406.509021 207.35329 
L 408.464043 207.637534 
L 410.419064 208.357155 
L 412.374085 209.273683 
L 414.329106 210.02222 
L 416.284128 210.434356 
L 418.239149 210.667587 
L 420.19417 211.07022 
L 422.149191 211.839104 
L 424.104213 212.811298 
L 426.059234 213.643208 
L 428.014255 214.130899 
L 431.924298 214.74027 
L 433.879319 215.451675 
L 437.789362 217.296931 
L 439.744383 217.846567 
L 443.654426 218.433427 
L 445.609447 219.080381 
L 449.519489 220.942047 
L 451.474511 221.554894 
L 453.429532 221.858486 
L 455.384553 221.991389 
L 457.339574 222.27726 
L 459.294596 223.007648 
L 461.249617 223.860418 
L 463.204638 224.48308 
L 467.114681 225.029054 
L 469.069702 225.529222 
L 474.934766 228.077456 
L 476.889787 228.463652 
L 478.844809 228.707752 
L 480.79983 229.160514 
L 482.754851 229.97716 
L 484.709872 230.954208 
L 486.664894 231.741323 
L 496.44 235.027258 
L 496.44 235.027258 
" clip-path="url(#pfbb727d803)" style="fill: none; stroke: #9467bd; stroke-width: 1.5; stroke-linecap: square"/>
   </g>
   <g id="patch_9">
    <path d="M 37.01 328.48 
L 37.01 175.04 
" style="fill: none; stroke: #000000; stroke-width: 0.8; stroke-linejoin: miter; stroke-linecap: square"/>
   </g>
   <g id="patch_10">
    <path d="M 496.44 328.48 
L 496.44 175.04 
" style="fill: none; stroke: #000000; stroke-width: 0.8; stroke-linejoin: miter; stroke-linecap: square"/>
   </g>
   <g id="patch_11">
    <path d="M 37.01 328.48 
L 496.44 328.48 
" style="fill: none; stroke: #000000; stroke-width: 0.8; stroke-linejoin: miter; stroke-linecap: square"/>
   </g>
   <g id="patch_12">
    <path d="M 37.01 175.04 
L 496.44 175.04 
" style="fill: none; stroke: #000000; stroke-width: 0.8; stroke-linejoin: miter; stroke-linecap: square"/>
   </g>
   <g id="legend_2">
    <g id="patch_13">
     <path d="M 445.010781 230.621094 
L 491.54 230.621094 
Q 492.94 230.621094 492.94 229.221094 
L 492.94 179.94 
Q 492.94 178.54 491.54 178.54 
L 445.010781 178.54 
Q 443.610781 178.54 443.610781 179.94 
L 443.610781 229.221094 
Q 443.610781 230.621094 445.010781 230.621094 
z
" style="fill: #ffffff; opacity: 0.8; stroke: #cccccc; stroke-linejoin: miter"/>
    </g>
    <g id="line2d_43">
     <path d="M 446.410781 183.92125 
L 453.410781 183.92125 
L 460.410781 183.92125 
" style="fill: none; stroke: #1f77b4; stroke-width: 1.5; stroke-linecap: square"/>
    </g>
    <g id="text_31">
     <!-- Agent 1 -->
     <g transform="translate(466.010781 186.37125) scale(0.07 -0.07)">
      <use xlink:href="#ArialMT-41"/>
      <use xlink:href="#ArialMT-67" transform="translate(66.699219 0)"/>
      <use xlink:href="#ArialMT-65" transform="translate(122.314453 0)"/>
      <use xlink:href="#ArialMT-6e" transform="translate(177.929688 0)"/>
      <use xlink:href="#ArialMT-74" transform="translate(233.544922 0)"/>
      <use xlink:href="#ArialMT-20" transform="translate(261.328125 0)"/>
      <use xlink:href="#ArialMT-31" transform="translate(289.111328 0)"/>
     </g>
    </g>
    <g id="line2d_44">
     <path d="M 446.410781 193.925781 
L 453.410781 193.925781 
L 460.410781 193.925781 
" style="fill: none; stroke: #ff7f0e; stroke-width: 1.5; stroke-linecap: square"/>
    </g>
    <g id="text_32">
     <!-- Agent 2 -->
     <g transform="translate(466.010781 196.375781) scale(0.07 -0.07)">
      <use xlink:href="#ArialMT-41"/>
      <use xlink:href="#ArialMT-67" transform="translate(66.699219 0)"/>
      <use xlink:href="#ArialMT-65" transform="translate(122.314453 0)"/>
      <use xlink:href="#ArialMT-6e" transform="translate(177.929688 0)"/>
      <use xlink:href="#ArialMT-74" transform="translate(233.544922 0)"/>
      <use xlink:href="#ArialMT-20" transform="translate(261.328125 0)"/>
      <use xlink:href="#ArialMT-32" transform="translate(289.111328 0)"/>
     </g>
    </g>
    <g id="line2d_45">
     <path d="M 446.410781 203.930313 
L 453.410781 203.930313 
L 460.410781 203.930313 
" style="fill: none; stroke: #2ca02c; stroke-width: 1.5; stroke-linecap: square"/>
    </g>
    <g id="text_33">
     <!-- Agent 3 -->
     <g transform="translate(466.010781 206.380313) scale(0.07 -0.07)">
      <use xlink:href="#ArialMT-41"/>
      <use xlink:href="#ArialMT-67" transform="translate(66.699219 0)"/>
      <use xlink:href="#ArialMT-65" transform="translate(122.314453 0)"/>
      <use xlink:href="#ArialMT-6e" transform="translate(177.929688 0)"/>
      <use xlink:href="#ArialMT-74" transform="translate(233.544922 0)"/>
      <use xlink:href="#ArialMT-20" transform="translate(261.328125 0)"/>
      <use xlink:href="#ArialMT-33" transform="translate(289.111328 0)"/>
     </g>
    </g>
    <g id="line2d_46">
     <path d="M 446.410781 213.914063 
L 453.410781 213.914063 
L 460.410781 213.914063 
" style="fill: none; stroke: #d62728; stroke-width: 1.5; stroke-linecap: square"/>
    </g>
    <g id="text_34">
     <!-- Agent 4 -->
     <g transform="translate(466.010781 216.364063) scale(0.07 -0.07)">
      <use xlink:href="#ArialMT-41"/>
      <use xlink:href="#ArialMT-67" transform="translate(66.699219 0)"/>
      <use xlink:href="#ArialMT-65" transform="translate(122.314453 0)"/>
      <use xlink:href="#ArialMT-6e" transform="translate(177.929688 0)"/>
      <use xlink:href="#ArialMT-74" transform="translate(233.544922 0)"/>
      <use xlink:href="#ArialMT-20" transform="translate(261.328125 0)"/>
      <use xlink:href="#ArialMT-34" transform="translate(289.111328 0)"/>
     </g>
    </g>
    <g id="line2d_47">
     <path d="M 446.410781 223.897813 
L 453.410781 223.897813 
L 460.410781 223.897813 
" style="fill: none; stroke: #9467bd; stroke-width: 1.5; stroke-linecap: square"/>
    </g>
    <g id="text_35">
     <!-- Agent 5 -->
     <g transform="translate(466.010781 226.347813) scale(0.07 -0.07)">
      <use xlink:href="#ArialMT-41"/>
      <use xlink:href="#ArialMT-67" transform="translate(66.699219 0)"/>
      <use xlink:href="#ArialMT-65" transform="translate(122.314453 0)"/>
      <use xlink:href="#ArialMT-6e" transform="translate(177.929688 0)"/>
      <use xlink:href="#ArialMT-74" transform="translate(233.544922 0)"/>
      <use xlink:href="#ArialMT-20" transform="translate(261.328125 0)"/>
      <use xlink:href="#ArialMT-35" transform="translate(289.111328 0)"/>
     </g>
    </g>
   </g>
  </g>
 </g>
 <defs>
  <clipPath id="p02e668bdc3">
   <rect x="37.01" y="10.08" width="459.43" height="153.44"/>
  </clipPath>
  <clipPath id="pfbb727d803">
   <rect x="37.01" y="175.04" width="459.43" height="153.44"/>
  </clipPath>
 </defs>
</svg>
