<?xml version="1.0" encoding="utf-8" standalone="no"?>
<!DOCTYPE svg PUBLIC "-//W3C//DTD SVG 1.1//EN"
  "http://www.w3.org/Graphics/SVG/1.1/DTD/svg11.dtd">
<svg xmlns:xlink="http://www.w3.org/1999/xlink" width="504pt" height="360pt" viewBox="0 0 504 360" xmlns="http://www.w3.org/2000/svg" version="1.1">
 <metadata>
  <rdf:RDF xmlns:dc="http://purl.org/dc/elements/1.1/" xmlns:cc="http://creativecommons.org/ns#" xmlns:rdf="http://www.w3.org/1999/02/22-rdf-syntax-ns#">
   <cc:Work>
    <dc:type rdf:resource="http://purl.org/dc/dcmitype/StillImage"/>
    <dc:date>2025-10-16T16:12:44.896110</dc:date>
    <dc:format>image/svg+xml</dc:format>
    <dc:creator>
     <cc:Agent>
      <dc:title>Matplotlib v3.10.7, https://matplotlib.org/</dc:title>
     </cc:Agent>
    </dc:creator>
   </cc:Work>
  </rdf:RDF>
 </metadata>
 <defs>
  <style type="text/css">*{stroke-linejoin: round; stroke-linecap: butt}</style>
 </defs>
 <g id="figure_1">
  <g id="patch_1">
   <path d="M 0 360 
L 504 360 
L 504 0 
L 0 0 
z
" style="fill: #ffffff"/>
  </g>
  <g id="axes_1">
   <g id="patch_2">
    <path d="M 37.01 163.52 
L 496.44 163.52 
L 496.44 10.08 
L 37.01 10.08 
z
" style="fill: #ffffff"/>
   </g>
   <g id="matplotlib.axis_1">
    <g id="xtick_1">
     <g id="line2d_1">
      <defs>
       <path id="m46f188c60c" d="M 0 0 
L 0 3.5 
" style="stroke: #000000; stroke-width: 0.8"/>
      </defs>
      <g>
       <use xlink:href="#m46f188c60c" x="37.01" y="163.52" style="stroke: #000000; stroke-width: 0.8"/>
      </g>
     </g>
    </g>
    <g id="xtick_2">
     <g id="line2d_2">
      <g>
       <use xlink:href="#m46f188c60c" x="129.08014" y="163.52" style="stroke: #000000; stroke-width: 0.8"/>
      </g>
     </g>
    </g>
    <g id="xtick_3">
     <g id="line2d_3">
      <g>
       <use xlink:href="#m46f188c60c" x="221.150281" y="163.52" style="stroke: #000000; stroke-width: 0.8"/>
      </g>
     </g>
    </g>
    <g id="xtick_4">
     <g id="line2d_4">
      <g>
       <use xlink:href="#m46f188c60c" x="313.220421" y="163.52" style="stroke: #000000; stroke-width: 0.8"/>
      </g>
     </g>
    </g>
    <g id="xtick_5">
     <g id="line2d_5">
      <g>
       <use xlink:href="#m46f188c60c" x="405.290561" y="163.52" style="stroke: #000000; stroke-width: 0.8"/>
      </g>
     </g>
    </g>
   </g>
   <g id="matplotlib.axis_2">
    <g id="ytick_1">
     <g id="line2d_6">
      <defs>
       <path id="m9e00a72e14" d="M 0 0 
L -3.5 0 
" style="stroke: #000000; stroke-width: 0.8"/>
      </defs>
      <g>
       <use xlink:href="#m9e00a72e14" x="37.01" y="163.52" style="stroke: #000000; stroke-width: 0.8"/>
      </g>
     </g>
     <g id="text_1">
      <!-- 0.0 -->
      <g transform="translate(21.67 165.667344) scale(0.06 -0.06)">
       <defs>
        <path id="ArialMT-30" d="M 266 2259 
Q 266 3072 433 3567 
Q 600 4063 929 4331 
Q 1259 4600 1759 4600 
Q 2128 4600 2406 4451 
Q 2684 4303 2865 4023 
Q 3047 3744 3150 3342 
Q 3253 2941 3253 2259 
Q 3253 1453 3087 958 
Q 2922 463 2592 192 
Q 2263 -78 1759 -78 
Q 1097 -78 719 397 
Q 266 969 266 2259 
z
M 844 2259 
Q 844 1131 1108 757 
Q 1372 384 1759 384 
Q 2147 384 2411 759 
Q 2675 1134 2675 2259 
Q 2675 3391 2411 3762 
Q 2147 4134 1753 4134 
Q 1366 4134 1134 3806 
Q 844 3388 844 2259 
z
" transform="scale(0.015625)"/>
        <path id="ArialMT-2e" d="M 581 0 
L 581 641 
L 1222 641 
L 1222 0 
L 581 0 
z
" transform="scale(0.015625)"/>
       </defs>
       <use xlink:href="#ArialMT-30"/>
       <use xlink:href="#ArialMT-2e" transform="translate(55.615234 0)"/>
       <use xlink:href="#ArialMT-30" transform="translate(83.398438 0)"/>
      </g>
     </g>
    </g>
    <g id="ytick_2">
     <g id="line2d_7">
      <g>
       <use xlink:href="#m9e00a72e14" x="37.01" y="144.34" style="stroke: #000000; stroke-width: 0.8"/>
      </g>
     </g>
     <g id="text_2">
      <!-- 0.5 -->
      <g transform="translate(21.67 146.487344) scale(0.06 -0.06)">
       <defs>
        <path id="ArialMT-35" d="M 266 1200 
L 856 1250 
Q 922 819 1161 601 
Q 1400 384 1738 384 
Q 2144 384 2425 690 
Q 2706 997 2706 1503 
Q 2706 1984 2436 2262 
Q 2166 2541 1728 2541 
Q 1456 2541 1237 2417 
Q 1019 2294 894 2097 
L 366 2166 
L 809 4519 
L 3088 4519 
L 3088 3981 
L 1259 3981 
L 1013 2750 
Q 1425 3038 1878 3038 
Q 2478 3038 2890 2622 
Q 3303 2206 3303 1553 
Q 3303 931 2941 478 
Q 2500 -78 1738 -78 
Q 1113 -78 717 272 
Q 322 622 266 1200 
z
" transform="scale(0.015625)"/>
       </defs>
       <use xlink:href="#ArialMT-30"/>
       <use xlink:href="#ArialMT-2e" transform="translate(55.615234 0)"/>
       <use xlink:href="#ArialMT-35" transform="translate(83.398438 0)"/>
      </g>
     </g>
    </g>
    <g id="ytick_3">
     <g id="line2d_8">
      <g>
       <use xlink:href="#m9e00a72e14" x="37.01" y="125.16" style="stroke: #000000; stroke-width: 0.8"/>
      </g>
     </g>
     <g id="text_3">
      <!-- 1.0 -->
      <g transform="translate(21.67 127.307344) scale(0.06 -0.06)">
       <defs>
        <path id="ArialMT-31" d="M 2384 0 
L 1822 0 
L 1822 3584 
Q 1619 3391 1289 3197 
Q 959 3003 697 2906 
L 697 3450 
Q 1169 3672 1522 3987 
Q 1875 4303 2022 4600 
L 2384 4600 
L 2384 0 
z
" transform="scale(0.015625)"/>
       </defs>
       <use xlink:href="#ArialMT-31"/>
       <use xlink:href="#ArialMT-2e" transform="translate(55.615234 0)"/>
       <use xlink:href="#ArialMT-30" transform="translate(83.398438 0)"/>
      </g>
     </g>
    </g>
    <g id="ytick_4">
     <g id="line2d_9">
      <g>
       <use xlink:href="#m9e00a72e14" x="37.01" y="105.98" style="stroke: #000000; stroke-width: 0.8"/>
      </g>
     </g>
     <g id="text_4">
      <!-- 1.5 -->
      <g transform="translate(21.67 108.127344) scale(0.06 -0.06)">
       <use xlink:href="#ArialMT-31"/>
       <use xlink:href="#ArialMT-2e" transform="translate(55.615234 0)"/>
       <use xlink:href="#ArialMT-35" transform="translate(83.398438 0)"/>
      </g>
     </g>
    </g>
    <g id="ytick_5">
     <g id="line2d_10">
      <g>
       <use xlink:href="#m9e00a72e14" x="37.01" y="86.8" style="stroke: #000000; stroke-width: 0.8"/>
      </g>
     </g>
     <g id="text_5">
      <!-- 2.0 -->
      <g transform="translate(21.67 88.947344) scale(0.06 -0.06)">
       <defs>
        <path id="ArialMT-32" d="M 3222 541 
L 3222 0 
L 194 0 
Q 188 203 259 391 
Q 375 700 629 1000 
Q 884 1300 1366 1694 
Q 2113 2306 2375 2664 
Q 2638 3022 2638 3341 
Q 2638 3675 2398 3904 
Q 2159 4134 1775 4134 
Q 1369 4134 1125 3890 
Q 881 3647 878 3216 
L 300 3275 
Q 359 3922 746 4261 
Q 1134 4600 1788 4600 
Q 2447 4600 2831 4234 
Q 3216 3869 3216 3328 
Q 3216 3053 3103 2787 
Q 2991 2522 2730 2228 
Q 2469 1934 1863 1422 
Q 1356 997 1212 845 
Q 1069 694 975 541 
L 3222 541 
z
" transform="scale(0.015625)"/>
       </defs>
       <use xlink:href="#ArialMT-32"/>
       <use xlink:href="#ArialMT-2e" transform="translate(55.615234 0)"/>
       <use xlink:href="#ArialMT-30" transform="translate(83.398438 0)"/>
      </g>
     </g>
    </g>
    <g id="ytick_6">
     <g id="line2d_11">
      <g>
       <use xlink:href="#m9e00a72e14" x="37.01" y="67.62" style="stroke: #000000; stroke-width: 0.8"/>
      </g>
     </g>
     <g id="text_6">
      <!-- 2.5 -->
      <g transform="translate(21.67 69.767344) scale(0.06 -0.06)">
       <use xlink:href="#ArialMT-32"/>
       <use xlink:href="#ArialMT-2e" transform="translate(55.615234 0)"/>
       <use xlink:href="#ArialMT-35" transform="translate(83.398438 0)"/>
      </g>
     </g>
    </g>
    <g id="ytick_7">
     <g id="line2d_12">
      <g>
       <use xlink:href="#m9e00a72e14" x="37.01" y="48.44" style="stroke: #000000; stroke-width: 0.8"/>
      </g>
     </g>
     <g id="text_7">
      <!-- 3.0 -->
      <g transform="translate(21.67 50.587344) scale(0.06 -0.06)">
       <defs>
        <path id="ArialMT-33" d="M 269 1209 
L 831 1284 
Q 928 806 1161 595 
Q 1394 384 1728 384 
Q 2125 384 2398 659 
Q 2672 934 2672 1341 
Q 2672 1728 2419 1979 
Q 2166 2231 1775 2231 
Q 1616 2231 1378 2169 
L 1441 2663 
Q 1497 2656 1531 2656 
Q 1891 2656 2178 2843 
Q 2466 3031 2466 3422 
Q 2466 3731 2256 3934 
Q 2047 4138 1716 4138 
Q 1388 4138 1169 3931 
Q 950 3725 888 3313 
L 325 3413 
Q 428 3978 793 4289 
Q 1159 4600 1703 4600 
Q 2078 4600 2393 4439 
Q 2709 4278 2876 4000 
Q 3044 3722 3044 3409 
Q 3044 3113 2884 2869 
Q 2725 2625 2413 2481 
Q 2819 2388 3044 2092 
Q 3269 1797 3269 1353 
Q 3269 753 2831 336 
Q 2394 -81 1725 -81 
Q 1122 -81 723 278 
Q 325 638 269 1209 
z
" transform="scale(0.015625)"/>
       </defs>
       <use xlink:href="#ArialMT-33"/>
       <use xlink:href="#ArialMT-2e" transform="translate(55.615234 0)"/>
       <use xlink:href="#ArialMT-30" transform="translate(83.398438 0)"/>
      </g>
     </g>
    </g>
    <g id="ytick_8">
     <g id="line2d_13">
      <g>
       <use xlink:href="#m9e00a72e14" x="37.01" y="29.26" style="stroke: #000000; stroke-width: 0.8"/>
      </g>
     </g>
     <g id="text_8">
      <!-- 3.5 -->
      <g transform="translate(21.67 31.407344) scale(0.06 -0.06)">
       <use xlink:href="#ArialMT-33"/>
       <use xlink:href="#ArialMT-2e" transform="translate(55.615234 0)"/>
       <use xlink:href="#ArialMT-35" transform="translate(83.398438 0)"/>
      </g>
     </g>
    </g>
    <g id="ytick_9">
     <g id="line2d_14">
      <g>
       <use xlink:href="#m9e00a72e14" x="37.01" y="10.08" style="stroke: #000000; stroke-width: 0.8"/>
      </g>
     </g>
     <g id="text_9">
      <!-- 4.0 -->
      <g transform="translate(21.67 12.227344) scale(0.06 -0.06)">
       <defs>
        <path id="ArialMT-34" d="M 2069 0 
L 2069 1097 
L 81 1097 
L 81 1613 
L 2172 4581 
L 2631 4581 
L 2631 1613 
L 3250 1613 
L 3250 1097 
L 2631 1097 
L 2631 0 
L 2069 0 
z
M 2069 1613 
L 2069 3678 
L 634 1613 
L 2069 1613 
z
" transform="scale(0.015625)"/>
       </defs>
       <use xlink:href="#ArialMT-34"/>
       <use xlink:href="#ArialMT-2e" transform="translate(55.615234 0)"/>
       <use xlink:href="#ArialMT-30" transform="translate(83.398438 0)"/>
      </g>
     </g>
    </g>
    <g id="text_10">
     <!-- Spacing d/$\lambda_0$ -->
     <g transform="translate(16.13 107.1) rotate(-90) scale(0.07 -0.07)">
      <defs>
       <path id="ArialMT-53" d="M 288 1472 
L 859 1522 
Q 900 1178 1048 958 
Q 1197 738 1509 602 
Q 1822 466 2213 466 
Q 2559 466 2825 569 
Q 3091 672 3220 851 
Q 3350 1031 3350 1244 
Q 3350 1459 3225 1620 
Q 3100 1781 2813 1891 
Q 2628 1963 1997 2114 
Q 1366 2266 1113 2400 
Q 784 2572 623 2826 
Q 463 3081 463 3397 
Q 463 3744 659 4045 
Q 856 4347 1234 4503 
Q 1613 4659 2075 4659 
Q 2584 4659 2973 4495 
Q 3363 4331 3572 4012 
Q 3781 3694 3797 3291 
L 3216 3247 
Q 3169 3681 2898 3903 
Q 2628 4125 2100 4125 
Q 1550 4125 1298 3923 
Q 1047 3722 1047 3438 
Q 1047 3191 1225 3031 
Q 1400 2872 2139 2705 
Q 2878 2538 3153 2413 
Q 3553 2228 3743 1945 
Q 3934 1663 3934 1294 
Q 3934 928 3725 604 
Q 3516 281 3123 101 
Q 2731 -78 2241 -78 
Q 1619 -78 1198 103 
Q 778 284 539 648 
Q 300 1013 288 1472 
z
" transform="scale(0.015625)"/>
       <path id="ArialMT-70" d="M 422 -1272 
L 422 3319 
L 934 3319 
L 934 2888 
Q 1116 3141 1344 3267 
Q 1572 3394 1897 3394 
Q 2322 3394 2647 3175 
Q 2972 2956 3137 2557 
Q 3303 2159 3303 1684 
Q 3303 1175 3120 767 
Q 2938 359 2589 142 
Q 2241 -75 1856 -75 
Q 1575 -75 1351 44 
Q 1128 163 984 344 
L 984 -1272 
L 422 -1272 
z
M 931 1641 
Q 931 1000 1190 694 
Q 1450 388 1819 388 
Q 2194 388 2461 705 
Q 2728 1022 2728 1688 
Q 2728 2322 2467 2637 
Q 2206 2953 1844 2953 
Q 1484 2953 1207 2617 
Q 931 2281 931 1641 
z
" transform="scale(0.015625)"/>
       <path id="ArialMT-61" d="M 2588 409 
Q 2275 144 1986 34 
Q 1697 -75 1366 -75 
Q 819 -75 525 192 
Q 231 459 231 875 
Q 231 1119 342 1320 
Q 453 1522 633 1644 
Q 813 1766 1038 1828 
Q 1203 1872 1538 1913 
Q 2219 1994 2541 2106 
Q 2544 2222 2544 2253 
Q 2544 2597 2384 2738 
Q 2169 2928 1744 2928 
Q 1347 2928 1158 2789 
Q 969 2650 878 2297 
L 328 2372 
Q 403 2725 575 2942 
Q 747 3159 1072 3276 
Q 1397 3394 1825 3394 
Q 2250 3394 2515 3294 
Q 2781 3194 2906 3042 
Q 3031 2891 3081 2659 
Q 3109 2516 3109 2141 
L 3109 1391 
Q 3109 606 3145 398 
Q 3181 191 3288 0 
L 2700 0 
Q 2613 175 2588 409 
z
M 2541 1666 
Q 2234 1541 1622 1453 
Q 1275 1403 1131 1340 
Q 988 1278 909 1158 
Q 831 1038 831 891 
Q 831 666 1001 516 
Q 1172 366 1500 366 
Q 1825 366 2078 508 
Q 2331 650 2450 897 
Q 2541 1088 2541 1459 
L 2541 1666 
z
" transform="scale(0.015625)"/>
       <path id="ArialMT-63" d="M 2588 1216 
L 3141 1144 
Q 3050 572 2676 248 
Q 2303 -75 1759 -75 
Q 1078 -75 664 370 
Q 250 816 250 1647 
Q 250 2184 428 2587 
Q 606 2991 970 3192 
Q 1334 3394 1763 3394 
Q 2303 3394 2647 3120 
Q 2991 2847 3088 2344 
L 2541 2259 
Q 2463 2594 2264 2762 
Q 2066 2931 1784 2931 
Q 1359 2931 1093 2626 
Q 828 2322 828 1663 
Q 828 994 1084 691 
Q 1341 388 1753 388 
Q 2084 388 2306 591 
Q 2528 794 2588 1216 
z
" transform="scale(0.015625)"/>
       <path id="ArialMT-69" d="M 425 3934 
L 425 4581 
L 988 4581 
L 988 3934 
L 425 3934 
z
M 425 0 
L 425 3319 
L 988 3319 
L 988 0 
L 425 0 
z
" transform="scale(0.015625)"/>
       <path id="ArialMT-6e" d="M 422 0 
L 422 3319 
L 928 3319 
L 928 2847 
Q 1294 3394 1984 3394 
Q 2284 3394 2536 3286 
Q 2788 3178 2913 3003 
Q 3038 2828 3088 2588 
Q 3119 2431 3119 2041 
L 3119 0 
L 2556 0 
L 2556 2019 
Q 2556 2363 2490 2533 
Q 2425 2703 2258 2804 
Q 2091 2906 1866 2906 
Q 1506 2906 1245 2678 
Q 984 2450 984 1813 
L 984 0 
L 422 0 
z
" transform="scale(0.015625)"/>
       <path id="ArialMT-67" d="M 319 -275 
L 866 -356 
Q 900 -609 1056 -725 
Q 1266 -881 1628 -881 
Q 2019 -881 2231 -725 
Q 2444 -569 2519 -288 
Q 2563 -116 2559 434 
Q 2191 0 1641 0 
Q 956 0 581 494 
Q 206 988 206 1678 
Q 206 2153 378 2554 
Q 550 2956 876 3175 
Q 1203 3394 1644 3394 
Q 2231 3394 2613 2919 
L 2613 3319 
L 3131 3319 
L 3131 450 
Q 3131 -325 2973 -648 
Q 2816 -972 2473 -1159 
Q 2131 -1347 1631 -1347 
Q 1038 -1347 672 -1080 
Q 306 -813 319 -275 
z
M 784 1719 
Q 784 1066 1043 766 
Q 1303 466 1694 466 
Q 2081 466 2343 764 
Q 2606 1063 2606 1700 
Q 2606 2309 2336 2618 
Q 2066 2928 1684 2928 
Q 1309 2928 1046 2623 
Q 784 2319 784 1719 
z
" transform="scale(0.015625)"/>
       <path id="ArialMT-20" transform="scale(0.015625)"/>
       <path id="ArialMT-64" d="M 2575 0 
L 2575 419 
Q 2259 -75 1647 -75 
Q 1250 -75 917 144 
Q 584 363 401 755 
Q 219 1147 219 1656 
Q 219 2153 384 2558 
Q 550 2963 881 3178 
Q 1213 3394 1622 3394 
Q 1922 3394 2156 3267 
Q 2391 3141 2538 2938 
L 2538 4581 
L 3097 4581 
L 3097 0 
L 2575 0 
z
M 797 1656 
Q 797 1019 1065 703 
Q 1334 388 1700 388 
Q 2069 388 2326 689 
Q 2584 991 2584 1609 
Q 2584 2291 2321 2609 
Q 2059 2928 1675 2928 
Q 1300 2928 1048 2622 
Q 797 2316 797 1656 
z
" transform="scale(0.015625)"/>
       <path id="ArialMT-2f" d="M 0 -78 
L 1328 4659 
L 1778 4659 
L 453 -78 
L 0 -78 
z
" transform="scale(0.015625)"/>
       <path id="DejaVuSans-Oblique-3bb" d="M 2350 4316 
L 3125 0 
L 2516 0 
L 2038 2588 
L 328 0 
L -281 0 
L 1903 3356 
L 1794 3975 
Q 1725 4369 1391 4369 
L 1091 4369 
L 1184 4863 
L 1550 4856 
Q 2253 4847 2350 4316 
z
" transform="scale(0.015625)"/>
       <path id="DejaVuSans-30" d="M 2034 4250 
Q 1547 4250 1301 3770 
Q 1056 3291 1056 2328 
Q 1056 1369 1301 889 
Q 1547 409 2034 409 
Q 2525 409 2770 889 
Q 3016 1369 3016 2328 
Q 3016 3291 2770 3770 
Q 2525 4250 2034 4250 
z
M 2034 4750 
Q 2819 4750 3233 4129 
Q 3647 3509 3647 2328 
Q 3647 1150 3233 529 
Q 2819 -91 2034 -91 
Q 1250 -91 836 529 
Q 422 1150 422 2328 
Q 422 3509 836 4129 
Q 1250 4750 2034 4750 
z
" transform="scale(0.015625)"/>
      </defs>
      <use xlink:href="#ArialMT-53" transform="translate(0 0.015625)"/>
      <use xlink:href="#ArialMT-70" transform="translate(66.699219 0.015625)"/>
      <use xlink:href="#ArialMT-61" transform="translate(122.314453 0.015625)"/>
      <use xlink:href="#ArialMT-63" transform="translate(177.929688 0.015625)"/>
      <use xlink:href="#ArialMT-69" transform="translate(227.929688 0.015625)"/>
      <use xlink:href="#ArialMT-6e" transform="translate(250.146484 0.015625)"/>
      <use xlink:href="#ArialMT-67" transform="translate(305.761719 0.015625)"/>
      <use xlink:href="#ArialMT-20" transform="translate(361.376953 0.015625)"/>
      <use xlink:href="#ArialMT-64" transform="translate(389.160156 0.015625)"/>
      <use xlink:href="#ArialMT-2f" transform="translate(444.775391 0.015625)"/>
      <use xlink:href="#DejaVuSans-Oblique-3bb" transform="translate(472.558594 0.015625)"/>
      <use xlink:href="#DejaVuSans-30" transform="translate(531.738281 -16.390625) scale(0.7)"/>
     </g>
    </g>
   </g>
   <g id="line2d_15">
    <path d="M 37.01 84.088105 
L 37.930701 84.09184 
L 38.851403 83.719538 
L 40.692806 82.108585 
L 41.613507 81.727353 
L 42.534208 81.981913 
L 43.45491 82.510656 
L 44.375611 82.910302 
L 45.296313 83.001838 
L 47.137715 82.300715 
L 48.058417 82.753714 
L 48.979118 83.558872 
L 53.582625 86.53971 
L 56.344729 87.742897 
L 58.186132 87.59398 
L 59.106834 87.441814 
L 60.027535 87.707233 
L 60.948236 88.394474 
L 61.868938 88.831488 
L 62.789639 88.724663 
L 63.710341 88.743941 
L 64.631042 89.009123 
L 67.393146 89.286634 
L 68.313848 89.817465 
L 70.155251 91.684171 
L 71.075952 92.108921 
L 71.996653 92.178675 
L 72.917355 91.811236 
L 73.838056 91.584557 
L 74.758758 91.699771 
L 75.679459 92.080193 
L 76.60016 93.061409 
L 77.520862 94.467646 
L 78.441563 95.368529 
L 79.362265 95.52142 
L 80.282966 95.359955 
L 81.203667 95.465091 
L 82.124369 96.065378 
L 84.886473 98.502512 
L 85.807174 98.633039 
L 86.727876 98.251545 
L 87.648577 97.475211 
L 88.569279 96.473302 
L 89.48998 95.839532 
L 90.410681 95.932827 
L 91.331383 96.515638 
L 92.252084 97.249409 
L 93.172786 97.658154 
L 95.014188 97.887149 
L 95.93489 97.635483 
L 96.855591 97.032891 
L 97.776293 96.165459 
L 101.459098 94.125065 
L 104.221202 93.168781 
L 106.062605 93.449172 
L 107.904008 93.341757 
L 108.824709 93.093374 
L 111.586814 91.012087 
L 112.507515 90.152072 
L 113.428216 89.757703 
L 114.348918 90.182972 
L 115.269619 91.125586 
L 116.190321 91.624244 
L 118.031723 91.896542 
L 118.952425 92.177302 
L 120.793828 93.467934 
L 122.63523 94.121496 
L 123.555932 94.112628 
L 124.476633 93.669826 
L 126.318036 92.497623 
L 127.238737 92.114702 
L 128.159439 92.211584 
L 129.08014 92.619741 
L 130.000842 92.872614 
L 130.921543 92.901369 
L 131.842244 92.625586 
L 132.762946 91.992737 
L 133.683647 91.199876 
L 134.604349 90.22427 
L 136.445752 87.86935 
L 141.049259 85.527672 
L 142.890661 84.836216 
L 143.811363 85.075216 
L 144.732064 85.741545 
L 145.652766 86.747107 
L 147.494168 88.495875 
L 148.41487 89.50814 
L 150.256273 90.434034 
L 152.097675 91.067996 
L 153.018377 91.243356 
L 157.621884 90.818351 
L 158.542585 90.598413 
L 159.463287 90.794443 
L 160.383988 91.568543 
L 161.304689 92.626049 
L 162.225391 93.306866 
L 163.146092 93.433744 
L 164.987495 92.875706 
L 166.828898 92.862905 
L 167.749599 92.623745 
L 168.670301 92.52876 
L 169.591002 92.913364 
L 170.511703 93.161259 
L 171.432405 92.852299 
L 172.353106 92.4074 
L 173.273808 92.362933 
L 174.194509 93.415173 
L 176.035912 96.707877 
L 176.956613 97.943925 
L 177.877315 98.566122 
L 178.798016 98.64817 
L 179.718717 98.287173 
L 181.56012 96.581526 
L 182.480822 96.428185 
L 185.242926 97.831856 
L 186.163627 97.960733 
L 187.084329 97.728707 
L 188.925731 96.86983 
L 191.687836 95.272898 
L 195.370641 95.773201 
L 196.291343 96.124379 
L 197.212044 96.714468 
L 199.053447 97.413452 
L 199.974148 98.244088 
L 200.89485 99.236108 
L 201.815551 99.809028 
L 202.736253 100.015425 
L 203.656954 100.050482 
L 204.577655 100.645107 
L 205.498357 101.483955 
L 206.419058 101.781048 
L 207.33976 101.576407 
L 209.181162 100.440589 
L 211.022565 100.083935 
L 211.943267 99.719048 
L 212.863968 99.530787 
L 214.705371 99.932596 
L 215.626072 99.578964 
L 217.467475 98.189972 
L 218.388176 97.42255 
L 219.308878 96.909936 
L 221.150281 96.647474 
L 223.912385 96.439151 
L 224.833086 95.883668 
L 225.753788 95.013474 
L 226.674489 93.900796 
L 227.59519 92.560361 
L 228.515892 91.422561 
L 229.436593 91.18066 
L 230.357295 91.715714 
L 232.198697 93.311136 
L 233.119399 93.651409 
L 234.0401 93.530358 
L 234.960802 93.028158 
L 235.881503 92.329389 
L 237.722906 90.607691 
L 238.643607 90.089178 
L 240.48501 89.337288 
L 242.326413 87.968501 
L 243.247114 87.150869 
L 244.167816 86.716598 
L 246.92992 86.044733 
L 248.771323 85.523964 
L 249.692024 85.498799 
L 250.612725 85.70326 
L 251.533427 85.733787 
L 253.37483 85.04152 
L 257.978337 86.827583 
L 258.899038 87.651622 
L 261.661142 90.770002 
L 262.581844 91.559524 
L 263.502545 91.640363 
L 264.423246 91.509868 
L 265.343948 91.523778 
L 266.264649 92.049512 
L 268.106052 94.101608 
L 269.026754 94.778612 
L 269.947455 95.041377 
L 270.868156 94.749274 
L 271.788858 94.050899 
L 272.709559 93.020717 
L 273.630261 91.708044 
L 274.550962 90.61493 
L 275.471663 90.37881 
L 276.392365 90.6864 
L 278.233768 91.55234 
L 279.154469 91.5565 
L 280.07517 92.108597 
L 281.916573 94.624167 
L 282.837275 95.727736 
L 283.757976 96.563168 
L 284.678677 96.837102 
L 286.52008 97.64862 
L 288.361483 97.934545 
L 289.282184 97.898059 
L 290.202886 97.389904 
L 292.96499 94.841386 
L 294.806393 93.304711 
L 296.647796 91.361617 
L 297.568497 90.99055 
L 298.489198 91.626019 
L 299.4099 92.87589 
L 300.330601 93.62863 
L 301.251303 93.726368 
L 303.092705 93.14272 
L 306.775511 94.623998 
L 307.696212 94.648472 
L 308.616914 94.238893 
L 310.458317 93.172934 
L 311.379018 92.876928 
L 312.299719 93.113204 
L 313.220421 93.704086 
L 314.141122 94.150157 
L 315.061824 94.389161 
L 315.982525 94.324346 
L 316.903226 93.836295 
L 317.823928 93.010653 
L 318.744629 91.938686 
L 320.586032 89.479605 
L 321.506733 89.144798 
L 322.427435 88.988341 
L 324.268838 88.212753 
L 325.189539 88.099061 
L 326.11024 87.831429 
L 327.030942 87.759924 
L 327.951643 87.989476 
L 329.793046 87.638145 
L 330.713747 87.662968 
L 331.634449 88.161163 
L 332.55515 88.958142 
L 334.396553 89.765968 
L 337.158657 90.94943 
L 341.762164 91.380434 
L 342.682866 91.322687 
L 343.603567 91.744799 
L 344.524269 92.799787 
L 345.44497 94.144494 
L 346.365671 95.053605 
L 347.286373 95.337615 
L 349.127776 95.15557 
L 350.969178 95.62226 
L 351.88988 95.604661 
L 352.810581 95.713111 
L 353.731283 95.609789 
L 354.651984 95.132605 
L 356.493387 93.689799 
L 357.414088 93.258008 
L 358.33479 93.463417 
L 360.176192 95.141449 
L 361.096894 95.713932 
L 362.017595 95.899836 
L 362.938297 95.556188 
L 363.858998 94.819432 
L 364.779699 93.759865 
L 365.700401 92.426591 
L 366.621102 91.306316 
L 367.541804 91.05328 
L 368.462505 91.353337 
L 370.303908 92.205789 
L 371.224609 92.21868 
L 372.145311 92.766229 
L 373.986713 95.269991 
L 375.828116 97.560576 
L 376.748818 98.834614 
L 377.669519 99.834517 
L 378.59022 100.516338 
L 379.510922 100.974247 
L 381.352325 101.075957 
L 382.273026 101.005905 
L 383.193727 101.095957 
L 384.114429 101.325479 
L 385.03513 101.225887 
L 385.955832 100.857128 
L 387.797234 99.687432 
L 388.717936 99.960404 
L 389.638637 100.649181 
L 390.559339 100.861587 
L 391.48004 100.604033 
L 392.400741 100.040474 
L 393.321443 99.149875 
L 394.242144 98.524851 
L 395.162846 98.507796 
L 396.083547 98.340859 
L 397.92495 97.312359 
L 398.845651 97.002786 
L 399.766353 96.536435 
L 402.528457 94.196268 
L 403.449158 93.730504 
L 404.36986 93.864485 
L 406.211263 94.885679 
L 407.131964 95.179721 
L 408.052665 95.188238 
L 408.973367 94.767691 
L 409.894068 93.999827 
L 410.81477 92.973996 
L 411.735471 91.706005 
L 412.656172 90.629784 
L 413.576874 90.458189 
L 414.497575 91.076067 
L 416.338978 92.870789 
L 417.259679 93.301067 
L 418.180381 93.248777 
L 419.101082 92.806797 
L 420.021784 92.167934 
L 421.863186 90.56696 
L 422.783888 90.132634 
L 424.625291 89.56787 
L 426.466693 88.356785 
L 427.387395 87.620173 
L 428.308096 87.276293 
L 431.0702 86.876822 
L 432.911603 86.530775 
L 433.832305 86.573843 
L 434.753006 86.860012 
L 435.673707 86.962377 
L 439.356513 85.853614 
L 440.277214 85.876837 
L 442.118617 86.396068 
L 443.039319 87.227766 
L 443.96002 88.319671 
L 444.880721 88.727704 
L 445.801423 88.515181 
L 446.722124 87.850207 
L 448.563527 85.984434 
L 449.484228 85.427864 
L 450.40493 85.65922 
L 451.325631 87.105315 
L 452.246333 88.969609 
L 453.167034 90.450355 
L 454.087735 91.283675 
L 455.008437 91.531596 
L 455.929138 91.548579 
L 456.84984 91.328223 
L 458.691242 90.409188 
L 459.611944 90.736068 
L 462.374048 92.961757 
L 463.294749 93.194525 
L 464.215451 93.038918 
L 466.056854 92.02147 
L 467.898257 90.770421 
L 468.818958 90.417488 
L 469.739659 90.392971 
L 470.660361 90.505807 
L 471.581062 90.162603 
L 474.343166 88.747584 
L 476.184569 88.722379 
L 477.105271 88.923921 
L 478.946673 89.183513 
L 480.788076 89.875327 
L 481.708778 90.48797 
L 482.629479 91.849786 
L 483.55018 93.632567 
L 484.470882 94.752918 
L 485.391583 95.11158 
L 487.232986 94.880794 
L 489.074389 96.11739 
L 490.915792 96.812687 
L 491.836493 96.830798 
L 492.757194 96.418799 
L 494.598597 95.2697 
L 495.519299 95.156149 
L 496.44 95.737765 
L 496.44 95.737765 
" clip-path="url(#p36291891fd)" style="fill: none; stroke: #1f77b4; stroke-width: 1.5; stroke-linecap: square"/>
   </g>
   <g id="line2d_16">
    <path d="M 37.01 84.208516 
L 43.45491 83.782679 
L 44.375611 84.194608 
L 45.296313 84.850945 
L 46.217014 85.782854 
L 47.137715 86.187265 
L 48.058417 85.566078 
L 49.89982 83.457016 
L 51.741222 82.332259 
L 53.582625 81.461046 
L 55.424028 80.453584 
L 56.344729 80.139005 
L 57.265431 79.985734 
L 58.186132 79.994818 
L 59.106834 80.365725 
L 60.027535 80.278456 
L 61.868938 78.760259 
L 64.631042 77.408843 
L 65.551743 77.10624 
L 67.393146 76.926402 
L 68.313848 76.669152 
L 69.234549 76.144503 
L 71.075952 74.415896 
L 71.996653 73.823334 
L 72.917355 73.410936 
L 74.758758 71.579932 
L 75.679459 71.210795 
L 77.520862 71.485537 
L 80.282966 72.247922 
L 81.203667 72.440029 
L 82.124369 72.930591 
L 83.965772 74.451253 
L 85.807174 75.491984 
L 87.648577 76.268893 
L 88.569279 77.462216 
L 89.48998 79.304367 
L 90.410681 80.799575 
L 91.331383 81.918153 
L 92.252084 82.622497 
L 93.172786 83.158377 
L 94.093487 83.539284 
L 95.93489 83.738287 
L 96.855591 84.247434 
L 99.617695 87.893187 
L 100.538397 88.907355 
L 101.459098 89.200201 
L 102.3798 89.371872 
L 103.300501 89.732954 
L 105.141904 89.875402 
L 106.062605 90.119893 
L 106.983307 90.50659 
L 107.904008 91.467274 
L 108.824709 92.648466 
L 109.745411 94.254746 
L 113.428216 103.604438 
L 114.348918 104.893061 
L 115.269619 105.127526 
L 118.031723 105.174708 
L 118.952425 104.760362 
L 119.873126 103.927386 
L 120.793828 103.37188 
L 121.714529 103.087265 
L 125.397335 99.986142 
L 126.318036 99.138897 
L 127.238737 98.539149 
L 129.08014 97.671584 
L 130.000842 97.550875 
L 131.842244 97.845251 
L 132.762946 97.920597 
L 133.683647 97.820337 
L 134.604349 98.092246 
L 135.52505 99.420427 
L 136.445752 101.588131 
L 137.366453 102.900806 
L 138.287154 103.371133 
L 139.207856 103.699803 
L 140.128557 103.751292 
L 141.049259 103.295557 
L 141.96996 102.996869 
L 143.811363 104.32233 
L 144.732064 104.387893 
L 145.652766 103.988682 
L 147.494168 103.602383 
L 148.41487 103.576712 
L 149.335571 103.986413 
L 150.256273 104.083597 
L 151.176974 104.294711 
L 152.097675 104.339846 
L 153.018377 103.92992 
L 155.780481 102.219026 
L 158.542585 99.722515 
L 159.463287 98.412217 
L 162.225391 93.113098 
L 163.146092 92.463109 
L 164.987495 92.059069 
L 166.828898 90.672865 
L 167.749599 89.867338 
L 168.670301 88.799317 
L 170.511703 85.583913 
L 171.432405 84.311207 
L 172.353106 83.302537 
L 174.194509 81.839751 
L 175.11521 80.651352 
L 176.956613 77.893268 
L 177.877315 76.866346 
L 179.718717 75.478645 
L 180.639419 75.469403 
L 181.56012 76.837685 
L 182.480822 77.99752 
L 183.401523 78.143723 
L 185.242926 77.967826 
L 187.084329 78.349053 
L 188.00503 78.66953 
L 188.925731 79.858605 
L 189.846433 81.248995 
L 190.767134 82.357252 
L 191.687836 83.111104 
L 193.529238 83.850663 
L 194.44994 84.201103 
L 196.291343 84.334458 
L 198.132745 83.386363 
L 199.053447 82.842575 
L 200.89485 80.376857 
L 202.736253 78.982956 
L 203.656954 78.150894 
L 204.577655 76.834264 
L 205.498357 75.970144 
L 206.419058 75.832151 
L 207.33976 75.991546 
L 209.181162 78.800964 
L 211.943267 79.939107 
L 213.784669 81.571563 
L 215.626072 83.082439 
L 216.546774 83.54207 
L 217.467475 83.659867 
L 218.388176 83.544128 
L 219.308878 83.695651 
L 220.229579 84.498657 
L 222.991683 89.340918 
L 223.912385 90.195846 
L 225.753788 91.290857 
L 226.674489 92.780677 
L 228.515892 99.101061 
L 229.436593 100.890504 
L 230.357295 100.950135 
L 232.198697 99.524089 
L 233.119399 99.445909 
L 234.0401 99.653732 
L 234.960802 100.307693 
L 236.802204 102.659955 
L 237.722906 104.333094 
L 238.643607 106.649128 
L 239.564309 108.379749 
L 241.405711 110.725987 
L 242.326413 111.576839 
L 243.247114 112.741465 
L 244.167816 113.591158 
L 246.009218 114.519581 
L 246.92992 114.704461 
L 249.692024 116.749617 
L 250.612725 117.19797 
L 251.533427 117.39701 
L 253.37483 118.197818 
L 254.295531 117.485677 
L 255.216232 116.983941 
L 256.136934 117.115846 
L 257.057635 117.63689 
L 257.978337 118.69727 
L 258.899038 118.728358 
L 259.819739 117.908219 
L 260.740441 116.867801 
L 262.581844 113.548307 
L 264.423246 111.133542 
L 265.343948 109.555212 
L 266.264649 107.35351 
L 269.026754 98.872504 
L 269.947455 96.549743 
L 270.868156 94.740972 
L 271.788858 93.421535 
L 272.709559 92.908061 
L 273.630261 93.141364 
L 274.550962 93.079662 
L 275.471663 92.892873 
L 276.392365 93.042403 
L 277.313066 92.861323 
L 278.233768 93.049541 
L 279.154469 93.98673 
L 280.07517 93.984126 
L 280.995872 92.556986 
L 281.916573 90.831555 
L 286.52008 80.790449 
L 287.440782 79.196424 
L 288.361483 77.963328 
L 289.282184 77.070001 
L 290.202886 77.418951 
L 291.123587 79.259532 
L 292.96499 85.560596 
L 293.885691 88.047077 
L 294.806393 90.916384 
L 295.727094 94.522274 
L 296.647796 98.638679 
L 297.568497 101.272101 
L 298.489198 102.139305 
L 300.330601 101.466846 
L 303.092705 101.153124 
L 304.013407 100.087108 
L 304.934108 98.729174 
L 305.85481 97.747317 
L 306.775511 97.521982 
L 307.696212 98.288423 
L 310.458317 102.810201 
L 311.379018 103.310094 
L 312.299719 102.71747 
L 314.141122 100.011025 
L 315.061824 99.06671 
L 315.982525 99.573086 
L 316.903226 101.331794 
L 317.823928 103.378307 
L 318.744629 105.023559 
L 320.586032 107.460712 
L 322.427435 109.185359 
L 323.348136 109.871543 
L 324.268838 109.93391 
L 326.11024 108.765942 
L 327.030942 107.916591 
L 328.872345 105.705066 
L 329.793046 104.536925 
L 330.713747 103.025705 
L 331.634449 100.944317 
L 333.475852 96.309316 
L 335.317255 91.446401 
L 338.079359 83.923156 
L 339.00006 81.495028 
L 340.841463 77.655684 
L 341.762164 76.129993 
L 343.603567 74.421995 
L 344.524269 72.741851 
L 345.44497 71.40731 
L 346.365671 71.055966 
L 347.286373 71.484093 
L 348.207074 73.148333 
L 349.127776 75.33455 
L 350.048477 76.473467 
L 350.969178 77.17786 
L 351.88988 78.092178 
L 352.810581 79.167343 
L 353.731283 80.807126 
L 355.572685 84.602473 
L 356.493387 86.227864 
L 357.414088 86.956526 
L 358.33479 86.632813 
L 359.255491 85.758544 
L 360.176192 85.204536 
L 361.096894 85.534382 
L 362.017595 86.48967 
L 364.779699 90.276879 
L 365.700401 91.751494 
L 366.621102 94.065786 
L 367.541804 96.040338 
L 368.462505 97.319841 
L 369.383206 97.900783 
L 370.303908 98.311458 
L 371.224609 99.065558 
L 372.145311 99.237709 
L 373.066012 98.47334 
L 373.986713 97.382857 
L 374.907415 95.897957 
L 376.748818 92.318733 
L 377.669519 90.839425 
L 378.59022 89.628107 
L 379.510922 88.81507 
L 381.352325 88.206606 
L 383.193727 88.375976 
L 384.114429 88.179353 
L 385.03513 88.23737 
L 385.955832 88.47784 
L 386.876533 89.822726 
L 387.797234 92.165403 
L 388.717936 93.337092 
L 389.638637 93.713991 
L 390.559339 94.67207 
L 391.48004 96.003559 
L 392.400741 97.642309 
L 393.321443 100.514023 
L 394.242144 104.293682 
L 395.162846 107.488423 
L 396.083547 109.608452 
L 397.92495 112.668395 
L 398.845651 115.042297 
L 399.766353 117.944762 
L 400.687054 120.283699 
L 401.607756 121.723409 
L 402.528457 122.387924 
L 403.449158 122.430231 
L 405.290561 122.269799 
L 407.131964 122.383682 
L 409.894068 121.940442 
L 411.735471 121.725556 
L 412.656172 121.283359 
L 413.576874 119.740456 
L 415.418277 114.806697 
L 416.338978 112.267355 
L 417.259679 110.106216 
L 418.180381 108.343117 
L 420.021784 105.530943 
L 422.783888 102.099795 
L 424.625291 99.10607 
L 425.545992 97.928388 
L 426.466693 97.287308 
L 427.387395 97.28732 
L 428.308096 97.100902 
L 431.0702 95.801869 
L 435.673707 96.782836 
L 437.51511 98.584669 
L 438.435812 98.978549 
L 439.356513 99.046264 
L 440.277214 98.439405 
L 441.197916 97.561591 
L 442.118617 97.242366 
L 443.039319 96.273758 
L 443.96002 94.546906 
L 444.880721 93.13735 
L 445.801423 92.060333 
L 448.563527 89.55185 
L 449.484228 88.424692 
L 450.40493 87.510601 
L 451.325631 86.970228 
L 452.246333 87.067242 
L 453.167034 87.418248 
L 455.929138 88.777925 
L 456.84984 88.918105 
L 457.770541 88.887887 
L 459.611944 88.329503 
L 461.453347 88.643225 
L 463.294749 89.133876 
L 464.215451 89.259404 
L 465.136152 89.603742 
L 466.056854 89.766985 
L 467.898257 91.32647 
L 468.818958 91.618857 
L 469.739659 92.465463 
L 470.660361 94.287198 
L 471.581062 96.625454 
L 473.422465 100.204929 
L 474.343166 101.54012 
L 475.263868 102.275541 
L 476.184569 102.75509 
L 477.105271 102.747116 
L 478.025972 102.622917 
L 478.946673 101.967313 
L 480.788076 99.487663 
L 481.708778 97.747269 
L 482.629479 95.092545 
L 483.55018 91.77042 
L 484.470882 88.959827 
L 485.391583 86.849335 
L 486.312285 85.599655 
L 487.232986 84.592427 
L 490.915792 77.975156 
L 491.836493 76.88971 
L 493.677896 75.456951 
L 494.598597 74.667089 
L 495.519299 74.222567 
L 496.44 74.584314 
L 496.44 74.584314 
" clip-path="url(#p36291891fd)" style="fill: none; stroke: #ff7f0e; stroke-width: 1.5; stroke-linecap: square"/>
   </g>
   <g id="line2d_17">
    <path d="M 37.01 84.211338 
L 38.851403 84.432567 
L 41.613507 84.730525 
L 43.45491 84.800496 
L 44.375611 84.479794 
L 45.296313 83.689666 
L 47.137715 81.678713 
L 48.058417 80.981867 
L 48.979118 81.021122 
L 49.89982 81.553022 
L 50.820521 81.310361 
L 51.741222 80.941898 
L 54.503327 80.474906 
L 55.424028 80.691047 
L 56.344729 80.790005 
L 57.265431 81.362986 
L 59.106834 82.783163 
L 60.027535 83.313328 
L 60.948236 83.713402 
L 61.868938 84.61204 
L 62.789639 86.585254 
L 63.710341 88.173547 
L 64.631042 89.071747 
L 65.551743 89.601405 
L 68.313848 89.233498 
L 69.234549 88.633926 
L 71.075952 88.11357 
L 71.996653 87.792759 
L 72.917355 87.867599 
L 73.838056 88.095338 
L 74.758758 87.984869 
L 76.60016 88.376017 
L 77.520862 88.132284 
L 79.362265 87.33637 
L 81.203667 86.907559 
L 82.124369 86.080073 
L 83.04507 84.430142 
L 84.886473 80.351963 
L 85.807174 78.708166 
L 86.727876 77.535837 
L 87.648577 76.547353 
L 88.569279 74.822206 
L 89.48998 72.039788 
L 92.252084 62.062721 
L 93.172786 59.422989 
L 94.093487 57.542537 
L 95.014188 56.045614 
L 95.93489 55.927707 
L 96.855591 57.050917 
L 99.617695 59.02217 
L 100.538397 59.521144 
L 101.459098 60.351478 
L 102.3798 60.899562 
L 103.300501 61.784135 
L 104.221202 63.273474 
L 105.141904 64.085608 
L 106.062605 64.668173 
L 106.983307 65.427442 
L 108.824709 65.530695 
L 109.745411 65.295451 
L 110.666112 64.175193 
L 111.586814 62.843518 
L 112.507515 61.172373 
L 113.428216 59.202368 
L 114.348918 56.953469 
L 115.269619 55.317987 
L 118.031723 52.215152 
L 120.793828 49.327179 
L 121.714529 49.446532 
L 122.63523 51.73231 
L 125.397335 63.357754 
L 126.318036 65.744105 
L 127.238737 67.734829 
L 128.159439 69.997067 
L 130.000842 75.170999 
L 130.921543 76.871657 
L 131.842244 78.071742 
L 132.762946 78.993931 
L 133.683647 80.4121 
L 136.445752 87.774238 
L 138.287154 90.884373 
L 139.207856 92.034635 
L 140.128557 94.350886 
L 141.96996 101.598337 
L 142.890661 103.059453 
L 143.811363 103.094185 
L 144.732064 103.005566 
L 145.652766 102.668179 
L 146.573467 102.00081 
L 147.494168 100.839662 
L 148.41487 99.254688 
L 152.097675 91.706004 
L 153.018377 90.487818 
L 153.939078 90.002834 
L 154.85978 89.721241 
L 155.780481 90.133596 
L 156.701182 91.554804 
L 157.621884 94.107629 
L 159.463287 101.177112 
L 163.146092 112.949907 
L 164.066794 116.226972 
L 164.987495 118.467651 
L 165.908196 120.250463 
L 166.828898 122.319023 
L 168.670301 128.330326 
L 169.591002 130.652359 
L 170.511703 132.311692 
L 173.273808 136.284817 
L 174.194509 136.627542 
L 175.11521 136.242336 
L 176.035912 136.115342 
L 178.798016 136.748501 
L 180.639419 138.32411 
L 182.480822 137.923205 
L 183.401523 137.974598 
L 184.322224 137.693999 
L 185.242926 136.922128 
L 188.00503 133.480342 
L 190.767134 127.255785 
L 192.608537 123.489391 
L 199.053447 108.5634 
L 201.815551 102.886441 
L 202.736253 101.501077 
L 204.577655 99.996377 
L 207.33976 96.48318 
L 210.101864 91.277345 
L 211.943267 88.178198 
L 212.863968 85.969122 
L 214.705371 80.796516 
L 215.626072 78.733635 
L 216.546774 77.171932 
L 217.467475 76.133059 
L 218.388176 75.557745 
L 219.308878 74.838508 
L 220.229579 73.435166 
L 221.150281 71.060927 
L 222.070982 68.226793 
L 222.991683 65.919505 
L 223.912385 64.268156 
L 224.833086 63.614122 
L 225.753788 64.216867 
L 226.674489 64.680956 
L 227.59519 64.027609 
L 228.515892 62.842843 
L 229.436593 61.875923 
L 230.357295 61.425997 
L 231.277996 61.244313 
L 232.198697 60.837789 
L 233.119399 60.152399 
L 234.960802 60.4822 
L 235.881503 59.913952 
L 236.802204 59.783791 
L 237.722906 58.997515 
L 239.564309 55.24465 
L 240.48501 53.832103 
L 241.405711 53.154821 
L 242.326413 53.431353 
L 245.088517 56.149538 
L 246.009218 57.272612 
L 246.92992 58.033525 
L 248.771323 57.396564 
L 249.692024 57.412802 
L 250.612725 57.825733 
L 251.533427 58.86324 
L 252.454128 60.257889 
L 253.37483 62.253702 
L 254.295531 64.814298 
L 255.216232 66.214683 
L 257.057635 68.092349 
L 257.978337 67.84685 
L 259.819739 66.862738 
L 260.740441 66.444336 
L 261.661142 66.156406 
L 262.581844 66.832477 
L 263.502545 69.439084 
L 266.264649 82.481502 
L 268.106052 88.268612 
L 269.026754 92.362717 
L 271.788858 107.959939 
L 272.709559 110.875671 
L 273.630261 112.547245 
L 274.550962 113.862778 
L 275.471663 114.207077 
L 276.392365 113.366208 
L 277.313066 112.329952 
L 278.233768 110.663223 
L 279.154469 108.479793 
L 280.07517 106.586533 
L 280.995872 105.327896 
L 281.916573 105.027968 
L 282.837275 105.268757 
L 283.757976 106.633277 
L 284.678677 108.722098 
L 286.52008 114.539635 
L 289.282184 121.189254 
L 290.202886 122.786193 
L 291.123587 123.46499 
L 292.044289 122.656796 
L 293.885691 119.915165 
L 294.806393 117.970866 
L 295.727094 114.917672 
L 296.647796 111.201554 
L 297.568497 108.109402 
L 299.4099 103.134304 
L 300.330601 101.189819 
L 301.251303 99.53579 
L 302.172004 98.333626 
L 303.092705 97.4909 
L 305.85481 95.436627 
L 307.696212 92.809282 
L 309.537615 90.498968 
L 310.458317 89.309649 
L 311.379018 88.303509 
L 312.299719 87.516892 
L 313.220421 86.965205 
L 314.141122 87.361094 
L 315.061824 89.039534 
L 315.982525 91.074332 
L 316.903226 92.404777 
L 317.823928 92.921567 
L 319.665331 93.254525 
L 320.586032 92.877385 
L 321.506733 91.752512 
L 323.348136 89.169856 
L 324.268838 88.335922 
L 325.189539 88.188636 
L 326.11024 88.628436 
L 327.030942 89.398191 
L 327.951643 91.539887 
L 330.713747 102.490639 
L 331.634449 106.245166 
L 334.396553 120.971776 
L 336.237956 127.383658 
L 337.158657 131.613047 
L 339.00006 142.199508 
L 339.920762 146.33337 
L 340.841463 149.475767 
L 344.524269 159.155077 
L 345.44497 159.80193 
L 346.365671 159.625518 
L 347.286373 159.250335 
L 348.207074 157.823996 
L 349.127776 155.952098 
L 351.88988 152.915085 
L 352.810581 151.080567 
L 355.572685 143.594405 
L 356.493387 141.288796 
L 357.414088 139.348725 
L 359.255491 135.810007 
L 360.176192 133.527055 
L 363.858998 122.25807 
L 365.700401 117.961709 
L 366.621102 114.709456 
L 368.462505 107.358723 
L 370.303908 101.722756 
L 371.224609 99.746711 
L 372.145311 98.398803 
L 373.066012 97.356973 
L 373.986713 96.852788 
L 374.907415 97.640349 
L 375.828116 98.997207 
L 376.748818 101.180155 
L 378.59022 108.040462 
L 379.510922 110.275341 
L 380.431623 111.755789 
L 381.352325 112.903527 
L 382.273026 113.765953 
L 384.114429 116.824173 
L 385.03513 117.663995 
L 385.955832 118.017589 
L 386.876533 117.495238 
L 389.638637 112.905484 
L 391.48004 108.720123 
L 392.400741 106.290931 
L 393.321443 102.782618 
L 395.162846 93.756061 
L 396.083547 90.257318 
L 397.92495 84.6037 
L 400.687054 72.070302 
L 401.607756 69.096937 
L 402.528457 66.810436 
L 405.290561 61.416585 
L 406.211263 60.964437 
L 407.131964 61.387085 
L 409.894068 64.78158 
L 410.81477 67.192995 
L 411.735471 71.308946 
L 413.576874 80.961871 
L 414.497575 84.336119 
L 415.418277 86.883638 
L 416.338978 90.006572 
L 417.259679 94.561702 
L 419.101082 105.099772 
L 420.021784 108.996111 
L 420.942485 111.921937 
L 423.704589 119.084265 
L 424.625291 122.123624 
L 426.466693 129.730838 
L 427.387395 132.233052 
L 428.308096 134.338081 
L 429.228798 135.964217 
L 430.149499 136.937451 
L 431.0702 137.221321 
L 431.990902 136.878425 
L 432.911603 136.312064 
L 433.832305 135.509589 
L 435.673707 133.182321 
L 436.594409 131.503614 
L 437.51511 129.554102 
L 439.356513 126.535767 
L 441.197916 124.023217 
L 443.039319 120.089659 
L 443.96002 118.509206 
L 444.880721 117.275143 
L 445.801423 116.400768 
L 446.722124 116.019718 
L 448.563527 115.826644 
L 450.40493 115.860041 
L 451.325631 115.374425 
L 452.246333 115.032695 
L 453.167034 115.718683 
L 455.008437 118.103134 
L 455.929138 119.011069 
L 456.84984 119.64049 
L 457.770541 120.094651 
L 458.691242 120.245157 
L 459.611944 119.487714 
L 460.532645 117.674336 
L 463.294749 111.000459 
L 465.136152 107.531189 
L 466.977555 104.636444 
L 467.898257 103.168574 
L 468.818958 102.048252 
L 469.739659 99.822313 
L 472.501764 89.722308 
L 475.263868 80.647919 
L 477.105271 75.692212 
L 478.025972 73.735853 
L 478.946673 72.739585 
L 479.867375 72.737687 
L 480.788076 73.059543 
L 482.629479 74.354373 
L 483.55018 75.152777 
L 484.470882 77.057636 
L 485.391583 80.793927 
L 487.232986 89.522418 
L 488.153687 92.450323 
L 489.074389 94.962837 
L 489.99509 98.10152 
L 490.915792 101.993012 
L 492.757194 110.533199 
L 493.677896 113.389466 
L 494.598597 115.482481 
L 495.519299 116.702565 
L 496.44 116.258332 
L 496.44 116.258332 
" clip-path="url(#p36291891fd)" style="fill: none; stroke: #2ca02c; stroke-width: 1.5; stroke-linecap: square"/>
   </g>
   <g id="patch_3">
    <path d="M 37.01 163.52 
L 37.01 10.08 
" style="fill: none; stroke: #000000; stroke-width: 0.8; stroke-linejoin: miter; stroke-linecap: square"/>
   </g>
   <g id="patch_4">
    <path d="M 496.44 163.52 
L 496.44 10.08 
" style="fill: none; stroke: #000000; stroke-width: 0.8; stroke-linejoin: miter; stroke-linecap: square"/>
   </g>
   <g id="patch_5">
    <path d="M 37.01 163.52 
L 496.44 163.52 
" style="fill: none; stroke: #000000; stroke-width: 0.8; stroke-linejoin: miter; stroke-linecap: square"/>
   </g>
   <g id="patch_6">
    <path d="M 37.01 10.08 
L 496.44 10.08 
" style="fill: none; stroke: #000000; stroke-width: 0.8; stroke-linejoin: miter; stroke-linecap: square"/>
   </g>
   <g id="legend_1">
    <g id="patch_7">
     <path d="M 445.010781 45.693594 
L 491.54 45.693594 
Q 492.94 45.693594 492.94 44.293594 
L 492.94 14.98 
Q 492.94 13.58 491.54 13.58 
L 445.010781 13.58 
Q 443.610781 13.58 443.610781 14.98 
L 443.610781 44.293594 
Q 443.610781 45.693594 445.010781 45.693594 
z
" style="fill: #ffffff; opacity: 0.8; stroke: #cccccc; stroke-linejoin: miter"/>
    </g>
    <g id="line2d_18">
     <path d="M 446.410781 18.96125 
L 453.410781 18.96125 
L 460.410781 18.96125 
" style="fill: none; stroke: #1f77b4; stroke-width: 1.5; stroke-linecap: square"/>
    </g>
    <g id="text_11">
     <!-- Agent 1 -->
     <g transform="translate(466.010781 21.41125) scale(0.07 -0.07)">
      <defs>
       <path id="ArialMT-41" d="M -9 0 
L 1750 4581 
L 2403 4581 
L 4278 0 
L 3588 0 
L 3053 1388 
L 1138 1388 
L 634 0 
L -9 0 
z
M 1313 1881 
L 2866 1881 
L 2388 3150 
Q 2169 3728 2063 4100 
Q 1975 3659 1816 3225 
L 1313 1881 
z
" transform="scale(0.015625)"/>
       <path id="ArialMT-65" d="M 2694 1069 
L 3275 997 
Q 3138 488 2766 206 
Q 2394 -75 1816 -75 
Q 1088 -75 661 373 
Q 234 822 234 1631 
Q 234 2469 665 2931 
Q 1097 3394 1784 3394 
Q 2450 3394 2872 2941 
Q 3294 2488 3294 1666 
Q 3294 1616 3291 1516 
L 816 1516 
Q 847 969 1125 678 
Q 1403 388 1819 388 
Q 2128 388 2347 550 
Q 2566 713 2694 1069 
z
M 847 1978 
L 2700 1978 
Q 2663 2397 2488 2606 
Q 2219 2931 1791 2931 
Q 1403 2931 1139 2672 
Q 875 2413 847 1978 
z
" transform="scale(0.015625)"/>
       <path id="ArialMT-74" d="M 1650 503 
L 1731 6 
Q 1494 -44 1306 -44 
Q 1000 -44 831 53 
Q 663 150 594 308 
Q 525 466 525 972 
L 525 2881 
L 113 2881 
L 113 3319 
L 525 3319 
L 525 4141 
L 1084 4478 
L 1084 3319 
L 1650 3319 
L 1650 2881 
L 1084 2881 
L 1084 941 
Q 1084 700 1114 631 
Q 1144 563 1211 522 
Q 1278 481 1403 481 
Q 1497 481 1650 503 
z
" transform="scale(0.015625)"/>
      </defs>
      <use xlink:href="#ArialMT-41"/>
      <use xlink:href="#ArialMT-67" transform="translate(66.699219 0)"/>
      <use xlink:href="#ArialMT-65" transform="translate(122.314453 0)"/>
      <use xlink:href="#ArialMT-6e" transform="translate(177.929688 0)"/>
      <use xlink:href="#ArialMT-74" transform="translate(233.544922 0)"/>
      <use xlink:href="#ArialMT-20" transform="translate(261.328125 0)"/>
      <use xlink:href="#ArialMT-31" transform="translate(289.111328 0)"/>
     </g>
    </g>
    <g id="line2d_19">
     <path d="M 446.410781 28.965781 
L 453.410781 28.965781 
L 460.410781 28.965781 
" style="fill: none; stroke: #ff7f0e; stroke-width: 1.5; stroke-linecap: square"/>
    </g>
    <g id="text_12">
     <!-- Agent 2 -->
     <g transform="translate(466.010781 31.415781) scale(0.07 -0.07)">
      <use xlink:href="#ArialMT-41"/>
      <use xlink:href="#ArialMT-67" transform="translate(66.699219 0)"/>
      <use xlink:href="#ArialMT-65" transform="translate(122.314453 0)"/>
      <use xlink:href="#ArialMT-6e" transform="translate(177.929688 0)"/>
      <use xlink:href="#ArialMT-74" transform="translate(233.544922 0)"/>
      <use xlink:href="#ArialMT-20" transform="translate(261.328125 0)"/>
      <use xlink:href="#ArialMT-32" transform="translate(289.111328 0)"/>
     </g>
    </g>
    <g id="line2d_20">
     <path d="M 446.410781 38.970313 
L 453.410781 38.970313 
L 460.410781 38.970313 
" style="fill: none; stroke: #2ca02c; stroke-width: 1.5; stroke-linecap: square"/>
    </g>
    <g id="text_13">
     <!-- Agent 3 -->
     <g transform="translate(466.010781 41.420313) scale(0.07 -0.07)">
      <use xlink:href="#ArialMT-41"/>
      <use xlink:href="#ArialMT-67" transform="translate(66.699219 0)"/>
      <use xlink:href="#ArialMT-65" transform="translate(122.314453 0)"/>
      <use xlink:href="#ArialMT-6e" transform="translate(177.929688 0)"/>
      <use xlink:href="#ArialMT-74" transform="translate(233.544922 0)"/>
      <use xlink:href="#ArialMT-20" transform="translate(261.328125 0)"/>
      <use xlink:href="#ArialMT-33" transform="translate(289.111328 0)"/>
     </g>
    </g>
   </g>
  </g>
  <g id="axes_2">
   <g id="patch_8">
    <path d="M 37.01 328.48 
L 496.44 328.48 
L 496.44 175.04 
L 37.01 175.04 
z
" style="fill: #ffffff"/>
   </g>
   <g id="matplotlib.axis_3">
    <g id="xtick_6">
     <g id="line2d_21">
      <g>
       <use xlink:href="#m46f188c60c" x="37.01" y="328.48" style="stroke: #000000; stroke-width: 0.8"/>
      </g>
     </g>
     <g id="text_14">
      <!-- 0 -->
      <g transform="translate(35.341719 339.774688) scale(0.06 -0.06)">
       <use xlink:href="#ArialMT-30"/>
      </g>
     </g>
    </g>
    <g id="xtick_7">
     <g id="line2d_22">
      <g>
       <use xlink:href="#m46f188c60c" x="129.08014" y="328.48" style="stroke: #000000; stroke-width: 0.8"/>
      </g>
     </g>
     <g id="text_15">
      <!-- 100 -->
      <g transform="translate(124.075297 339.774688) scale(0.06 -0.06)">
       <use xlink:href="#ArialMT-31"/>
       <use xlink:href="#ArialMT-30" transform="translate(55.615234 0)"/>
       <use xlink:href="#ArialMT-30" transform="translate(111.230469 0)"/>
      </g>
     </g>
    </g>
    <g id="xtick_8">
     <g id="line2d_23">
      <g>
       <use xlink:href="#m46f188c60c" x="221.150281" y="328.48" style="stroke: #000000; stroke-width: 0.8"/>
      </g>
     </g>
     <g id="text_16">
      <!-- 200 -->
      <g transform="translate(216.145437 339.774688) scale(0.06 -0.06)">
       <use xlink:href="#ArialMT-32"/>
       <use xlink:href="#ArialMT-30" transform="translate(55.615234 0)"/>
       <use xlink:href="#ArialMT-30" transform="translate(111.230469 0)"/>
      </g>
     </g>
    </g>
    <g id="xtick_9">
     <g id="line2d_24">
      <g>
       <use xlink:href="#m46f188c60c" x="313.220421" y="328.48" style="stroke: #000000; stroke-width: 0.8"/>
      </g>
     </g>
     <g id="text_17">
      <!-- 300 -->
      <g transform="translate(308.215577 339.774688) scale(0.06 -0.06)">
       <use xlink:href="#ArialMT-33"/>
       <use xlink:href="#ArialMT-30" transform="translate(55.615234 0)"/>
       <use xlink:href="#ArialMT-30" transform="translate(111.230469 0)"/>
      </g>
     </g>
    </g>
    <g id="xtick_10">
     <g id="line2d_25">
      <g>
       <use xlink:href="#m46f188c60c" x="405.290561" y="328.48" style="stroke: #000000; stroke-width: 0.8"/>
      </g>
     </g>
     <g id="text_18">
      <!-- 400 -->
      <g transform="translate(400.285717 339.774688) scale(0.06 -0.06)">
       <use xlink:href="#ArialMT-34"/>
       <use xlink:href="#ArialMT-30" transform="translate(55.615234 0)"/>
       <use xlink:href="#ArialMT-30" transform="translate(111.230469 0)"/>
      </g>
     </g>
    </g>
    <g id="text_19">
     <!-- Timesteps (0.1 s) -->
     <g transform="translate(239.823672 350.062969) scale(0.07 -0.07)">
      <defs>
       <path id="ArialMT-54" d="M 1659 0 
L 1659 4041 
L 150 4041 
L 150 4581 
L 3781 4581 
L 3781 4041 
L 2266 4041 
L 2266 0 
L 1659 0 
z
" transform="scale(0.015625)"/>
       <path id="ArialMT-6d" d="M 422 0 
L 422 3319 
L 925 3319 
L 925 2853 
Q 1081 3097 1340 3245 
Q 1600 3394 1931 3394 
Q 2300 3394 2536 3241 
Q 2772 3088 2869 2813 
Q 3263 3394 3894 3394 
Q 4388 3394 4653 3120 
Q 4919 2847 4919 2278 
L 4919 0 
L 4359 0 
L 4359 2091 
Q 4359 2428 4304 2576 
Q 4250 2725 4106 2815 
Q 3963 2906 3769 2906 
Q 3419 2906 3187 2673 
Q 2956 2441 2956 1928 
L 2956 0 
L 2394 0 
L 2394 2156 
Q 2394 2531 2256 2718 
Q 2119 2906 1806 2906 
Q 1569 2906 1367 2781 
Q 1166 2656 1075 2415 
Q 984 2175 984 1722 
L 984 0 
L 422 0 
z
" transform="scale(0.015625)"/>
       <path id="ArialMT-73" d="M 197 991 
L 753 1078 
Q 800 744 1014 566 
Q 1228 388 1613 388 
Q 2000 388 2187 545 
Q 2375 703 2375 916 
Q 2375 1106 2209 1216 
Q 2094 1291 1634 1406 
Q 1016 1563 777 1677 
Q 538 1791 414 1992 
Q 291 2194 291 2438 
Q 291 2659 392 2848 
Q 494 3038 669 3163 
Q 800 3259 1026 3326 
Q 1253 3394 1513 3394 
Q 1903 3394 2198 3281 
Q 2494 3169 2634 2976 
Q 2775 2784 2828 2463 
L 2278 2388 
Q 2241 2644 2061 2787 
Q 1881 2931 1553 2931 
Q 1166 2931 1000 2803 
Q 834 2675 834 2503 
Q 834 2394 903 2306 
Q 972 2216 1119 2156 
Q 1203 2125 1616 2013 
Q 2213 1853 2448 1751 
Q 2684 1650 2818 1456 
Q 2953 1263 2953 975 
Q 2953 694 2789 445 
Q 2625 197 2315 61 
Q 2006 -75 1616 -75 
Q 969 -75 630 194 
Q 291 463 197 991 
z
" transform="scale(0.015625)"/>
       <path id="ArialMT-28" d="M 1497 -1347 
Q 1031 -759 709 28 
Q 388 816 388 1659 
Q 388 2403 628 3084 
Q 909 3875 1497 4659 
L 1900 4659 
Q 1522 4009 1400 3731 
Q 1209 3300 1100 2831 
Q 966 2247 966 1656 
Q 966 153 1900 -1347 
L 1497 -1347 
z
" transform="scale(0.015625)"/>
       <path id="ArialMT-29" d="M 791 -1347 
L 388 -1347 
Q 1322 153 1322 1656 
Q 1322 2244 1188 2822 
Q 1081 3291 891 3722 
Q 769 4003 388 4659 
L 791 4659 
Q 1378 3875 1659 3084 
Q 1900 2403 1900 1659 
Q 1900 816 1576 28 
Q 1253 -759 791 -1347 
z
" transform="scale(0.015625)"/>
      </defs>
      <use xlink:href="#ArialMT-54"/>
      <use xlink:href="#ArialMT-69" transform="translate(57.333984 0)"/>
      <use xlink:href="#ArialMT-6d" transform="translate(79.550781 0)"/>
      <use xlink:href="#ArialMT-65" transform="translate(162.851562 0)"/>
      <use xlink:href="#ArialMT-73" transform="translate(218.466797 0)"/>
      <use xlink:href="#ArialMT-74" transform="translate(268.466797 0)"/>
      <use xlink:href="#ArialMT-65" transform="translate(296.25 0)"/>
      <use xlink:href="#ArialMT-70" transform="translate(351.865234 0)"/>
      <use xlink:href="#ArialMT-73" transform="translate(407.480469 0)"/>
      <use xlink:href="#ArialMT-20" transform="translate(457.480469 0)"/>
      <use xlink:href="#ArialMT-28" transform="translate(485.263672 0)"/>
      <use xlink:href="#ArialMT-30" transform="translate(518.564453 0)"/>
      <use xlink:href="#ArialMT-2e" transform="translate(574.179688 0)"/>
      <use xlink:href="#ArialMT-31" transform="translate(601.962891 0)"/>
      <use xlink:href="#ArialMT-20" transform="translate(657.578125 0)"/>
      <use xlink:href="#ArialMT-73" transform="translate(685.361328 0)"/>
      <use xlink:href="#ArialMT-29" transform="translate(735.361328 0)"/>
     </g>
    </g>
   </g>
   <g id="matplotlib.axis_4">
    <g id="ytick_10">
     <g id="line2d_26">
      <g>
       <use xlink:href="#m9e00a72e14" x="37.01" y="328.48" style="stroke: #000000; stroke-width: 0.8"/>
      </g>
     </g>
     <g id="text_20">
      <!-- 0 -->
      <g transform="translate(26.673438 330.627344) scale(0.06 -0.06)">
       <use xlink:href="#ArialMT-30"/>
      </g>
     </g>
    </g>
    <g id="ytick_11">
     <g id="line2d_27">
      <g>
       <use xlink:href="#m9e00a72e14" x="37.01" y="308.021333" style="stroke: #000000; stroke-width: 0.8"/>
      </g>
     </g>
     <g id="text_21">
      <!-- 2 -->
      <g transform="translate(26.673438 310.168677) scale(0.06 -0.06)">
       <use xlink:href="#ArialMT-32"/>
      </g>
     </g>
    </g>
    <g id="ytick_12">
     <g id="line2d_28">
      <g>
       <use xlink:href="#m9e00a72e14" x="37.01" y="287.562667" style="stroke: #000000; stroke-width: 0.8"/>
      </g>
     </g>
     <g id="text_22">
      <!-- 4 -->
      <g transform="translate(26.673438 289.71001) scale(0.06 -0.06)">
       <use xlink:href="#ArialMT-34"/>
      </g>
     </g>
    </g>
    <g id="ytick_13">
     <g id="line2d_29">
      <g>
       <use xlink:href="#m9e00a72e14" x="37.01" y="267.104" style="stroke: #000000; stroke-width: 0.8"/>
      </g>
     </g>
     <g id="text_23">
      <!-- 6 -->
      <g transform="translate(26.673438 269.251344) scale(0.06 -0.06)">
       <defs>
        <path id="ArialMT-36" d="M 3184 3459 
L 2625 3416 
Q 2550 3747 2413 3897 
Q 2184 4138 1850 4138 
Q 1581 4138 1378 3988 
Q 1113 3794 959 3422 
Q 806 3050 800 2363 
Q 1003 2672 1297 2822 
Q 1591 2972 1913 2972 
Q 2475 2972 2870 2558 
Q 3266 2144 3266 1488 
Q 3266 1056 3080 686 
Q 2894 316 2569 119 
Q 2244 -78 1831 -78 
Q 1128 -78 684 439 
Q 241 956 241 2144 
Q 241 3472 731 4075 
Q 1159 4600 1884 4600 
Q 2425 4600 2770 4297 
Q 3116 3994 3184 3459 
z
M 888 1484 
Q 888 1194 1011 928 
Q 1134 663 1356 523 
Q 1578 384 1822 384 
Q 2178 384 2434 671 
Q 2691 959 2691 1453 
Q 2691 1928 2437 2201 
Q 2184 2475 1800 2475 
Q 1419 2475 1153 2201 
Q 888 1928 888 1484 
z
" transform="scale(0.015625)"/>
       </defs>
       <use xlink:href="#ArialMT-36"/>
      </g>
     </g>
    </g>
    <g id="ytick_14">
     <g id="line2d_30">
      <g>
       <use xlink:href="#m9e00a72e14" x="37.01" y="246.645333" style="stroke: #000000; stroke-width: 0.8"/>
      </g>
     </g>
     <g id="text_24">
      <!-- 8 -->
      <g transform="translate(26.673438 248.792677) scale(0.06 -0.06)">
       <defs>
        <path id="ArialMT-38" d="M 1131 2484 
Q 781 2613 612 2850 
Q 444 3088 444 3419 
Q 444 3919 803 4259 
Q 1163 4600 1759 4600 
Q 2359 4600 2725 4251 
Q 3091 3903 3091 3403 
Q 3091 3084 2923 2848 
Q 2756 2613 2416 2484 
Q 2838 2347 3058 2040 
Q 3278 1734 3278 1309 
Q 3278 722 2862 322 
Q 2447 -78 1769 -78 
Q 1091 -78 675 323 
Q 259 725 259 1325 
Q 259 1772 486 2073 
Q 713 2375 1131 2484 
z
M 1019 3438 
Q 1019 3113 1228 2906 
Q 1438 2700 1772 2700 
Q 2097 2700 2305 2904 
Q 2513 3109 2513 3406 
Q 2513 3716 2298 3927 
Q 2084 4138 1766 4138 
Q 1444 4138 1231 3931 
Q 1019 3725 1019 3438 
z
M 838 1322 
Q 838 1081 952 856 
Q 1066 631 1291 507 
Q 1516 384 1775 384 
Q 2178 384 2440 643 
Q 2703 903 2703 1303 
Q 2703 1709 2433 1975 
Q 2163 2241 1756 2241 
Q 1359 2241 1098 1978 
Q 838 1716 838 1322 
z
" transform="scale(0.015625)"/>
       </defs>
       <use xlink:href="#ArialMT-38"/>
      </g>
     </g>
    </g>
    <g id="ytick_15">
     <g id="line2d_31">
      <g>
       <use xlink:href="#m9e00a72e14" x="37.01" y="226.186667" style="stroke: #000000; stroke-width: 0.8"/>
      </g>
     </g>
     <g id="text_25">
      <!-- 10 -->
      <g transform="translate(23.336875 228.33401) scale(0.06 -0.06)">
       <use xlink:href="#ArialMT-31"/>
       <use xlink:href="#ArialMT-30" transform="translate(55.615234 0)"/>
      </g>
     </g>
    </g>
    <g id="ytick_16">
     <g id="line2d_32">
      <g>
       <use xlink:href="#m9e00a72e14" x="37.01" y="205.728" style="stroke: #000000; stroke-width: 0.8"/>
      </g>
     </g>
     <g id="text_26">
      <!-- 12 -->
      <g transform="translate(23.336875 207.875344) scale(0.06 -0.06)">
       <use xlink:href="#ArialMT-31"/>
       <use xlink:href="#ArialMT-32" transform="translate(55.615234 0)"/>
      </g>
     </g>
    </g>
    <g id="ytick_17">
     <g id="line2d_33">
      <g>
       <use xlink:href="#m9e00a72e14" x="37.01" y="185.269333" style="stroke: #000000; stroke-width: 0.8"/>
      </g>
     </g>
     <g id="text_27">
      <!-- 14 -->
      <g transform="translate(23.336875 187.416677) scale(0.06 -0.06)">
       <use xlink:href="#ArialMT-31"/>
       <use xlink:href="#ArialMT-34" transform="translate(55.615234 0)"/>
      </g>
     </g>
    </g>
    <g id="text_28">
     <!-- Distance from leader (d/$\lambda_0$) -->
     <g transform="translate(17.796875 294.005) rotate(-90) scale(0.07 -0.07)">
      <defs>
       <path id="ArialMT-44" d="M 494 0 
L 494 4581 
L 2072 4581 
Q 2606 4581 2888 4516 
Q 3281 4425 3559 4188 
Q 3922 3881 4101 3404 
Q 4281 2928 4281 2316 
Q 4281 1794 4159 1391 
Q 4038 988 3847 723 
Q 3656 459 3429 307 
Q 3203 156 2883 78 
Q 2563 0 2147 0 
L 494 0 
z
M 1100 541 
L 2078 541 
Q 2531 541 2789 625 
Q 3047 709 3200 863 
Q 3416 1078 3536 1442 
Q 3656 1806 3656 2325 
Q 3656 3044 3420 3430 
Q 3184 3816 2847 3947 
Q 2603 4041 2063 4041 
L 1100 4041 
L 1100 541 
z
" transform="scale(0.015625)"/>
       <path id="ArialMT-66" d="M 556 0 
L 556 2881 
L 59 2881 
L 59 3319 
L 556 3319 
L 556 3672 
Q 556 4006 616 4169 
Q 697 4388 901 4523 
Q 1106 4659 1475 4659 
Q 1713 4659 2000 4603 
L 1916 4113 
Q 1741 4144 1584 4144 
Q 1328 4144 1222 4034 
Q 1116 3925 1116 3625 
L 1116 3319 
L 1763 3319 
L 1763 2881 
L 1116 2881 
L 1116 0 
L 556 0 
z
" transform="scale(0.015625)"/>
       <path id="ArialMT-72" d="M 416 0 
L 416 3319 
L 922 3319 
L 922 2816 
Q 1116 3169 1280 3281 
Q 1444 3394 1641 3394 
Q 1925 3394 2219 3213 
L 2025 2691 
Q 1819 2813 1613 2813 
Q 1428 2813 1281 2702 
Q 1134 2591 1072 2394 
Q 978 2094 978 1738 
L 978 0 
L 416 0 
z
" transform="scale(0.015625)"/>
       <path id="ArialMT-6f" d="M 213 1659 
Q 213 2581 725 3025 
Q 1153 3394 1769 3394 
Q 2453 3394 2887 2945 
Q 3322 2497 3322 1706 
Q 3322 1066 3130 698 
Q 2938 331 2570 128 
Q 2203 -75 1769 -75 
Q 1072 -75 642 372 
Q 213 819 213 1659 
z
M 791 1659 
Q 791 1022 1069 705 
Q 1347 388 1769 388 
Q 2188 388 2466 706 
Q 2744 1025 2744 1678 
Q 2744 2294 2464 2611 
Q 2184 2928 1769 2928 
Q 1347 2928 1069 2612 
Q 791 2297 791 1659 
z
" transform="scale(0.015625)"/>
       <path id="ArialMT-6c" d="M 409 0 
L 409 4581 
L 972 4581 
L 972 0 
L 409 0 
z
" transform="scale(0.015625)"/>
      </defs>
      <use xlink:href="#ArialMT-44" transform="translate(0 0.015625)"/>
      <use xlink:href="#ArialMT-69" transform="translate(72.216797 0.015625)"/>
      <use xlink:href="#ArialMT-73" transform="translate(94.433594 0.015625)"/>
      <use xlink:href="#ArialMT-74" transform="translate(144.433594 0.015625)"/>
      <use xlink:href="#ArialMT-61" transform="translate(172.216797 0.015625)"/>
      <use xlink:href="#ArialMT-6e" transform="translate(227.832031 0.015625)"/>
      <use xlink:href="#ArialMT-63" transform="translate(283.447266 0.015625)"/>
      <use xlink:href="#ArialMT-65" transform="translate(333.447266 0.015625)"/>
      <use xlink:href="#ArialMT-20" transform="translate(389.0625 0.015625)"/>
      <use xlink:href="#ArialMT-66" transform="translate(416.845703 0.015625)"/>
      <use xlink:href="#ArialMT-72" transform="translate(444.628906 0.015625)"/>
      <use xlink:href="#ArialMT-6f" transform="translate(477.929688 0.015625)"/>
      <use xlink:href="#ArialMT-6d" transform="translate(533.544922 0.015625)"/>
      <use xlink:href="#ArialMT-20" transform="translate(616.845703 0.015625)"/>
      <use xlink:href="#ArialMT-6c" transform="translate(644.628906 0.015625)"/>
      <use xlink:href="#ArialMT-65" transform="translate(666.845703 0.015625)"/>
      <use xlink:href="#ArialMT-61" transform="translate(722.460938 0.015625)"/>
      <use xlink:href="#ArialMT-64" transform="translate(778.076172 0.015625)"/>
      <use xlink:href="#ArialMT-65" transform="translate(833.691406 0.015625)"/>
      <use xlink:href="#ArialMT-72" transform="translate(889.306641 0.015625)"/>
      <use xlink:href="#ArialMT-20" transform="translate(922.607422 0.015625)"/>
      <use xlink:href="#ArialMT-28" transform="translate(950.390625 0.015625)"/>
      <use xlink:href="#ArialMT-64" transform="translate(983.691406 0.015625)"/>
      <use xlink:href="#ArialMT-2f" transform="translate(1039.306641 0.015625)"/>
      <use xlink:href="#DejaVuSans-Oblique-3bb" transform="translate(1067.089844 0.015625)"/>
      <use xlink:href="#DejaVuSans-30" transform="translate(1126.269531 -16.390625) scale(0.7)"/>
      <use xlink:href="#ArialMT-29" transform="translate(1173.540039 0.015625)"/>
     </g>
    </g>
   </g>
   <g id="line2d_34">
    <path d="M 37.01 304.948275 
L 38.851403 304.84999 
L 41.613507 304.318741 
L 43.45491 304.527622 
L 45.296313 304.658604 
L 47.137715 304.471638 
L 48.979118 304.807146 
L 55.424028 305.819415 
L 56.344729 305.922886 
L 60.027535 305.913376 
L 61.868938 306.213177 
L 63.710341 306.189831 
L 65.551743 306.275761 
L 67.393146 306.334549 
L 68.313848 306.476104 
L 70.155251 306.973893 
L 71.996653 307.10576 
L 73.838056 306.947329 
L 75.679459 307.079499 
L 78.441563 307.956388 
L 82.124369 308.142214 
L 84.886473 308.792117 
L 85.807174 308.826924 
L 87.648577 308.51817 
L 89.48998 308.081989 
L 90.410681 308.106868 
L 93.172786 308.566955 
L 95.014188 308.62802 
L 96.855591 308.400218 
L 98.696994 308.030577 
L 104.221202 307.369789 
L 106.983307 307.428215 
L 108.824709 307.34968 
L 113.428216 306.460168 
L 114.348918 306.573573 
L 115.269619 306.824937 
L 117.111022 306.992551 
L 118.952425 307.105394 
L 121.714529 307.536373 
L 123.555932 307.621481 
L 128.159439 307.114536 
L 130.000842 307.290811 
L 131.842244 307.224937 
L 133.683647 306.844747 
L 137.366453 305.825196 
L 139.207856 305.558812 
L 141.96996 305.224095 
L 142.890661 305.147771 
L 143.811363 305.211505 
L 145.652766 305.657342 
L 150.256273 306.640523 
L 153.018377 306.856342 
L 159.463287 306.736632 
L 162.225391 307.406611 
L 164.066794 307.369519 
L 165.908196 307.299995 
L 169.591002 307.301677 
L 170.511703 307.367783 
L 173.273808 307.154896 
L 174.194509 307.435493 
L 176.035912 308.313548 
L 176.956613 308.64316 
L 177.877315 308.80908 
L 178.798016 308.830959 
L 179.718717 308.734693 
L 181.56012 308.279854 
L 182.480822 308.238963 
L 186.163627 308.647643 
L 188.925731 308.356735 
L 191.687836 307.930887 
L 196.291343 308.157948 
L 198.132745 308.423487 
L 199.053447 308.501701 
L 201.815551 309.140521 
L 204.577655 309.363476 
L 205.498357 309.587168 
L 206.419058 309.666393 
L 208.260461 309.465197 
L 210.101864 309.263443 
L 213.784669 309.130979 
L 214.705371 309.173473 
L 216.546774 308.911163 
L 219.308878 308.36743 
L 224.833086 308.093759 
L 226.674489 307.564993 
L 228.515892 306.90413 
L 229.436593 306.839623 
L 231.277996 307.202553 
L 232.198697 307.40775 
L 233.119399 307.498489 
L 234.960802 307.332289 
L 239.564309 306.447406 
L 241.405711 306.176141 
L 244.167816 305.649206 
L 249.692024 305.32446 
L 251.533427 305.387124 
L 253.37483 305.202519 
L 258.899038 305.898546 
L 262.581844 306.940653 
L 266.264649 307.071317 
L 268.106052 307.618543 
L 269.947455 307.869148 
L 271.788858 307.60502 
L 274.550962 306.688762 
L 275.471663 306.625796 
L 280.07517 307.087073 
L 282.837275 308.052177 
L 283.757976 308.274959 
L 289.282184 308.630929 
L 291.123587 308.262386 
L 292.96499 307.815817 
L 295.727094 307.154508 
L 296.647796 306.887878 
L 297.568497 306.788927 
L 298.489198 306.958385 
L 299.4099 307.291684 
L 300.330601 307.492415 
L 302.172004 307.440881 
L 303.092705 307.362839 
L 306.775511 307.757846 
L 307.696212 307.764373 
L 311.379018 307.291961 
L 313.220421 307.512537 
L 315.061824 307.695223 
L 315.982525 307.677939 
L 317.823928 307.327621 
L 321.506733 306.296727 
L 323.348136 306.14081 
L 326.11024 305.946495 
L 330.713747 305.901572 
L 337.158657 306.777962 
L 343.603567 306.99006 
L 346.365671 307.872408 
L 348.207074 307.920747 
L 350.048477 307.976491 
L 352.810581 308.048277 
L 354.651984 307.893475 
L 357.414088 307.393583 
L 358.33479 307.448358 
L 361.096894 308.048496 
L 362.017595 308.09807 
L 363.858998 307.809962 
L 366.621102 306.873131 
L 367.541804 306.805655 
L 372.145311 307.262441 
L 374.907415 308.220539 
L 377.669519 309.147318 
L 379.510922 309.451246 
L 385.03513 309.51835 
L 386.876533 309.251771 
L 387.797234 309.108096 
L 391.48004 309.352522 
L 395.162846 308.793526 
L 397.004248 308.616391 
L 401.607756 307.842742 
L 403.449158 307.519581 
L 404.36986 307.55531 
L 407.131964 307.906039 
L 408.052665 307.908311 
L 409.894068 307.591401 
L 412.656172 306.692723 
L 413.576874 306.646964 
L 415.418277 307.057042 
L 416.338978 307.290324 
L 417.259679 307.405065 
L 419.101082 307.27326 
L 423.704589 306.483846 
L 425.545992 306.258651 
L 428.308096 305.798459 
L 433.832305 305.611139 
L 435.673707 305.714748 
L 440.277214 305.42527 
L 442.118617 305.563732 
L 444.880721 306.185501 
L 445.801423 306.128829 
L 447.642826 305.690912 
L 449.484228 305.305544 
L 450.40493 305.367239 
L 452.246333 306.25001 
L 453.167034 306.644875 
L 454.087735 306.867094 
L 455.929138 306.937735 
L 457.770541 306.746992 
L 458.691242 306.633897 
L 459.611944 306.721065 
L 462.374048 307.314582 
L 464.215451 307.335159 
L 469.739659 306.629573 
L 470.660361 306.659662 
L 472.501764 306.432174 
L 474.343166 306.190803 
L 478.025972 306.257829 
L 480.788076 306.491534 
L 481.708778 306.654906 
L 484.470882 307.792225 
L 485.391583 307.887868 
L 487.232986 307.826325 
L 489.99509 308.247479 
L 491.836493 308.346327 
L 495.519299 307.899754 
L 496.44 308.054851 
L 496.44 308.054851 
" clip-path="url(#pcf9e307ac5)" style="fill: none; stroke: #1f77b4; stroke-width: 1.5; stroke-linecap: square"/>
   </g>
   <g id="line2d_35">
    <path d="M 37.01 281.44866 
L 38.851403 281.314585 
L 41.613507 280.721777 
L 42.534208 280.75293 
L 47.137715 281.499689 
L 52.661924 281.305678 
L 54.503327 281.328873 
L 61.868938 281.260693 
L 63.710341 281.000576 
L 67.393146 280.893037 
L 70.155251 281.074918 
L 71.996653 280.836763 
L 75.679459 280.113824 
L 76.60016 280.407373 
L 78.441563 281.140963 
L 79.362265 281.266236 
L 81.203667 281.344259 
L 82.124369 281.635153 
L 84.886473 282.837096 
L 85.807174 283.0029 
L 88.569279 282.952366 
L 90.410681 283.698201 
L 92.252084 284.535402 
L 94.093487 284.931091 
L 95.93489 284.935899 
L 96.855591 284.910981 
L 98.696994 285.196101 
L 100.538397 285.490363 
L 105.141904 285.430607 
L 106.983307 285.608086 
L 109.745411 286.345996 
L 114.348918 288.589836 
L 115.269619 288.903724 
L 117.111022 289.122212 
L 121.714529 289.07109 
L 123.555932 288.737844 
L 125.397335 288.054514 
L 127.238737 287.410588 
L 129.08014 287.313914 
L 131.842244 287.361784 
L 133.683647 286.974951 
L 134.604349 286.787298 
L 135.52505 286.818349 
L 137.366453 287.310191 
L 139.207856 287.256873 
L 141.049259 286.922422 
L 141.96996 286.734707 
L 142.890661 286.81941 
L 144.732064 287.270744 
L 147.494168 287.795763 
L 149.335571 288.296101 
L 152.097675 288.678319 
L 153.939078 288.448695 
L 156.701182 287.841235 
L 163.146092 286.142055 
L 165.908196 285.719279 
L 167.749599 285.23385 
L 170.511703 284.23494 
L 172.353106 283.425544 
L 173.273808 283.22873 
L 176.956613 283.459479 
L 178.798016 283.171695 
L 180.639419 282.694218 
L 181.56012 282.814684 
L 183.401523 283.247243 
L 186.163627 283.522022 
L 188.00503 283.499797 
L 190.767134 284.031789 
L 197.212044 284.731622 
L 199.053447 284.637835 
L 200.89485 284.466351 
L 202.736253 284.302462 
L 204.577655 283.897393 
L 207.33976 283.921015 
L 209.181162 284.367308 
L 212.863968 284.6562 
L 214.705371 285.163959 
L 215.626072 285.279268 
L 216.546774 285.233829 
L 219.308878 284.731051 
L 220.229579 284.902219 
L 222.991683 286.16075 
L 223.912385 286.338893 
L 226.674489 286.351287 
L 227.59519 286.800764 
L 228.515892 287.37586 
L 229.436593 287.788538 
L 230.357295 287.94712 
L 234.960802 288.125788 
L 237.722906 288.55377 
L 239.564309 289.393453 
L 241.405711 289.747851 
L 243.247114 289.874183 
L 246.009218 290.098218 
L 247.850621 290.204153 
L 252.454128 290.769584 
L 256.136934 290.762247 
L 257.057635 291.010998 
L 257.978337 291.376188 
L 258.899038 291.604222 
L 260.740441 291.628421 
L 262.581844 291.264982 
L 264.423246 290.607803 
L 267.185351 289.26149 
L 272.709559 286.150568 
L 274.550962 285.554785 
L 275.471663 285.44201 
L 278.233768 285.796729 
L 280.07517 286.194287 
L 280.995872 286.174586 
L 282.837275 285.770882 
L 284.678677 285.040764 
L 287.440782 283.769086 
L 289.282184 283.22771 
L 290.202886 283.185255 
L 291.123587 283.443041 
L 292.96499 284.676756 
L 294.806393 285.695186 
L 297.568497 287.839601 
L 298.489198 288.240314 
L 299.4099 288.496434 
L 301.251303 288.601536 
L 303.092705 288.381786 
L 305.85481 287.778436 
L 306.775511 287.808489 
L 308.616914 288.317338 
L 310.458317 288.83173 
L 311.379018 288.8861 
L 313.220421 288.60075 
L 315.061824 288.157793 
L 315.982525 288.275543 
L 317.823928 288.93995 
L 318.744629 289.092826 
L 320.586032 289.086979 
L 323.348136 289.484669 
L 325.189539 289.236678 
L 328.872345 288.175513 
L 331.634449 286.997689 
L 334.396553 285.555574 
L 338.079359 283.225794 
L 339.920762 282.069628 
L 341.762164 281.239008 
L 343.603567 280.880706 
L 344.524269 280.713998 
L 345.44497 280.716709 
L 347.286373 281.055349 
L 348.207074 281.471749 
L 349.127776 282.033593 
L 350.048477 282.414196 
L 352.810581 283.204349 
L 355.572685 284.311972 
L 356.493387 284.547604 
L 358.33479 284.595222 
L 360.176192 284.661823 
L 363.858998 285.612055 
L 365.700401 285.683717 
L 366.621102 286.002121 
L 368.462505 286.882408 
L 370.303908 287.37416 
L 373.066012 287.925123 
L 373.986713 287.943654 
L 377.669519 287.415945 
L 379.510922 287.180045 
L 382.273026 287.062605 
L 385.03513 287.093096 
L 385.955832 287.058886 
L 386.876533 287.249278 
L 388.717936 288.11556 
L 392.400741 289.28497 
L 393.321443 289.813267 
L 395.162846 291.501886 
L 396.083547 292.022711 
L 397.92495 292.564429 
L 400.687054 294.182019 
L 401.607756 294.347098 
L 405.290561 294.354439 
L 407.131964 294.586468 
L 408.052665 294.556793 
L 409.894068 294.153633 
L 411.735471 293.484644 
L 414.497575 292.157655 
L 418.180381 290.327399 
L 424.625291 286.882611 
L 426.466693 286.074652 
L 429.228798 285.582837 
L 431.0702 285.283878 
L 433.832305 285.348126 
L 437.51511 285.897859 
L 439.356513 285.876195 
L 441.197916 285.560136 
L 443.039319 285.503301 
L 444.880721 285.066909 
L 446.722124 284.321758 
L 449.484228 282.930242 
L 450.40493 282.74818 
L 451.325631 282.989706 
L 453.167034 284.001188 
L 454.087735 284.349847 
L 455.008437 284.562678 
L 455.929138 284.656629 
L 456.84984 284.635248 
L 459.611944 284.32038 
L 463.294749 285.190468 
L 465.136152 285.141606 
L 466.056854 285.046482 
L 468.818958 285.112586 
L 469.739659 285.33181 
L 471.581062 286.379709 
L 474.343166 287.312949 
L 476.184569 287.630219 
L 478.025972 287.66872 
L 479.867375 287.332294 
L 482.629479 286.420849 
L 487.232986 284.429086 
L 489.99509 283.520602 
L 494.598597 281.886038 
L 495.519299 281.737219 
L 496.44 281.988782 
L 496.44 281.988782 
" clip-path="url(#pcf9e307ac5)" style="fill: none; stroke: #ff7f0e; stroke-width: 1.5; stroke-linecap: square"/>
   </g>
   <g id="line2d_36">
    <path d="M 37.01 257.949797 
L 38.851403 257.874716 
L 41.613507 257.361364 
L 42.534208 257.409206 
L 44.375611 257.703596 
L 45.296313 257.692327 
L 47.137715 257.325459 
L 48.058417 257.094784 
L 52.661924 256.886373 
L 56.344729 256.92685 
L 58.186132 257.208371 
L 60.027535 257.627412 
L 61.868938 257.868685 
L 63.710341 258.558303 
L 65.551743 258.820694 
L 71.075952 258.517911 
L 74.758758 257.618227 
L 75.679459 257.660531 
L 77.520862 258.370466 
L 78.441563 258.569714 
L 83.04507 258.635243 
L 84.886473 258.309067 
L 86.727876 257.724409 
L 89.48998 256.529991 
L 94.093487 254.320547 
L 95.014188 253.978674 
L 95.93489 253.894735 
L 98.696994 254.812552 
L 99.617695 255.183812 
L 101.459098 255.594806 
L 103.300501 255.931367 
L 105.141904 256.564883 
L 110.666112 257.954009 
L 112.507515 258.055505 
L 115.269619 257.699968 
L 117.111022 257.336226 
L 120.793828 256.258873 
L 121.714529 256.301612 
L 122.63523 256.798778 
L 124.476633 258.464185 
L 125.397335 258.994696 
L 127.238737 259.517989 
L 128.159439 260.041819 
L 130.000842 261.439538 
L 130.921543 261.949796 
L 131.842244 262.225696 
L 133.683647 262.462958 
L 134.604349 262.93762 
L 137.366453 265.185501 
L 138.287154 265.616697 
L 139.207856 265.844223 
L 140.128557 266.329216 
L 141.96996 267.872377 
L 142.890661 268.346711 
L 144.732064 268.783675 
L 146.573467 268.826509 
L 148.41487 268.571552 
L 150.256273 267.971533 
L 153.939078 266.494231 
L 154.85978 266.239721 
L 155.780481 266.163863 
L 156.701182 266.30063 
L 157.621884 266.728872 
L 159.463287 268.050014 
L 162.225391 269.52803 
L 164.066794 271.059283 
L 164.987495 271.521655 
L 166.828898 272.175619 
L 168.670301 273.189915 
L 169.591002 273.488318 
L 170.511703 273.562838 
L 172.353106 273.470624 
L 175.11521 273.818049 
L 177.877315 273.808429 
L 179.718717 273.615529 
L 181.56012 273.697179 
L 183.401523 274.085249 
L 184.322224 274.118141 
L 186.163627 273.785914 
L 188.925731 272.768746 
L 193.529238 270.801548 
L 196.291343 269.357672 
L 199.053447 267.632855 
L 200.89485 266.432791 
L 203.656954 264.989181 
L 205.498357 264.287836 
L 211.943267 262.037369 
L 215.626072 260.319685 
L 218.388176 259.020854 
L 220.229579 258.529711 
L 222.991683 257.784065 
L 224.833086 257.352623 
L 225.753788 257.419994 
L 229.436593 258.333565 
L 231.277996 258.351725 
L 233.119399 258.147599 
L 235.881503 258.299388 
L 238.643607 258.284102 
L 241.405711 257.967251 
L 242.326413 258.074793 
L 246.009218 259.415695 
L 246.92992 259.623066 
L 248.771323 259.680032 
L 250.612725 260.141531 
L 252.454128 260.883134 
L 255.216232 262.358076 
L 256.136934 262.719522 
L 257.057635 263.213738 
L 257.978337 263.513462 
L 258.899038 263.594024 
L 260.740441 263.391691 
L 261.661142 263.176741 
L 262.581844 263.131757 
L 263.502545 263.534143 
L 265.343948 265.194627 
L 266.264649 265.783548 
L 268.106052 266.329838 
L 269.026754 266.884697 
L 270.868156 268.717197 
L 271.788858 269.396307 
L 272.709559 269.762194 
L 273.630261 269.920115 
L 275.471663 269.942011 
L 277.313066 269.637982 
L 279.154469 269.020481 
L 280.995872 268.306805 
L 282.837275 267.887331 
L 283.757976 267.918288 
L 284.678677 268.078104 
L 287.440782 268.943219 
L 289.282184 269.589625 
L 292.96499 271.054704 
L 294.806393 271.198864 
L 296.647796 270.934834 
L 298.489198 270.410363 
L 300.330601 269.623753 
L 303.092705 268.42414 
L 306.775511 266.925912 
L 307.696212 266.813322 
L 309.537615 266.800519 
L 311.379018 266.478483 
L 313.220421 265.836251 
L 314.141122 265.686948 
L 315.061824 265.946449 
L 316.903226 267.300439 
L 317.823928 267.763815 
L 318.744629 267.967356 
L 320.586032 267.899062 
L 322.427435 267.558161 
L 325.189539 266.798428 
L 327.030942 266.634263 
L 327.951643 266.949605 
L 331.634449 269.374513 
L 333.475852 271.212612 
L 334.396553 271.859495 
L 336.237956 272.443695 
L 337.158657 272.976856 
L 339.00006 274.580846 
L 339.920762 275.136641 
L 342.682866 276.220457 
L 343.603567 276.793345 
L 344.524269 277.200132 
L 346.365671 277.477031 
L 350.048477 277.783903 
L 351.88988 277.710854 
L 353.731283 277.270271 
L 356.493387 276.269397 
L 359.255491 274.844608 
L 370.303908 268.545009 
L 371.224609 268.222594 
L 373.986713 267.815844 
L 375.828116 268.131147 
L 376.748818 268.569942 
L 378.59022 270.130316 
L 379.510922 270.631583 
L 381.352325 271.197299 
L 382.273026 271.444973 
L 384.114429 272.302076 
L 385.03513 272.514942 
L 388.717936 272.66987 
L 390.559339 272.332643 
L 392.400741 271.673998 
L 397.92495 269.170196 
L 400.687054 267.445547 
L 404.36986 265.042349 
L 405.290561 264.776975 
L 406.211263 264.799149 
L 408.973367 265.409841 
L 409.894068 265.473501 
L 410.81477 265.800803 
L 411.735471 266.545143 
L 412.656172 267.48338 
L 413.576874 268.257145 
L 414.497575 268.692067 
L 415.418277 268.930692 
L 416.338978 269.319599 
L 417.259679 270.072737 
L 419.101082 271.892569 
L 420.021784 272.399672 
L 421.863186 272.811889 
L 423.704589 273.161477 
L 424.625291 273.493692 
L 426.466693 274.714323 
L 428.308096 275.605082 
L 429.228798 275.884742 
L 430.149499 275.967868 
L 431.990902 275.826078 
L 434.753006 275.362085 
L 436.594409 274.837685 
L 438.435812 274.096757 
L 441.197916 272.677774 
L 443.96002 270.981217 
L 446.722124 269.30513 
L 449.484228 267.875053 
L 450.40493 267.688971 
L 451.325631 267.800999 
L 452.246333 268.232887 
L 454.087735 269.564342 
L 455.008437 270.101628 
L 455.929138 270.437694 
L 456.84984 270.584159 
L 457.770541 270.56523 
L 459.611944 270.22855 
L 461.453347 269.65358 
L 464.215451 268.369455 
L 466.056854 267.40242 
L 467.898257 266.685132 
L 469.739659 265.995874 
L 472.501764 264.678747 
L 475.263868 263.057317 
L 478.025972 261.376395 
L 478.946673 260.985117 
L 481.708778 260.457055 
L 483.55018 260.095878 
L 484.470882 260.15311 
L 485.391583 260.682299 
L 487.232986 262.346512 
L 490.915792 264.422569 
L 492.757194 266.125069 
L 493.677896 266.528991 
L 496.44 267.035784 
L 496.44 267.035784 
" clip-path="url(#pcf9e307ac5)" style="fill: none; stroke: #2ca02c; stroke-width: 1.5; stroke-linecap: square"/>
   </g>
   <g id="patch_9">
    <path d="M 37.01 328.48 
L 37.01 175.04 
" style="fill: none; stroke: #000000; stroke-width: 0.8; stroke-linejoin: miter; stroke-linecap: square"/>
   </g>
   <g id="patch_10">
    <path d="M 496.44 328.48 
L 496.44 175.04 
" style="fill: none; stroke: #000000; stroke-width: 0.8; stroke-linejoin: miter; stroke-linecap: square"/>
   </g>
   <g id="patch_11">
    <path d="M 37.01 328.48 
L 496.44 328.48 
" style="fill: none; stroke: #000000; stroke-width: 0.8; stroke-linejoin: miter; stroke-linecap: square"/>
   </g>
   <g id="patch_12">
    <path d="M 37.01 175.04 
L 496.44 175.04 
" style="fill: none; stroke: #000000; stroke-width: 0.8; stroke-linejoin: miter; stroke-linecap: square"/>
   </g>
   <g id="legend_2">
    <g id="patch_13">
     <path d="M 445.010781 210.653594 
L 491.54 210.653594 
Q 492.94 210.653594 492.94 209.253594 
L 492.94 179.94 
Q 492.94 178.54 491.54 178.54 
L 445.010781 178.54 
Q 443.610781 178.54 443.610781 179.94 
L 443.610781 209.253594 
Q 443.610781 210.653594 445.010781 210.653594 
z
" style="fill: #ffffff; opacity: 0.8; stroke: #cccccc; stroke-linejoin: miter"/>
    </g>
    <g id="line2d_37">
     <path d="M 446.410781 183.92125 
L 453.410781 183.92125 
L 460.410781 183.92125 
" style="fill: none; stroke: #1f77b4; stroke-width: 1.5; stroke-linecap: square"/>
    </g>
    <g id="text_29">
     <!-- Agent 1 -->
     <g transform="translate(466.010781 186.37125) scale(0.07 -0.07)">
      <use xlink:href="#ArialMT-41"/>
      <use xlink:href="#ArialMT-67" transform="translate(66.699219 0)"/>
      <use xlink:href="#ArialMT-65" transform="translate(122.314453 0)"/>
      <use xlink:href="#ArialMT-6e" transform="translate(177.929688 0)"/>
      <use xlink:href="#ArialMT-74" transform="translate(233.544922 0)"/>
      <use xlink:href="#ArialMT-20" transform="translate(261.328125 0)"/>
      <use xlink:href="#ArialMT-31" transform="translate(289.111328 0)"/>
     </g>
    </g>
    <g id="line2d_38">
     <path d="M 446.410781 193.925781 
L 453.410781 193.925781 
L 460.410781 193.925781 
" style="fill: none; stroke: #ff7f0e; stroke-width: 1.5; stroke-linecap: square"/>
    </g>
    <g id="text_30">
     <!-- Agent 2 -->
     <g transform="translate(466.010781 196.375781) scale(0.07 -0.07)">
      <use xlink:href="#ArialMT-41"/>
      <use xlink:href="#ArialMT-67" transform="translate(66.699219 0)"/>
      <use xlink:href="#ArialMT-65" transform="translate(122.314453 0)"/>
      <use xlink:href="#ArialMT-6e" transform="translate(177.929688 0)"/>
      <use xlink:href="#ArialMT-74" transform="translate(233.544922 0)"/>
      <use xlink:href="#ArialMT-20" transform="translate(261.328125 0)"/>
      <use xlink:href="#ArialMT-32" transform="translate(289.111328 0)"/>
     </g>
    </g>
    <g id="line2d_39">
     <path d="M 446.410781 203.930313 
L 453.410781 203.930313 
L 460.410781 203.930313 
" style="fill: none; stroke: #2ca02c; stroke-width: 1.5; stroke-linecap: square"/>
    </g>
    <g id="text_31">
     <!-- Agent 3 -->
     <g transform="translate(466.010781 206.380313) scale(0.07 -0.07)">
      <use xlink:href="#ArialMT-41"/>
      <use xlink:href="#ArialMT-67" transform="translate(66.699219 0)"/>
      <use xlink:href="#ArialMT-65" transform="translate(122.314453 0)"/>
      <use xlink:href="#ArialMT-6e" transform="translate(177.929688 0)"/>
      <use xlink:href="#ArialMT-74" transform="translate(233.544922 0)"/>
      <use xlink:href="#ArialMT-20" transform="translate(261.328125 0)"/>
      <use xlink:href="#ArialMT-33" transform="translate(289.111328 0)"/>
     </g>
    </g>
   </g>
  </g>
 </g>
 <defs>
  <clipPath id="p36291891fd">
   <rect x="37.01" y="10.08" width="459.43" height="153.44"/>
  </clipPath>
  <clipPath id="pcf9e307ac5">
   <rect x="37.01" y="175.04" width="459.43" height="153.44"/>
  </clipPath>
 </defs>
</svg>
