<?xml version="1.0" encoding="utf-8" standalone="no"?>
<!DOCTYPE svg PUBLIC "-//W3C//DTD SVG 1.1//EN"
  "http://www.w3.org/Graphics/SVG/1.1/DTD/svg11.dtd">
<svg xmlns:xlink="http://www.w3.org/1999/xlink" width="504pt" height="360pt" viewBox="0 0 504 360" xmlns="http://www.w3.org/2000/svg" version="1.1">
 <metadata>
  <rdf:RDF xmlns:dc="http://purl.org/dc/elements/1.1/" xmlns:cc="http://creativecommons.org/ns#" xmlns:rdf="http://www.w3.org/1999/02/22-rdf-syntax-ns#">
   <cc:Work>
    <dc:type rdf:resource="http://purl.org/dc/dcmitype/StillImage"/>
    <dc:date>2025-10-16T16:20:33.689829</dc:date>
    <dc:format>image/svg+xml</dc:format>
    <dc:creator>
     <cc:Agent>
      <dc:title>Matplotlib v3.10.7, https://matplotlib.org/</dc:title>
     </cc:Agent>
    </dc:creator>
   </cc:Work>
  </rdf:RDF>
 </metadata>
 <defs>
  <style type="text/css">*{stroke-linejoin: round; stroke-linecap: butt}</style>
 </defs>
 <g id="figure_1">
  <g id="patch_1">
   <path d="M 0 360 
L 504 360 
L 504 0 
L 0 0 
z
" style="fill: #ffffff"/>
  </g>
  <g id="axes_1">
   <g id="patch_2">
    <path d="M 37.01 163.52 
L 496.44 163.52 
L 496.44 10.08 
L 37.01 10.08 
z
" style="fill: #ffffff"/>
   </g>
   <g id="matplotlib.axis_1">
    <g id="xtick_1">
     <g id="line2d_1">
      <defs>
       <path id="m864cd7e8ee" d="M 0 0 
L 0 3.5 
" style="stroke: #000000; stroke-width: 0.8"/>
      </defs>
      <g>
       <use xlink:href="#m864cd7e8ee" x="37.01" y="163.52" style="stroke: #000000; stroke-width: 0.8"/>
      </g>
     </g>
    </g>
    <g id="xtick_2">
     <g id="line2d_2">
      <g>
       <use xlink:href="#m864cd7e8ee" x="95.911282" y="163.52" style="stroke: #000000; stroke-width: 0.8"/>
      </g>
     </g>
    </g>
    <g id="xtick_3">
     <g id="line2d_3">
      <g>
       <use xlink:href="#m864cd7e8ee" x="154.812564" y="163.52" style="stroke: #000000; stroke-width: 0.8"/>
      </g>
     </g>
    </g>
    <g id="xtick_4">
     <g id="line2d_4">
      <g>
       <use xlink:href="#m864cd7e8ee" x="213.713846" y="163.52" style="stroke: #000000; stroke-width: 0.8"/>
      </g>
     </g>
    </g>
    <g id="xtick_5">
     <g id="line2d_5">
      <g>
       <use xlink:href="#m864cd7e8ee" x="272.615128" y="163.52" style="stroke: #000000; stroke-width: 0.8"/>
      </g>
     </g>
    </g>
    <g id="xtick_6">
     <g id="line2d_6">
      <g>
       <use xlink:href="#m864cd7e8ee" x="331.51641" y="163.52" style="stroke: #000000; stroke-width: 0.8"/>
      </g>
     </g>
    </g>
    <g id="xtick_7">
     <g id="line2d_7">
      <g>
       <use xlink:href="#m864cd7e8ee" x="390.417692" y="163.52" style="stroke: #000000; stroke-width: 0.8"/>
      </g>
     </g>
    </g>
    <g id="xtick_8">
     <g id="line2d_8">
      <g>
       <use xlink:href="#m864cd7e8ee" x="449.318974" y="163.52" style="stroke: #000000; stroke-width: 0.8"/>
      </g>
     </g>
    </g>
   </g>
   <g id="matplotlib.axis_2">
    <g id="ytick_1">
     <g id="line2d_9">
      <defs>
       <path id="m1a85d3b34f" d="M 0 0 
L -3.5 0 
" style="stroke: #000000; stroke-width: 0.8"/>
      </defs>
      <g>
       <use xlink:href="#m1a85d3b34f" x="37.01" y="163.52" style="stroke: #000000; stroke-width: 0.8"/>
      </g>
     </g>
     <g id="text_1">
      <!-- 0.0 -->
      <g transform="translate(21.67 165.667344) scale(0.06 -0.06)">
       <defs>
        <path id="ArialMT-30" d="M 266 2259 
Q 266 3072 433 3567 
Q 600 4063 929 4331 
Q 1259 4600 1759 4600 
Q 2128 4600 2406 4451 
Q 2684 4303 2865 4023 
Q 3047 3744 3150 3342 
Q 3253 2941 3253 2259 
Q 3253 1453 3087 958 
Q 2922 463 2592 192 
Q 2263 -78 1759 -78 
Q 1097 -78 719 397 
Q 266 969 266 2259 
z
M 844 2259 
Q 844 1131 1108 757 
Q 1372 384 1759 384 
Q 2147 384 2411 759 
Q 2675 1134 2675 2259 
Q 2675 3391 2411 3762 
Q 2147 4134 1753 4134 
Q 1366 4134 1134 3806 
Q 844 3388 844 2259 
z
" transform="scale(0.015625)"/>
        <path id="ArialMT-2e" d="M 581 0 
L 581 641 
L 1222 641 
L 1222 0 
L 581 0 
z
" transform="scale(0.015625)"/>
       </defs>
       <use xlink:href="#ArialMT-30"/>
       <use xlink:href="#ArialMT-2e" transform="translate(55.615234 0)"/>
       <use xlink:href="#ArialMT-30" transform="translate(83.398438 0)"/>
      </g>
     </g>
    </g>
    <g id="ytick_2">
     <g id="line2d_10">
      <g>
       <use xlink:href="#m1a85d3b34f" x="37.01" y="144.34" style="stroke: #000000; stroke-width: 0.8"/>
      </g>
     </g>
     <g id="text_2">
      <!-- 0.5 -->
      <g transform="translate(21.67 146.487344) scale(0.06 -0.06)">
       <defs>
        <path id="ArialMT-35" d="M 266 1200 
L 856 1250 
Q 922 819 1161 601 
Q 1400 384 1738 384 
Q 2144 384 2425 690 
Q 2706 997 2706 1503 
Q 2706 1984 2436 2262 
Q 2166 2541 1728 2541 
Q 1456 2541 1237 2417 
Q 1019 2294 894 2097 
L 366 2166 
L 809 4519 
L 3088 4519 
L 3088 3981 
L 1259 3981 
L 1013 2750 
Q 1425 3038 1878 3038 
Q 2478 3038 2890 2622 
Q 3303 2206 3303 1553 
Q 3303 931 2941 478 
Q 2500 -78 1738 -78 
Q 1113 -78 717 272 
Q 322 622 266 1200 
z
" transform="scale(0.015625)"/>
       </defs>
       <use xlink:href="#ArialMT-30"/>
       <use xlink:href="#ArialMT-2e" transform="translate(55.615234 0)"/>
       <use xlink:href="#ArialMT-35" transform="translate(83.398438 0)"/>
      </g>
     </g>
    </g>
    <g id="ytick_3">
     <g id="line2d_11">
      <g>
       <use xlink:href="#m1a85d3b34f" x="37.01" y="125.16" style="stroke: #000000; stroke-width: 0.8"/>
      </g>
     </g>
     <g id="text_3">
      <!-- 1.0 -->
      <g transform="translate(21.67 127.307344) scale(0.06 -0.06)">
       <defs>
        <path id="ArialMT-31" d="M 2384 0 
L 1822 0 
L 1822 3584 
Q 1619 3391 1289 3197 
Q 959 3003 697 2906 
L 697 3450 
Q 1169 3672 1522 3987 
Q 1875 4303 2022 4600 
L 2384 4600 
L 2384 0 
z
" transform="scale(0.015625)"/>
       </defs>
       <use xlink:href="#ArialMT-31"/>
       <use xlink:href="#ArialMT-2e" transform="translate(55.615234 0)"/>
       <use xlink:href="#ArialMT-30" transform="translate(83.398438 0)"/>
      </g>
     </g>
    </g>
    <g id="ytick_4">
     <g id="line2d_12">
      <g>
       <use xlink:href="#m1a85d3b34f" x="37.01" y="105.98" style="stroke: #000000; stroke-width: 0.8"/>
      </g>
     </g>
     <g id="text_4">
      <!-- 1.5 -->
      <g transform="translate(21.67 108.127344) scale(0.06 -0.06)">
       <use xlink:href="#ArialMT-31"/>
       <use xlink:href="#ArialMT-2e" transform="translate(55.615234 0)"/>
       <use xlink:href="#ArialMT-35" transform="translate(83.398438 0)"/>
      </g>
     </g>
    </g>
    <g id="ytick_5">
     <g id="line2d_13">
      <g>
       <use xlink:href="#m1a85d3b34f" x="37.01" y="86.8" style="stroke: #000000; stroke-width: 0.8"/>
      </g>
     </g>
     <g id="text_5">
      <!-- 2.0 -->
      <g transform="translate(21.67 88.947344) scale(0.06 -0.06)">
       <defs>
        <path id="ArialMT-32" d="M 3222 541 
L 3222 0 
L 194 0 
Q 188 203 259 391 
Q 375 700 629 1000 
Q 884 1300 1366 1694 
Q 2113 2306 2375 2664 
Q 2638 3022 2638 3341 
Q 2638 3675 2398 3904 
Q 2159 4134 1775 4134 
Q 1369 4134 1125 3890 
Q 881 3647 878 3216 
L 300 3275 
Q 359 3922 746 4261 
Q 1134 4600 1788 4600 
Q 2447 4600 2831 4234 
Q 3216 3869 3216 3328 
Q 3216 3053 3103 2787 
Q 2991 2522 2730 2228 
Q 2469 1934 1863 1422 
Q 1356 997 1212 845 
Q 1069 694 975 541 
L 3222 541 
z
" transform="scale(0.015625)"/>
       </defs>
       <use xlink:href="#ArialMT-32"/>
       <use xlink:href="#ArialMT-2e" transform="translate(55.615234 0)"/>
       <use xlink:href="#ArialMT-30" transform="translate(83.398438 0)"/>
      </g>
     </g>
    </g>
    <g id="ytick_6">
     <g id="line2d_14">
      <g>
       <use xlink:href="#m1a85d3b34f" x="37.01" y="67.62" style="stroke: #000000; stroke-width: 0.8"/>
      </g>
     </g>
     <g id="text_6">
      <!-- 2.5 -->
      <g transform="translate(21.67 69.767344) scale(0.06 -0.06)">
       <use xlink:href="#ArialMT-32"/>
       <use xlink:href="#ArialMT-2e" transform="translate(55.615234 0)"/>
       <use xlink:href="#ArialMT-35" transform="translate(83.398438 0)"/>
      </g>
     </g>
    </g>
    <g id="ytick_7">
     <g id="line2d_15">
      <g>
       <use xlink:href="#m1a85d3b34f" x="37.01" y="48.44" style="stroke: #000000; stroke-width: 0.8"/>
      </g>
     </g>
     <g id="text_7">
      <!-- 3.0 -->
      <g transform="translate(21.67 50.587344) scale(0.06 -0.06)">
       <defs>
        <path id="ArialMT-33" d="M 269 1209 
L 831 1284 
Q 928 806 1161 595 
Q 1394 384 1728 384 
Q 2125 384 2398 659 
Q 2672 934 2672 1341 
Q 2672 1728 2419 1979 
Q 2166 2231 1775 2231 
Q 1616 2231 1378 2169 
L 1441 2663 
Q 1497 2656 1531 2656 
Q 1891 2656 2178 2843 
Q 2466 3031 2466 3422 
Q 2466 3731 2256 3934 
Q 2047 4138 1716 4138 
Q 1388 4138 1169 3931 
Q 950 3725 888 3313 
L 325 3413 
Q 428 3978 793 4289 
Q 1159 4600 1703 4600 
Q 2078 4600 2393 4439 
Q 2709 4278 2876 4000 
Q 3044 3722 3044 3409 
Q 3044 3113 2884 2869 
Q 2725 2625 2413 2481 
Q 2819 2388 3044 2092 
Q 3269 1797 3269 1353 
Q 3269 753 2831 336 
Q 2394 -81 1725 -81 
Q 1122 -81 723 278 
Q 325 638 269 1209 
z
" transform="scale(0.015625)"/>
       </defs>
       <use xlink:href="#ArialMT-33"/>
       <use xlink:href="#ArialMT-2e" transform="translate(55.615234 0)"/>
       <use xlink:href="#ArialMT-30" transform="translate(83.398438 0)"/>
      </g>
     </g>
    </g>
    <g id="ytick_8">
     <g id="line2d_16">
      <g>
       <use xlink:href="#m1a85d3b34f" x="37.01" y="29.26" style="stroke: #000000; stroke-width: 0.8"/>
      </g>
     </g>
     <g id="text_8">
      <!-- 3.5 -->
      <g transform="translate(21.67 31.407344) scale(0.06 -0.06)">
       <use xlink:href="#ArialMT-33"/>
       <use xlink:href="#ArialMT-2e" transform="translate(55.615234 0)"/>
       <use xlink:href="#ArialMT-35" transform="translate(83.398438 0)"/>
      </g>
     </g>
    </g>
    <g id="ytick_9">
     <g id="line2d_17">
      <g>
       <use xlink:href="#m1a85d3b34f" x="37.01" y="10.08" style="stroke: #000000; stroke-width: 0.8"/>
      </g>
     </g>
     <g id="text_9">
      <!-- 4.0 -->
      <g transform="translate(21.67 12.227344) scale(0.06 -0.06)">
       <defs>
        <path id="ArialMT-34" d="M 2069 0 
L 2069 1097 
L 81 1097 
L 81 1613 
L 2172 4581 
L 2631 4581 
L 2631 1613 
L 3250 1613 
L 3250 1097 
L 2631 1097 
L 2631 0 
L 2069 0 
z
M 2069 1613 
L 2069 3678 
L 634 1613 
L 2069 1613 
z
" transform="scale(0.015625)"/>
       </defs>
       <use xlink:href="#ArialMT-34"/>
       <use xlink:href="#ArialMT-2e" transform="translate(55.615234 0)"/>
       <use xlink:href="#ArialMT-30" transform="translate(83.398438 0)"/>
      </g>
     </g>
    </g>
    <g id="text_10">
     <!-- Spacing d/$\lambda_0$ -->
     <g transform="translate(16.13 107.1) rotate(-90) scale(0.07 -0.07)">
      <defs>
       <path id="ArialMT-53" d="M 288 1472 
L 859 1522 
Q 900 1178 1048 958 
Q 1197 738 1509 602 
Q 1822 466 2213 466 
Q 2559 466 2825 569 
Q 3091 672 3220 851 
Q 3350 1031 3350 1244 
Q 3350 1459 3225 1620 
Q 3100 1781 2813 1891 
Q 2628 1963 1997 2114 
Q 1366 2266 1113 2400 
Q 784 2572 623 2826 
Q 463 3081 463 3397 
Q 463 3744 659 4045 
Q 856 4347 1234 4503 
Q 1613 4659 2075 4659 
Q 2584 4659 2973 4495 
Q 3363 4331 3572 4012 
Q 3781 3694 3797 3291 
L 3216 3247 
Q 3169 3681 2898 3903 
Q 2628 4125 2100 4125 
Q 1550 4125 1298 3923 
Q 1047 3722 1047 3438 
Q 1047 3191 1225 3031 
Q 1400 2872 2139 2705 
Q 2878 2538 3153 2413 
Q 3553 2228 3743 1945 
Q 3934 1663 3934 1294 
Q 3934 928 3725 604 
Q 3516 281 3123 101 
Q 2731 -78 2241 -78 
Q 1619 -78 1198 103 
Q 778 284 539 648 
Q 300 1013 288 1472 
z
" transform="scale(0.015625)"/>
       <path id="ArialMT-70" d="M 422 -1272 
L 422 3319 
L 934 3319 
L 934 2888 
Q 1116 3141 1344 3267 
Q 1572 3394 1897 3394 
Q 2322 3394 2647 3175 
Q 2972 2956 3137 2557 
Q 3303 2159 3303 1684 
Q 3303 1175 3120 767 
Q 2938 359 2589 142 
Q 2241 -75 1856 -75 
Q 1575 -75 1351 44 
Q 1128 163 984 344 
L 984 -1272 
L 422 -1272 
z
M 931 1641 
Q 931 1000 1190 694 
Q 1450 388 1819 388 
Q 2194 388 2461 705 
Q 2728 1022 2728 1688 
Q 2728 2322 2467 2637 
Q 2206 2953 1844 2953 
Q 1484 2953 1207 2617 
Q 931 2281 931 1641 
z
" transform="scale(0.015625)"/>
       <path id="ArialMT-61" d="M 2588 409 
Q 2275 144 1986 34 
Q 1697 -75 1366 -75 
Q 819 -75 525 192 
Q 231 459 231 875 
Q 231 1119 342 1320 
Q 453 1522 633 1644 
Q 813 1766 1038 1828 
Q 1203 1872 1538 1913 
Q 2219 1994 2541 2106 
Q 2544 2222 2544 2253 
Q 2544 2597 2384 2738 
Q 2169 2928 1744 2928 
Q 1347 2928 1158 2789 
Q 969 2650 878 2297 
L 328 2372 
Q 403 2725 575 2942 
Q 747 3159 1072 3276 
Q 1397 3394 1825 3394 
Q 2250 3394 2515 3294 
Q 2781 3194 2906 3042 
Q 3031 2891 3081 2659 
Q 3109 2516 3109 2141 
L 3109 1391 
Q 3109 606 3145 398 
Q 3181 191 3288 0 
L 2700 0 
Q 2613 175 2588 409 
z
M 2541 1666 
Q 2234 1541 1622 1453 
Q 1275 1403 1131 1340 
Q 988 1278 909 1158 
Q 831 1038 831 891 
Q 831 666 1001 516 
Q 1172 366 1500 366 
Q 1825 366 2078 508 
Q 2331 650 2450 897 
Q 2541 1088 2541 1459 
L 2541 1666 
z
" transform="scale(0.015625)"/>
       <path id="ArialMT-63" d="M 2588 1216 
L 3141 1144 
Q 3050 572 2676 248 
Q 2303 -75 1759 -75 
Q 1078 -75 664 370 
Q 250 816 250 1647 
Q 250 2184 428 2587 
Q 606 2991 970 3192 
Q 1334 3394 1763 3394 
Q 2303 3394 2647 3120 
Q 2991 2847 3088 2344 
L 2541 2259 
Q 2463 2594 2264 2762 
Q 2066 2931 1784 2931 
Q 1359 2931 1093 2626 
Q 828 2322 828 1663 
Q 828 994 1084 691 
Q 1341 388 1753 388 
Q 2084 388 2306 591 
Q 2528 794 2588 1216 
z
" transform="scale(0.015625)"/>
       <path id="ArialMT-69" d="M 425 3934 
L 425 4581 
L 988 4581 
L 988 3934 
L 425 3934 
z
M 425 0 
L 425 3319 
L 988 3319 
L 988 0 
L 425 0 
z
" transform="scale(0.015625)"/>
       <path id="ArialMT-6e" d="M 422 0 
L 422 3319 
L 928 3319 
L 928 2847 
Q 1294 3394 1984 3394 
Q 2284 3394 2536 3286 
Q 2788 3178 2913 3003 
Q 3038 2828 3088 2588 
Q 3119 2431 3119 2041 
L 3119 0 
L 2556 0 
L 2556 2019 
Q 2556 2363 2490 2533 
Q 2425 2703 2258 2804 
Q 2091 2906 1866 2906 
Q 1506 2906 1245 2678 
Q 984 2450 984 1813 
L 984 0 
L 422 0 
z
" transform="scale(0.015625)"/>
       <path id="ArialMT-67" d="M 319 -275 
L 866 -356 
Q 900 -609 1056 -725 
Q 1266 -881 1628 -881 
Q 2019 -881 2231 -725 
Q 2444 -569 2519 -288 
Q 2563 -116 2559 434 
Q 2191 0 1641 0 
Q 956 0 581 494 
Q 206 988 206 1678 
Q 206 2153 378 2554 
Q 550 2956 876 3175 
Q 1203 3394 1644 3394 
Q 2231 3394 2613 2919 
L 2613 3319 
L 3131 3319 
L 3131 450 
Q 3131 -325 2973 -648 
Q 2816 -972 2473 -1159 
Q 2131 -1347 1631 -1347 
Q 1038 -1347 672 -1080 
Q 306 -813 319 -275 
z
M 784 1719 
Q 784 1066 1043 766 
Q 1303 466 1694 466 
Q 2081 466 2343 764 
Q 2606 1063 2606 1700 
Q 2606 2309 2336 2618 
Q 2066 2928 1684 2928 
Q 1309 2928 1046 2623 
Q 784 2319 784 1719 
z
" transform="scale(0.015625)"/>
       <path id="ArialMT-20" transform="scale(0.015625)"/>
       <path id="ArialMT-64" d="M 2575 0 
L 2575 419 
Q 2259 -75 1647 -75 
Q 1250 -75 917 144 
Q 584 363 401 755 
Q 219 1147 219 1656 
Q 219 2153 384 2558 
Q 550 2963 881 3178 
Q 1213 3394 1622 3394 
Q 1922 3394 2156 3267 
Q 2391 3141 2538 2938 
L 2538 4581 
L 3097 4581 
L 3097 0 
L 2575 0 
z
M 797 1656 
Q 797 1019 1065 703 
Q 1334 388 1700 388 
Q 2069 388 2326 689 
Q 2584 991 2584 1609 
Q 2584 2291 2321 2609 
Q 2059 2928 1675 2928 
Q 1300 2928 1048 2622 
Q 797 2316 797 1656 
z
" transform="scale(0.015625)"/>
       <path id="ArialMT-2f" d="M 0 -78 
L 1328 4659 
L 1778 4659 
L 453 -78 
L 0 -78 
z
" transform="scale(0.015625)"/>
       <path id="DejaVuSans-Oblique-3bb" d="M 2350 4316 
L 3125 0 
L 2516 0 
L 2038 2588 
L 328 0 
L -281 0 
L 1903 3356 
L 1794 3975 
Q 1725 4369 1391 4369 
L 1091 4369 
L 1184 4863 
L 1550 4856 
Q 2253 4847 2350 4316 
z
" transform="scale(0.015625)"/>
       <path id="DejaVuSans-30" d="M 2034 4250 
Q 1547 4250 1301 3770 
Q 1056 3291 1056 2328 
Q 1056 1369 1301 889 
Q 1547 409 2034 409 
Q 2525 409 2770 889 
Q 3016 1369 3016 2328 
Q 3016 3291 2770 3770 
Q 2525 4250 2034 4250 
z
M 2034 4750 
Q 2819 4750 3233 4129 
Q 3647 3509 3647 2328 
Q 3647 1150 3233 529 
Q 2819 -91 2034 -91 
Q 1250 -91 836 529 
Q 422 1150 422 2328 
Q 422 3509 836 4129 
Q 1250 4750 2034 4750 
z
" transform="scale(0.015625)"/>
      </defs>
      <use xlink:href="#ArialMT-53" transform="translate(0 0.015625)"/>
      <use xlink:href="#ArialMT-70" transform="translate(66.699219 0.015625)"/>
      <use xlink:href="#ArialMT-61" transform="translate(122.314453 0.015625)"/>
      <use xlink:href="#ArialMT-63" transform="translate(177.929688 0.015625)"/>
      <use xlink:href="#ArialMT-69" transform="translate(227.929688 0.015625)"/>
      <use xlink:href="#ArialMT-6e" transform="translate(250.146484 0.015625)"/>
      <use xlink:href="#ArialMT-67" transform="translate(305.761719 0.015625)"/>
      <use xlink:href="#ArialMT-20" transform="translate(361.376953 0.015625)"/>
      <use xlink:href="#ArialMT-64" transform="translate(389.160156 0.015625)"/>
      <use xlink:href="#ArialMT-2f" transform="translate(444.775391 0.015625)"/>
      <use xlink:href="#DejaVuSans-Oblique-3bb" transform="translate(472.558594 0.015625)"/>
      <use xlink:href="#DejaVuSans-30" transform="translate(531.738281 -16.390625) scale(0.7)"/>
     </g>
    </g>
   </g>
   <g id="line2d_18">
    <path d="M 37.01 84.88519 
L 39.366051 85.48584 
L 44.078154 85.442274 
L 46.434205 86.066642 
L 48.790256 87.032616 
L 51.146308 87.497245 
L 53.502359 87.462776 
L 55.85841 87.756377 
L 60.570513 89.513073 
L 62.926564 89.684764 
L 65.282615 89.701344 
L 67.638667 90.320616 
L 69.994718 91.303903 
L 72.350769 91.817497 
L 74.706821 91.791252 
L 77.062872 92.020724 
L 81.774974 93.709271 
L 84.131026 93.891855 
L 86.487077 93.859604 
L 88.843128 94.390182 
L 91.199179 95.33098 
L 93.555231 95.856127 
L 95.911282 95.817497 
L 98.267333 95.971456 
L 102.979436 97.585481 
L 105.335487 97.784465 
L 107.691538 97.713438 
L 110.04759 98.166206 
L 112.403641 99.075306 
L 114.759692 99.624033 
L 117.115744 99.58792 
L 119.471795 99.682249 
L 124.183897 101.247558 
L 126.539949 101.476682 
L 128.896 101.382921 
L 131.252051 101.771939 
L 133.608103 102.659939 
L 135.964154 103.242686 
L 140.676256 103.270939 
L 143.032308 103.961071 
L 145.388359 104.803812 
L 147.74441 105.07221 
L 150.100462 104.967852 
L 152.456513 105.302472 
L 154.812564 106.173914 
L 157.168615 106.795343 
L 161.880718 106.811888 
L 164.236769 107.458942 
L 166.592821 108.317884 
L 168.948872 108.629851 
L 171.304923 108.523137 
L 173.660974 108.808943 
L 176.017026 109.663935 
L 178.373077 110.324311 
L 183.085179 110.340845 
L 185.441231 110.946137 
L 187.797282 111.819218 
L 190.153333 112.175817 
L 192.509385 112.07246 
L 194.865436 112.31317 
L 197.221487 113.14976 
L 199.577538 113.846914 
L 204.289641 113.871395 
L 206.645692 114.435238 
L 209.001744 115.318999 
L 211.357795 115.719508 
L 213.713846 115.623782 
L 216.069897 115.822564 
L 220.782 117.369071 
L 223.138051 117.469608 
L 225.494103 117.407487 
L 227.850154 117.930267 
L 230.206205 118.821002 
L 232.562256 119.263781 
L 234.918308 119.179089 
L 237.274359 119.339153 
L 241.986462 120.892829 
L 244.342513 121.027913 
L 246.698564 120.949971 
L 249.054615 121.43257 
L 251.410667 122.326842 
L 253.766718 122.809719 
L 256.122769 122.738791 
L 258.478821 122.863555 
L 263.190923 124.419407 
L 265.546974 124.588949 
L 267.903026 124.499079 
L 270.259077 124.942963 
L 272.615128 125.837794 
L 274.971179 126.358222 
L 277.327231 126.303138 
L 279.683282 126.396191 
L 284.395385 127.950032 
L 286.751436 128.153304 
L 289.107487 128.055042 
L 291.463538 128.46224 
L 293.81959 129.355189 
L 296.175641 129.91032 
L 300.887744 129.937515 
L 305.599846 131.486055 
L 307.955897 131.721711 
L 310.311949 131.618165 
L 312.668 131.991227 
L 315.024051 132.880444 
L 317.380103 133.46718 
L 322.092205 133.488017 
L 324.448256 134.181991 
L 326.804308 135.028937 
L 329.160359 135.295038 
L 331.51641 135.18883 
L 333.872462 135.530785 
L 336.228513 136.41506 
L 338.584564 137.030105 
L 343.296667 137.048243 
L 345.652718 137.719237 
L 348.008769 138.580259 
L 350.364821 138.874293 
L 352.720872 138.767515 
L 355.076923 139.081841 
L 357.432974 139.96064 
L 359.789026 140.600536 
L 364.501128 140.618828 
L 366.857179 141.269024 
L 369.213231 142.141735 
L 371.569282 142.460632 
L 373.925333 142.354822 
L 376.281385 142.645425 
L 378.637436 143.518927 
L 380.993487 144.180066 
L 385.70559 144.200531 
L 388.061641 144.832876 
L 390.417692 145.715237 
L 392.773744 146.055371 
L 395.129795 145.951501 
L 397.485846 146.222725 
L 399.841897 147.091836 
L 402.197949 147.770451 
L 406.910051 147.794287 
L 409.266103 148.412521 
L 411.622154 149.302826 
L 413.978205 149.659993 
L 416.334256 149.558495 
L 418.690308 149.815151 
L 421.046359 150.681515 
L 423.40241 151.373631 
L 428.114513 151.401265 
L 430.470564 152.009962 
L 432.826615 152.906787 
L 435.182667 153.276167 
L 437.538718 153.176972 
L 439.894769 153.424423 
L 442.250821 154.290411 
L 444.606872 154.991752 
L 449.318974 155.022949 
L 451.675026 155.627581 
L 454.031077 156.529682 
L 456.387128 156.905763 
L 458.743179 156.808401 
L 461.099231 157.052689 
L 463.455282 157.921363 
L 465.811333 158.62719 
L 470.523436 158.661257 
L 472.879487 159.268278 
L 475.235538 160.174409 
L 477.59159 160.550882 
L 479.947641 160.45463 
L 482.303692 160.702697 
L 484.659744 161.577719 
L 487.015795 162.282594 
L 491.727897 162.318706 
L 494.083949 162.935658 
L 496.44 163.844282 
L 496.44 163.844282 
" clip-path="url(#p1ca8e3449d)" style="fill: none; stroke: #1f77b4; stroke-width: 1.5; stroke-linecap: square"/>
   </g>
   <g id="line2d_19">
    <path d="M 37.01 84.213861 
L 44.078154 83.959049 
L 51.146308 83.573058 
L 58.214462 83.129786 
L 62.926564 82.715749 
L 67.638667 82.404053 
L 74.706821 82.005213 
L 86.487077 81.136148 
L 93.555231 80.75257 
L 95.911282 80.617166 
L 100.623385 80.189495 
L 107.691538 79.824943 
L 112.403641 79.47618 
L 117.115744 79.237416 
L 121.827846 78.753038 
L 128.896 78.52923 
L 131.252051 78.240096 
L 135.964154 77.987982 
L 138.320205 77.893285 
L 143.032308 77.375467 
L 150.100462 77.24674 
L 152.456513 76.907628 
L 154.812564 76.710812 
L 159.524667 76.620504 
L 164.236769 76.091501 
L 171.304923 76.016952 
L 173.660974 75.648117 
L 176.017026 75.431436 
L 180.729128 75.460179 
L 185.441231 74.939324 
L 192.509385 74.901257 
L 194.865436 74.525286 
L 197.221487 74.297608 
L 201.93359 74.450034 
L 204.289641 74.278476 
L 206.645692 73.950638 
L 209.001744 73.873939 
L 211.357795 73.971042 
L 213.713846 73.952834 
L 216.069897 73.589831 
L 218.425949 73.352701 
L 223.138051 73.612465 
L 225.494103 73.496323 
L 227.850154 73.14103 
L 230.206205 73.032654 
L 234.918308 73.197623 
L 239.63041 72.611621 
L 244.342513 72.951587 
L 246.698564 72.886865 
L 249.054615 72.510342 
L 251.410667 72.373743 
L 256.122769 72.635179 
L 260.834872 72.065963 
L 263.190923 72.200885 
L 265.546974 72.458411 
L 267.903026 72.440586 
L 270.259077 72.048514 
L 272.615128 71.886531 
L 277.327231 72.249173 
L 282.039333 71.695267 
L 284.395385 71.818159 
L 286.751436 72.117421 
L 289.107487 72.143584 
L 291.463538 71.740929 
L 293.81959 71.554268 
L 298.531692 72.01716 
L 300.887744 71.803353 
L 303.243795 71.475759 
L 305.599846 71.575111 
L 307.955897 71.911118 
L 310.311949 71.980567 
L 312.668 71.571664 
L 315.024051 71.358742 
L 319.736154 71.916506 
L 322.092205 71.746689 
L 324.448256 71.38508 
L 326.804308 71.452936 
L 329.160359 71.822517 
L 331.51641 71.936527 
L 333.872462 71.525237 
L 336.228513 71.282748 
L 340.940615 71.927272 
L 343.296667 71.801553 
L 345.652718 71.404331 
L 348.008769 71.435312 
L 350.364821 71.83649 
L 352.720872 71.997761 
L 355.076923 71.587623 
L 357.432974 71.311314 
L 362.145077 72.033323 
L 364.501128 71.951915 
L 366.857179 71.518706 
L 369.213231 71.50909 
L 371.569282 71.940477 
L 373.925333 72.152552 
L 378.637436 71.432242 
L 380.993487 71.75675 
L 383.349538 72.222502 
L 385.70559 72.186026 
L 388.061641 71.717402 
L 390.417692 71.664446 
L 392.773744 72.1248 
L 395.129795 72.391547 
L 399.841897 71.636208 
L 402.197949 71.960508 
L 404.554 72.486312 
L 406.910051 72.495903 
L 409.266103 71.993141 
L 411.622154 71.894684 
L 413.978205 72.382662 
L 416.334256 72.707882 
L 421.046359 71.916598 
L 423.40241 72.234402 
L 425.758462 72.819386 
L 428.114513 72.876623 
L 430.470564 72.341529 
L 432.826615 72.195855 
L 435.182667 72.709959 
L 437.538718 73.097096 
L 442.250821 72.269205 
L 444.606872 72.575308 
L 446.962923 73.218899 
L 449.318974 73.325599 
L 451.675026 72.760347 
L 454.031077 72.566285 
L 458.743179 73.55696 
L 461.099231 73.195913 
L 463.455282 72.691888 
L 465.811333 72.982172 
L 468.167385 73.684006 
L 470.523436 73.841883 
L 472.879487 73.248873 
L 475.235538 73.006095 
L 479.947641 74.087264 
L 482.303692 73.741545 
L 484.659744 73.184264 
L 487.015795 73.455598 
L 489.371846 74.215329 
L 491.727897 74.425512 
L 494.083949 73.8072 
L 496.44 73.51671 
L 496.44 73.51671 
" clip-path="url(#p1ca8e3449d)" style="fill: none; stroke: #ff7f0e; stroke-width: 1.5; stroke-linecap: square"/>
   </g>
   <g id="line2d_20">
    <path d="M 37.01 84.211338 
L 53.502359 84.177145 
L 72.350769 83.55319 
L 93.555231 83.061997 
L 100.623385 82.893483 
L 110.04759 82.972068 
L 117.115744 82.701595 
L 128.896 82.591494 
L 143.032308 82.427725 
L 150.100462 82.205805 
L 159.524667 82.239475 
L 164.236769 82.271812 
L 171.304923 81.934885 
L 180.729128 81.997728 
L 185.441231 82.061159 
L 194.865436 81.697426 
L 206.645692 81.708115 
L 225.494103 81.193314 
L 230.206205 81.180491 
L 234.918308 80.990483 
L 239.63041 80.990492 
L 249.054615 80.61093 
L 253.766718 80.540382 
L 258.478821 80.495308 
L 260.834872 80.471422 
L 270.259077 79.921031 
L 274.971179 79.880672 
L 284.395385 79.591688 
L 289.107487 79.148785 
L 305.599846 78.58774 
L 310.311949 78.095287 
L 324.448256 77.431524 
L 333.872462 76.616311 
L 338.584564 76.281004 
L 350.364821 75.242554 
L 359.789026 74.474844 
L 366.857179 73.699118 
L 371.569282 73.343472 
L 378.637436 72.902033 
L 383.349538 72.239174 
L 390.417692 71.526466 
L 399.841897 71.036239 
L 404.554 70.399847 
L 411.622154 69.742555 
L 421.046359 69.307801 
L 425.758462 68.790108 
L 432.826615 68.25046 
L 442.250821 67.843716 
L 446.962923 67.486309 
L 458.743179 66.906195 
L 461.099231 66.885654 
L 465.811333 66.550436 
L 472.879487 66.388454 
L 477.59159 66.113812 
L 484.659744 65.896457 
L 487.015795 65.785211 
L 494.083949 65.757551 
L 496.44 65.601628 
L 496.44 65.601628 
" clip-path="url(#p1ca8e3449d)" style="fill: none; stroke: #2ca02c; stroke-width: 1.5; stroke-linecap: square"/>
   </g>
   <g id="line2d_21">
    <path d="M 37.01 84.211338 
L 88.843128 84.291319 
L 100.623385 84.436211 
L 107.691538 84.542716 
L 119.471795 85.04731 
L 140.676256 85.834913 
L 147.74441 86.256374 
L 152.456513 86.542679 
L 157.168615 86.703493 
L 161.880718 86.885066 
L 166.592821 87.385335 
L 178.373077 88.14341 
L 183.085179 88.403187 
L 187.797282 89.039079 
L 204.289641 90.436055 
L 206.645692 90.850552 
L 211.357795 91.339241 
L 213.713846 91.536732 
L 218.425949 92.168088 
L 223.138051 92.618866 
L 225.494103 92.893029 
L 227.850154 93.347347 
L 241.986462 94.870933 
L 251.410667 96.176125 
L 256.122769 96.62873 
L 258.478821 96.935581 
L 263.190923 97.304109 
L 270.259077 98.498831 
L 274.971179 98.746177 
L 279.683282 99.267114 
L 284.395385 99.466521 
L 289.107487 100.291164 
L 291.463538 100.665099 
L 293.81959 100.667521 
L 296.175641 100.789493 
L 300.887744 101.297855 
L 305.599846 101.392044 
L 310.311949 102.239628 
L 312.668 102.559059 
L 315.024051 102.513495 
L 317.380103 102.609637 
L 319.736154 102.944421 
L 322.092205 103.163447 
L 326.804308 103.223583 
L 331.51641 104.032033 
L 333.872462 104.282019 
L 336.228513 104.203239 
L 338.584564 104.308072 
L 340.940615 104.700439 
L 343.296667 104.963279 
L 348.008769 105.024291 
L 352.720872 105.689285 
L 355.076923 105.848318 
L 357.432974 105.734177 
L 359.789026 105.864095 
L 362.145077 106.316123 
L 364.501128 106.629648 
L 366.857179 106.746437 
L 369.213231 106.689412 
L 376.281385 107.198363 
L 378.637436 107.049771 
L 380.993487 107.196005 
L 383.349538 107.678268 
L 385.70559 108.020423 
L 388.061641 108.138524 
L 390.417692 108.060746 
L 397.485846 108.355101 
L 399.841897 108.190349 
L 402.197949 108.335869 
L 404.554 108.800379 
L 406.910051 109.134143 
L 409.266103 109.214526 
L 411.622154 109.146673 
L 418.690308 109.444334 
L 421.046359 109.289369 
L 423.40241 109.426586 
L 425.758462 109.827451 
L 428.114513 110.115504 
L 432.826615 110.119619 
L 437.538718 110.528677 
L 439.894769 110.586834 
L 442.250821 110.467204 
L 444.606872 110.606819 
L 449.318974 111.142735 
L 454.031077 111.192807 
L 458.743179 111.766579 
L 461.099231 111.887821 
L 463.455282 111.833686 
L 470.523436 112.40262 
L 472.879487 112.413927 
L 475.235538 112.588382 
L 477.59159 113.027904 
L 482.303692 113.50442 
L 484.659744 113.56199 
L 489.371846 114.018302 
L 494.083949 114.205068 
L 496.44 114.57479 
L 496.44 114.57479 
" clip-path="url(#p1ca8e3449d)" style="fill: none; stroke: #d62728; stroke-width: 1.5; stroke-linecap: square"/>
   </g>
   <g id="patch_3">
    <path d="M 37.01 163.52 
L 37.01 10.08 
" style="fill: none; stroke: #000000; stroke-width: 0.8; stroke-linejoin: miter; stroke-linecap: square"/>
   </g>
   <g id="patch_4">
    <path d="M 496.44 163.52 
L 496.44 10.08 
" style="fill: none; stroke: #000000; stroke-width: 0.8; stroke-linejoin: miter; stroke-linecap: square"/>
   </g>
   <g id="patch_5">
    <path d="M 37.01 163.52 
L 496.44 163.52 
" style="fill: none; stroke: #000000; stroke-width: 0.8; stroke-linejoin: miter; stroke-linecap: square"/>
   </g>
   <g id="patch_6">
    <path d="M 37.01 10.08 
L 496.44 10.08 
" style="fill: none; stroke: #000000; stroke-width: 0.8; stroke-linejoin: miter; stroke-linecap: square"/>
   </g>
   <g id="legend_1">
    <g id="patch_7">
     <path d="M 445.010781 55.677344 
L 491.54 55.677344 
Q 492.94 55.677344 492.94 54.277344 
L 492.94 14.98 
Q 492.94 13.58 491.54 13.58 
L 445.010781 13.58 
Q 443.610781 13.58 443.610781 14.98 
L 443.610781 54.277344 
Q 443.610781 55.677344 445.010781 55.677344 
z
" style="fill: #ffffff; opacity: 0.8; stroke: #cccccc; stroke-linejoin: miter"/>
    </g>
    <g id="line2d_22">
     <path d="M 446.410781 18.96125 
L 453.410781 18.96125 
L 460.410781 18.96125 
" style="fill: none; stroke: #1f77b4; stroke-width: 1.5; stroke-linecap: square"/>
    </g>
    <g id="text_11">
     <!-- Agent 1 -->
     <g transform="translate(466.010781 21.41125) scale(0.07 -0.07)">
      <defs>
       <path id="ArialMT-41" d="M -9 0 
L 1750 4581 
L 2403 4581 
L 4278 0 
L 3588 0 
L 3053 1388 
L 1138 1388 
L 634 0 
L -9 0 
z
M 1313 1881 
L 2866 1881 
L 2388 3150 
Q 2169 3728 2063 4100 
Q 1975 3659 1816 3225 
L 1313 1881 
z
" transform="scale(0.015625)"/>
       <path id="ArialMT-65" d="M 2694 1069 
L 3275 997 
Q 3138 488 2766 206 
Q 2394 -75 1816 -75 
Q 1088 -75 661 373 
Q 234 822 234 1631 
Q 234 2469 665 2931 
Q 1097 3394 1784 3394 
Q 2450 3394 2872 2941 
Q 3294 2488 3294 1666 
Q 3294 1616 3291 1516 
L 816 1516 
Q 847 969 1125 678 
Q 1403 388 1819 388 
Q 2128 388 2347 550 
Q 2566 713 2694 1069 
z
M 847 1978 
L 2700 1978 
Q 2663 2397 2488 2606 
Q 2219 2931 1791 2931 
Q 1403 2931 1139 2672 
Q 875 2413 847 1978 
z
" transform="scale(0.015625)"/>
       <path id="ArialMT-74" d="M 1650 503 
L 1731 6 
Q 1494 -44 1306 -44 
Q 1000 -44 831 53 
Q 663 150 594 308 
Q 525 466 525 972 
L 525 2881 
L 113 2881 
L 113 3319 
L 525 3319 
L 525 4141 
L 1084 4478 
L 1084 3319 
L 1650 3319 
L 1650 2881 
L 1084 2881 
L 1084 941 
Q 1084 700 1114 631 
Q 1144 563 1211 522 
Q 1278 481 1403 481 
Q 1497 481 1650 503 
z
" transform="scale(0.015625)"/>
      </defs>
      <use xlink:href="#ArialMT-41"/>
      <use xlink:href="#ArialMT-67" transform="translate(66.699219 0)"/>
      <use xlink:href="#ArialMT-65" transform="translate(122.314453 0)"/>
      <use xlink:href="#ArialMT-6e" transform="translate(177.929688 0)"/>
      <use xlink:href="#ArialMT-74" transform="translate(233.544922 0)"/>
      <use xlink:href="#ArialMT-20" transform="translate(261.328125 0)"/>
      <use xlink:href="#ArialMT-31" transform="translate(289.111328 0)"/>
     </g>
    </g>
    <g id="line2d_23">
     <path d="M 446.410781 28.965781 
L 453.410781 28.965781 
L 460.410781 28.965781 
" style="fill: none; stroke: #ff7f0e; stroke-width: 1.5; stroke-linecap: square"/>
    </g>
    <g id="text_12">
     <!-- Agent 2 -->
     <g transform="translate(466.010781 31.415781) scale(0.07 -0.07)">
      <use xlink:href="#ArialMT-41"/>
      <use xlink:href="#ArialMT-67" transform="translate(66.699219 0)"/>
      <use xlink:href="#ArialMT-65" transform="translate(122.314453 0)"/>
      <use xlink:href="#ArialMT-6e" transform="translate(177.929688 0)"/>
      <use xlink:href="#ArialMT-74" transform="translate(233.544922 0)"/>
      <use xlink:href="#ArialMT-20" transform="translate(261.328125 0)"/>
      <use xlink:href="#ArialMT-32" transform="translate(289.111328 0)"/>
     </g>
    </g>
    <g id="line2d_24">
     <path d="M 446.410781 38.970313 
L 453.410781 38.970313 
L 460.410781 38.970313 
" style="fill: none; stroke: #2ca02c; stroke-width: 1.5; stroke-linecap: square"/>
    </g>
    <g id="text_13">
     <!-- Agent 3 -->
     <g transform="translate(466.010781 41.420313) scale(0.07 -0.07)">
      <use xlink:href="#ArialMT-41"/>
      <use xlink:href="#ArialMT-67" transform="translate(66.699219 0)"/>
      <use xlink:href="#ArialMT-65" transform="translate(122.314453 0)"/>
      <use xlink:href="#ArialMT-6e" transform="translate(177.929688 0)"/>
      <use xlink:href="#ArialMT-74" transform="translate(233.544922 0)"/>
      <use xlink:href="#ArialMT-20" transform="translate(261.328125 0)"/>
      <use xlink:href="#ArialMT-33" transform="translate(289.111328 0)"/>
     </g>
    </g>
    <g id="line2d_25">
     <path d="M 446.410781 48.954063 
L 453.410781 48.954063 
L 460.410781 48.954063 
" style="fill: none; stroke: #d62728; stroke-width: 1.5; stroke-linecap: square"/>
    </g>
    <g id="text_14">
     <!-- Agent 4 -->
     <g transform="translate(466.010781 51.404063) scale(0.07 -0.07)">
      <use xlink:href="#ArialMT-41"/>
      <use xlink:href="#ArialMT-67" transform="translate(66.699219 0)"/>
      <use xlink:href="#ArialMT-65" transform="translate(122.314453 0)"/>
      <use xlink:href="#ArialMT-6e" transform="translate(177.929688 0)"/>
      <use xlink:href="#ArialMT-74" transform="translate(233.544922 0)"/>
      <use xlink:href="#ArialMT-20" transform="translate(261.328125 0)"/>
      <use xlink:href="#ArialMT-34" transform="translate(289.111328 0)"/>
     </g>
    </g>
   </g>
  </g>
  <g id="axes_2">
   <g id="patch_8">
    <path d="M 37.01 328.48 
L 496.44 328.48 
L 496.44 175.04 
L 37.01 175.04 
z
" style="fill: #ffffff"/>
   </g>
   <g id="matplotlib.axis_3">
    <g id="xtick_9">
     <g id="line2d_26">
      <g>
       <use xlink:href="#m864cd7e8ee" x="37.01" y="328.48" style="stroke: #000000; stroke-width: 0.8"/>
      </g>
     </g>
     <g id="text_15">
      <!-- 0 -->
      <g transform="translate(35.341719 339.774688) scale(0.06 -0.06)">
       <use xlink:href="#ArialMT-30"/>
      </g>
     </g>
    </g>
    <g id="xtick_10">
     <g id="line2d_27">
      <g>
       <use xlink:href="#m864cd7e8ee" x="95.911282" y="328.48" style="stroke: #000000; stroke-width: 0.8"/>
      </g>
     </g>
     <g id="text_16">
      <!-- 25 -->
      <g transform="translate(92.57472 339.774688) scale(0.06 -0.06)">
       <use xlink:href="#ArialMT-32"/>
       <use xlink:href="#ArialMT-35" transform="translate(55.615234 0)"/>
      </g>
     </g>
    </g>
    <g id="xtick_11">
     <g id="line2d_28">
      <g>
       <use xlink:href="#m864cd7e8ee" x="154.812564" y="328.48" style="stroke: #000000; stroke-width: 0.8"/>
      </g>
     </g>
     <g id="text_17">
      <!-- 50 -->
      <g transform="translate(151.476002 339.774688) scale(0.06 -0.06)">
       <use xlink:href="#ArialMT-35"/>
       <use xlink:href="#ArialMT-30" transform="translate(55.615234 0)"/>
      </g>
     </g>
    </g>
    <g id="xtick_12">
     <g id="line2d_29">
      <g>
       <use xlink:href="#m864cd7e8ee" x="213.713846" y="328.48" style="stroke: #000000; stroke-width: 0.8"/>
      </g>
     </g>
     <g id="text_18">
      <!-- 75 -->
      <g transform="translate(210.377284 339.774688) scale(0.06 -0.06)">
       <defs>
        <path id="ArialMT-37" d="M 303 3981 
L 303 4522 
L 3269 4522 
L 3269 4084 
Q 2831 3619 2401 2847 
Q 1972 2075 1738 1259 
Q 1569 684 1522 0 
L 944 0 
Q 953 541 1156 1306 
Q 1359 2072 1739 2783 
Q 2119 3494 2547 3981 
L 303 3981 
z
" transform="scale(0.015625)"/>
       </defs>
       <use xlink:href="#ArialMT-37"/>
       <use xlink:href="#ArialMT-35" transform="translate(55.615234 0)"/>
      </g>
     </g>
    </g>
    <g id="xtick_13">
     <g id="line2d_30">
      <g>
       <use xlink:href="#m864cd7e8ee" x="272.615128" y="328.48" style="stroke: #000000; stroke-width: 0.8"/>
      </g>
     </g>
     <g id="text_19">
      <!-- 100 -->
      <g transform="translate(267.610284 339.774688) scale(0.06 -0.06)">
       <use xlink:href="#ArialMT-31"/>
       <use xlink:href="#ArialMT-30" transform="translate(55.615234 0)"/>
       <use xlink:href="#ArialMT-30" transform="translate(111.230469 0)"/>
      </g>
     </g>
    </g>
    <g id="xtick_14">
     <g id="line2d_31">
      <g>
       <use xlink:href="#m864cd7e8ee" x="331.51641" y="328.48" style="stroke: #000000; stroke-width: 0.8"/>
      </g>
     </g>
     <g id="text_20">
      <!-- 125 -->
      <g transform="translate(326.511567 339.774688) scale(0.06 -0.06)">
       <use xlink:href="#ArialMT-31"/>
       <use xlink:href="#ArialMT-32" transform="translate(55.615234 0)"/>
       <use xlink:href="#ArialMT-35" transform="translate(111.230469 0)"/>
      </g>
     </g>
    </g>
    <g id="xtick_15">
     <g id="line2d_32">
      <g>
       <use xlink:href="#m864cd7e8ee" x="390.417692" y="328.48" style="stroke: #000000; stroke-width: 0.8"/>
      </g>
     </g>
     <g id="text_21">
      <!-- 150 -->
      <g transform="translate(385.412849 339.774688) scale(0.06 -0.06)">
       <use xlink:href="#ArialMT-31"/>
       <use xlink:href="#ArialMT-35" transform="translate(55.615234 0)"/>
       <use xlink:href="#ArialMT-30" transform="translate(111.230469 0)"/>
      </g>
     </g>
    </g>
    <g id="xtick_16">
     <g id="line2d_33">
      <g>
       <use xlink:href="#m864cd7e8ee" x="449.318974" y="328.48" style="stroke: #000000; stroke-width: 0.8"/>
      </g>
     </g>
     <g id="text_22">
      <!-- 175 -->
      <g transform="translate(444.314131 339.774688) scale(0.06 -0.06)">
       <use xlink:href="#ArialMT-31"/>
       <use xlink:href="#ArialMT-37" transform="translate(55.615234 0)"/>
       <use xlink:href="#ArialMT-35" transform="translate(111.230469 0)"/>
      </g>
     </g>
    </g>
    <g id="text_23">
     <!-- Timesteps (0.1 s) -->
     <g transform="translate(239.823672 350.062969) scale(0.07 -0.07)">
      <defs>
       <path id="ArialMT-54" d="M 1659 0 
L 1659 4041 
L 150 4041 
L 150 4581 
L 3781 4581 
L 3781 4041 
L 2266 4041 
L 2266 0 
L 1659 0 
z
" transform="scale(0.015625)"/>
       <path id="ArialMT-6d" d="M 422 0 
L 422 3319 
L 925 3319 
L 925 2853 
Q 1081 3097 1340 3245 
Q 1600 3394 1931 3394 
Q 2300 3394 2536 3241 
Q 2772 3088 2869 2813 
Q 3263 3394 3894 3394 
Q 4388 3394 4653 3120 
Q 4919 2847 4919 2278 
L 4919 0 
L 4359 0 
L 4359 2091 
Q 4359 2428 4304 2576 
Q 4250 2725 4106 2815 
Q 3963 2906 3769 2906 
Q 3419 2906 3187 2673 
Q 2956 2441 2956 1928 
L 2956 0 
L 2394 0 
L 2394 2156 
Q 2394 2531 2256 2718 
Q 2119 2906 1806 2906 
Q 1569 2906 1367 2781 
Q 1166 2656 1075 2415 
Q 984 2175 984 1722 
L 984 0 
L 422 0 
z
" transform="scale(0.015625)"/>
       <path id="ArialMT-73" d="M 197 991 
L 753 1078 
Q 800 744 1014 566 
Q 1228 388 1613 388 
Q 2000 388 2187 545 
Q 2375 703 2375 916 
Q 2375 1106 2209 1216 
Q 2094 1291 1634 1406 
Q 1016 1563 777 1677 
Q 538 1791 414 1992 
Q 291 2194 291 2438 
Q 291 2659 392 2848 
Q 494 3038 669 3163 
Q 800 3259 1026 3326 
Q 1253 3394 1513 3394 
Q 1903 3394 2198 3281 
Q 2494 3169 2634 2976 
Q 2775 2784 2828 2463 
L 2278 2388 
Q 2241 2644 2061 2787 
Q 1881 2931 1553 2931 
Q 1166 2931 1000 2803 
Q 834 2675 834 2503 
Q 834 2394 903 2306 
Q 972 2216 1119 2156 
Q 1203 2125 1616 2013 
Q 2213 1853 2448 1751 
Q 2684 1650 2818 1456 
Q 2953 1263 2953 975 
Q 2953 694 2789 445 
Q 2625 197 2315 61 
Q 2006 -75 1616 -75 
Q 969 -75 630 194 
Q 291 463 197 991 
z
" transform="scale(0.015625)"/>
       <path id="ArialMT-28" d="M 1497 -1347 
Q 1031 -759 709 28 
Q 388 816 388 1659 
Q 388 2403 628 3084 
Q 909 3875 1497 4659 
L 1900 4659 
Q 1522 4009 1400 3731 
Q 1209 3300 1100 2831 
Q 966 2247 966 1656 
Q 966 153 1900 -1347 
L 1497 -1347 
z
" transform="scale(0.015625)"/>
       <path id="ArialMT-29" d="M 791 -1347 
L 388 -1347 
Q 1322 153 1322 1656 
Q 1322 2244 1188 2822 
Q 1081 3291 891 3722 
Q 769 4003 388 4659 
L 791 4659 
Q 1378 3875 1659 3084 
Q 1900 2403 1900 1659 
Q 1900 816 1576 28 
Q 1253 -759 791 -1347 
z
" transform="scale(0.015625)"/>
      </defs>
      <use xlink:href="#ArialMT-54"/>
      <use xlink:href="#ArialMT-69" transform="translate(57.333984 0)"/>
      <use xlink:href="#ArialMT-6d" transform="translate(79.550781 0)"/>
      <use xlink:href="#ArialMT-65" transform="translate(162.851562 0)"/>
      <use xlink:href="#ArialMT-73" transform="translate(218.466797 0)"/>
      <use xlink:href="#ArialMT-74" transform="translate(268.466797 0)"/>
      <use xlink:href="#ArialMT-65" transform="translate(296.25 0)"/>
      <use xlink:href="#ArialMT-70" transform="translate(351.865234 0)"/>
      <use xlink:href="#ArialMT-73" transform="translate(407.480469 0)"/>
      <use xlink:href="#ArialMT-20" transform="translate(457.480469 0)"/>
      <use xlink:href="#ArialMT-28" transform="translate(485.263672 0)"/>
      <use xlink:href="#ArialMT-30" transform="translate(518.564453 0)"/>
      <use xlink:href="#ArialMT-2e" transform="translate(574.179688 0)"/>
      <use xlink:href="#ArialMT-31" transform="translate(601.962891 0)"/>
      <use xlink:href="#ArialMT-20" transform="translate(657.578125 0)"/>
      <use xlink:href="#ArialMT-73" transform="translate(685.361328 0)"/>
      <use xlink:href="#ArialMT-29" transform="translate(735.361328 0)"/>
     </g>
    </g>
   </g>
   <g id="matplotlib.axis_4">
    <g id="ytick_10">
     <g id="line2d_34">
      <g>
       <use xlink:href="#m1a85d3b34f" x="37.01" y="328.48" style="stroke: #000000; stroke-width: 0.8"/>
      </g>
     </g>
     <g id="text_24">
      <!-- 0 -->
      <g transform="translate(26.673438 330.627344) scale(0.06 -0.06)">
       <use xlink:href="#ArialMT-30"/>
      </g>
     </g>
    </g>
    <g id="ytick_11">
     <g id="line2d_35">
      <g>
       <use xlink:href="#m1a85d3b34f" x="37.01" y="308.021333" style="stroke: #000000; stroke-width: 0.8"/>
      </g>
     </g>
     <g id="text_25">
      <!-- 2 -->
      <g transform="translate(26.673438 310.168677) scale(0.06 -0.06)">
       <use xlink:href="#ArialMT-32"/>
      </g>
     </g>
    </g>
    <g id="ytick_12">
     <g id="line2d_36">
      <g>
       <use xlink:href="#m1a85d3b34f" x="37.01" y="287.562667" style="stroke: #000000; stroke-width: 0.8"/>
      </g>
     </g>
     <g id="text_26">
      <!-- 4 -->
      <g transform="translate(26.673438 289.71001) scale(0.06 -0.06)">
       <use xlink:href="#ArialMT-34"/>
      </g>
     </g>
    </g>
    <g id="ytick_13">
     <g id="line2d_37">
      <g>
       <use xlink:href="#m1a85d3b34f" x="37.01" y="267.104" style="stroke: #000000; stroke-width: 0.8"/>
      </g>
     </g>
     <g id="text_27">
      <!-- 6 -->
      <g transform="translate(26.673438 269.251344) scale(0.06 -0.06)">
       <defs>
        <path id="ArialMT-36" d="M 3184 3459 
L 2625 3416 
Q 2550 3747 2413 3897 
Q 2184 4138 1850 4138 
Q 1581 4138 1378 3988 
Q 1113 3794 959 3422 
Q 806 3050 800 2363 
Q 1003 2672 1297 2822 
Q 1591 2972 1913 2972 
Q 2475 2972 2870 2558 
Q 3266 2144 3266 1488 
Q 3266 1056 3080 686 
Q 2894 316 2569 119 
Q 2244 -78 1831 -78 
Q 1128 -78 684 439 
Q 241 956 241 2144 
Q 241 3472 731 4075 
Q 1159 4600 1884 4600 
Q 2425 4600 2770 4297 
Q 3116 3994 3184 3459 
z
M 888 1484 
Q 888 1194 1011 928 
Q 1134 663 1356 523 
Q 1578 384 1822 384 
Q 2178 384 2434 671 
Q 2691 959 2691 1453 
Q 2691 1928 2437 2201 
Q 2184 2475 1800 2475 
Q 1419 2475 1153 2201 
Q 888 1928 888 1484 
z
" transform="scale(0.015625)"/>
       </defs>
       <use xlink:href="#ArialMT-36"/>
      </g>
     </g>
    </g>
    <g id="ytick_14">
     <g id="line2d_38">
      <g>
       <use xlink:href="#m1a85d3b34f" x="37.01" y="246.645333" style="stroke: #000000; stroke-width: 0.8"/>
      </g>
     </g>
     <g id="text_28">
      <!-- 8 -->
      <g transform="translate(26.673438 248.792677) scale(0.06 -0.06)">
       <defs>
        <path id="ArialMT-38" d="M 1131 2484 
Q 781 2613 612 2850 
Q 444 3088 444 3419 
Q 444 3919 803 4259 
Q 1163 4600 1759 4600 
Q 2359 4600 2725 4251 
Q 3091 3903 3091 3403 
Q 3091 3084 2923 2848 
Q 2756 2613 2416 2484 
Q 2838 2347 3058 2040 
Q 3278 1734 3278 1309 
Q 3278 722 2862 322 
Q 2447 -78 1769 -78 
Q 1091 -78 675 323 
Q 259 725 259 1325 
Q 259 1772 486 2073 
Q 713 2375 1131 2484 
z
M 1019 3438 
Q 1019 3113 1228 2906 
Q 1438 2700 1772 2700 
Q 2097 2700 2305 2904 
Q 2513 3109 2513 3406 
Q 2513 3716 2298 3927 
Q 2084 4138 1766 4138 
Q 1444 4138 1231 3931 
Q 1019 3725 1019 3438 
z
M 838 1322 
Q 838 1081 952 856 
Q 1066 631 1291 507 
Q 1516 384 1775 384 
Q 2178 384 2440 643 
Q 2703 903 2703 1303 
Q 2703 1709 2433 1975 
Q 2163 2241 1756 2241 
Q 1359 2241 1098 1978 
Q 838 1716 838 1322 
z
" transform="scale(0.015625)"/>
       </defs>
       <use xlink:href="#ArialMT-38"/>
      </g>
     </g>
    </g>
    <g id="ytick_15">
     <g id="line2d_39">
      <g>
       <use xlink:href="#m1a85d3b34f" x="37.01" y="226.186667" style="stroke: #000000; stroke-width: 0.8"/>
      </g>
     </g>
     <g id="text_29">
      <!-- 10 -->
      <g transform="translate(23.336875 228.33401) scale(0.06 -0.06)">
       <use xlink:href="#ArialMT-31"/>
       <use xlink:href="#ArialMT-30" transform="translate(55.615234 0)"/>
      </g>
     </g>
    </g>
    <g id="ytick_16">
     <g id="line2d_40">
      <g>
       <use xlink:href="#m1a85d3b34f" x="37.01" y="205.728" style="stroke: #000000; stroke-width: 0.8"/>
      </g>
     </g>
     <g id="text_30">
      <!-- 12 -->
      <g transform="translate(23.336875 207.875344) scale(0.06 -0.06)">
       <use xlink:href="#ArialMT-31"/>
       <use xlink:href="#ArialMT-32" transform="translate(55.615234 0)"/>
      </g>
     </g>
    </g>
    <g id="ytick_17">
     <g id="line2d_41">
      <g>
       <use xlink:href="#m1a85d3b34f" x="37.01" y="185.269333" style="stroke: #000000; stroke-width: 0.8"/>
      </g>
     </g>
     <g id="text_31">
      <!-- 14 -->
      <g transform="translate(23.336875 187.416677) scale(0.06 -0.06)">
       <use xlink:href="#ArialMT-31"/>
       <use xlink:href="#ArialMT-34" transform="translate(55.615234 0)"/>
      </g>
     </g>
    </g>
    <g id="text_32">
     <!-- Distance from leader (d/$\lambda_0$) -->
     <g transform="translate(17.796875 294.005) rotate(-90) scale(0.07 -0.07)">
      <defs>
       <path id="ArialMT-44" d="M 494 0 
L 494 4581 
L 2072 4581 
Q 2606 4581 2888 4516 
Q 3281 4425 3559 4188 
Q 3922 3881 4101 3404 
Q 4281 2928 4281 2316 
Q 4281 1794 4159 1391 
Q 4038 988 3847 723 
Q 3656 459 3429 307 
Q 3203 156 2883 78 
Q 2563 0 2147 0 
L 494 0 
z
M 1100 541 
L 2078 541 
Q 2531 541 2789 625 
Q 3047 709 3200 863 
Q 3416 1078 3536 1442 
Q 3656 1806 3656 2325 
Q 3656 3044 3420 3430 
Q 3184 3816 2847 3947 
Q 2603 4041 2063 4041 
L 1100 4041 
L 1100 541 
z
" transform="scale(0.015625)"/>
       <path id="ArialMT-66" d="M 556 0 
L 556 2881 
L 59 2881 
L 59 3319 
L 556 3319 
L 556 3672 
Q 556 4006 616 4169 
Q 697 4388 901 4523 
Q 1106 4659 1475 4659 
Q 1713 4659 2000 4603 
L 1916 4113 
Q 1741 4144 1584 4144 
Q 1328 4144 1222 4034 
Q 1116 3925 1116 3625 
L 1116 3319 
L 1763 3319 
L 1763 2881 
L 1116 2881 
L 1116 0 
L 556 0 
z
" transform="scale(0.015625)"/>
       <path id="ArialMT-72" d="M 416 0 
L 416 3319 
L 922 3319 
L 922 2816 
Q 1116 3169 1280 3281 
Q 1444 3394 1641 3394 
Q 1925 3394 2219 3213 
L 2025 2691 
Q 1819 2813 1613 2813 
Q 1428 2813 1281 2702 
Q 1134 2591 1072 2394 
Q 978 2094 978 1738 
L 978 0 
L 416 0 
z
" transform="scale(0.015625)"/>
       <path id="ArialMT-6f" d="M 213 1659 
Q 213 2581 725 3025 
Q 1153 3394 1769 3394 
Q 2453 3394 2887 2945 
Q 3322 2497 3322 1706 
Q 3322 1066 3130 698 
Q 2938 331 2570 128 
Q 2203 -75 1769 -75 
Q 1072 -75 642 372 
Q 213 819 213 1659 
z
M 791 1659 
Q 791 1022 1069 705 
Q 1347 388 1769 388 
Q 2188 388 2466 706 
Q 2744 1025 2744 1678 
Q 2744 2294 2464 2611 
Q 2184 2928 1769 2928 
Q 1347 2928 1069 2612 
Q 791 2297 791 1659 
z
" transform="scale(0.015625)"/>
       <path id="ArialMT-6c" d="M 409 0 
L 409 4581 
L 972 4581 
L 972 0 
L 409 0 
z
" transform="scale(0.015625)"/>
      </defs>
      <use xlink:href="#ArialMT-44" transform="translate(0 0.015625)"/>
      <use xlink:href="#ArialMT-69" transform="translate(72.216797 0.015625)"/>
      <use xlink:href="#ArialMT-73" transform="translate(94.433594 0.015625)"/>
      <use xlink:href="#ArialMT-74" transform="translate(144.433594 0.015625)"/>
      <use xlink:href="#ArialMT-61" transform="translate(172.216797 0.015625)"/>
      <use xlink:href="#ArialMT-6e" transform="translate(227.832031 0.015625)"/>
      <use xlink:href="#ArialMT-63" transform="translate(283.447266 0.015625)"/>
      <use xlink:href="#ArialMT-65" transform="translate(333.447266 0.015625)"/>
      <use xlink:href="#ArialMT-20" transform="translate(389.0625 0.015625)"/>
      <use xlink:href="#ArialMT-66" transform="translate(416.845703 0.015625)"/>
      <use xlink:href="#ArialMT-72" transform="translate(444.628906 0.015625)"/>
      <use xlink:href="#ArialMT-6f" transform="translate(477.929688 0.015625)"/>
      <use xlink:href="#ArialMT-6d" transform="translate(533.544922 0.015625)"/>
      <use xlink:href="#ArialMT-20" transform="translate(616.845703 0.015625)"/>
      <use xlink:href="#ArialMT-6c" transform="translate(644.628906 0.015625)"/>
      <use xlink:href="#ArialMT-65" transform="translate(666.845703 0.015625)"/>
      <use xlink:href="#ArialMT-61" transform="translate(722.460938 0.015625)"/>
      <use xlink:href="#ArialMT-64" transform="translate(778.076172 0.015625)"/>
      <use xlink:href="#ArialMT-65" transform="translate(833.691406 0.015625)"/>
      <use xlink:href="#ArialMT-72" transform="translate(889.306641 0.015625)"/>
      <use xlink:href="#ArialMT-20" transform="translate(922.607422 0.015625)"/>
      <use xlink:href="#ArialMT-28" transform="translate(950.390625 0.015625)"/>
      <use xlink:href="#ArialMT-64" transform="translate(983.691406 0.015625)"/>
      <use xlink:href="#ArialMT-2f" transform="translate(1039.306641 0.015625)"/>
      <use xlink:href="#DejaVuSans-Oblique-3bb" transform="translate(1067.089844 0.015625)"/>
      <use xlink:href="#DejaVuSans-30" transform="translate(1126.269531 -16.390625) scale(0.7)"/>
      <use xlink:href="#ArialMT-29" transform="translate(1173.540039 0.015625)"/>
     </g>
    </g>
   </g>
   <g id="line2d_42">
    <path d="M 37.01 305.160831 
L 39.366051 305.321004 
L 44.078154 305.309387 
L 51.146308 305.857379 
L 55.85841 305.926481 
L 60.570513 306.394933 
L 67.638667 306.610278 
L 69.994718 306.872488 
L 72.350769 307.009446 
L 77.062872 307.06364 
L 81.774974 307.513919 
L 88.843128 307.695496 
L 93.555231 308.086414 
L 98.267333 308.117169 
L 102.979436 308.547575 
L 110.04759 308.702435 
L 114.759692 309.091189 
L 119.471795 309.106713 
L 126.539949 309.585229 
L 128.896 309.560226 
L 131.252051 309.663964 
L 135.964154 310.056163 
L 140.676256 310.063698 
L 147.74441 310.544036 
L 150.100462 310.516207 
L 152.456513 310.60544 
L 157.168615 311.003539 
L 161.880718 311.007951 
L 168.948872 311.492741 
L 173.660974 311.540499 
L 178.373077 311.944597 
L 183.085179 311.949006 
L 190.153333 312.438331 
L 194.865436 312.474959 
L 199.577538 312.883957 
L 206.645692 313.040844 
L 209.001744 313.276513 
L 211.357795 313.383316 
L 216.069897 313.410797 
L 220.782 313.823199 
L 227.850154 313.972852 
L 230.206205 314.210381 
L 232.562256 314.328455 
L 237.274359 314.348555 
L 241.986462 314.762868 
L 249.054615 314.906799 
L 253.766718 315.274039 
L 258.478821 315.288395 
L 263.190923 315.703289 
L 270.259077 315.842904 
L 274.971179 316.220306 
L 279.683282 316.230431 
L 284.395385 316.644789 
L 291.463538 316.781378 
L 296.175641 317.167532 
L 300.887744 317.174784 
L 307.955897 317.65057 
L 310.311949 317.622958 
L 312.668 317.722441 
L 317.380103 318.116028 
L 322.092205 318.121585 
L 329.160359 318.603457 
L 331.51641 318.575135 
L 333.872462 318.666323 
L 338.584564 319.066142 
L 343.296667 319.070979 
L 350.364821 319.557925 
L 352.720872 319.529451 
L 355.076923 319.613271 
L 359.789026 320.018257 
L 364.501128 320.023135 
L 371.569282 320.514282 
L 376.281385 320.56356 
L 380.993487 320.972798 
L 385.70559 320.978255 
L 392.773744 321.472879 
L 397.485846 321.517507 
L 402.197949 321.930234 
L 406.910051 321.93659 
L 413.978205 322.434112 
L 418.690308 322.475487 
L 423.40241 322.891082 
L 428.114513 322.898451 
L 435.182667 323.398425 
L 439.894769 323.43796 
L 444.606872 323.855914 
L 449.318974 323.864233 
L 456.387128 324.366317 
L 461.099231 324.405497 
L 465.811333 324.825364 
L 470.523436 324.834449 
L 477.59159 325.338349 
L 482.303692 325.378833 
L 487.015795 325.800139 
L 491.727897 325.809769 
L 496.44 326.216589 
L 496.44 326.216589 
" clip-path="url(#p0b633a5e9e)" style="fill: none; stroke: #1f77b4; stroke-width: 1.5; stroke-linecap: square"/>
   </g>
   <g id="line2d_43">
    <path d="M 37.01 281.662641 
L 39.366051 281.806766 
L 44.078154 281.743247 
L 51.146308 282.188308 
L 55.85841 282.184979 
L 60.570513 282.543126 
L 67.638667 282.629472 
L 69.994718 282.863593 
L 72.350769 282.960182 
L 77.062872 282.925708 
L 81.774974 283.285434 
L 88.843128 283.334291 
L 91.199179 283.560257 
L 93.555231 283.665213 
L 98.267333 283.591575 
L 105.335487 283.980594 
L 107.691538 283.913129 
L 110.04759 283.973769 
L 114.759692 284.298797 
L 119.471795 284.203145 
L 126.539949 284.61167 
L 131.252051 284.57277 
L 135.964154 284.897739 
L 140.676256 284.800687 
L 147.74441 285.22057 
L 152.456513 285.158921 
L 157.168615 285.492909 
L 164.236769 285.516346 
L 166.592821 285.740246 
L 168.948872 285.833495 
L 173.660974 285.75811 
L 178.373077 286.107718 
L 185.441231 286.139017 
L 190.153333 286.47263 
L 194.865436 286.393149 
L 201.93359 286.799838 
L 204.289641 286.74286 
L 206.645692 286.805795 
L 211.357795 287.153708 
L 216.069897 287.079533 
L 223.138051 287.52478 
L 227.850154 287.521907 
L 232.562256 287.884189 
L 237.274359 287.823277 
L 244.342513 288.297428 
L 249.054615 288.287671 
L 253.766718 288.664628 
L 260.834872 288.755719 
L 263.190923 289.001638 
L 265.546974 289.115524 
L 270.259077 289.100621 
L 274.971179 289.491547 
L 282.039333 289.592216 
L 284.395385 289.841078 
L 286.751436 289.975088 
L 291.463538 289.957073 
L 296.175641 290.359864 
L 303.243795 290.471337 
L 307.955897 290.871648 
L 312.668 290.852999 
L 319.736154 291.333242 
L 322.092205 291.298816 
L 324.448256 291.387446 
L 329.160359 291.800909 
L 333.872462 291.7845 
L 340.940615 292.291012 
L 345.652718 292.335846 
L 350.364821 292.759103 
L 357.432974 292.908749 
L 359.789026 293.164047 
L 362.145077 293.275999 
L 366.857179 293.312955 
L 371.569282 293.74319 
L 378.637436 293.889872 
L 380.993487 294.152712 
L 383.349538 294.285192 
L 388.061641 294.316302 
L 392.773744 294.75094 
L 399.841897 294.897039 
L 402.197949 295.164483 
L 404.554 295.316602 
L 409.266103 295.344404 
L 413.978205 295.780935 
L 421.046359 295.929058 
L 425.758462 296.369123 
L 430.470564 296.396625 
L 437.538718 296.909312 
L 439.894769 296.875204 
L 442.250821 296.985458 
L 446.962923 297.442386 
L 451.675026 297.473008 
L 458.743179 298.000324 
L 461.099231 297.969188 
L 463.455282 298.066428 
L 468.167385 298.536615 
L 472.879487 298.574135 
L 479.947641 299.114066 
L 484.659744 299.172756 
L 489.371846 299.652512 
L 496.44 299.865825 
L 496.44 299.865825 
" clip-path="url(#p0b633a5e9e)" style="fill: none; stroke: #ff7f0e; stroke-width: 1.5; stroke-linecap: square"/>
   </g>
   <g id="line2d_44">
    <path d="M 37.01 258.163778 
L 39.366051 258.307849 
L 44.078154 258.237545 
L 51.146308 258.68392 
L 55.85841 258.652981 
L 60.570513 258.968312 
L 67.638667 258.984889 
L 69.994718 259.200724 
L 72.350769 259.285813 
L 77.062872 259.216637 
L 81.774974 259.564198 
L 88.843128 259.587528 
L 91.199179 259.779902 
L 93.555231 259.85986 
L 98.267333 259.747441 
L 105.335487 260.151275 
L 110.04759 260.144434 
L 114.759692 260.414178 
L 119.471795 260.290316 
L 126.539949 260.678319 
L 131.252051 260.638394 
L 135.964154 260.938698 
L 140.676256 260.837856 
L 147.74441 261.197215 
L 152.456513 261.122867 
L 157.168615 261.464251 
L 164.236769 261.500276 
L 166.592821 261.691605 
L 168.948872 261.747438 
L 173.660974 261.650658 
L 178.373077 262.016134 
L 185.441231 262.066773 
L 187.797282 262.258357 
L 190.153333 262.328309 
L 194.865436 262.22391 
L 201.93359 262.622565 
L 204.289641 262.570116 
L 206.645692 262.639406 
L 211.357795 262.927757 
L 216.069897 262.830714 
L 223.138051 263.230358 
L 227.850154 263.222558 
L 232.562256 263.546359 
L 237.274359 263.468808 
L 244.342513 263.863455 
L 249.054615 263.828699 
L 253.766718 264.186843 
L 260.834872 264.259545 
L 263.190923 264.464026 
L 265.546974 264.51857 
L 270.259077 264.457677 
L 274.971179 264.83784 
L 282.039333 264.910527 
L 284.395385 265.110309 
L 286.751436 265.173633 
L 291.463538 265.08986 
L 296.175641 265.472301 
L 303.243795 265.528009 
L 305.599846 265.720716 
L 307.955897 265.79661 
L 312.668 265.697149 
L 319.736154 266.088943 
L 324.448256 266.080633 
L 329.160359 266.362032 
L 333.872462 266.260297 
L 340.940615 266.617427 
L 345.652718 266.562804 
L 350.364821 266.868564 
L 355.076923 266.782407 
L 362.145077 267.10303 
L 366.857179 267.010834 
L 371.569282 267.346229 
L 378.637436 267.375195 
L 380.993487 267.546172 
L 383.349538 267.593752 
L 388.061641 267.485839 
L 392.773744 267.842004 
L 399.841897 267.884817 
L 404.554 268.134675 
L 409.266103 268.036887 
L 416.334256 268.435723 
L 421.046359 268.455919 
L 425.758462 268.757932 
L 430.470564 268.689889 
L 437.538718 269.105973 
L 442.250821 269.121897 
L 446.962923 269.483515 
L 451.675026 269.453555 
L 458.743179 269.886756 
L 463.455282 269.90097 
L 468.167385 270.315618 
L 475.235538 270.456098 
L 477.59159 270.676434 
L 479.947641 270.775484 
L 484.659744 270.789925 
L 489.371846 271.243036 
L 496.44 271.404373 
L 496.44 271.404373 
" clip-path="url(#p0b633a5e9e)" style="fill: none; stroke: #2ca02c; stroke-width: 1.5; stroke-linecap: square"/>
   </g>
   <g id="line2d_45">
    <path d="M 37.01 234.664916 
L 39.366051 234.808986 
L 46.434205 234.868444 
L 48.790256 235.094457 
L 51.146308 235.176664 
L 55.85841 235.139992 
L 60.570513 235.479376 
L 67.638667 235.500781 
L 69.994718 235.704448 
L 72.350769 235.780245 
L 77.062872 235.695122 
L 81.774974 236.056231 
L 88.843128 236.109993 
L 91.199179 236.315933 
L 93.555231 236.406573 
L 98.267333 236.305074 
L 105.335487 236.728142 
L 107.691538 236.682734 
L 110.04759 236.766744 
L 114.759692 237.100354 
L 119.471795 237.014379 
L 126.539949 237.454527 
L 131.252051 237.473128 
L 135.964154 237.830323 
L 140.676256 237.771947 
L 147.74441 238.243695 
L 152.456513 238.245695 
L 157.168615 238.629963 
L 161.880718 238.614866 
L 168.948872 239.13988 
L 173.660974 239.14523 
L 178.373077 239.565824 
L 185.441231 239.779819 
L 187.797282 240.046892 
L 190.153333 240.170357 
L 194.865436 240.19348 
L 199.577538 240.651205 
L 206.645692 240.911 
L 209.001744 241.18262 
L 211.357795 241.329668 
L 216.069897 241.379633 
L 223.138051 241.973502 
L 225.494103 241.989829 
L 234.918308 242.62768 
L 237.274359 242.680458 
L 244.342513 243.300679 
L 246.698564 243.32609 
L 251.410667 243.724047 
L 253.766718 243.931728 
L 260.834872 244.202143 
L 265.546974 244.621042 
L 270.259077 244.768812 
L 274.971179 245.214934 
L 282.039333 245.445361 
L 286.751436 245.862133 
L 291.463538 245.978667 
L 298.531692 246.496465 
L 303.243795 246.589671 
L 307.955897 247.001729 
L 312.668 247.091012 
L 319.736154 247.585569 
L 324.448256 247.642635 
L 329.160359 248.047416 
L 336.228513 248.228632 
L 340.940615 248.582324 
L 345.652718 248.617794 
L 352.720872 249.06264 
L 357.432974 249.13148 
L 362.145077 249.498777 
L 366.857179 249.521331 
L 373.925333 249.950951 
L 378.637436 249.966581 
L 383.349538 250.352737 
L 388.061641 250.367559 
L 395.129795 250.7949 
L 399.841897 250.780357 
L 404.554 251.19289 
L 411.622154 251.348918 
L 413.978205 251.581345 
L 416.334256 251.662643 
L 421.046359 251.644531 
L 425.758462 252.090033 
L 432.826615 252.251847 
L 435.182667 252.513531 
L 437.538718 252.625068 
L 442.250821 252.624598 
L 446.962923 253.107624 
L 454.031077 253.292576 
L 456.387128 253.590523 
L 458.743179 253.735958 
L 463.455282 253.768066 
L 468.167385 254.29315 
L 475.235538 254.524447 
L 477.59159 254.861988 
L 479.947641 255.038714 
L 484.659744 255.117903 
L 489.371846 255.692697 
L 496.44 256.002431 
L 496.44 256.002431 
" clip-path="url(#p0b633a5e9e)" style="fill: none; stroke: #d62728; stroke-width: 1.5; stroke-linecap: square"/>
   </g>
   <g id="patch_9">
    <path d="M 37.01 328.48 
L 37.01 175.04 
" style="fill: none; stroke: #000000; stroke-width: 0.8; stroke-linejoin: miter; stroke-linecap: square"/>
   </g>
   <g id="patch_10">
    <path d="M 496.44 328.48 
L 496.44 175.04 
" style="fill: none; stroke: #000000; stroke-width: 0.8; stroke-linejoin: miter; stroke-linecap: square"/>
   </g>
   <g id="patch_11">
    <path d="M 37.01 328.48 
L 496.44 328.48 
" style="fill: none; stroke: #000000; stroke-width: 0.8; stroke-linejoin: miter; stroke-linecap: square"/>
   </g>
   <g id="patch_12">
    <path d="M 37.01 175.04 
L 496.44 175.04 
" style="fill: none; stroke: #000000; stroke-width: 0.8; stroke-linejoin: miter; stroke-linecap: square"/>
   </g>
   <g id="legend_2">
    <g id="patch_13">
     <path d="M 445.010781 220.637344 
L 491.54 220.637344 
Q 492.94 220.637344 492.94 219.237344 
L 492.94 179.94 
Q 492.94 178.54 491.54 178.54 
L 445.010781 178.54 
Q 443.610781 178.54 443.610781 179.94 
L 443.610781 219.237344 
Q 443.610781 220.637344 445.010781 220.637344 
z
" style="fill: #ffffff; opacity: 0.8; stroke: #cccccc; stroke-linejoin: miter"/>
    </g>
    <g id="line2d_46">
     <path d="M 446.410781 183.92125 
L 453.410781 183.92125 
L 460.410781 183.92125 
" style="fill: none; stroke: #1f77b4; stroke-width: 1.5; stroke-linecap: square"/>
    </g>
    <g id="text_33">
     <!-- Agent 1 -->
     <g transform="translate(466.010781 186.37125) scale(0.07 -0.07)">
      <use xlink:href="#ArialMT-41"/>
      <use xlink:href="#ArialMT-67" transform="translate(66.699219 0)"/>
      <use xlink:href="#ArialMT-65" transform="translate(122.314453 0)"/>
      <use xlink:href="#ArialMT-6e" transform="translate(177.929688 0)"/>
      <use xlink:href="#ArialMT-74" transform="translate(233.544922 0)"/>
      <use xlink:href="#ArialMT-20" transform="translate(261.328125 0)"/>
      <use xlink:href="#ArialMT-31" transform="translate(289.111328 0)"/>
     </g>
    </g>
    <g id="line2d_47">
     <path d="M 446.410781 193.925781 
L 453.410781 193.925781 
L 460.410781 193.925781 
" style="fill: none; stroke: #ff7f0e; stroke-width: 1.5; stroke-linecap: square"/>
    </g>
    <g id="text_34">
     <!-- Agent 2 -->
     <g transform="translate(466.010781 196.375781) scale(0.07 -0.07)">
      <use xlink:href="#ArialMT-41"/>
      <use xlink:href="#ArialMT-67" transform="translate(66.699219 0)"/>
      <use xlink:href="#ArialMT-65" transform="translate(122.314453 0)"/>
      <use xlink:href="#ArialMT-6e" transform="translate(177.929688 0)"/>
      <use xlink:href="#ArialMT-74" transform="translate(233.544922 0)"/>
      <use xlink:href="#ArialMT-20" transform="translate(261.328125 0)"/>
      <use xlink:href="#ArialMT-32" transform="translate(289.111328 0)"/>
     </g>
    </g>
    <g id="line2d_48">
     <path d="M 446.410781 203.930313 
L 453.410781 203.930313 
L 460.410781 203.930313 
" style="fill: none; stroke: #2ca02c; stroke-width: 1.5; stroke-linecap: square"/>
    </g>
    <g id="text_35">
     <!-- Agent 3 -->
     <g transform="translate(466.010781 206.380313) scale(0.07 -0.07)">
      <use xlink:href="#ArialMT-41"/>
      <use xlink:href="#ArialMT-67" transform="translate(66.699219 0)"/>
      <use xlink:href="#ArialMT-65" transform="translate(122.314453 0)"/>
      <use xlink:href="#ArialMT-6e" transform="translate(177.929688 0)"/>
      <use xlink:href="#ArialMT-74" transform="translate(233.544922 0)"/>
      <use xlink:href="#ArialMT-20" transform="translate(261.328125 0)"/>
      <use xlink:href="#ArialMT-33" transform="translate(289.111328 0)"/>
     </g>
    </g>
    <g id="line2d_49">
     <path d="M 446.410781 213.914063 
L 453.410781 213.914063 
L 460.410781 213.914063 
" style="fill: none; stroke: #d62728; stroke-width: 1.5; stroke-linecap: square"/>
    </g>
    <g id="text_36">
     <!-- Agent 4 -->
     <g transform="translate(466.010781 216.364063) scale(0.07 -0.07)">
      <use xlink:href="#ArialMT-41"/>
      <use xlink:href="#ArialMT-67" transform="translate(66.699219 0)"/>
      <use xlink:href="#ArialMT-65" transform="translate(122.314453 0)"/>
      <use xlink:href="#ArialMT-6e" transform="translate(177.929688 0)"/>
      <use xlink:href="#ArialMT-74" transform="translate(233.544922 0)"/>
      <use xlink:href="#ArialMT-20" transform="translate(261.328125 0)"/>
      <use xlink:href="#ArialMT-34" transform="translate(289.111328 0)"/>
     </g>
    </g>
   </g>
  </g>
 </g>
 <defs>
  <clipPath id="p1ca8e3449d">
   <rect x="37.01" y="10.08" width="459.43" height="153.44"/>
  </clipPath>
  <clipPath id="p0b633a5e9e">
   <rect x="37.01" y="175.04" width="459.43" height="153.44"/>
  </clipPath>
 </defs>
</svg>
