<?xml version="1.0" encoding="utf-8" standalone="no"?>
<!DOCTYPE svg PUBLIC "-//W3C//DTD SVG 1.1//EN"
  "http://www.w3.org/Graphics/SVG/1.1/DTD/svg11.dtd">
<svg xmlns:xlink="http://www.w3.org/1999/xlink" width="504pt" height="360pt" viewBox="0 0 504 360" xmlns="http://www.w3.org/2000/svg" version="1.1">
 <metadata>
  <rdf:RDF xmlns:dc="http://purl.org/dc/elements/1.1/" xmlns:cc="http://creativecommons.org/ns#" xmlns:rdf="http://www.w3.org/1999/02/22-rdf-syntax-ns#">
   <cc:Work>
    <dc:type rdf:resource="http://purl.org/dc/dcmitype/StillImage"/>
    <dc:date>2025-10-16T15:48:39.769270</dc:date>
    <dc:format>image/svg+xml</dc:format>
    <dc:creator>
     <cc:Agent>
      <dc:title>Matplotlib v3.10.7, https://matplotlib.org/</dc:title>
     </cc:Agent>
    </dc:creator>
   </cc:Work>
  </rdf:RDF>
 </metadata>
 <defs>
  <style type="text/css">*{stroke-linejoin: round; stroke-linecap: butt}</style>
 </defs>
 <g id="figure_1">
  <g id="patch_1">
   <path d="M 0 360 
L 504 360 
L 504 0 
L 0 0 
z
" style="fill: #ffffff"/>
  </g>
  <g id="axes_1">
   <g id="patch_2">
    <path d="M 37.01 163.52 
L 496.44 163.52 
L 496.44 10.08 
L 37.01 10.08 
z
" style="fill: #ffffff"/>
   </g>
   <g id="matplotlib.axis_1">
    <g id="xtick_1">
     <g id="line2d_1">
      <defs>
       <path id="m39f36c6c2c" d="M 0 0 
L 0 3.5 
" style="stroke: #000000; stroke-width: 0.8"/>
      </defs>
      <g>
       <use xlink:href="#m39f36c6c2c" x="37.01" y="163.52" style="stroke: #000000; stroke-width: 0.8"/>
      </g>
     </g>
    </g>
    <g id="xtick_2">
     <g id="line2d_2">
      <g>
       <use xlink:href="#m39f36c6c2c" x="131.155492" y="163.52" style="stroke: #000000; stroke-width: 0.8"/>
      </g>
     </g>
    </g>
    <g id="xtick_3">
     <g id="line2d_3">
      <g>
       <use xlink:href="#m39f36c6c2c" x="225.300984" y="163.52" style="stroke: #000000; stroke-width: 0.8"/>
      </g>
     </g>
    </g>
    <g id="xtick_4">
     <g id="line2d_4">
      <g>
       <use xlink:href="#m39f36c6c2c" x="319.446475" y="163.52" style="stroke: #000000; stroke-width: 0.8"/>
      </g>
     </g>
    </g>
    <g id="xtick_5">
     <g id="line2d_5">
      <g>
       <use xlink:href="#m39f36c6c2c" x="413.591967" y="163.52" style="stroke: #000000; stroke-width: 0.8"/>
      </g>
     </g>
    </g>
   </g>
   <g id="matplotlib.axis_2">
    <g id="ytick_1">
     <g id="line2d_6">
      <defs>
       <path id="mf4aa4f52a1" d="M 0 0 
L -3.5 0 
" style="stroke: #000000; stroke-width: 0.8"/>
      </defs>
      <g>
       <use xlink:href="#mf4aa4f52a1" x="37.01" y="163.52" style="stroke: #000000; stroke-width: 0.8"/>
      </g>
     </g>
     <g id="text_1">
      <!-- 0.0 -->
      <g transform="translate(21.67 165.667344) scale(0.06 -0.06)">
       <defs>
        <path id="ArialMT-30" d="M 266 2259 
Q 266 3072 433 3567 
Q 600 4063 929 4331 
Q 1259 4600 1759 4600 
Q 2128 4600 2406 4451 
Q 2684 4303 2865 4023 
Q 3047 3744 3150 3342 
Q 3253 2941 3253 2259 
Q 3253 1453 3087 958 
Q 2922 463 2592 192 
Q 2263 -78 1759 -78 
Q 1097 -78 719 397 
Q 266 969 266 2259 
z
M 844 2259 
Q 844 1131 1108 757 
Q 1372 384 1759 384 
Q 2147 384 2411 759 
Q 2675 1134 2675 2259 
Q 2675 3391 2411 3762 
Q 2147 4134 1753 4134 
Q 1366 4134 1134 3806 
Q 844 3388 844 2259 
z
" transform="scale(0.015625)"/>
        <path id="ArialMT-2e" d="M 581 0 
L 581 641 
L 1222 641 
L 1222 0 
L 581 0 
z
" transform="scale(0.015625)"/>
       </defs>
       <use xlink:href="#ArialMT-30"/>
       <use xlink:href="#ArialMT-2e" transform="translate(55.615234 0)"/>
       <use xlink:href="#ArialMT-30" transform="translate(83.398438 0)"/>
      </g>
     </g>
    </g>
    <g id="ytick_2">
     <g id="line2d_7">
      <g>
       <use xlink:href="#mf4aa4f52a1" x="37.01" y="144.34" style="stroke: #000000; stroke-width: 0.8"/>
      </g>
     </g>
     <g id="text_2">
      <!-- 0.5 -->
      <g transform="translate(21.67 146.487344) scale(0.06 -0.06)">
       <defs>
        <path id="ArialMT-35" d="M 266 1200 
L 856 1250 
Q 922 819 1161 601 
Q 1400 384 1738 384 
Q 2144 384 2425 690 
Q 2706 997 2706 1503 
Q 2706 1984 2436 2262 
Q 2166 2541 1728 2541 
Q 1456 2541 1237 2417 
Q 1019 2294 894 2097 
L 366 2166 
L 809 4519 
L 3088 4519 
L 3088 3981 
L 1259 3981 
L 1013 2750 
Q 1425 3038 1878 3038 
Q 2478 3038 2890 2622 
Q 3303 2206 3303 1553 
Q 3303 931 2941 478 
Q 2500 -78 1738 -78 
Q 1113 -78 717 272 
Q 322 622 266 1200 
z
" transform="scale(0.015625)"/>
       </defs>
       <use xlink:href="#ArialMT-30"/>
       <use xlink:href="#ArialMT-2e" transform="translate(55.615234 0)"/>
       <use xlink:href="#ArialMT-35" transform="translate(83.398438 0)"/>
      </g>
     </g>
    </g>
    <g id="ytick_3">
     <g id="line2d_8">
      <g>
       <use xlink:href="#mf4aa4f52a1" x="37.01" y="125.16" style="stroke: #000000; stroke-width: 0.8"/>
      </g>
     </g>
     <g id="text_3">
      <!-- 1.0 -->
      <g transform="translate(21.67 127.307344) scale(0.06 -0.06)">
       <defs>
        <path id="ArialMT-31" d="M 2384 0 
L 1822 0 
L 1822 3584 
Q 1619 3391 1289 3197 
Q 959 3003 697 2906 
L 697 3450 
Q 1169 3672 1522 3987 
Q 1875 4303 2022 4600 
L 2384 4600 
L 2384 0 
z
" transform="scale(0.015625)"/>
       </defs>
       <use xlink:href="#ArialMT-31"/>
       <use xlink:href="#ArialMT-2e" transform="translate(55.615234 0)"/>
       <use xlink:href="#ArialMT-30" transform="translate(83.398438 0)"/>
      </g>
     </g>
    </g>
    <g id="ytick_4">
     <g id="line2d_9">
      <g>
       <use xlink:href="#mf4aa4f52a1" x="37.01" y="105.98" style="stroke: #000000; stroke-width: 0.8"/>
      </g>
     </g>
     <g id="text_4">
      <!-- 1.5 -->
      <g transform="translate(21.67 108.127344) scale(0.06 -0.06)">
       <use xlink:href="#ArialMT-31"/>
       <use xlink:href="#ArialMT-2e" transform="translate(55.615234 0)"/>
       <use xlink:href="#ArialMT-35" transform="translate(83.398438 0)"/>
      </g>
     </g>
    </g>
    <g id="ytick_5">
     <g id="line2d_10">
      <g>
       <use xlink:href="#mf4aa4f52a1" x="37.01" y="86.8" style="stroke: #000000; stroke-width: 0.8"/>
      </g>
     </g>
     <g id="text_5">
      <!-- 2.0 -->
      <g transform="translate(21.67 88.947344) scale(0.06 -0.06)">
       <defs>
        <path id="ArialMT-32" d="M 3222 541 
L 3222 0 
L 194 0 
Q 188 203 259 391 
Q 375 700 629 1000 
Q 884 1300 1366 1694 
Q 2113 2306 2375 2664 
Q 2638 3022 2638 3341 
Q 2638 3675 2398 3904 
Q 2159 4134 1775 4134 
Q 1369 4134 1125 3890 
Q 881 3647 878 3216 
L 300 3275 
Q 359 3922 746 4261 
Q 1134 4600 1788 4600 
Q 2447 4600 2831 4234 
Q 3216 3869 3216 3328 
Q 3216 3053 3103 2787 
Q 2991 2522 2730 2228 
Q 2469 1934 1863 1422 
Q 1356 997 1212 845 
Q 1069 694 975 541 
L 3222 541 
z
" transform="scale(0.015625)"/>
       </defs>
       <use xlink:href="#ArialMT-32"/>
       <use xlink:href="#ArialMT-2e" transform="translate(55.615234 0)"/>
       <use xlink:href="#ArialMT-30" transform="translate(83.398438 0)"/>
      </g>
     </g>
    </g>
    <g id="ytick_6">
     <g id="line2d_11">
      <g>
       <use xlink:href="#mf4aa4f52a1" x="37.01" y="67.62" style="stroke: #000000; stroke-width: 0.8"/>
      </g>
     </g>
     <g id="text_6">
      <!-- 2.5 -->
      <g transform="translate(21.67 69.767344) scale(0.06 -0.06)">
       <use xlink:href="#ArialMT-32"/>
       <use xlink:href="#ArialMT-2e" transform="translate(55.615234 0)"/>
       <use xlink:href="#ArialMT-35" transform="translate(83.398438 0)"/>
      </g>
     </g>
    </g>
    <g id="ytick_7">
     <g id="line2d_12">
      <g>
       <use xlink:href="#mf4aa4f52a1" x="37.01" y="48.44" style="stroke: #000000; stroke-width: 0.8"/>
      </g>
     </g>
     <g id="text_7">
      <!-- 3.0 -->
      <g transform="translate(21.67 50.587344) scale(0.06 -0.06)">
       <defs>
        <path id="ArialMT-33" d="M 269 1209 
L 831 1284 
Q 928 806 1161 595 
Q 1394 384 1728 384 
Q 2125 384 2398 659 
Q 2672 934 2672 1341 
Q 2672 1728 2419 1979 
Q 2166 2231 1775 2231 
Q 1616 2231 1378 2169 
L 1441 2663 
Q 1497 2656 1531 2656 
Q 1891 2656 2178 2843 
Q 2466 3031 2466 3422 
Q 2466 3731 2256 3934 
Q 2047 4138 1716 4138 
Q 1388 4138 1169 3931 
Q 950 3725 888 3313 
L 325 3413 
Q 428 3978 793 4289 
Q 1159 4600 1703 4600 
Q 2078 4600 2393 4439 
Q 2709 4278 2876 4000 
Q 3044 3722 3044 3409 
Q 3044 3113 2884 2869 
Q 2725 2625 2413 2481 
Q 2819 2388 3044 2092 
Q 3269 1797 3269 1353 
Q 3269 753 2831 336 
Q 2394 -81 1725 -81 
Q 1122 -81 723 278 
Q 325 638 269 1209 
z
" transform="scale(0.015625)"/>
       </defs>
       <use xlink:href="#ArialMT-33"/>
       <use xlink:href="#ArialMT-2e" transform="translate(55.615234 0)"/>
       <use xlink:href="#ArialMT-30" transform="translate(83.398438 0)"/>
      </g>
     </g>
    </g>
    <g id="ytick_8">
     <g id="line2d_13">
      <g>
       <use xlink:href="#mf4aa4f52a1" x="37.01" y="29.26" style="stroke: #000000; stroke-width: 0.8"/>
      </g>
     </g>
     <g id="text_8">
      <!-- 3.5 -->
      <g transform="translate(21.67 31.407344) scale(0.06 -0.06)">
       <use xlink:href="#ArialMT-33"/>
       <use xlink:href="#ArialMT-2e" transform="translate(55.615234 0)"/>
       <use xlink:href="#ArialMT-35" transform="translate(83.398438 0)"/>
      </g>
     </g>
    </g>
    <g id="ytick_9">
     <g id="line2d_14">
      <g>
       <use xlink:href="#mf4aa4f52a1" x="37.01" y="10.08" style="stroke: #000000; stroke-width: 0.8"/>
      </g>
     </g>
     <g id="text_9">
      <!-- 4.0 -->
      <g transform="translate(21.67 12.227344) scale(0.06 -0.06)">
       <defs>
        <path id="ArialMT-34" d="M 2069 0 
L 2069 1097 
L 81 1097 
L 81 1613 
L 2172 4581 
L 2631 4581 
L 2631 1613 
L 3250 1613 
L 3250 1097 
L 2631 1097 
L 2631 0 
L 2069 0 
z
M 2069 1613 
L 2069 3678 
L 634 1613 
L 2069 1613 
z
" transform="scale(0.015625)"/>
       </defs>
       <use xlink:href="#ArialMT-34"/>
       <use xlink:href="#ArialMT-2e" transform="translate(55.615234 0)"/>
       <use xlink:href="#ArialMT-30" transform="translate(83.398438 0)"/>
      </g>
     </g>
    </g>
    <g id="text_10">
     <!-- Spacing d/$\lambda_0$ -->
     <g transform="translate(16.13 107.1) rotate(-90) scale(0.07 -0.07)">
      <defs>
       <path id="ArialMT-53" d="M 288 1472 
L 859 1522 
Q 900 1178 1048 958 
Q 1197 738 1509 602 
Q 1822 466 2213 466 
Q 2559 466 2825 569 
Q 3091 672 3220 851 
Q 3350 1031 3350 1244 
Q 3350 1459 3225 1620 
Q 3100 1781 2813 1891 
Q 2628 1963 1997 2114 
Q 1366 2266 1113 2400 
Q 784 2572 623 2826 
Q 463 3081 463 3397 
Q 463 3744 659 4045 
Q 856 4347 1234 4503 
Q 1613 4659 2075 4659 
Q 2584 4659 2973 4495 
Q 3363 4331 3572 4012 
Q 3781 3694 3797 3291 
L 3216 3247 
Q 3169 3681 2898 3903 
Q 2628 4125 2100 4125 
Q 1550 4125 1298 3923 
Q 1047 3722 1047 3438 
Q 1047 3191 1225 3031 
Q 1400 2872 2139 2705 
Q 2878 2538 3153 2413 
Q 3553 2228 3743 1945 
Q 3934 1663 3934 1294 
Q 3934 928 3725 604 
Q 3516 281 3123 101 
Q 2731 -78 2241 -78 
Q 1619 -78 1198 103 
Q 778 284 539 648 
Q 300 1013 288 1472 
z
" transform="scale(0.015625)"/>
       <path id="ArialMT-70" d="M 422 -1272 
L 422 3319 
L 934 3319 
L 934 2888 
Q 1116 3141 1344 3267 
Q 1572 3394 1897 3394 
Q 2322 3394 2647 3175 
Q 2972 2956 3137 2557 
Q 3303 2159 3303 1684 
Q 3303 1175 3120 767 
Q 2938 359 2589 142 
Q 2241 -75 1856 -75 
Q 1575 -75 1351 44 
Q 1128 163 984 344 
L 984 -1272 
L 422 -1272 
z
M 931 1641 
Q 931 1000 1190 694 
Q 1450 388 1819 388 
Q 2194 388 2461 705 
Q 2728 1022 2728 1688 
Q 2728 2322 2467 2637 
Q 2206 2953 1844 2953 
Q 1484 2953 1207 2617 
Q 931 2281 931 1641 
z
" transform="scale(0.015625)"/>
       <path id="ArialMT-61" d="M 2588 409 
Q 2275 144 1986 34 
Q 1697 -75 1366 -75 
Q 819 -75 525 192 
Q 231 459 231 875 
Q 231 1119 342 1320 
Q 453 1522 633 1644 
Q 813 1766 1038 1828 
Q 1203 1872 1538 1913 
Q 2219 1994 2541 2106 
Q 2544 2222 2544 2253 
Q 2544 2597 2384 2738 
Q 2169 2928 1744 2928 
Q 1347 2928 1158 2789 
Q 969 2650 878 2297 
L 328 2372 
Q 403 2725 575 2942 
Q 747 3159 1072 3276 
Q 1397 3394 1825 3394 
Q 2250 3394 2515 3294 
Q 2781 3194 2906 3042 
Q 3031 2891 3081 2659 
Q 3109 2516 3109 2141 
L 3109 1391 
Q 3109 606 3145 398 
Q 3181 191 3288 0 
L 2700 0 
Q 2613 175 2588 409 
z
M 2541 1666 
Q 2234 1541 1622 1453 
Q 1275 1403 1131 1340 
Q 988 1278 909 1158 
Q 831 1038 831 891 
Q 831 666 1001 516 
Q 1172 366 1500 366 
Q 1825 366 2078 508 
Q 2331 650 2450 897 
Q 2541 1088 2541 1459 
L 2541 1666 
z
" transform="scale(0.015625)"/>
       <path id="ArialMT-63" d="M 2588 1216 
L 3141 1144 
Q 3050 572 2676 248 
Q 2303 -75 1759 -75 
Q 1078 -75 664 370 
Q 250 816 250 1647 
Q 250 2184 428 2587 
Q 606 2991 970 3192 
Q 1334 3394 1763 3394 
Q 2303 3394 2647 3120 
Q 2991 2847 3088 2344 
L 2541 2259 
Q 2463 2594 2264 2762 
Q 2066 2931 1784 2931 
Q 1359 2931 1093 2626 
Q 828 2322 828 1663 
Q 828 994 1084 691 
Q 1341 388 1753 388 
Q 2084 388 2306 591 
Q 2528 794 2588 1216 
z
" transform="scale(0.015625)"/>
       <path id="ArialMT-69" d="M 425 3934 
L 425 4581 
L 988 4581 
L 988 3934 
L 425 3934 
z
M 425 0 
L 425 3319 
L 988 3319 
L 988 0 
L 425 0 
z
" transform="scale(0.015625)"/>
       <path id="ArialMT-6e" d="M 422 0 
L 422 3319 
L 928 3319 
L 928 2847 
Q 1294 3394 1984 3394 
Q 2284 3394 2536 3286 
Q 2788 3178 2913 3003 
Q 3038 2828 3088 2588 
Q 3119 2431 3119 2041 
L 3119 0 
L 2556 0 
L 2556 2019 
Q 2556 2363 2490 2533 
Q 2425 2703 2258 2804 
Q 2091 2906 1866 2906 
Q 1506 2906 1245 2678 
Q 984 2450 984 1813 
L 984 0 
L 422 0 
z
" transform="scale(0.015625)"/>
       <path id="ArialMT-67" d="M 319 -275 
L 866 -356 
Q 900 -609 1056 -725 
Q 1266 -881 1628 -881 
Q 2019 -881 2231 -725 
Q 2444 -569 2519 -288 
Q 2563 -116 2559 434 
Q 2191 0 1641 0 
Q 956 0 581 494 
Q 206 988 206 1678 
Q 206 2153 378 2554 
Q 550 2956 876 3175 
Q 1203 3394 1644 3394 
Q 2231 3394 2613 2919 
L 2613 3319 
L 3131 3319 
L 3131 450 
Q 3131 -325 2973 -648 
Q 2816 -972 2473 -1159 
Q 2131 -1347 1631 -1347 
Q 1038 -1347 672 -1080 
Q 306 -813 319 -275 
z
M 784 1719 
Q 784 1066 1043 766 
Q 1303 466 1694 466 
Q 2081 466 2343 764 
Q 2606 1063 2606 1700 
Q 2606 2309 2336 2618 
Q 2066 2928 1684 2928 
Q 1309 2928 1046 2623 
Q 784 2319 784 1719 
z
" transform="scale(0.015625)"/>
       <path id="ArialMT-20" transform="scale(0.015625)"/>
       <path id="ArialMT-64" d="M 2575 0 
L 2575 419 
Q 2259 -75 1647 -75 
Q 1250 -75 917 144 
Q 584 363 401 755 
Q 219 1147 219 1656 
Q 219 2153 384 2558 
Q 550 2963 881 3178 
Q 1213 3394 1622 3394 
Q 1922 3394 2156 3267 
Q 2391 3141 2538 2938 
L 2538 4581 
L 3097 4581 
L 3097 0 
L 2575 0 
z
M 797 1656 
Q 797 1019 1065 703 
Q 1334 388 1700 388 
Q 2069 388 2326 689 
Q 2584 991 2584 1609 
Q 2584 2291 2321 2609 
Q 2059 2928 1675 2928 
Q 1300 2928 1048 2622 
Q 797 2316 797 1656 
z
" transform="scale(0.015625)"/>
       <path id="ArialMT-2f" d="M 0 -78 
L 1328 4659 
L 1778 4659 
L 453 -78 
L 0 -78 
z
" transform="scale(0.015625)"/>
       <path id="DejaVuSans-Oblique-3bb" d="M 2350 4316 
L 3125 0 
L 2516 0 
L 2038 2588 
L 328 0 
L -281 0 
L 1903 3356 
L 1794 3975 
Q 1725 4369 1391 4369 
L 1091 4369 
L 1184 4863 
L 1550 4856 
Q 2253 4847 2350 4316 
z
" transform="scale(0.015625)"/>
       <path id="DejaVuSans-30" d="M 2034 4250 
Q 1547 4250 1301 3770 
Q 1056 3291 1056 2328 
Q 1056 1369 1301 889 
Q 1547 409 2034 409 
Q 2525 409 2770 889 
Q 3016 1369 3016 2328 
Q 3016 3291 2770 3770 
Q 2525 4250 2034 4250 
z
M 2034 4750 
Q 2819 4750 3233 4129 
Q 3647 3509 3647 2328 
Q 3647 1150 3233 529 
Q 2819 -91 2034 -91 
Q 1250 -91 836 529 
Q 422 1150 422 2328 
Q 422 3509 836 4129 
Q 1250 4750 2034 4750 
z
" transform="scale(0.015625)"/>
      </defs>
      <use xlink:href="#ArialMT-53" transform="translate(0 0.015625)"/>
      <use xlink:href="#ArialMT-70" transform="translate(66.699219 0.015625)"/>
      <use xlink:href="#ArialMT-61" transform="translate(122.314453 0.015625)"/>
      <use xlink:href="#ArialMT-63" transform="translate(177.929688 0.015625)"/>
      <use xlink:href="#ArialMT-69" transform="translate(227.929688 0.015625)"/>
      <use xlink:href="#ArialMT-6e" transform="translate(250.146484 0.015625)"/>
      <use xlink:href="#ArialMT-67" transform="translate(305.761719 0.015625)"/>
      <use xlink:href="#ArialMT-20" transform="translate(361.376953 0.015625)"/>
      <use xlink:href="#ArialMT-64" transform="translate(389.160156 0.015625)"/>
      <use xlink:href="#ArialMT-2f" transform="translate(444.775391 0.015625)"/>
      <use xlink:href="#DejaVuSans-Oblique-3bb" transform="translate(472.558594 0.015625)"/>
      <use xlink:href="#DejaVuSans-30" transform="translate(531.738281 -16.390625) scale(0.7)"/>
     </g>
    </g>
   </g>
   <g id="line2d_15">
    <path d="M 37.01 84.517944 
L 38.89291 84.899014 
L 40.77582 84.777585 
L 42.65873 84.184746 
L 44.541639 83.465085 
L 46.424549 83.081549 
L 48.307459 83.211666 
L 50.190369 83.555616 
L 52.073279 83.773242 
L 53.956189 83.712159 
L 57.722008 82.766132 
L 59.604918 83.026874 
L 61.487828 83.624896 
L 63.370738 84.434045 
L 65.253648 84.972659 
L 67.136557 84.917541 
L 72.785287 83.887574 
L 74.668197 83.76742 
L 76.551107 83.805887 
L 78.434016 84.024777 
L 80.316926 84.623235 
L 82.199836 85.51359 
L 84.082746 86.143594 
L 87.848566 86.710628 
L 89.731475 86.699639 
L 93.497295 86.079378 
L 97.263115 85.163827 
L 101.028934 84.723732 
L 102.911844 85.263238 
L 104.794754 86.524476 
L 106.677664 87.430377 
L 110.443484 88.438837 
L 112.326393 88.725326 
L 114.209303 89.378109 
L 116.092213 90.181524 
L 117.975123 90.810567 
L 119.858033 91.645472 
L 121.740943 92.157517 
L 123.623852 92.033536 
L 125.506762 91.714777 
L 127.389672 91.716152 
L 129.272582 92.689944 
L 133.038402 95.724858 
L 134.921311 96.844888 
L 136.804221 97.404587 
L 138.687131 97.332053 
L 140.570041 96.794406 
L 142.452951 96.0022 
L 144.335861 95.64265 
L 146.21877 96.128176 
L 148.10168 97.161781 
L 149.98459 98.348408 
L 151.8675 99.135203 
L 155.63332 99.929629 
L 157.51623 99.917751 
L 159.399139 99.531377 
L 161.282049 98.89648 
L 163.164959 98.625539 
L 166.930779 99.033236 
L 168.813689 98.673267 
L 172.579508 97.386579 
L 180.111148 95.664788 
L 181.994057 95.303689 
L 183.876967 95.765662 
L 185.759877 96.545241 
L 187.642787 96.945093 
L 189.525697 97.034426 
L 191.408607 96.86311 
L 193.291516 97.284172 
L 195.174426 97.879112 
L 197.057336 97.960284 
L 198.940246 97.724094 
L 202.706066 96.638075 
L 204.588975 96.601481 
L 206.471885 96.393273 
L 210.237705 95.346309 
L 212.120615 95.035511 
L 214.003525 94.562725 
L 219.652254 92.184482 
L 221.535164 91.71443 
L 223.418074 91.815263 
L 225.300984 92.289019 
L 227.183893 92.620052 
L 229.066803 92.724281 
L 230.949713 92.513563 
L 232.832623 91.9362 
L 234.715533 91.201494 
L 236.598443 90.282778 
L 240.364262 88.040764 
L 242.247172 87.653953 
L 244.130082 87.393448 
L 247.895902 86.414702 
L 249.778811 86.214488 
L 251.661721 85.892958 
L 253.544631 85.713351 
L 255.427541 86.107829 
L 257.310451 86.947972 
L 259.193361 88.110874 
L 261.07627 89.017568 
L 264.84209 91.278617 
L 268.60791 92.446512 
L 272.37373 93.173119 
L 274.256639 93.39786 
L 276.139549 93.35114 
L 279.905369 94.543471 
L 281.788279 95.125883 
L 283.671189 95.562352 
L 285.554098 95.643731 
L 289.319918 96.767502 
L 291.202828 96.812863 
L 293.085738 96.593895 
L 294.968648 96.044912 
L 296.851557 95.323998 
L 298.734467 94.760948 
L 302.500287 94.522151 
L 304.383197 94.250792 
L 306.266107 94.151761 
L 308.149016 93.894089 
L 310.031926 93.291465 
L 313.797746 91.653491 
L 315.680656 91.110322 
L 317.563566 91.187059 
L 321.329385 92.579747 
L 323.212295 93.046382 
L 325.095205 93.152777 
L 326.978115 92.73221 
L 328.861025 91.921575 
L 332.626844 89.784259 
L 334.509754 89.502661 
L 338.275574 90.018183 
L 343.924303 91.045686 
L 345.807213 91.127152 
L 347.690123 91.086353 
L 349.573033 90.58441 
L 351.455943 89.887967 
L 353.338852 89.603927 
L 360.870492 89.618765 
L 362.753402 89.456701 
L 364.636311 89.595029 
L 368.402131 91.235647 
L 372.167951 92.261163 
L 374.050861 92.490047 
L 375.93377 92.563491 
L 377.81668 92.459509 
L 379.69959 92.116913 
L 381.5825 92.319269 
L 383.46541 93.489949 
L 385.34832 95.19662 
L 387.23123 96.276132 
L 390.997049 96.851831 
L 392.879959 97.416848 
L 394.762869 97.664294 
L 400.411598 97.065796 
L 402.294508 96.735178 
L 406.060328 95.287002 
L 407.943238 94.591498 
L 409.826148 94.406906 
L 411.709057 94.965571 
L 413.591967 95.802699 
L 415.474877 96.472287 
L 417.357787 96.956208 
L 419.240697 97.143271 
L 421.123607 96.872351 
L 423.006516 96.220491 
L 424.889426 95.282089 
L 426.772336 94.811002 
L 428.655246 95.497214 
L 430.538156 96.961874 
L 432.421066 98.780068 
L 434.303975 100.192222 
L 436.186885 100.93788 
L 438.069795 101.303455 
L 439.952705 101.313125 
L 441.835615 101.04684 
L 443.718525 100.537327 
L 445.601434 100.367083 
L 447.484344 100.499081 
L 449.367254 100.354098 
L 451.250164 99.88263 
L 453.133074 99.251308 
L 455.015984 98.770378 
L 458.781803 98.319062 
L 460.664713 97.634074 
L 464.430533 95.640079 
L 466.313443 95.020582 
L 468.196352 94.570053 
L 470.079262 93.793647 
L 473.845082 91.832362 
L 475.727992 91.661995 
L 477.610902 92.382356 
L 479.493811 93.56643 
L 481.376721 94.394581 
L 483.259631 94.637461 
L 487.025451 94.409486 
L 490.79127 94.953943 
L 492.67418 94.985957 
L 494.55709 95.168748 
L 496.44 95.143627 
L 496.44 95.143627 
" clip-path="url(#p9816ec0f6c)" style="fill: none; stroke: #1f77b4; stroke-width: 1.5; stroke-linecap: square"/>
   </g>
   <g id="line2d_16">
    <path d="M 37.01 84.211789 
L 44.541639 84.002507 
L 48.307459 83.837032 
L 50.190369 83.928294 
L 53.956189 84.789431 
L 57.722008 85.611516 
L 59.604918 85.499837 
L 61.487828 84.798051 
L 63.370738 83.738486 
L 65.253648 83.219049 
L 67.136557 83.643204 
L 69.019467 84.73047 
L 72.785287 86.372549 
L 74.668197 87.258751 
L 78.434016 89.208623 
L 80.316926 89.401164 
L 84.082746 88.603183 
L 85.965656 88.189824 
L 89.731475 87.089231 
L 93.497295 86.429084 
L 95.380205 86.238592 
L 97.263115 86.250175 
L 99.146025 86.724342 
L 101.028934 87.429344 
L 102.911844 87.303341 
L 104.794754 86.79102 
L 106.677664 87.124026 
L 108.560574 87.289744 
L 110.443484 87.234828 
L 112.326393 87.315916 
L 114.209303 86.96433 
L 116.092213 86.120865 
L 117.975123 85.103912 
L 121.740943 81.997154 
L 125.506762 79.704389 
L 127.389672 78.634784 
L 129.272582 77.190361 
L 131.155492 76.17865 
L 138.687131 75.353314 
L 140.570041 75.625998 
L 142.452951 76.922978 
L 144.335861 78.627782 
L 146.21877 79.854225 
L 148.10168 80.521268 
L 151.8675 80.709017 
L 153.75041 80.5102 
L 157.51623 79.192767 
L 159.399139 78.763742 
L 163.164959 78.217217 
L 166.930779 77.81301 
L 168.813689 78.511946 
L 170.696598 79.78062 
L 172.579508 80.434593 
L 174.462418 81.240979 
L 176.345328 82.368963 
L 178.228238 84.09485 
L 180.111148 86.108515 
L 181.994057 87.831985 
L 183.876967 89.106756 
L 185.759877 89.971457 
L 187.642787 90.600387 
L 189.525697 91.062463 
L 191.408607 91.326069 
L 193.291516 90.666984 
L 195.174426 89.577358 
L 197.057336 88.90687 
L 198.940246 88.482679 
L 200.823156 88.188941 
L 202.706066 87.633054 
L 206.471885 85.161199 
L 208.354795 84.682173 
L 210.237705 85.393978 
L 212.120615 87.055046 
L 215.886434 92.873316 
L 217.769344 94.879897 
L 219.652254 96.108342 
L 221.535164 97.167861 
L 223.418074 98.074658 
L 225.300984 98.543412 
L 227.183893 99.150219 
L 229.066803 99.923413 
L 230.949713 100.424423 
L 232.832623 100.72768 
L 234.715533 101.473784 
L 236.598443 103.112337 
L 238.481352 105.399229 
L 240.364262 108.20279 
L 242.247172 110.46586 
L 244.130082 112.255995 
L 246.012992 113.825728 
L 247.895902 114.768848 
L 249.778811 115.316098 
L 251.661721 116.048488 
L 253.544631 116.333599 
L 255.427541 115.536598 
L 257.310451 113.899295 
L 261.07627 109.406137 
L 266.725 101.692449 
L 274.256639 92.038737 
L 276.139549 89.801908 
L 279.905369 84.043248 
L 281.788279 81.409755 
L 283.671189 79.061398 
L 285.554098 77.407892 
L 287.437008 75.462396 
L 289.319918 73.741987 
L 291.202828 73.081506 
L 294.968648 72.764182 
L 296.851557 72.760534 
L 298.734467 73.414805 
L 300.617377 74.840338 
L 302.500287 77.523427 
L 304.383197 80.698491 
L 306.266107 82.605803 
L 310.031926 84.604396 
L 311.914836 86.213709 
L 313.797746 88.77371 
L 315.680656 92.005137 
L 317.563566 94.611296 
L 319.446475 95.827056 
L 321.329385 96.070017 
L 323.212295 95.853201 
L 325.095205 96.002001 
L 326.978115 97.436336 
L 328.861025 99.713818 
L 330.743934 102.529866 
L 332.626844 105.131492 
L 334.509754 106.117425 
L 336.392664 106.023191 
L 338.275574 105.580646 
L 340.158484 104.970732 
L 342.041393 105.415638 
L 343.924303 107.238528 
L 345.807213 109.356766 
L 347.690123 110.887568 
L 349.573033 112.007642 
L 351.455943 112.865639 
L 353.338852 112.990926 
L 357.104672 112.250954 
L 360.870492 111.22903 
L 364.636311 110.122857 
L 368.402131 108.120937 
L 370.285041 107.355579 
L 372.167951 106.442168 
L 375.93377 105.350237 
L 377.81668 105.47196 
L 379.69959 106.079752 
L 381.5825 105.738922 
L 383.46541 104.599189 
L 387.23123 101.776682 
L 390.997049 99.903953 
L 392.879959 98.447659 
L 394.762869 97.15477 
L 398.528689 95.358435 
L 400.411598 94.576263 
L 402.294508 94.272459 
L 404.177418 94.486038 
L 406.060328 95.353844 
L 407.943238 97.001698 
L 409.826148 98.385159 
L 411.709057 98.446981 
L 413.591967 97.540087 
L 415.474877 96.292554 
L 417.357787 94.841238 
L 419.240697 93.580253 
L 421.123607 92.781776 
L 423.006516 92.451922 
L 426.772336 93.621588 
L 428.655246 92.731272 
L 430.538156 90.802764 
L 432.421066 88.410332 
L 434.303975 86.277307 
L 436.186885 84.491534 
L 438.069795 83.137596 
L 439.952705 82.861602 
L 443.718525 83.085241 
L 445.601434 82.98501 
L 447.484344 82.683282 
L 449.367254 83.399593 
L 453.133074 86.482275 
L 455.015984 88.4845 
L 456.898893 90.669408 
L 458.781803 92.3744 
L 460.664713 93.618534 
L 462.547623 95.329115 
L 464.430533 97.349041 
L 466.313443 98.979386 
L 468.196352 100.254281 
L 470.079262 101.829633 
L 473.845082 106.839983 
L 475.727992 108.933383 
L 477.610902 109.688817 
L 479.493811 109.859909 
L 481.376721 110.289286 
L 483.259631 110.455054 
L 485.142541 110.440455 
L 487.025451 110.106085 
L 488.908361 109.127931 
L 490.79127 108.300279 
L 492.67418 107.689131 
L 494.55709 106.712052 
L 496.44 106.231839 
L 496.44 106.231839 
" clip-path="url(#p9816ec0f6c)" style="fill: none; stroke: #ff7f0e; stroke-width: 1.5; stroke-linecap: square"/>
   </g>
   <g id="line2d_17">
    <path d="M 37.01 84.211338 
L 40.77582 84.465763 
L 42.65873 84.635912 
L 44.541639 85.120385 
L 48.307459 86.856321 
L 50.190369 87.457088 
L 52.073279 87.808912 
L 55.839098 88.028703 
L 57.722008 88.217477 
L 59.604918 88.950417 
L 61.487828 90.504973 
L 63.370738 92.476961 
L 65.253648 94.139011 
L 67.136557 95.021681 
L 70.902377 94.941619 
L 72.785287 94.299527 
L 74.668197 93.256252 
L 76.551107 91.784285 
L 78.434016 90.156781 
L 80.316926 88.876795 
L 82.199836 88.031066 
L 84.082746 87.931455 
L 87.848566 88.369632 
L 89.731475 88.425368 
L 91.614385 88.598317 
L 93.497295 89.739469 
L 95.380205 92.158694 
L 97.263115 94.903683 
L 99.146025 96.549187 
L 101.028934 97.638637 
L 102.911844 99.1515 
L 104.794754 99.831095 
L 108.560574 99.189608 
L 110.443484 98.991957 
L 116.092213 99.67722 
L 117.975123 100.335127 
L 123.623852 103.394745 
L 127.389672 105.087993 
L 129.272582 105.968909 
L 131.155492 105.931493 
L 133.038402 104.995315 
L 134.921311 104.281193 
L 140.570041 103.414784 
L 142.452951 101.91315 
L 144.335861 99.286133 
L 149.98459 89.728517 
L 151.8675 87.764574 
L 153.75041 86.465817 
L 155.63332 86.356001 
L 157.51623 87.549474 
L 159.399139 89.212678 
L 161.282049 91.248279 
L 163.164959 93.053452 
L 165.047869 94.084378 
L 166.930779 94.558246 
L 168.813689 94.479972 
L 170.696598 94.154658 
L 172.579508 94.43979 
L 174.462418 94.53908 
L 176.345328 94.341231 
L 178.228238 93.511096 
L 180.111148 92.164932 
L 181.994057 90.575521 
L 185.759877 85.855656 
L 187.642787 84.147406 
L 189.525697 82.762045 
L 191.408607 81.732018 
L 195.174426 80.248788 
L 197.057336 79.831081 
L 198.940246 80.453256 
L 206.471885 87.489438 
L 208.354795 88.725288 
L 212.120615 90.294551 
L 214.003525 89.655028 
L 215.886434 88.219276 
L 217.769344 87.394495 
L 221.535164 87.499472 
L 229.066803 84.889684 
L 230.949713 84.409707 
L 232.832623 84.062573 
L 236.598443 82.967155 
L 240.364262 82.720261 
L 244.130082 81.607456 
L 246.012992 81.400725 
L 247.895902 81.351951 
L 249.778811 81.784162 
L 251.661721 82.821926 
L 253.544631 84.240938 
L 255.427541 85.94932 
L 257.310451 88.285268 
L 259.193361 92.107092 
L 262.95918 101.975264 
L 264.84209 105.72744 
L 268.60791 111.425051 
L 270.49082 115.592302 
L 274.256639 126.637964 
L 276.139549 131.327315 
L 278.022459 134.901956 
L 279.905369 138.001666 
L 283.671189 144.592877 
L 285.554098 147.57676 
L 287.437008 149.86281 
L 289.319918 151.194601 
L 291.202828 151.527049 
L 294.968648 150.889371 
L 296.851557 150.371489 
L 298.734467 148.954054 
L 300.617377 146.34402 
L 302.500287 142.841323 
L 304.383197 139.085908 
L 306.266107 136.229985 
L 310.031926 132.375912 
L 311.914836 129.914066 
L 313.797746 126.400699 
L 317.563566 118.000127 
L 319.446475 114.726927 
L 321.329385 112.36722 
L 323.212295 110.599416 
L 325.095205 108.643871 
L 326.978115 105.77902 
L 328.861025 102.330375 
L 330.743934 98.584434 
L 332.626844 95.381131 
L 334.509754 93.269532 
L 336.392664 91.575705 
L 338.275574 90.126295 
L 340.158484 88.873242 
L 342.041393 86.543818 
L 345.807213 79.60444 
L 347.690123 76.731079 
L 349.573033 74.756696 
L 351.455943 73.217786 
L 353.338852 72.316677 
L 355.221762 71.789778 
L 357.104672 72.195386 
L 358.987582 73.446897 
L 360.870492 74.861026 
L 364.636311 76.802518 
L 366.519221 77.585278 
L 368.402131 78.700942 
L 372.167951 82.51722 
L 375.93377 87.180432 
L 377.81668 88.891524 
L 379.69959 89.932003 
L 383.46541 91.188895 
L 387.23123 91.9648 
L 389.114139 92.750129 
L 390.997049 94.29474 
L 392.879959 96.602976 
L 394.762869 99.773597 
L 396.645779 103.523802 
L 398.528689 106.756757 
L 400.411598 108.728467 
L 404.177418 111.464461 
L 406.060328 112.213363 
L 407.943238 111.896889 
L 409.826148 111.038064 
L 411.709057 110.384834 
L 413.591967 109.930561 
L 419.240697 109.025717 
L 421.123607 108.993156 
L 424.889426 110.412267 
L 432.421066 111.242984 
L 434.303975 111.522365 
L 436.186885 112.940379 
L 438.069795 114.643917 
L 439.952705 115.562685 
L 441.835615 116.056847 
L 443.718525 116.346715 
L 445.601434 116.443294 
L 447.484344 116.860572 
L 449.367254 116.633612 
L 453.133074 114.926941 
L 455.015984 113.348747 
L 456.898893 110.995335 
L 458.781803 108.962279 
L 460.664713 107.691445 
L 462.547623 106.065212 
L 464.430533 103.947842 
L 470.079262 97.052518 
L 471.962172 94.054293 
L 473.845082 90.815223 
L 475.727992 87.123255 
L 481.376721 77.326964 
L 483.259631 74.946772 
L 485.142541 73.087751 
L 487.025451 71.459049 
L 488.908361 70.208111 
L 490.79127 69.436582 
L 496.44 67.731286 
L 496.44 67.731286 
" clip-path="url(#p9816ec0f6c)" style="fill: none; stroke: #2ca02c; stroke-width: 1.5; stroke-linecap: square"/>
   </g>
   <g id="line2d_18">
    <path d="M 37.01 84.211338 
L 44.541639 84.271507 
L 48.307459 83.71527 
L 53.956189 83.731444 
L 55.839098 83.597525 
L 57.722008 83.00015 
L 59.604918 81.543711 
L 65.253648 75.432854 
L 67.136557 73.692732 
L 69.019467 72.438198 
L 70.902377 71.477808 
L 72.785287 71.329732 
L 74.668197 71.727301 
L 76.551107 71.929682 
L 78.434016 71.82036 
L 80.316926 71.919763 
L 82.199836 72.841438 
L 84.082746 74.393145 
L 87.848566 77.229115 
L 89.731475 78.882663 
L 91.614385 79.639057 
L 93.497295 79.204234 
L 95.380205 77.277797 
L 99.146025 71.891433 
L 101.028934 69.251166 
L 102.911844 66.262654 
L 104.794754 63.664871 
L 106.677664 61.43142 
L 108.560574 59.571512 
L 112.326393 56.731886 
L 114.209303 55.860704 
L 116.092213 56.564164 
L 117.975123 58.160641 
L 119.858033 59.574958 
L 121.740943 60.362605 
L 125.506762 61.2638 
L 127.389672 61.509904 
L 129.272582 62.130407 
L 131.155492 63.87793 
L 133.038402 66.173592 
L 134.921311 67.901205 
L 136.804221 68.646933 
L 138.687131 69.19803 
L 140.570041 69.948129 
L 142.452951 71.585182 
L 146.21877 77.869434 
L 148.10168 80.392396 
L 149.98459 82.43498 
L 151.8675 84.785726 
L 153.75041 87.690614 
L 155.63332 90.338806 
L 157.51623 92.093274 
L 159.399139 92.737083 
L 161.282049 92.183916 
L 163.164959 90.820595 
L 165.047869 89.244063 
L 168.813689 86.582989 
L 172.579508 83.471415 
L 174.462418 82.10172 
L 176.345328 81.287162 
L 178.228238 80.741263 
L 180.111148 80.415518 
L 181.994057 81.389147 
L 183.876967 83.820602 
L 187.642787 90.151013 
L 189.525697 92.504322 
L 191.408607 94.033405 
L 195.174426 96.548268 
L 198.940246 98.464888 
L 202.706066 98.873631 
L 204.588975 99.413751 
L 206.471885 99.37097 
L 208.354795 98.870984 
L 210.237705 97.213623 
L 214.003525 90.983252 
L 215.886434 88.790266 
L 219.652254 85.150769 
L 221.535164 83.447184 
L 223.418074 82.257463 
L 225.300984 81.421866 
L 227.183893 80.354726 
L 229.066803 79.121952 
L 230.949713 78.140987 
L 232.832623 78.27182 
L 234.715533 79.312949 
L 236.598443 80.78012 
L 238.481352 82.097983 
L 240.364262 82.680568 
L 242.247172 82.787044 
L 244.130082 82.68453 
L 247.895902 81.811527 
L 249.778811 80.591212 
L 251.661721 78.480161 
L 253.544631 76.85714 
L 255.427541 75.828633 
L 257.310451 74.231985 
L 259.193361 71.084418 
L 262.95918 62.30495 
L 264.84209 58.883796 
L 268.60791 53.841583 
L 270.49082 50.101988 
L 274.256639 39.960545 
L 276.139549 35.89788 
L 278.022459 33.103942 
L 279.905369 30.716517 
L 281.788279 28.05582 
L 283.671189 26.151124 
L 285.554098 25.174774 
L 287.437008 24.99318 
L 289.319918 26.108558 
L 291.202828 28.908428 
L 294.968648 37.538145 
L 296.851557 40.959955 
L 300.617377 45.749524 
L 302.500287 48.980881 
L 306.266107 57.868113 
L 308.149016 61.54279 
L 311.914836 66.90051 
L 313.797746 70.719458 
L 317.563566 80.679254 
L 319.446475 84.702751 
L 321.329385 87.503151 
L 323.212295 89.953897 
L 325.095205 93.433957 
L 326.978115 98.407207 
L 328.861025 104.012344 
L 330.743934 108.880983 
L 332.626844 112.084832 
L 334.509754 114.087241 
L 336.392664 115.752138 
L 338.275574 118.587845 
L 342.041393 126.917568 
L 345.807213 134.323757 
L 347.690123 137.476742 
L 349.573033 139.701699 
L 353.338852 145.364397 
L 355.221762 147.750523 
L 357.104672 148.85131 
L 358.987582 148.375126 
L 360.870492 147.321339 
L 362.753402 146.486947 
L 364.636311 145.826654 
L 366.519221 145.404325 
L 368.402131 144.231256 
L 372.167951 139.573953 
L 374.050861 136.781185 
L 375.93377 134.407639 
L 377.81668 132.318087 
L 379.69959 130.403355 
L 381.5825 129.06517 
L 383.46541 127.341391 
L 385.34832 125.389653 
L 389.114139 122.424088 
L 390.997049 120.294053 
L 392.879959 117.592758 
L 394.762869 114.007503 
L 396.645779 109.84186 
L 398.528689 106.293715 
L 407.943238 93.579179 
L 409.826148 91.719875 
L 411.709057 90.36578 
L 413.591967 89.39598 
L 415.474877 88.704456 
L 417.357787 89.194226 
L 419.240697 91.924443 
L 421.123607 95.748658 
L 423.006516 99.087243 
L 424.889426 101.380563 
L 426.772336 102.818266 
L 428.655246 103.863977 
L 430.538156 104.440069 
L 432.421066 104.691369 
L 434.303975 105.108072 
L 436.186885 104.946273 
L 438.069795 104.025684 
L 441.835615 101.833449 
L 445.601434 100.070843 
L 449.367254 97.169358 
L 451.250164 96.014996 
L 453.133074 95.482277 
L 455.015984 95.498615 
L 456.898893 96.493875 
L 458.781803 98.063883 
L 462.547623 100.135987 
L 464.430533 102.420909 
L 466.313443 106.451158 
L 468.196352 111.400679 
L 470.079262 115.814829 
L 473.845082 122.300259 
L 475.727992 126.531028 
L 477.610902 131.79892 
L 479.493811 137.692761 
L 481.376721 142.562276 
L 483.259631 146.983092 
L 485.142541 151.108258 
L 487.025451 154.373704 
L 488.908361 156.851151 
L 492.67418 159.721585 
L 494.55709 162.67756 
L 496.44 166.626154 
L 496.44 166.626154 
" clip-path="url(#p9816ec0f6c)" style="fill: none; stroke: #d62728; stroke-width: 1.5; stroke-linecap: square"/>
   </g>
   <g id="patch_3">
    <path d="M 37.01 163.52 
L 37.01 10.08 
" style="fill: none; stroke: #000000; stroke-width: 0.8; stroke-linejoin: miter; stroke-linecap: square"/>
   </g>
   <g id="patch_4">
    <path d="M 496.44 163.52 
L 496.44 10.08 
" style="fill: none; stroke: #000000; stroke-width: 0.8; stroke-linejoin: miter; stroke-linecap: square"/>
   </g>
   <g id="patch_5">
    <path d="M 37.01 163.52 
L 496.44 163.52 
" style="fill: none; stroke: #000000; stroke-width: 0.8; stroke-linejoin: miter; stroke-linecap: square"/>
   </g>
   <g id="patch_6">
    <path d="M 37.01 10.08 
L 496.44 10.08 
" style="fill: none; stroke: #000000; stroke-width: 0.8; stroke-linejoin: miter; stroke-linecap: square"/>
   </g>
   <g id="legend_1">
    <g id="patch_7">
     <path d="M 445.010781 55.677344 
L 491.54 55.677344 
Q 492.94 55.677344 492.94 54.277344 
L 492.94 14.98 
Q 492.94 13.58 491.54 13.58 
L 445.010781 13.58 
Q 443.610781 13.58 443.610781 14.98 
L 443.610781 54.277344 
Q 443.610781 55.677344 445.010781 55.677344 
z
" style="fill: #ffffff; opacity: 0.8; stroke: #cccccc; stroke-linejoin: miter"/>
    </g>
    <g id="line2d_19">
     <path d="M 446.410781 18.96125 
L 453.410781 18.96125 
L 460.410781 18.96125 
" style="fill: none; stroke: #1f77b4; stroke-width: 1.5; stroke-linecap: square"/>
    </g>
    <g id="text_11">
     <!-- Agent 1 -->
     <g transform="translate(466.010781 21.41125) scale(0.07 -0.07)">
      <defs>
       <path id="ArialMT-41" d="M -9 0 
L 1750 4581 
L 2403 4581 
L 4278 0 
L 3588 0 
L 3053 1388 
L 1138 1388 
L 634 0 
L -9 0 
z
M 1313 1881 
L 2866 1881 
L 2388 3150 
Q 2169 3728 2063 4100 
Q 1975 3659 1816 3225 
L 1313 1881 
z
" transform="scale(0.015625)"/>
       <path id="ArialMT-65" d="M 2694 1069 
L 3275 997 
Q 3138 488 2766 206 
Q 2394 -75 1816 -75 
Q 1088 -75 661 373 
Q 234 822 234 1631 
Q 234 2469 665 2931 
Q 1097 3394 1784 3394 
Q 2450 3394 2872 2941 
Q 3294 2488 3294 1666 
Q 3294 1616 3291 1516 
L 816 1516 
Q 847 969 1125 678 
Q 1403 388 1819 388 
Q 2128 388 2347 550 
Q 2566 713 2694 1069 
z
M 847 1978 
L 2700 1978 
Q 2663 2397 2488 2606 
Q 2219 2931 1791 2931 
Q 1403 2931 1139 2672 
Q 875 2413 847 1978 
z
" transform="scale(0.015625)"/>
       <path id="ArialMT-74" d="M 1650 503 
L 1731 6 
Q 1494 -44 1306 -44 
Q 1000 -44 831 53 
Q 663 150 594 308 
Q 525 466 525 972 
L 525 2881 
L 113 2881 
L 113 3319 
L 525 3319 
L 525 4141 
L 1084 4478 
L 1084 3319 
L 1650 3319 
L 1650 2881 
L 1084 2881 
L 1084 941 
Q 1084 700 1114 631 
Q 1144 563 1211 522 
Q 1278 481 1403 481 
Q 1497 481 1650 503 
z
" transform="scale(0.015625)"/>
      </defs>
      <use xlink:href="#ArialMT-41"/>
      <use xlink:href="#ArialMT-67" transform="translate(66.699219 0)"/>
      <use xlink:href="#ArialMT-65" transform="translate(122.314453 0)"/>
      <use xlink:href="#ArialMT-6e" transform="translate(177.929688 0)"/>
      <use xlink:href="#ArialMT-74" transform="translate(233.544922 0)"/>
      <use xlink:href="#ArialMT-20" transform="translate(261.328125 0)"/>
      <use xlink:href="#ArialMT-31" transform="translate(289.111328 0)"/>
     </g>
    </g>
    <g id="line2d_20">
     <path d="M 446.410781 28.965781 
L 453.410781 28.965781 
L 460.410781 28.965781 
" style="fill: none; stroke: #ff7f0e; stroke-width: 1.5; stroke-linecap: square"/>
    </g>
    <g id="text_12">
     <!-- Agent 2 -->
     <g transform="translate(466.010781 31.415781) scale(0.07 -0.07)">
      <use xlink:href="#ArialMT-41"/>
      <use xlink:href="#ArialMT-67" transform="translate(66.699219 0)"/>
      <use xlink:href="#ArialMT-65" transform="translate(122.314453 0)"/>
      <use xlink:href="#ArialMT-6e" transform="translate(177.929688 0)"/>
      <use xlink:href="#ArialMT-74" transform="translate(233.544922 0)"/>
      <use xlink:href="#ArialMT-20" transform="translate(261.328125 0)"/>
      <use xlink:href="#ArialMT-32" transform="translate(289.111328 0)"/>
     </g>
    </g>
    <g id="line2d_21">
     <path d="M 446.410781 38.970313 
L 453.410781 38.970313 
L 460.410781 38.970313 
" style="fill: none; stroke: #2ca02c; stroke-width: 1.5; stroke-linecap: square"/>
    </g>
    <g id="text_13">
     <!-- Agent 3 -->
     <g transform="translate(466.010781 41.420313) scale(0.07 -0.07)">
      <use xlink:href="#ArialMT-41"/>
      <use xlink:href="#ArialMT-67" transform="translate(66.699219 0)"/>
      <use xlink:href="#ArialMT-65" transform="translate(122.314453 0)"/>
      <use xlink:href="#ArialMT-6e" transform="translate(177.929688 0)"/>
      <use xlink:href="#ArialMT-74" transform="translate(233.544922 0)"/>
      <use xlink:href="#ArialMT-20" transform="translate(261.328125 0)"/>
      <use xlink:href="#ArialMT-33" transform="translate(289.111328 0)"/>
     </g>
    </g>
    <g id="line2d_22">
     <path d="M 446.410781 48.954063 
L 453.410781 48.954063 
L 460.410781 48.954063 
" style="fill: none; stroke: #d62728; stroke-width: 1.5; stroke-linecap: square"/>
    </g>
    <g id="text_14">
     <!-- Agent 4 -->
     <g transform="translate(466.010781 51.404063) scale(0.07 -0.07)">
      <use xlink:href="#ArialMT-41"/>
      <use xlink:href="#ArialMT-67" transform="translate(66.699219 0)"/>
      <use xlink:href="#ArialMT-65" transform="translate(122.314453 0)"/>
      <use xlink:href="#ArialMT-6e" transform="translate(177.929688 0)"/>
      <use xlink:href="#ArialMT-74" transform="translate(233.544922 0)"/>
      <use xlink:href="#ArialMT-20" transform="translate(261.328125 0)"/>
      <use xlink:href="#ArialMT-34" transform="translate(289.111328 0)"/>
     </g>
    </g>
   </g>
  </g>
  <g id="axes_2">
   <g id="patch_8">
    <path d="M 37.01 328.48 
L 496.44 328.48 
L 496.44 175.04 
L 37.01 175.04 
z
" style="fill: #ffffff"/>
   </g>
   <g id="matplotlib.axis_3">
    <g id="xtick_6">
     <g id="line2d_23">
      <g>
       <use xlink:href="#m39f36c6c2c" x="37.01" y="328.48" style="stroke: #000000; stroke-width: 0.8"/>
      </g>
     </g>
     <g id="text_15">
      <!-- 0 -->
      <g transform="translate(35.341719 339.774688) scale(0.06 -0.06)">
       <use xlink:href="#ArialMT-30"/>
      </g>
     </g>
    </g>
    <g id="xtick_7">
     <g id="line2d_24">
      <g>
       <use xlink:href="#m39f36c6c2c" x="131.155492" y="328.48" style="stroke: #000000; stroke-width: 0.8"/>
      </g>
     </g>
     <g id="text_16">
      <!-- 50 -->
      <g transform="translate(127.818929 339.774688) scale(0.06 -0.06)">
       <use xlink:href="#ArialMT-35"/>
       <use xlink:href="#ArialMT-30" transform="translate(55.615234 0)"/>
      </g>
     </g>
    </g>
    <g id="xtick_8">
     <g id="line2d_25">
      <g>
       <use xlink:href="#m39f36c6c2c" x="225.300984" y="328.48" style="stroke: #000000; stroke-width: 0.8"/>
      </g>
     </g>
     <g id="text_17">
      <!-- 100 -->
      <g transform="translate(220.29614 339.774688) scale(0.06 -0.06)">
       <use xlink:href="#ArialMT-31"/>
       <use xlink:href="#ArialMT-30" transform="translate(55.615234 0)"/>
       <use xlink:href="#ArialMT-30" transform="translate(111.230469 0)"/>
      </g>
     </g>
    </g>
    <g id="xtick_9">
     <g id="line2d_26">
      <g>
       <use xlink:href="#m39f36c6c2c" x="319.446475" y="328.48" style="stroke: #000000; stroke-width: 0.8"/>
      </g>
     </g>
     <g id="text_18">
      <!-- 150 -->
      <g transform="translate(314.441632 339.774688) scale(0.06 -0.06)">
       <use xlink:href="#ArialMT-31"/>
       <use xlink:href="#ArialMT-35" transform="translate(55.615234 0)"/>
       <use xlink:href="#ArialMT-30" transform="translate(111.230469 0)"/>
      </g>
     </g>
    </g>
    <g id="xtick_10">
     <g id="line2d_27">
      <g>
       <use xlink:href="#m39f36c6c2c" x="413.591967" y="328.48" style="stroke: #000000; stroke-width: 0.8"/>
      </g>
     </g>
     <g id="text_19">
      <!-- 200 -->
      <g transform="translate(408.587123 339.774688) scale(0.06 -0.06)">
       <use xlink:href="#ArialMT-32"/>
       <use xlink:href="#ArialMT-30" transform="translate(55.615234 0)"/>
       <use xlink:href="#ArialMT-30" transform="translate(111.230469 0)"/>
      </g>
     </g>
    </g>
    <g id="text_20">
     <!-- Timesteps (0.1 s) -->
     <g transform="translate(239.823672 350.062969) scale(0.07 -0.07)">
      <defs>
       <path id="ArialMT-54" d="M 1659 0 
L 1659 4041 
L 150 4041 
L 150 4581 
L 3781 4581 
L 3781 4041 
L 2266 4041 
L 2266 0 
L 1659 0 
z
" transform="scale(0.015625)"/>
       <path id="ArialMT-6d" d="M 422 0 
L 422 3319 
L 925 3319 
L 925 2853 
Q 1081 3097 1340 3245 
Q 1600 3394 1931 3394 
Q 2300 3394 2536 3241 
Q 2772 3088 2869 2813 
Q 3263 3394 3894 3394 
Q 4388 3394 4653 3120 
Q 4919 2847 4919 2278 
L 4919 0 
L 4359 0 
L 4359 2091 
Q 4359 2428 4304 2576 
Q 4250 2725 4106 2815 
Q 3963 2906 3769 2906 
Q 3419 2906 3187 2673 
Q 2956 2441 2956 1928 
L 2956 0 
L 2394 0 
L 2394 2156 
Q 2394 2531 2256 2718 
Q 2119 2906 1806 2906 
Q 1569 2906 1367 2781 
Q 1166 2656 1075 2415 
Q 984 2175 984 1722 
L 984 0 
L 422 0 
z
" transform="scale(0.015625)"/>
       <path id="ArialMT-73" d="M 197 991 
L 753 1078 
Q 800 744 1014 566 
Q 1228 388 1613 388 
Q 2000 388 2187 545 
Q 2375 703 2375 916 
Q 2375 1106 2209 1216 
Q 2094 1291 1634 1406 
Q 1016 1563 777 1677 
Q 538 1791 414 1992 
Q 291 2194 291 2438 
Q 291 2659 392 2848 
Q 494 3038 669 3163 
Q 800 3259 1026 3326 
Q 1253 3394 1513 3394 
Q 1903 3394 2198 3281 
Q 2494 3169 2634 2976 
Q 2775 2784 2828 2463 
L 2278 2388 
Q 2241 2644 2061 2787 
Q 1881 2931 1553 2931 
Q 1166 2931 1000 2803 
Q 834 2675 834 2503 
Q 834 2394 903 2306 
Q 972 2216 1119 2156 
Q 1203 2125 1616 2013 
Q 2213 1853 2448 1751 
Q 2684 1650 2818 1456 
Q 2953 1263 2953 975 
Q 2953 694 2789 445 
Q 2625 197 2315 61 
Q 2006 -75 1616 -75 
Q 969 -75 630 194 
Q 291 463 197 991 
z
" transform="scale(0.015625)"/>
       <path id="ArialMT-28" d="M 1497 -1347 
Q 1031 -759 709 28 
Q 388 816 388 1659 
Q 388 2403 628 3084 
Q 909 3875 1497 4659 
L 1900 4659 
Q 1522 4009 1400 3731 
Q 1209 3300 1100 2831 
Q 966 2247 966 1656 
Q 966 153 1900 -1347 
L 1497 -1347 
z
" transform="scale(0.015625)"/>
       <path id="ArialMT-29" d="M 791 -1347 
L 388 -1347 
Q 1322 153 1322 1656 
Q 1322 2244 1188 2822 
Q 1081 3291 891 3722 
Q 769 4003 388 4659 
L 791 4659 
Q 1378 3875 1659 3084 
Q 1900 2403 1900 1659 
Q 1900 816 1576 28 
Q 1253 -759 791 -1347 
z
" transform="scale(0.015625)"/>
      </defs>
      <use xlink:href="#ArialMT-54"/>
      <use xlink:href="#ArialMT-69" transform="translate(57.333984 0)"/>
      <use xlink:href="#ArialMT-6d" transform="translate(79.550781 0)"/>
      <use xlink:href="#ArialMT-65" transform="translate(162.851562 0)"/>
      <use xlink:href="#ArialMT-73" transform="translate(218.466797 0)"/>
      <use xlink:href="#ArialMT-74" transform="translate(268.466797 0)"/>
      <use xlink:href="#ArialMT-65" transform="translate(296.25 0)"/>
      <use xlink:href="#ArialMT-70" transform="translate(351.865234 0)"/>
      <use xlink:href="#ArialMT-73" transform="translate(407.480469 0)"/>
      <use xlink:href="#ArialMT-20" transform="translate(457.480469 0)"/>
      <use xlink:href="#ArialMT-28" transform="translate(485.263672 0)"/>
      <use xlink:href="#ArialMT-30" transform="translate(518.564453 0)"/>
      <use xlink:href="#ArialMT-2e" transform="translate(574.179688 0)"/>
      <use xlink:href="#ArialMT-31" transform="translate(601.962891 0)"/>
      <use xlink:href="#ArialMT-20" transform="translate(657.578125 0)"/>
      <use xlink:href="#ArialMT-73" transform="translate(685.361328 0)"/>
      <use xlink:href="#ArialMT-29" transform="translate(735.361328 0)"/>
     </g>
    </g>
   </g>
   <g id="matplotlib.axis_4">
    <g id="ytick_10">
     <g id="line2d_28">
      <g>
       <use xlink:href="#mf4aa4f52a1" x="37.01" y="328.48" style="stroke: #000000; stroke-width: 0.8"/>
      </g>
     </g>
     <g id="text_21">
      <!-- 0 -->
      <g transform="translate(26.673438 330.627344) scale(0.06 -0.06)">
       <use xlink:href="#ArialMT-30"/>
      </g>
     </g>
    </g>
    <g id="ytick_11">
     <g id="line2d_29">
      <g>
       <use xlink:href="#mf4aa4f52a1" x="37.01" y="308.021333" style="stroke: #000000; stroke-width: 0.8"/>
      </g>
     </g>
     <g id="text_22">
      <!-- 2 -->
      <g transform="translate(26.673438 310.168677) scale(0.06 -0.06)">
       <use xlink:href="#ArialMT-32"/>
      </g>
     </g>
    </g>
    <g id="ytick_12">
     <g id="line2d_30">
      <g>
       <use xlink:href="#mf4aa4f52a1" x="37.01" y="287.562667" style="stroke: #000000; stroke-width: 0.8"/>
      </g>
     </g>
     <g id="text_23">
      <!-- 4 -->
      <g transform="translate(26.673438 289.71001) scale(0.06 -0.06)">
       <use xlink:href="#ArialMT-34"/>
      </g>
     </g>
    </g>
    <g id="ytick_13">
     <g id="line2d_31">
      <g>
       <use xlink:href="#mf4aa4f52a1" x="37.01" y="267.104" style="stroke: #000000; stroke-width: 0.8"/>
      </g>
     </g>
     <g id="text_24">
      <!-- 6 -->
      <g transform="translate(26.673438 269.251344) scale(0.06 -0.06)">
       <defs>
        <path id="ArialMT-36" d="M 3184 3459 
L 2625 3416 
Q 2550 3747 2413 3897 
Q 2184 4138 1850 4138 
Q 1581 4138 1378 3988 
Q 1113 3794 959 3422 
Q 806 3050 800 2363 
Q 1003 2672 1297 2822 
Q 1591 2972 1913 2972 
Q 2475 2972 2870 2558 
Q 3266 2144 3266 1488 
Q 3266 1056 3080 686 
Q 2894 316 2569 119 
Q 2244 -78 1831 -78 
Q 1128 -78 684 439 
Q 241 956 241 2144 
Q 241 3472 731 4075 
Q 1159 4600 1884 4600 
Q 2425 4600 2770 4297 
Q 3116 3994 3184 3459 
z
M 888 1484 
Q 888 1194 1011 928 
Q 1134 663 1356 523 
Q 1578 384 1822 384 
Q 2178 384 2434 671 
Q 2691 959 2691 1453 
Q 2691 1928 2437 2201 
Q 2184 2475 1800 2475 
Q 1419 2475 1153 2201 
Q 888 1928 888 1484 
z
" transform="scale(0.015625)"/>
       </defs>
       <use xlink:href="#ArialMT-36"/>
      </g>
     </g>
    </g>
    <g id="ytick_14">
     <g id="line2d_32">
      <g>
       <use xlink:href="#mf4aa4f52a1" x="37.01" y="246.645333" style="stroke: #000000; stroke-width: 0.8"/>
      </g>
     </g>
     <g id="text_25">
      <!-- 8 -->
      <g transform="translate(26.673438 248.792677) scale(0.06 -0.06)">
       <defs>
        <path id="ArialMT-38" d="M 1131 2484 
Q 781 2613 612 2850 
Q 444 3088 444 3419 
Q 444 3919 803 4259 
Q 1163 4600 1759 4600 
Q 2359 4600 2725 4251 
Q 3091 3903 3091 3403 
Q 3091 3084 2923 2848 
Q 2756 2613 2416 2484 
Q 2838 2347 3058 2040 
Q 3278 1734 3278 1309 
Q 3278 722 2862 322 
Q 2447 -78 1769 -78 
Q 1091 -78 675 323 
Q 259 725 259 1325 
Q 259 1772 486 2073 
Q 713 2375 1131 2484 
z
M 1019 3438 
Q 1019 3113 1228 2906 
Q 1438 2700 1772 2700 
Q 2097 2700 2305 2904 
Q 2513 3109 2513 3406 
Q 2513 3716 2298 3927 
Q 2084 4138 1766 4138 
Q 1444 4138 1231 3931 
Q 1019 3725 1019 3438 
z
M 838 1322 
Q 838 1081 952 856 
Q 1066 631 1291 507 
Q 1516 384 1775 384 
Q 2178 384 2440 643 
Q 2703 903 2703 1303 
Q 2703 1709 2433 1975 
Q 2163 2241 1756 2241 
Q 1359 2241 1098 1978 
Q 838 1716 838 1322 
z
" transform="scale(0.015625)"/>
       </defs>
       <use xlink:href="#ArialMT-38"/>
      </g>
     </g>
    </g>
    <g id="ytick_15">
     <g id="line2d_33">
      <g>
       <use xlink:href="#mf4aa4f52a1" x="37.01" y="226.186667" style="stroke: #000000; stroke-width: 0.8"/>
      </g>
     </g>
     <g id="text_26">
      <!-- 10 -->
      <g transform="translate(23.336875 228.33401) scale(0.06 -0.06)">
       <use xlink:href="#ArialMT-31"/>
       <use xlink:href="#ArialMT-30" transform="translate(55.615234 0)"/>
      </g>
     </g>
    </g>
    <g id="ytick_16">
     <g id="line2d_34">
      <g>
       <use xlink:href="#mf4aa4f52a1" x="37.01" y="205.728" style="stroke: #000000; stroke-width: 0.8"/>
      </g>
     </g>
     <g id="text_27">
      <!-- 12 -->
      <g transform="translate(23.336875 207.875344) scale(0.06 -0.06)">
       <use xlink:href="#ArialMT-31"/>
       <use xlink:href="#ArialMT-32" transform="translate(55.615234 0)"/>
      </g>
     </g>
    </g>
    <g id="ytick_17">
     <g id="line2d_35">
      <g>
       <use xlink:href="#mf4aa4f52a1" x="37.01" y="185.269333" style="stroke: #000000; stroke-width: 0.8"/>
      </g>
     </g>
     <g id="text_28">
      <!-- 14 -->
      <g transform="translate(23.336875 187.416677) scale(0.06 -0.06)">
       <use xlink:href="#ArialMT-31"/>
       <use xlink:href="#ArialMT-34" transform="translate(55.615234 0)"/>
      </g>
     </g>
    </g>
    <g id="text_29">
     <!-- Distance from leader (d/$\lambda_0$) -->
     <g transform="translate(17.796875 294.005) rotate(-90) scale(0.07 -0.07)">
      <defs>
       <path id="ArialMT-44" d="M 494 0 
L 494 4581 
L 2072 4581 
Q 2606 4581 2888 4516 
Q 3281 4425 3559 4188 
Q 3922 3881 4101 3404 
Q 4281 2928 4281 2316 
Q 4281 1794 4159 1391 
Q 4038 988 3847 723 
Q 3656 459 3429 307 
Q 3203 156 2883 78 
Q 2563 0 2147 0 
L 494 0 
z
M 1100 541 
L 2078 541 
Q 2531 541 2789 625 
Q 3047 709 3200 863 
Q 3416 1078 3536 1442 
Q 3656 1806 3656 2325 
Q 3656 3044 3420 3430 
Q 3184 3816 2847 3947 
Q 2603 4041 2063 4041 
L 1100 4041 
L 1100 541 
z
" transform="scale(0.015625)"/>
       <path id="ArialMT-66" d="M 556 0 
L 556 2881 
L 59 2881 
L 59 3319 
L 556 3319 
L 556 3672 
Q 556 4006 616 4169 
Q 697 4388 901 4523 
Q 1106 4659 1475 4659 
Q 1713 4659 2000 4603 
L 1916 4113 
Q 1741 4144 1584 4144 
Q 1328 4144 1222 4034 
Q 1116 3925 1116 3625 
L 1116 3319 
L 1763 3319 
L 1763 2881 
L 1116 2881 
L 1116 0 
L 556 0 
z
" transform="scale(0.015625)"/>
       <path id="ArialMT-72" d="M 416 0 
L 416 3319 
L 922 3319 
L 922 2816 
Q 1116 3169 1280 3281 
Q 1444 3394 1641 3394 
Q 1925 3394 2219 3213 
L 2025 2691 
Q 1819 2813 1613 2813 
Q 1428 2813 1281 2702 
Q 1134 2591 1072 2394 
Q 978 2094 978 1738 
L 978 0 
L 416 0 
z
" transform="scale(0.015625)"/>
       <path id="ArialMT-6f" d="M 213 1659 
Q 213 2581 725 3025 
Q 1153 3394 1769 3394 
Q 2453 3394 2887 2945 
Q 3322 2497 3322 1706 
Q 3322 1066 3130 698 
Q 2938 331 2570 128 
Q 2203 -75 1769 -75 
Q 1072 -75 642 372 
Q 213 819 213 1659 
z
M 791 1659 
Q 791 1022 1069 705 
Q 1347 388 1769 388 
Q 2188 388 2466 706 
Q 2744 1025 2744 1678 
Q 2744 2294 2464 2611 
Q 2184 2928 1769 2928 
Q 1347 2928 1069 2612 
Q 791 2297 791 1659 
z
" transform="scale(0.015625)"/>
       <path id="ArialMT-6c" d="M 409 0 
L 409 4581 
L 972 4581 
L 972 0 
L 409 0 
z
" transform="scale(0.015625)"/>
      </defs>
      <use xlink:href="#ArialMT-44" transform="translate(0 0.015625)"/>
      <use xlink:href="#ArialMT-69" transform="translate(72.216797 0.015625)"/>
      <use xlink:href="#ArialMT-73" transform="translate(94.433594 0.015625)"/>
      <use xlink:href="#ArialMT-74" transform="translate(144.433594 0.015625)"/>
      <use xlink:href="#ArialMT-61" transform="translate(172.216797 0.015625)"/>
      <use xlink:href="#ArialMT-6e" transform="translate(227.832031 0.015625)"/>
      <use xlink:href="#ArialMT-63" transform="translate(283.447266 0.015625)"/>
      <use xlink:href="#ArialMT-65" transform="translate(333.447266 0.015625)"/>
      <use xlink:href="#ArialMT-20" transform="translate(389.0625 0.015625)"/>
      <use xlink:href="#ArialMT-66" transform="translate(416.845703 0.015625)"/>
      <use xlink:href="#ArialMT-72" transform="translate(444.628906 0.015625)"/>
      <use xlink:href="#ArialMT-6f" transform="translate(477.929688 0.015625)"/>
      <use xlink:href="#ArialMT-6d" transform="translate(533.544922 0.015625)"/>
      <use xlink:href="#ArialMT-20" transform="translate(616.845703 0.015625)"/>
      <use xlink:href="#ArialMT-6c" transform="translate(644.628906 0.015625)"/>
      <use xlink:href="#ArialMT-65" transform="translate(666.845703 0.015625)"/>
      <use xlink:href="#ArialMT-61" transform="translate(722.460938 0.015625)"/>
      <use xlink:href="#ArialMT-64" transform="translate(778.076172 0.015625)"/>
      <use xlink:href="#ArialMT-65" transform="translate(833.691406 0.015625)"/>
      <use xlink:href="#ArialMT-72" transform="translate(889.306641 0.015625)"/>
      <use xlink:href="#ArialMT-20" transform="translate(922.607422 0.015625)"/>
      <use xlink:href="#ArialMT-28" transform="translate(950.390625 0.015625)"/>
      <use xlink:href="#ArialMT-64" transform="translate(983.691406 0.015625)"/>
      <use xlink:href="#ArialMT-2f" transform="translate(1039.306641 0.015625)"/>
      <use xlink:href="#DejaVuSans-Oblique-3bb" transform="translate(1067.089844 0.015625)"/>
      <use xlink:href="#DejaVuSans-30" transform="translate(1126.269531 -16.390625) scale(0.7)"/>
      <use xlink:href="#ArialMT-29" transform="translate(1173.540039 0.015625)"/>
     </g>
    </g>
   </g>
   <g id="line2d_36">
    <path d="M 37.01 305.062899 
L 38.89291 305.164517 
L 40.77582 305.132136 
L 46.424549 304.67986 
L 53.956189 304.848023 
L 57.722008 304.595749 
L 61.487828 304.824753 
L 65.253648 305.184156 
L 69.019467 305.076432 
L 74.668197 304.862759 
L 78.434016 304.931388 
L 87.848566 305.647614 
L 91.614385 305.569426 
L 101.028934 305.117776 
L 102.911844 305.261644 
L 106.677664 305.839547 
L 117.975123 306.740932 
L 121.740943 307.100118 
L 127.389672 306.982421 
L 129.272582 307.242099 
L 133.038402 308.051409 
L 134.921311 308.350084 
L 136.804221 308.499337 
L 138.687131 308.479995 
L 144.335861 308.029487 
L 146.21877 308.158961 
L 151.8675 308.960835 
L 155.63332 309.172681 
L 159.399139 309.066481 
L 163.164959 308.824924 
L 166.930779 308.933643 
L 170.696598 308.66499 
L 176.345328 308.246325 
L 181.994057 307.939097 
L 189.525697 308.400627 
L 191.408607 308.354943 
L 197.057336 308.647523 
L 200.823156 308.425728 
L 202.706066 308.294934 
L 206.471885 308.229653 
L 217.769344 307.308553 
L 221.535164 306.981962 
L 225.300984 307.135185 
L 229.066803 307.251255 
L 232.832623 307.0411 
L 236.598443 306.600188 
L 240.364262 306.002317 
L 253.544631 305.381674 
L 255.427541 305.486868 
L 261.07627 306.262799 
L 266.725 307.030214 
L 272.37373 307.370946 
L 278.022459 307.56239 
L 283.671189 308.008074 
L 285.554098 308.029775 
L 289.319918 308.329448 
L 293.085738 308.283152 
L 300.617377 307.765063 
L 308.149016 307.563204 
L 311.914836 307.186311 
L 315.680656 306.820866 
L 317.563566 306.84133 
L 323.212295 307.337149 
L 325.095205 307.365521 
L 328.861025 307.0372 
L 332.626844 306.467249 
L 334.509754 306.392157 
L 347.690123 306.814475 
L 353.338852 306.419161 
L 364.636311 306.416788 
L 368.402131 306.854286 
L 374.050861 307.188793 
L 377.81668 307.180649 
L 379.69959 307.089291 
L 381.5825 307.143252 
L 383.46541 307.455433 
L 385.34832 307.910546 
L 387.23123 308.198416 
L 394.762869 308.568592 
L 402.294508 308.320828 
L 409.826148 307.699955 
L 419.240697 308.429653 
L 423.006516 308.183578 
L 424.889426 307.933337 
L 426.772336 307.807714 
L 428.655246 307.990704 
L 436.186885 309.441548 
L 439.952705 309.541614 
L 458.781803 308.743197 
L 462.547623 308.297958 
L 466.313443 307.863602 
L 470.079262 307.536419 
L 473.845082 307.01341 
L 475.727992 306.967979 
L 477.610902 307.160075 
L 481.376721 307.696669 
L 485.142541 307.725874 
L 488.908361 307.784946 
L 494.55709 307.903113 
L 496.44 307.896414 
L 496.44 307.896414 
" clip-path="url(#pd609ce92e4)" style="fill: none; stroke: #1f77b4; stroke-width: 1.5; stroke-linecap: square"/>
   </g>
   <g id="line2d_37">
    <path d="M 37.01 281.564156 
L 38.89291 281.644707 
L 40.77582 281.602325 
L 46.424549 281.107116 
L 50.190369 281.231937 
L 53.956189 281.503318 
L 65.253648 281.420683 
L 69.019467 281.716005 
L 72.785287 281.97226 
L 76.551107 282.46276 
L 80.316926 282.976067 
L 84.082746 283.168701 
L 87.848566 283.064332 
L 97.263115 282.279961 
L 101.028934 282.477048 
L 104.794754 282.787026 
L 106.677664 283.117401 
L 110.443484 283.415872 
L 114.209303 283.594211 
L 117.975123 283.480089 
L 121.740943 283.010806 
L 127.389672 281.996477 
L 129.272582 281.870976 
L 131.155492 282.019892 
L 134.921311 282.57445 
L 136.804221 282.663059 
L 140.570041 282.548335 
L 142.452951 282.682942 
L 146.21877 283.498201 
L 149.98459 284.304636 
L 151.8675 284.52802 
L 153.75041 284.595081 
L 157.51623 284.332366 
L 163.164959 283.727629 
L 168.813689 283.818951 
L 170.696598 283.984603 
L 174.462418 284.081306 
L 176.345328 284.256162 
L 180.111148 285.042442 
L 183.876967 285.868872 
L 185.759877 286.307347 
L 187.642787 286.581689 
L 189.525697 286.728731 
L 193.291516 286.689869 
L 198.940246 286.2247 
L 202.706066 285.708529 
L 208.354795 284.718631 
L 210.237705 284.766971 
L 212.120615 285.127043 
L 215.886434 286.342904 
L 217.769344 286.654639 
L 221.535164 286.938172 
L 229.066803 287.942279 
L 230.949713 288.01969 
L 234.715533 287.949635 
L 238.481352 288.441796 
L 244.130082 289.809412 
L 246.012992 290.087104 
L 251.661721 290.420613 
L 253.544631 290.448747 
L 257.310451 290.128832 
L 261.07627 289.482549 
L 266.725 288.192981 
L 272.37373 286.604333 
L 283.671189 283.135894 
L 287.437008 282.340206 
L 289.319918 282.038758 
L 296.851557 281.392103 
L 298.734467 281.416428 
L 300.617377 281.767266 
L 306.266107 283.704911 
L 311.914836 284.221414 
L 313.797746 284.683481 
L 317.563566 286.115789 
L 319.446475 286.625459 
L 321.329385 286.876165 
L 325.095205 287.010835 
L 326.978115 287.281173 
L 334.509754 288.734917 
L 338.275574 288.729248 
L 340.158484 288.66323 
L 342.041393 288.893195 
L 345.807213 290.031939 
L 347.690123 290.429273 
L 349.573033 290.594108 
L 353.338852 290.594855 
L 358.987582 290.260071 
L 366.519221 289.776757 
L 372.167951 289.557116 
L 377.81668 289.351286 
L 381.5825 289.385078 
L 387.23123 289.383645 
L 390.997049 289.03777 
L 396.645779 288.223485 
L 400.411598 287.67411 
L 404.177418 287.38293 
L 406.060328 287.40712 
L 411.709057 288.146241 
L 413.591967 288.127637 
L 417.357787 287.715547 
L 423.006516 286.882204 
L 424.889426 286.792663 
L 428.655246 286.763824 
L 434.303975 286.294768 
L 438.069795 285.753841 
L 447.484344 285.418191 
L 449.367254 285.570545 
L 455.015984 286.504195 
L 456.898893 287.037178 
L 458.781803 287.421151 
L 462.547623 287.763835 
L 471.962172 289.123481 
L 481.376721 291.151925 
L 483.259631 291.260898 
L 487.025451 291.107046 
L 496.44 290.269685 
L 496.44 290.269685 
" clip-path="url(#pd609ce92e4)" style="fill: none; stroke: #ff7f0e; stroke-width: 1.5; stroke-linecap: square"/>
   </g>
   <g id="line2d_38">
    <path d="M 37.01 258.065294 
L 40.77582 258.171309 
L 44.541639 257.971135 
L 46.424549 258.090017 
L 53.956189 258.98944 
L 57.722008 259.039708 
L 59.604918 259.274909 
L 63.370738 260.120872 
L 65.253648 260.569199 
L 67.136557 260.902988 
L 70.902377 261.194126 
L 74.668197 261.089654 
L 84.082746 260.66187 
L 87.848566 260.674347 
L 91.614385 260.418607 
L 93.497295 260.547123 
L 95.380205 261.014183 
L 97.263115 261.63239 
L 102.911844 263.072496 
L 104.794754 263.453432 
L 106.677664 263.687048 
L 119.858033 264.366951 
L 121.740943 264.37874 
L 127.389672 264.064722 
L 134.921311 264.427549 
L 138.687131 264.359311 
L 142.452951 263.904562 
L 146.21877 263.162038 
L 149.98459 262.277021 
L 153.75041 261.697412 
L 155.63332 261.585327 
L 159.399139 261.949754 
L 165.047869 262.870639 
L 170.696598 263.137292 
L 176.345328 263.458604 
L 180.111148 263.664537 
L 183.876967 263.444099 
L 191.408607 262.593327 
L 197.057336 261.733871 
L 198.940246 261.723682 
L 202.706066 262.146795 
L 210.237705 262.671742 
L 214.003525 263.7237 
L 217.769344 264.004618 
L 225.300984 264.468852 
L 229.066803 264.624309 
L 230.949713 264.573726 
L 234.715533 264.275355 
L 236.598443 264.310947 
L 238.481352 264.592729 
L 242.247172 265.361171 
L 246.012992 265.838745 
L 249.778811 266.164941 
L 257.310451 267.716351 
L 259.193361 268.447195 
L 262.95918 270.316021 
L 264.84209 270.890304 
L 268.60791 271.450238 
L 270.49082 272.030757 
L 274.256639 273.834224 
L 276.139549 274.475771 
L 287.437008 276.348402 
L 289.319918 276.402098 
L 291.202828 276.32672 
L 294.968648 275.867265 
L 302.500287 274.584181 
L 306.266107 274.077688 
L 310.031926 273.353481 
L 317.563566 271.62727 
L 323.212295 270.480741 
L 326.978115 269.533692 
L 332.626844 268.026843 
L 338.275574 266.807707 
L 345.807213 265.30457 
L 353.338852 263.924082 
L 355.221762 263.700986 
L 357.104672 263.683245 
L 362.753402 264.215215 
L 366.519221 264.510945 
L 368.402131 264.763015 
L 379.69959 267.448653 
L 387.23123 267.952372 
L 389.114139 268.006465 
L 390.997049 268.227814 
L 392.879959 268.60567 
L 394.762869 269.172384 
L 396.645779 269.874613 
L 398.528689 270.429317 
L 402.294508 270.921989 
L 407.943238 271.545031 
L 411.709057 271.626977 
L 415.474877 271.244534 
L 421.123607 270.253617 
L 423.006516 270.19289 
L 428.655246 270.356919 
L 432.421066 270.196577 
L 434.303975 270.078846 
L 438.069795 270.370333 
L 441.835615 270.631887 
L 447.484344 270.625791 
L 453.133074 270.790481 
L 456.898893 270.680714 
L 460.664713 270.332755 
L 464.430533 269.797531 
L 468.196352 269.069715 
L 475.727992 267.33931 
L 483.259631 265.291484 
L 488.908361 263.697452 
L 494.55709 262.679774 
L 496.44 262.376142 
L 496.44 262.376142 
" clip-path="url(#pd609ce92e4)" style="fill: none; stroke: #2ca02c; stroke-width: 1.5; stroke-linecap: square"/>
   </g>
   <g id="line2d_39">
    <path d="M 37.01 234.566431 
L 38.89291 234.673704 
L 40.77582 234.667671 
L 44.541639 234.488317 
L 46.424549 234.526277 
L 48.307459 234.691199 
L 52.073279 235.234396 
L 53.956189 235.362606 
L 57.722008 235.217862 
L 63.370738 234.791439 
L 67.136557 234.599164 
L 72.785287 234.229623 
L 76.551107 234.209379 
L 80.316926 233.94471 
L 82.199836 234.109316 
L 87.848566 235.313559 
L 89.731475 235.618295 
L 93.497295 235.713032 
L 97.263115 235.543512 
L 101.028934 235.070556 
L 106.677664 234.11354 
L 110.443484 233.426533 
L 112.326393 233.183975 
L 114.209303 233.105991 
L 116.092213 233.337461 
L 119.858033 234.298387 
L 121.740943 234.520215 
L 127.389672 234.512144 
L 129.272582 234.787021 
L 134.921311 236.579317 
L 136.804221 236.797067 
L 142.452951 237.038724 
L 146.21877 237.972001 
L 151.8675 238.630994 
L 155.63332 239.720456 
L 157.51623 240.326659 
L 159.399139 240.724423 
L 161.282049 240.867082 
L 163.164959 240.850269 
L 166.930779 240.485986 
L 174.462418 239.27508 
L 178.228238 239.155677 
L 180.111148 239.153456 
L 181.994057 239.352546 
L 183.876967 239.84104 
L 187.642787 241.150828 
L 189.525697 241.55599 
L 193.291516 241.777904 
L 197.057336 241.764017 
L 204.588975 242.810695 
L 206.471885 242.90309 
L 208.354795 242.833864 
L 212.120615 242.368029 
L 215.886434 241.635009 
L 219.652254 240.896993 
L 223.418074 240.38757 
L 227.183893 240.039276 
L 232.832623 239.325328 
L 234.715533 239.470255 
L 236.598443 239.897092 
L 240.364262 241.097624 
L 242.247172 241.482496 
L 246.012992 241.826568 
L 249.778811 241.700711 
L 251.661721 241.524064 
L 259.193361 241.44782 
L 262.95918 240.975454 
L 268.60791 239.852774 
L 281.788279 236.91631 
L 283.671189 236.757189 
L 287.437008 237.058031 
L 289.319918 237.409161 
L 291.202828 238.080414 
L 294.968648 239.922217 
L 296.851557 240.503382 
L 300.617377 241.081772 
L 302.500287 241.69053 
L 306.266107 243.553965 
L 308.149016 244.203409 
L 311.914836 244.794861 
L 313.797746 245.338417 
L 319.446475 247.896267 
L 321.329385 248.264491 
L 323.212295 248.513227 
L 325.095205 248.987817 
L 326.978115 249.820394 
L 328.861025 250.786618 
L 330.743934 251.546574 
L 332.626844 251.960912 
L 334.509754 252.119617 
L 336.392664 252.147987 
L 338.275574 252.475913 
L 342.041393 253.905792 
L 345.807213 255.169019 
L 347.690123 255.64092 
L 349.573033 255.872574 
L 353.338852 256.732702 
L 355.221762 257.145906 
L 357.104672 257.421708 
L 358.987582 257.502171 
L 362.753402 257.323181 
L 370.285041 257.115581 
L 374.050861 256.647802 
L 379.69959 256.267661 
L 383.46541 255.757635 
L 398.528689 252.819088 
L 404.177418 251.514896 
L 407.943238 250.544259 
L 415.474877 248.943836 
L 417.357787 248.749873 
L 419.240697 249.105437 
L 424.889426 251.360312 
L 426.772336 251.821435 
L 428.655246 252.09876 
L 430.538156 252.208913 
L 434.303975 252.152446 
L 436.186885 252.210073 
L 439.952705 252.025371 
L 443.718525 251.577147 
L 451.250164 250.412061 
L 455.015984 250.286386 
L 460.664713 250.803028 
L 462.547623 250.840383 
L 464.430533 251.154554 
L 466.313443 251.889157 
L 468.196352 252.821343 
L 470.079262 253.589955 
L 473.845082 254.469209 
L 475.727992 255.125698 
L 477.610902 256.037112 
L 479.493811 257.100744 
L 481.376721 257.878617 
L 485.142541 259.096606 
L 487.025451 259.418675 
L 488.908361 259.569206 
L 492.67418 259.661716 
L 494.55709 260.105237 
L 496.44 260.854563 
L 496.44 260.854563 
" clip-path="url(#pd609ce92e4)" style="fill: none; stroke: #d62728; stroke-width: 1.5; stroke-linecap: square"/>
   </g>
   <g id="patch_9">
    <path d="M 37.01 328.48 
L 37.01 175.04 
" style="fill: none; stroke: #000000; stroke-width: 0.8; stroke-linejoin: miter; stroke-linecap: square"/>
   </g>
   <g id="patch_10">
    <path d="M 496.44 328.48 
L 496.44 175.04 
" style="fill: none; stroke: #000000; stroke-width: 0.8; stroke-linejoin: miter; stroke-linecap: square"/>
   </g>
   <g id="patch_11">
    <path d="M 37.01 328.48 
L 496.44 328.48 
" style="fill: none; stroke: #000000; stroke-width: 0.8; stroke-linejoin: miter; stroke-linecap: square"/>
   </g>
   <g id="patch_12">
    <path d="M 37.01 175.04 
L 496.44 175.04 
" style="fill: none; stroke: #000000; stroke-width: 0.8; stroke-linejoin: miter; stroke-linecap: square"/>
   </g>
   <g id="legend_2">
    <g id="patch_13">
     <path d="M 445.010781 220.637344 
L 491.54 220.637344 
Q 492.94 220.637344 492.94 219.237344 
L 492.94 179.94 
Q 492.94 178.54 491.54 178.54 
L 445.010781 178.54 
Q 443.610781 178.54 443.610781 179.94 
L 443.610781 219.237344 
Q 443.610781 220.637344 445.010781 220.637344 
z
" style="fill: #ffffff; opacity: 0.8; stroke: #cccccc; stroke-linejoin: miter"/>
    </g>
    <g id="line2d_40">
     <path d="M 446.410781 183.92125 
L 453.410781 183.92125 
L 460.410781 183.92125 
" style="fill: none; stroke: #1f77b4; stroke-width: 1.5; stroke-linecap: square"/>
    </g>
    <g id="text_30">
     <!-- Agent 1 -->
     <g transform="translate(466.010781 186.37125) scale(0.07 -0.07)">
      <use xlink:href="#ArialMT-41"/>
      <use xlink:href="#ArialMT-67" transform="translate(66.699219 0)"/>
      <use xlink:href="#ArialMT-65" transform="translate(122.314453 0)"/>
      <use xlink:href="#ArialMT-6e" transform="translate(177.929688 0)"/>
      <use xlink:href="#ArialMT-74" transform="translate(233.544922 0)"/>
      <use xlink:href="#ArialMT-20" transform="translate(261.328125 0)"/>
      <use xlink:href="#ArialMT-31" transform="translate(289.111328 0)"/>
     </g>
    </g>
    <g id="line2d_41">
     <path d="M 446.410781 193.925781 
L 453.410781 193.925781 
L 460.410781 193.925781 
" style="fill: none; stroke: #ff7f0e; stroke-width: 1.5; stroke-linecap: square"/>
    </g>
    <g id="text_31">
     <!-- Agent 2 -->
     <g transform="translate(466.010781 196.375781) scale(0.07 -0.07)">
      <use xlink:href="#ArialMT-41"/>
      <use xlink:href="#ArialMT-67" transform="translate(66.699219 0)"/>
      <use xlink:href="#ArialMT-65" transform="translate(122.314453 0)"/>
      <use xlink:href="#ArialMT-6e" transform="translate(177.929688 0)"/>
      <use xlink:href="#ArialMT-74" transform="translate(233.544922 0)"/>
      <use xlink:href="#ArialMT-20" transform="translate(261.328125 0)"/>
      <use xlink:href="#ArialMT-32" transform="translate(289.111328 0)"/>
     </g>
    </g>
    <g id="line2d_42">
     <path d="M 446.410781 203.930313 
L 453.410781 203.930313 
L 460.410781 203.930313 
" style="fill: none; stroke: #2ca02c; stroke-width: 1.5; stroke-linecap: square"/>
    </g>
    <g id="text_32">
     <!-- Agent 3 -->
     <g transform="translate(466.010781 206.380313) scale(0.07 -0.07)">
      <use xlink:href="#ArialMT-41"/>
      <use xlink:href="#ArialMT-67" transform="translate(66.699219 0)"/>
      <use xlink:href="#ArialMT-65" transform="translate(122.314453 0)"/>
      <use xlink:href="#ArialMT-6e" transform="translate(177.929688 0)"/>
      <use xlink:href="#ArialMT-74" transform="translate(233.544922 0)"/>
      <use xlink:href="#ArialMT-20" transform="translate(261.328125 0)"/>
      <use xlink:href="#ArialMT-33" transform="translate(289.111328 0)"/>
     </g>
    </g>
    <g id="line2d_43">
     <path d="M 446.410781 213.914063 
L 453.410781 213.914063 
L 460.410781 213.914063 
" style="fill: none; stroke: #d62728; stroke-width: 1.5; stroke-linecap: square"/>
    </g>
    <g id="text_33">
     <!-- Agent 4 -->
     <g transform="translate(466.010781 216.364063) scale(0.07 -0.07)">
      <use xlink:href="#ArialMT-41"/>
      <use xlink:href="#ArialMT-67" transform="translate(66.699219 0)"/>
      <use xlink:href="#ArialMT-65" transform="translate(122.314453 0)"/>
      <use xlink:href="#ArialMT-6e" transform="translate(177.929688 0)"/>
      <use xlink:href="#ArialMT-74" transform="translate(233.544922 0)"/>
      <use xlink:href="#ArialMT-20" transform="translate(261.328125 0)"/>
      <use xlink:href="#ArialMT-34" transform="translate(289.111328 0)"/>
     </g>
    </g>
   </g>
  </g>
 </g>
 <defs>
  <clipPath id="p9816ec0f6c">
   <rect x="37.01" y="10.08" width="459.43" height="153.44"/>
  </clipPath>
  <clipPath id="pd609ce92e4">
   <rect x="37.01" y="175.04" width="459.43" height="153.44"/>
  </clipPath>
 </defs>
</svg>
