<?xml version="1.0" encoding="utf-8" standalone="no"?>
<!DOCTYPE svg PUBLIC "-//W3C//DTD SVG 1.1//EN"
  "http://www.w3.org/Graphics/SVG/1.1/DTD/svg11.dtd">
<svg xmlns:xlink="http://www.w3.org/1999/xlink" width="504pt" height="360pt" viewBox="0 0 504 360" xmlns="http://www.w3.org/2000/svg" version="1.1">
 <metadata>
  <rdf:RDF xmlns:dc="http://purl.org/dc/elements/1.1/" xmlns:cc="http://creativecommons.org/ns#" xmlns:rdf="http://www.w3.org/1999/02/22-rdf-syntax-ns#">
   <cc:Work>
    <dc:type rdf:resource="http://purl.org/dc/dcmitype/StillImage"/>
    <dc:date>2025-10-16T15:48:04.115062</dc:date>
    <dc:format>image/svg+xml</dc:format>
    <dc:creator>
     <cc:Agent>
      <dc:title>Matplotlib v3.10.7, https://matplotlib.org/</dc:title>
     </cc:Agent>
    </dc:creator>
   </cc:Work>
  </rdf:RDF>
 </metadata>
 <defs>
  <style type="text/css">*{stroke-linejoin: round; stroke-linecap: butt}</style>
 </defs>
 <g id="figure_1">
  <g id="patch_1">
   <path d="M 0 360 
L 504 360 
L 504 0 
L 0 0 
z
" style="fill: #ffffff"/>
  </g>
  <g id="axes_1">
   <g id="patch_2">
    <path d="M 37.01 163.52 
L 496.44 163.52 
L 496.44 10.08 
L 37.01 10.08 
z
" style="fill: #ffffff"/>
   </g>
   <g id="matplotlib.axis_1">
    <g id="xtick_1">
     <g id="line2d_1">
      <defs>
       <path id="me2aca62b34" d="M 0 0 
L 0 3.5 
" style="stroke: #000000; stroke-width: 0.8"/>
      </defs>
      <g>
       <use xlink:href="#me2aca62b34" x="37.01" y="163.52" style="stroke: #000000; stroke-width: 0.8"/>
      </g>
     </g>
    </g>
    <g id="xtick_2">
     <g id="line2d_2">
      <g>
       <use xlink:href="#me2aca62b34" x="129.08014" y="163.52" style="stroke: #000000; stroke-width: 0.8"/>
      </g>
     </g>
    </g>
    <g id="xtick_3">
     <g id="line2d_3">
      <g>
       <use xlink:href="#me2aca62b34" x="221.150281" y="163.52" style="stroke: #000000; stroke-width: 0.8"/>
      </g>
     </g>
    </g>
    <g id="xtick_4">
     <g id="line2d_4">
      <g>
       <use xlink:href="#me2aca62b34" x="313.220421" y="163.52" style="stroke: #000000; stroke-width: 0.8"/>
      </g>
     </g>
    </g>
    <g id="xtick_5">
     <g id="line2d_5">
      <g>
       <use xlink:href="#me2aca62b34" x="405.290561" y="163.52" style="stroke: #000000; stroke-width: 0.8"/>
      </g>
     </g>
    </g>
   </g>
   <g id="matplotlib.axis_2">
    <g id="ytick_1">
     <g id="line2d_6">
      <defs>
       <path id="m9d7aedbcdc" d="M 0 0 
L -3.5 0 
" style="stroke: #000000; stroke-width: 0.8"/>
      </defs>
      <g>
       <use xlink:href="#m9d7aedbcdc" x="37.01" y="163.52" style="stroke: #000000; stroke-width: 0.8"/>
      </g>
     </g>
     <g id="text_1">
      <!-- 0.0 -->
      <g transform="translate(21.67 165.667344) scale(0.06 -0.06)">
       <defs>
        <path id="ArialMT-30" d="M 266 2259 
Q 266 3072 433 3567 
Q 600 4063 929 4331 
Q 1259 4600 1759 4600 
Q 2128 4600 2406 4451 
Q 2684 4303 2865 4023 
Q 3047 3744 3150 3342 
Q 3253 2941 3253 2259 
Q 3253 1453 3087 958 
Q 2922 463 2592 192 
Q 2263 -78 1759 -78 
Q 1097 -78 719 397 
Q 266 969 266 2259 
z
M 844 2259 
Q 844 1131 1108 757 
Q 1372 384 1759 384 
Q 2147 384 2411 759 
Q 2675 1134 2675 2259 
Q 2675 3391 2411 3762 
Q 2147 4134 1753 4134 
Q 1366 4134 1134 3806 
Q 844 3388 844 2259 
z
" transform="scale(0.015625)"/>
        <path id="ArialMT-2e" d="M 581 0 
L 581 641 
L 1222 641 
L 1222 0 
L 581 0 
z
" transform="scale(0.015625)"/>
       </defs>
       <use xlink:href="#ArialMT-30"/>
       <use xlink:href="#ArialMT-2e" transform="translate(55.615234 0)"/>
       <use xlink:href="#ArialMT-30" transform="translate(83.398438 0)"/>
      </g>
     </g>
    </g>
    <g id="ytick_2">
     <g id="line2d_7">
      <g>
       <use xlink:href="#m9d7aedbcdc" x="37.01" y="144.34" style="stroke: #000000; stroke-width: 0.8"/>
      </g>
     </g>
     <g id="text_2">
      <!-- 0.5 -->
      <g transform="translate(21.67 146.487344) scale(0.06 -0.06)">
       <defs>
        <path id="ArialMT-35" d="M 266 1200 
L 856 1250 
Q 922 819 1161 601 
Q 1400 384 1738 384 
Q 2144 384 2425 690 
Q 2706 997 2706 1503 
Q 2706 1984 2436 2262 
Q 2166 2541 1728 2541 
Q 1456 2541 1237 2417 
Q 1019 2294 894 2097 
L 366 2166 
L 809 4519 
L 3088 4519 
L 3088 3981 
L 1259 3981 
L 1013 2750 
Q 1425 3038 1878 3038 
Q 2478 3038 2890 2622 
Q 3303 2206 3303 1553 
Q 3303 931 2941 478 
Q 2500 -78 1738 -78 
Q 1113 -78 717 272 
Q 322 622 266 1200 
z
" transform="scale(0.015625)"/>
       </defs>
       <use xlink:href="#ArialMT-30"/>
       <use xlink:href="#ArialMT-2e" transform="translate(55.615234 0)"/>
       <use xlink:href="#ArialMT-35" transform="translate(83.398438 0)"/>
      </g>
     </g>
    </g>
    <g id="ytick_3">
     <g id="line2d_8">
      <g>
       <use xlink:href="#m9d7aedbcdc" x="37.01" y="125.16" style="stroke: #000000; stroke-width: 0.8"/>
      </g>
     </g>
     <g id="text_3">
      <!-- 1.0 -->
      <g transform="translate(21.67 127.307344) scale(0.06 -0.06)">
       <defs>
        <path id="ArialMT-31" d="M 2384 0 
L 1822 0 
L 1822 3584 
Q 1619 3391 1289 3197 
Q 959 3003 697 2906 
L 697 3450 
Q 1169 3672 1522 3987 
Q 1875 4303 2022 4600 
L 2384 4600 
L 2384 0 
z
" transform="scale(0.015625)"/>
       </defs>
       <use xlink:href="#ArialMT-31"/>
       <use xlink:href="#ArialMT-2e" transform="translate(55.615234 0)"/>
       <use xlink:href="#ArialMT-30" transform="translate(83.398438 0)"/>
      </g>
     </g>
    </g>
    <g id="ytick_4">
     <g id="line2d_9">
      <g>
       <use xlink:href="#m9d7aedbcdc" x="37.01" y="105.98" style="stroke: #000000; stroke-width: 0.8"/>
      </g>
     </g>
     <g id="text_4">
      <!-- 1.5 -->
      <g transform="translate(21.67 108.127344) scale(0.06 -0.06)">
       <use xlink:href="#ArialMT-31"/>
       <use xlink:href="#ArialMT-2e" transform="translate(55.615234 0)"/>
       <use xlink:href="#ArialMT-35" transform="translate(83.398438 0)"/>
      </g>
     </g>
    </g>
    <g id="ytick_5">
     <g id="line2d_10">
      <g>
       <use xlink:href="#m9d7aedbcdc" x="37.01" y="86.8" style="stroke: #000000; stroke-width: 0.8"/>
      </g>
     </g>
     <g id="text_5">
      <!-- 2.0 -->
      <g transform="translate(21.67 88.947344) scale(0.06 -0.06)">
       <defs>
        <path id="ArialMT-32" d="M 3222 541 
L 3222 0 
L 194 0 
Q 188 203 259 391 
Q 375 700 629 1000 
Q 884 1300 1366 1694 
Q 2113 2306 2375 2664 
Q 2638 3022 2638 3341 
Q 2638 3675 2398 3904 
Q 2159 4134 1775 4134 
Q 1369 4134 1125 3890 
Q 881 3647 878 3216 
L 300 3275 
Q 359 3922 746 4261 
Q 1134 4600 1788 4600 
Q 2447 4600 2831 4234 
Q 3216 3869 3216 3328 
Q 3216 3053 3103 2787 
Q 2991 2522 2730 2228 
Q 2469 1934 1863 1422 
Q 1356 997 1212 845 
Q 1069 694 975 541 
L 3222 541 
z
" transform="scale(0.015625)"/>
       </defs>
       <use xlink:href="#ArialMT-32"/>
       <use xlink:href="#ArialMT-2e" transform="translate(55.615234 0)"/>
       <use xlink:href="#ArialMT-30" transform="translate(83.398438 0)"/>
      </g>
     </g>
    </g>
    <g id="ytick_6">
     <g id="line2d_11">
      <g>
       <use xlink:href="#m9d7aedbcdc" x="37.01" y="67.62" style="stroke: #000000; stroke-width: 0.8"/>
      </g>
     </g>
     <g id="text_6">
      <!-- 2.5 -->
      <g transform="translate(21.67 69.767344) scale(0.06 -0.06)">
       <use xlink:href="#ArialMT-32"/>
       <use xlink:href="#ArialMT-2e" transform="translate(55.615234 0)"/>
       <use xlink:href="#ArialMT-35" transform="translate(83.398438 0)"/>
      </g>
     </g>
    </g>
    <g id="ytick_7">
     <g id="line2d_12">
      <g>
       <use xlink:href="#m9d7aedbcdc" x="37.01" y="48.44" style="stroke: #000000; stroke-width: 0.8"/>
      </g>
     </g>
     <g id="text_7">
      <!-- 3.0 -->
      <g transform="translate(21.67 50.587344) scale(0.06 -0.06)">
       <defs>
        <path id="ArialMT-33" d="M 269 1209 
L 831 1284 
Q 928 806 1161 595 
Q 1394 384 1728 384 
Q 2125 384 2398 659 
Q 2672 934 2672 1341 
Q 2672 1728 2419 1979 
Q 2166 2231 1775 2231 
Q 1616 2231 1378 2169 
L 1441 2663 
Q 1497 2656 1531 2656 
Q 1891 2656 2178 2843 
Q 2466 3031 2466 3422 
Q 2466 3731 2256 3934 
Q 2047 4138 1716 4138 
Q 1388 4138 1169 3931 
Q 950 3725 888 3313 
L 325 3413 
Q 428 3978 793 4289 
Q 1159 4600 1703 4600 
Q 2078 4600 2393 4439 
Q 2709 4278 2876 4000 
Q 3044 3722 3044 3409 
Q 3044 3113 2884 2869 
Q 2725 2625 2413 2481 
Q 2819 2388 3044 2092 
Q 3269 1797 3269 1353 
Q 3269 753 2831 336 
Q 2394 -81 1725 -81 
Q 1122 -81 723 278 
Q 325 638 269 1209 
z
" transform="scale(0.015625)"/>
       </defs>
       <use xlink:href="#ArialMT-33"/>
       <use xlink:href="#ArialMT-2e" transform="translate(55.615234 0)"/>
       <use xlink:href="#ArialMT-30" transform="translate(83.398438 0)"/>
      </g>
     </g>
    </g>
    <g id="ytick_8">
     <g id="line2d_13">
      <g>
       <use xlink:href="#m9d7aedbcdc" x="37.01" y="29.26" style="stroke: #000000; stroke-width: 0.8"/>
      </g>
     </g>
     <g id="text_8">
      <!-- 3.5 -->
      <g transform="translate(21.67 31.407344) scale(0.06 -0.06)">
       <use xlink:href="#ArialMT-33"/>
       <use xlink:href="#ArialMT-2e" transform="translate(55.615234 0)"/>
       <use xlink:href="#ArialMT-35" transform="translate(83.398438 0)"/>
      </g>
     </g>
    </g>
    <g id="ytick_9">
     <g id="line2d_14">
      <g>
       <use xlink:href="#m9d7aedbcdc" x="37.01" y="10.08" style="stroke: #000000; stroke-width: 0.8"/>
      </g>
     </g>
     <g id="text_9">
      <!-- 4.0 -->
      <g transform="translate(21.67 12.227344) scale(0.06 -0.06)">
       <defs>
        <path id="ArialMT-34" d="M 2069 0 
L 2069 1097 
L 81 1097 
L 81 1613 
L 2172 4581 
L 2631 4581 
L 2631 1613 
L 3250 1613 
L 3250 1097 
L 2631 1097 
L 2631 0 
L 2069 0 
z
M 2069 1613 
L 2069 3678 
L 634 1613 
L 2069 1613 
z
" transform="scale(0.015625)"/>
       </defs>
       <use xlink:href="#ArialMT-34"/>
       <use xlink:href="#ArialMT-2e" transform="translate(55.615234 0)"/>
       <use xlink:href="#ArialMT-30" transform="translate(83.398438 0)"/>
      </g>
     </g>
    </g>
    <g id="text_10">
     <!-- Spacing d/$\lambda_0$ -->
     <g transform="translate(16.13 107.1) rotate(-90) scale(0.07 -0.07)">
      <defs>
       <path id="ArialMT-53" d="M 288 1472 
L 859 1522 
Q 900 1178 1048 958 
Q 1197 738 1509 602 
Q 1822 466 2213 466 
Q 2559 466 2825 569 
Q 3091 672 3220 851 
Q 3350 1031 3350 1244 
Q 3350 1459 3225 1620 
Q 3100 1781 2813 1891 
Q 2628 1963 1997 2114 
Q 1366 2266 1113 2400 
Q 784 2572 623 2826 
Q 463 3081 463 3397 
Q 463 3744 659 4045 
Q 856 4347 1234 4503 
Q 1613 4659 2075 4659 
Q 2584 4659 2973 4495 
Q 3363 4331 3572 4012 
Q 3781 3694 3797 3291 
L 3216 3247 
Q 3169 3681 2898 3903 
Q 2628 4125 2100 4125 
Q 1550 4125 1298 3923 
Q 1047 3722 1047 3438 
Q 1047 3191 1225 3031 
Q 1400 2872 2139 2705 
Q 2878 2538 3153 2413 
Q 3553 2228 3743 1945 
Q 3934 1663 3934 1294 
Q 3934 928 3725 604 
Q 3516 281 3123 101 
Q 2731 -78 2241 -78 
Q 1619 -78 1198 103 
Q 778 284 539 648 
Q 300 1013 288 1472 
z
" transform="scale(0.015625)"/>
       <path id="ArialMT-70" d="M 422 -1272 
L 422 3319 
L 934 3319 
L 934 2888 
Q 1116 3141 1344 3267 
Q 1572 3394 1897 3394 
Q 2322 3394 2647 3175 
Q 2972 2956 3137 2557 
Q 3303 2159 3303 1684 
Q 3303 1175 3120 767 
Q 2938 359 2589 142 
Q 2241 -75 1856 -75 
Q 1575 -75 1351 44 
Q 1128 163 984 344 
L 984 -1272 
L 422 -1272 
z
M 931 1641 
Q 931 1000 1190 694 
Q 1450 388 1819 388 
Q 2194 388 2461 705 
Q 2728 1022 2728 1688 
Q 2728 2322 2467 2637 
Q 2206 2953 1844 2953 
Q 1484 2953 1207 2617 
Q 931 2281 931 1641 
z
" transform="scale(0.015625)"/>
       <path id="ArialMT-61" d="M 2588 409 
Q 2275 144 1986 34 
Q 1697 -75 1366 -75 
Q 819 -75 525 192 
Q 231 459 231 875 
Q 231 1119 342 1320 
Q 453 1522 633 1644 
Q 813 1766 1038 1828 
Q 1203 1872 1538 1913 
Q 2219 1994 2541 2106 
Q 2544 2222 2544 2253 
Q 2544 2597 2384 2738 
Q 2169 2928 1744 2928 
Q 1347 2928 1158 2789 
Q 969 2650 878 2297 
L 328 2372 
Q 403 2725 575 2942 
Q 747 3159 1072 3276 
Q 1397 3394 1825 3394 
Q 2250 3394 2515 3294 
Q 2781 3194 2906 3042 
Q 3031 2891 3081 2659 
Q 3109 2516 3109 2141 
L 3109 1391 
Q 3109 606 3145 398 
Q 3181 191 3288 0 
L 2700 0 
Q 2613 175 2588 409 
z
M 2541 1666 
Q 2234 1541 1622 1453 
Q 1275 1403 1131 1340 
Q 988 1278 909 1158 
Q 831 1038 831 891 
Q 831 666 1001 516 
Q 1172 366 1500 366 
Q 1825 366 2078 508 
Q 2331 650 2450 897 
Q 2541 1088 2541 1459 
L 2541 1666 
z
" transform="scale(0.015625)"/>
       <path id="ArialMT-63" d="M 2588 1216 
L 3141 1144 
Q 3050 572 2676 248 
Q 2303 -75 1759 -75 
Q 1078 -75 664 370 
Q 250 816 250 1647 
Q 250 2184 428 2587 
Q 606 2991 970 3192 
Q 1334 3394 1763 3394 
Q 2303 3394 2647 3120 
Q 2991 2847 3088 2344 
L 2541 2259 
Q 2463 2594 2264 2762 
Q 2066 2931 1784 2931 
Q 1359 2931 1093 2626 
Q 828 2322 828 1663 
Q 828 994 1084 691 
Q 1341 388 1753 388 
Q 2084 388 2306 591 
Q 2528 794 2588 1216 
z
" transform="scale(0.015625)"/>
       <path id="ArialMT-69" d="M 425 3934 
L 425 4581 
L 988 4581 
L 988 3934 
L 425 3934 
z
M 425 0 
L 425 3319 
L 988 3319 
L 988 0 
L 425 0 
z
" transform="scale(0.015625)"/>
       <path id="ArialMT-6e" d="M 422 0 
L 422 3319 
L 928 3319 
L 928 2847 
Q 1294 3394 1984 3394 
Q 2284 3394 2536 3286 
Q 2788 3178 2913 3003 
Q 3038 2828 3088 2588 
Q 3119 2431 3119 2041 
L 3119 0 
L 2556 0 
L 2556 2019 
Q 2556 2363 2490 2533 
Q 2425 2703 2258 2804 
Q 2091 2906 1866 2906 
Q 1506 2906 1245 2678 
Q 984 2450 984 1813 
L 984 0 
L 422 0 
z
" transform="scale(0.015625)"/>
       <path id="ArialMT-67" d="M 319 -275 
L 866 -356 
Q 900 -609 1056 -725 
Q 1266 -881 1628 -881 
Q 2019 -881 2231 -725 
Q 2444 -569 2519 -288 
Q 2563 -116 2559 434 
Q 2191 0 1641 0 
Q 956 0 581 494 
Q 206 988 206 1678 
Q 206 2153 378 2554 
Q 550 2956 876 3175 
Q 1203 3394 1644 3394 
Q 2231 3394 2613 2919 
L 2613 3319 
L 3131 3319 
L 3131 450 
Q 3131 -325 2973 -648 
Q 2816 -972 2473 -1159 
Q 2131 -1347 1631 -1347 
Q 1038 -1347 672 -1080 
Q 306 -813 319 -275 
z
M 784 1719 
Q 784 1066 1043 766 
Q 1303 466 1694 466 
Q 2081 466 2343 764 
Q 2606 1063 2606 1700 
Q 2606 2309 2336 2618 
Q 2066 2928 1684 2928 
Q 1309 2928 1046 2623 
Q 784 2319 784 1719 
z
" transform="scale(0.015625)"/>
       <path id="ArialMT-20" transform="scale(0.015625)"/>
       <path id="ArialMT-64" d="M 2575 0 
L 2575 419 
Q 2259 -75 1647 -75 
Q 1250 -75 917 144 
Q 584 363 401 755 
Q 219 1147 219 1656 
Q 219 2153 384 2558 
Q 550 2963 881 3178 
Q 1213 3394 1622 3394 
Q 1922 3394 2156 3267 
Q 2391 3141 2538 2938 
L 2538 4581 
L 3097 4581 
L 3097 0 
L 2575 0 
z
M 797 1656 
Q 797 1019 1065 703 
Q 1334 388 1700 388 
Q 2069 388 2326 689 
Q 2584 991 2584 1609 
Q 2584 2291 2321 2609 
Q 2059 2928 1675 2928 
Q 1300 2928 1048 2622 
Q 797 2316 797 1656 
z
" transform="scale(0.015625)"/>
       <path id="ArialMT-2f" d="M 0 -78 
L 1328 4659 
L 1778 4659 
L 453 -78 
L 0 -78 
z
" transform="scale(0.015625)"/>
       <path id="DejaVuSans-Oblique-3bb" d="M 2350 4316 
L 3125 0 
L 2516 0 
L 2038 2588 
L 328 0 
L -281 0 
L 1903 3356 
L 1794 3975 
Q 1725 4369 1391 4369 
L 1091 4369 
L 1184 4863 
L 1550 4856 
Q 2253 4847 2350 4316 
z
" transform="scale(0.015625)"/>
       <path id="DejaVuSans-30" d="M 2034 4250 
Q 1547 4250 1301 3770 
Q 1056 3291 1056 2328 
Q 1056 1369 1301 889 
Q 1547 409 2034 409 
Q 2525 409 2770 889 
Q 3016 1369 3016 2328 
Q 3016 3291 2770 3770 
Q 2525 4250 2034 4250 
z
M 2034 4750 
Q 2819 4750 3233 4129 
Q 3647 3509 3647 2328 
Q 3647 1150 3233 529 
Q 2819 -91 2034 -91 
Q 1250 -91 836 529 
Q 422 1150 422 2328 
Q 422 3509 836 4129 
Q 1250 4750 2034 4750 
z
" transform="scale(0.015625)"/>
      </defs>
      <use xlink:href="#ArialMT-53" transform="translate(0 0.015625)"/>
      <use xlink:href="#ArialMT-70" transform="translate(66.699219 0.015625)"/>
      <use xlink:href="#ArialMT-61" transform="translate(122.314453 0.015625)"/>
      <use xlink:href="#ArialMT-63" transform="translate(177.929688 0.015625)"/>
      <use xlink:href="#ArialMT-69" transform="translate(227.929688 0.015625)"/>
      <use xlink:href="#ArialMT-6e" transform="translate(250.146484 0.015625)"/>
      <use xlink:href="#ArialMT-67" transform="translate(305.761719 0.015625)"/>
      <use xlink:href="#ArialMT-20" transform="translate(361.376953 0.015625)"/>
      <use xlink:href="#ArialMT-64" transform="translate(389.160156 0.015625)"/>
      <use xlink:href="#ArialMT-2f" transform="translate(444.775391 0.015625)"/>
      <use xlink:href="#DejaVuSans-Oblique-3bb" transform="translate(472.558594 0.015625)"/>
      <use xlink:href="#DejaVuSans-30" transform="translate(531.738281 -16.390625) scale(0.7)"/>
     </g>
    </g>
   </g>
   <g id="line2d_15">
    <path d="M 37.01 84.517944 
L 37.930701 84.899014 
L 38.851403 84.777585 
L 41.613507 83.081549 
L 42.534208 83.211666 
L 43.45491 83.555616 
L 44.375611 83.773242 
L 45.296313 83.712159 
L 47.137715 82.766132 
L 48.058417 83.026874 
L 48.979118 83.624896 
L 49.89982 84.434045 
L 50.820521 84.972659 
L 51.741222 84.917541 
L 54.503327 83.887574 
L 55.424028 83.76742 
L 56.344729 83.805887 
L 57.265431 84.024777 
L 58.186132 84.623235 
L 59.106834 85.51359 
L 60.027535 86.143594 
L 61.868938 86.710628 
L 62.789639 86.699639 
L 64.631042 86.079378 
L 66.472445 85.163827 
L 68.313848 84.723732 
L 69.234549 85.263238 
L 70.155251 86.524476 
L 71.075952 87.430377 
L 72.917355 88.438837 
L 73.838056 88.725326 
L 74.758758 89.378109 
L 75.679459 90.181524 
L 76.60016 90.810567 
L 77.520862 91.645472 
L 78.441563 92.157517 
L 79.362265 92.033536 
L 80.282966 91.714777 
L 81.203667 91.716152 
L 82.124369 92.689944 
L 83.965772 95.724858 
L 84.886473 96.844888 
L 85.807174 97.404587 
L 86.727876 97.332053 
L 87.648577 96.794406 
L 88.569279 96.0022 
L 89.48998 95.64265 
L 90.410681 96.128176 
L 93.172786 99.135203 
L 95.014188 99.929629 
L 95.93489 99.917751 
L 96.855591 99.531377 
L 97.776293 98.89648 
L 98.696994 98.625539 
L 100.538397 99.033236 
L 101.459098 98.673267 
L 103.300501 97.386579 
L 106.983307 95.664788 
L 107.904008 95.303689 
L 108.824709 95.765662 
L 109.745411 96.545241 
L 110.666112 96.945093 
L 111.586814 97.034426 
L 112.507515 96.86311 
L 113.428216 97.284172 
L 114.348918 97.879112 
L 115.269619 97.960284 
L 116.190321 97.724094 
L 118.031723 96.638075 
L 118.952425 96.601481 
L 119.873126 96.393273 
L 121.714529 95.346309 
L 122.63523 95.035511 
L 123.555932 94.562725 
L 126.318036 92.184482 
L 127.238737 91.71443 
L 128.159439 91.815263 
L 129.08014 92.289019 
L 130.000842 92.620052 
L 130.921543 92.724281 
L 131.842244 92.513563 
L 132.762946 91.9362 
L 133.683647 91.201494 
L 134.604349 90.282778 
L 136.445752 88.040764 
L 137.366453 87.653953 
L 138.287154 87.393448 
L 140.128557 86.414702 
L 141.049259 86.214488 
L 141.96996 85.892958 
L 142.890661 85.713351 
L 143.811363 86.107829 
L 144.732064 86.947972 
L 145.652766 88.110874 
L 146.573467 89.017568 
L 148.41487 91.278617 
L 150.256273 92.446512 
L 152.097675 93.173119 
L 153.018377 93.39786 
L 153.939078 93.35114 
L 155.780481 94.543471 
L 156.701182 95.125883 
L 157.621884 95.562352 
L 158.542585 95.643731 
L 160.383988 96.767502 
L 161.304689 96.812863 
L 162.225391 96.593895 
L 163.146092 96.044912 
L 164.066794 95.323998 
L 164.987495 94.760948 
L 166.828898 94.522151 
L 167.749599 94.250792 
L 168.670301 94.151761 
L 169.591002 93.894089 
L 170.511703 93.291465 
L 172.353106 91.653491 
L 173.273808 91.110322 
L 174.194509 91.187059 
L 176.035912 92.579747 
L 176.956613 93.046382 
L 177.877315 93.152777 
L 178.798016 92.73221 
L 179.718717 91.921575 
L 181.56012 89.784259 
L 182.480822 89.502661 
L 184.322224 90.018183 
L 187.084329 91.045686 
L 188.00503 91.127152 
L 188.925731 91.086353 
L 189.846433 90.58441 
L 190.767134 89.887967 
L 191.687836 89.603927 
L 195.370641 89.618765 
L 196.291343 89.456701 
L 197.212044 89.595029 
L 199.053447 91.235647 
L 200.89485 92.261163 
L 201.815551 92.490047 
L 202.736253 92.563491 
L 203.656954 92.459509 
L 204.577655 92.116913 
L 205.498357 92.319269 
L 206.419058 93.489949 
L 207.33976 95.19662 
L 208.260461 96.276132 
L 210.101864 96.851831 
L 211.022565 97.416848 
L 211.943267 97.664294 
L 214.705371 97.065796 
L 215.626072 96.735178 
L 218.388176 94.591498 
L 219.308878 94.406906 
L 220.229579 94.965571 
L 221.150281 95.802699 
L 222.070982 96.472287 
L 222.991683 96.956208 
L 223.912385 97.143271 
L 224.833086 96.872351 
L 225.753788 96.220491 
L 226.674489 95.282089 
L 227.59519 94.811002 
L 228.515892 95.497214 
L 229.436593 96.961874 
L 230.357295 98.780068 
L 231.277996 100.192222 
L 232.198697 100.93788 
L 233.119399 101.303455 
L 234.0401 101.313125 
L 234.960802 101.04684 
L 235.881503 100.537327 
L 236.802204 100.367083 
L 237.722906 100.499081 
L 238.643607 100.354098 
L 239.564309 99.88263 
L 240.48501 99.251308 
L 241.405711 98.770378 
L 243.247114 98.319062 
L 244.167816 97.634074 
L 246.009218 95.640079 
L 246.92992 95.020582 
L 247.850621 94.570053 
L 248.771323 93.793647 
L 250.612725 91.832362 
L 251.533427 91.661995 
L 252.454128 92.382356 
L 253.37483 93.56643 
L 254.295531 94.394581 
L 255.216232 94.637461 
L 257.057635 94.409486 
L 258.899038 94.953943 
L 259.819739 94.985957 
L 260.740441 95.168748 
L 261.661142 95.143627 
L 262.581844 94.727751 
L 264.423246 93.401719 
L 265.343948 93.049095 
L 266.264649 93.367079 
L 268.106052 95.316839 
L 269.026754 96.002952 
L 269.947455 96.282633 
L 270.868156 96.010935 
L 271.788858 95.330047 
L 272.709559 94.315661 
L 273.630261 93.022696 
L 274.550962 91.948869 
L 275.471663 91.793413 
L 276.392365 92.220594 
L 278.233768 93.312796 
L 279.154469 93.445712 
L 280.07517 93.222666 
L 281.916573 92.116294 
L 283.757976 90.81434 
L 284.678677 90.445764 
L 285.599379 90.409812 
L 286.52008 90.514726 
L 287.440782 90.165771 
L 290.202886 88.740899 
L 292.044289 88.712883 
L 292.96499 88.913765 
L 294.806393 89.17268 
L 296.647796 89.863881 
L 297.568497 90.476026 
L 298.489198 91.836975 
L 299.4099 93.618827 
L 300.330601 94.738508 
L 301.251303 95.096661 
L 303.092705 94.865396 
L 304.934108 96.101597 
L 306.775511 96.798073 
L 307.696212 96.816945 
L 308.616914 96.405544 
L 310.458317 95.2579 
L 311.379018 95.145433 
L 312.299719 95.728195 
L 313.220421 96.575475 
L 314.141122 97.266063 
L 315.061824 97.790494 
L 315.982525 98.128254 
L 316.903226 98.196721 
L 317.823928 97.952192 
L 318.744629 97.357514 
L 319.665331 96.428354 
L 320.586032 95.750893 
L 321.506733 95.499162 
L 323.348136 94.807478 
L 324.268838 94.752681 
L 325.189539 94.514404 
L 326.11024 93.990534 
L 327.951643 92.27963 
L 328.872345 91.197898 
L 329.793046 90.304755 
L 330.713747 89.754873 
L 332.55515 89.061308 
L 334.396553 87.781114 
L 335.317255 87.011424 
L 336.237956 86.654959 
L 339.00006 86.263389 
L 340.841463 85.922866 
L 341.762164 85.9887 
L 342.682866 86.294374 
L 343.603567 86.413128 
L 347.286373 85.409209 
L 348.207074 85.324979 
L 349.127776 85.557663 
L 350.048477 86.351607 
L 350.969178 87.412597 
L 351.88988 87.994681 
L 352.810581 88.02971 
L 354.651984 87.549363 
L 357.414088 85.977043 
L 358.33479 85.98168 
L 359.255491 86.67828 
L 360.176192 87.795884 
L 361.096894 88.673767 
L 362.017595 89.07762 
L 362.938297 88.941355 
L 363.858998 88.956387 
L 365.700401 90.037208 
L 366.621102 90.979477 
L 367.541804 92.093562 
L 369.383206 93.898237 
L 370.303908 94.286427 
L 371.224609 94.891627 
L 372.145311 96.019414 
L 373.066012 96.777516 
L 373.986713 96.874452 
L 374.907415 96.739352 
L 375.828116 96.854129 
L 377.669519 97.891483 
L 379.510922 98.596981 
L 381.352325 98.623425 
L 382.273026 98.538783 
L 385.03513 97.715694 
L 386.876533 96.509011 
L 388.717936 94.96728 
L 389.638637 94.006234 
L 390.559339 93.688749 
L 391.48004 93.603054 
L 394.242144 92.458345 
L 395.162846 91.765516 
L 396.083547 91.538576 
L 397.004248 92.19299 
L 397.92495 92.662888 
L 398.845651 92.640255 
L 399.766353 92.34509 
L 402.528457 90.417318 
L 403.449158 90.396136 
L 404.36986 91.350893 
L 406.211263 94.388635 
L 407.131964 95.436592 
L 408.052665 95.878632 
L 408.973367 95.675969 
L 409.894068 94.999818 
L 411.735471 92.850056 
L 412.656172 92.553845 
L 413.576874 92.976847 
L 414.497575 93.55835 
L 415.418277 94.407434 
L 416.338978 94.936342 
L 417.259679 95.783043 
L 418.180381 97.280483 
L 420.942485 100.323878 
L 422.783888 101.342605 
L 426.466693 102.230098 
L 427.387395 101.781911 
L 429.228798 100.113561 
L 431.0702 98.995189 
L 431.990902 98.175692 
L 433.832305 96.100482 
L 435.673707 93.616118 
L 436.594409 92.97524 
L 437.51511 92.672222 
L 438.435812 92.208587 
L 440.277214 91.507205 
L 441.197916 90.850325 
L 442.118617 90.592862 
L 443.039319 90.977413 
L 443.96002 91.077976 
L 444.880721 90.782503 
L 445.801423 90.318498 
L 447.642826 88.631833 
L 448.563527 87.722543 
L 449.484228 86.97231 
L 450.40493 86.730527 
L 451.325631 87.250347 
L 452.246333 88.245128 
L 453.167034 89.045548 
L 454.087735 89.394689 
L 455.008437 89.216571 
L 456.84984 88.060907 
L 457.770541 87.25976 
L 458.691242 86.64766 
L 460.532645 86.962453 
L 461.453347 86.755548 
L 462.374048 86.409291 
L 465.136152 85.786198 
L 466.056854 86.727664 
L 466.977555 87.841066 
L 467.898257 88.295788 
L 469.739659 88.855576 
L 471.581062 89.341059 
L 472.501764 89.335809 
L 475.263868 90.191495 
L 476.184569 90.174959 
L 477.105271 89.837266 
L 478.946673 89.62261 
L 479.867375 89.546195 
L 480.788076 89.297139 
L 481.708778 88.756149 
L 482.629479 88.586826 
L 483.55018 89.665727 
L 484.470882 91.158304 
L 485.391583 91.970855 
L 486.312285 92.331958 
L 487.232986 92.228978 
L 488.153687 92.450244 
L 489.074389 93.418421 
L 489.99509 94.818905 
L 490.915792 96.777666 
L 491.836493 98.403714 
L 492.757194 99.092412 
L 493.677896 99.132207 
L 494.598597 98.831746 
L 495.519299 98.691474 
L 496.44 98.866298 
L 496.44 98.866298 
" clip-path="url(#p41a394456b)" style="fill: none; stroke: #1f77b4; stroke-width: 1.5; stroke-linecap: square"/>
   </g>
   <g id="line2d_16">
    <path d="M 37.01 84.211789 
L 40.692806 84.002507 
L 42.534208 83.837032 
L 43.45491 83.928294 
L 45.296313 84.789431 
L 47.137715 85.611516 
L 48.058417 85.499837 
L 48.979118 84.798051 
L 49.89982 83.738486 
L 50.820521 83.219049 
L 51.741222 83.643204 
L 52.661924 84.73047 
L 55.424028 87.258751 
L 57.265431 89.208623 
L 58.186132 89.401164 
L 60.027535 88.603183 
L 60.948236 88.189824 
L 62.789639 87.089231 
L 64.631042 86.429084 
L 65.551743 86.238592 
L 66.472445 86.250175 
L 67.393146 86.724342 
L 68.313848 87.429344 
L 69.234549 87.303341 
L 70.155251 86.79102 
L 71.075952 87.124026 
L 71.996653 87.289744 
L 72.917355 87.234828 
L 73.838056 87.315916 
L 74.758758 86.96433 
L 75.679459 86.120865 
L 76.60016 85.103912 
L 78.441563 81.997154 
L 80.282966 79.704389 
L 81.203667 78.634784 
L 82.124369 77.190361 
L 83.04507 76.17865 
L 86.727876 75.353314 
L 87.648577 75.625998 
L 88.569279 76.922978 
L 89.48998 78.627782 
L 90.410681 79.854225 
L 91.331383 80.521268 
L 93.172786 80.709017 
L 94.093487 80.5102 
L 95.93489 79.192767 
L 97.776293 78.451177 
L 100.538397 77.81301 
L 101.459098 78.511946 
L 102.3798 79.78062 
L 103.300501 80.434593 
L 104.221202 81.240979 
L 105.141904 82.368963 
L 106.062605 84.09485 
L 106.983307 86.108515 
L 107.904008 87.831985 
L 108.824709 89.106756 
L 109.745411 89.971457 
L 110.666112 90.600387 
L 111.586814 91.062463 
L 112.507515 91.326069 
L 113.428216 90.666984 
L 114.348918 89.577358 
L 115.269619 88.90687 
L 116.190321 88.482679 
L 117.111022 88.188941 
L 118.031723 87.633054 
L 119.873126 85.161199 
L 120.793828 84.682173 
L 121.714529 85.393978 
L 122.63523 87.055046 
L 124.476633 92.873316 
L 125.397335 94.879897 
L 127.238737 97.167861 
L 128.159439 98.074658 
L 129.08014 98.543412 
L 130.000842 99.150219 
L 130.921543 99.923413 
L 131.842244 100.424423 
L 132.762946 100.72768 
L 133.683647 101.473784 
L 134.604349 103.112337 
L 135.52505 105.399229 
L 136.445752 108.20279 
L 137.366453 110.46586 
L 139.207856 113.825728 
L 140.128557 114.768848 
L 141.049259 115.316098 
L 141.96996 116.048488 
L 142.890661 116.333599 
L 143.811363 115.536598 
L 144.732064 113.899295 
L 146.573467 109.406137 
L 150.256273 99.26305 
L 153.939078 89.801908 
L 156.701182 81.409755 
L 157.621884 79.061398 
L 158.542585 77.407892 
L 160.383988 73.741987 
L 161.304689 73.081506 
L 163.146092 72.764182 
L 164.066794 72.760534 
L 164.987495 73.414805 
L 165.908196 74.840338 
L 166.828898 77.523427 
L 167.749599 80.698491 
L 168.670301 82.605803 
L 170.511703 84.604396 
L 171.432405 86.213709 
L 172.353106 88.77371 
L 173.273808 92.005137 
L 174.194509 94.611296 
L 175.11521 95.827056 
L 176.035912 96.070017 
L 176.956613 95.853201 
L 177.877315 96.002001 
L 178.798016 97.436336 
L 179.718717 99.713818 
L 181.56012 105.131492 
L 182.480822 106.117425 
L 183.401523 106.023191 
L 184.322224 105.580646 
L 185.242926 104.970732 
L 186.163627 105.415638 
L 187.084329 107.238528 
L 188.00503 109.356766 
L 188.925731 110.887568 
L 189.846433 112.007642 
L 190.767134 112.865639 
L 191.687836 112.990926 
L 193.529238 112.250954 
L 195.370641 111.22903 
L 197.212044 110.122857 
L 199.053447 108.120937 
L 199.974148 107.355579 
L 200.89485 106.442168 
L 202.736253 105.350237 
L 203.656954 105.47196 
L 204.577655 106.079752 
L 205.498357 105.738922 
L 206.419058 104.599189 
L 208.260461 101.776682 
L 210.101864 99.903953 
L 211.943267 97.15477 
L 213.784669 95.358435 
L 214.705371 94.576263 
L 215.626072 94.272459 
L 216.546774 94.486038 
L 217.467475 95.353844 
L 218.388176 97.001698 
L 219.308878 98.385159 
L 220.229579 98.446981 
L 221.150281 97.540087 
L 222.070982 96.292554 
L 223.912385 93.580253 
L 224.833086 92.781776 
L 225.753788 92.451922 
L 227.59519 93.621588 
L 228.515892 92.731272 
L 229.436593 90.802764 
L 231.277996 86.277307 
L 232.198697 84.491534 
L 233.119399 83.137596 
L 234.0401 82.861602 
L 235.881503 83.085241 
L 236.802204 82.98501 
L 237.722906 82.683282 
L 238.643607 83.399593 
L 240.48501 86.482275 
L 243.247114 92.3744 
L 244.167816 93.618534 
L 245.088517 95.329115 
L 246.009218 97.349041 
L 246.92992 98.979386 
L 247.850621 100.254281 
L 248.771323 101.829633 
L 250.612725 106.839983 
L 251.533427 108.933383 
L 252.454128 109.688817 
L 253.37483 109.859909 
L 254.295531 110.289286 
L 255.216232 110.455054 
L 256.136934 110.440455 
L 257.057635 110.106085 
L 258.899038 108.300279 
L 259.819739 107.689131 
L 260.740441 106.712052 
L 261.661142 106.231839 
L 262.581844 106.938748 
L 264.423246 109.192388 
L 265.343948 110.028479 
L 266.264649 109.907044 
L 267.185351 108.62134 
L 269.026754 105.416258 
L 269.947455 103.990156 
L 270.868156 102.898394 
L 271.788858 102.249953 
L 272.709559 102.34981 
L 273.630261 103.104455 
L 274.550962 103.470983 
L 275.471663 102.745099 
L 276.392365 101.373274 
L 277.313066 100.296885 
L 278.233768 99.770092 
L 279.154469 100.03876 
L 280.995872 101.002911 
L 281.916573 101.852587 
L 282.837275 103.21843 
L 283.757976 105.020613 
L 284.678677 107.350196 
L 285.599379 109.094831 
L 286.52008 110.463069 
L 288.361483 113.567661 
L 290.202886 117.775501 
L 291.123587 119.493565 
L 292.044289 121.491909 
L 293.885691 124.293886 
L 294.806393 125.146044 
L 295.727094 125.028241 
L 296.647796 124.447922 
L 297.568497 123.295171 
L 298.489198 121.127038 
L 299.4099 118.29934 
L 300.330601 115.940073 
L 301.251303 114.221648 
L 303.092705 111.355988 
L 306.775511 101.642507 
L 307.696212 99.837156 
L 308.616914 98.334088 
L 311.379018 94.358026 
L 312.299719 91.936338 
L 314.141122 86.486317 
L 315.061824 84.220026 
L 315.982525 82.847287 
L 316.903226 82.584777 
L 318.744629 83.009461 
L 319.665331 84.002485 
L 320.586032 85.804603 
L 321.506733 88.326154 
L 323.348136 95.226313 
L 325.189539 100.79195 
L 326.11024 103.358349 
L 327.951643 107.858621 
L 328.872345 111.488359 
L 329.793046 114.505796 
L 332.55515 120.27416 
L 333.475852 121.951392 
L 335.317255 126.466521 
L 336.237956 127.845011 
L 337.158657 128.535775 
L 338.079359 128.874173 
L 339.920762 129.244522 
L 340.841463 128.927744 
L 341.762164 128.126237 
L 346.365671 121.158883 
L 347.286373 119.478017 
L 348.207074 117.525723 
L 349.127776 115.140856 
L 351.88988 106.328554 
L 352.810581 104.058237 
L 353.731283 102.323099 
L 355.572685 99.554606 
L 356.493387 98.273483 
L 357.414088 96.673634 
L 358.33479 94.738203 
L 361.096894 87.865444 
L 362.017595 86.84633 
L 362.938297 87.146037 
L 363.858998 87.182741 
L 364.779699 86.179789 
L 365.700401 85.425643 
L 367.541804 84.414735 
L 368.462505 83.732146 
L 369.383206 82.588929 
L 370.303908 81.707362 
L 371.224609 81.065088 
L 373.066012 78.847597 
L 373.986713 78.379485 
L 374.907415 78.828193 
L 375.828116 79.662052 
L 377.669519 80.247315 
L 378.59022 81.01162 
L 379.510922 81.54098 
L 380.431623 81.746657 
L 382.273026 81.54476 
L 383.193727 82.012691 
L 384.114429 83.392039 
L 385.955832 87.095408 
L 386.876533 89.437366 
L 387.797234 92.534383 
L 388.717936 96.435577 
L 389.638637 101.20455 
L 390.559339 104.28517 
L 391.48004 106.374864 
L 392.400741 108.083275 
L 393.321443 109.12346 
L 394.242144 109.75713 
L 395.162846 110.187094 
L 396.083547 110.045821 
L 401.607756 105.205305 
L 402.528457 104.092355 
L 403.449158 102.386745 
L 404.36986 99.681579 
L 406.211263 92.976011 
L 407.131964 90.218064 
L 408.052665 88.402795 
L 408.973367 87.547802 
L 409.894068 87.429177 
L 411.735471 87.739471 
L 412.656172 88.27376 
L 413.576874 89.230882 
L 414.497575 90.435513 
L 417.259679 92.388312 
L 418.180381 91.758976 
L 419.101082 90.864119 
L 420.021784 89.478339 
L 426.466693 78.053808 
L 427.387395 77.332057 
L 428.308096 77.62992 
L 429.228798 78.271764 
L 430.149499 78.636503 
L 431.0702 79.28475 
L 431.990902 81.042674 
L 432.911603 84.15568 
L 434.753006 91.75253 
L 435.673707 94.288937 
L 437.51511 97.046067 
L 439.356513 101.914309 
L 442.118617 106.918147 
L 443.039319 107.805716 
L 443.96002 108.362092 
L 444.880721 108.629151 
L 446.722124 108.508478 
L 447.642826 108.294258 
L 449.484228 107.557136 
L 450.40493 107.07367 
L 451.325631 106.292489 
L 452.246333 105.906892 
L 453.167034 106.547907 
L 455.929138 109.851184 
L 456.84984 110.380962 
L 457.770541 110.658093 
L 458.691242 110.713192 
L 459.611944 110.210877 
L 460.532645 110.164257 
L 461.453347 110.836989 
L 462.374048 111.370087 
L 464.215451 111.643803 
L 465.136152 111.356356 
L 466.056854 110.133907 
L 466.977555 108.610892 
L 468.818958 106.560648 
L 469.739659 105.989605 
L 471.581062 105.276315 
L 472.501764 105.341071 
L 475.263868 104.662585 
L 476.184569 104.57407 
L 477.105271 104.893133 
L 478.025972 104.79994 
L 478.946673 104.849645 
L 480.788076 105.984677 
L 481.708778 107.11725 
L 482.629479 108.016058 
L 483.55018 107.089857 
L 484.470882 105.575758 
L 485.391583 105.018346 
L 486.312285 104.925917 
L 487.232986 105.025493 
L 488.153687 104.427488 
L 489.074389 102.705131 
L 489.99509 100.246828 
L 491.836493 93.900423 
L 492.757194 91.897512 
L 493.677896 90.513869 
L 494.598597 89.553003 
L 495.519299 88.760483 
L 496.44 88.607569 
L 496.44 88.607569 
" clip-path="url(#p41a394456b)" style="fill: none; stroke: #ff7f0e; stroke-width: 1.5; stroke-linecap: square"/>
   </g>
   <g id="patch_3">
    <path d="M 37.01 163.52 
L 37.01 10.08 
" style="fill: none; stroke: #000000; stroke-width: 0.8; stroke-linejoin: miter; stroke-linecap: square"/>
   </g>
   <g id="patch_4">
    <path d="M 496.44 163.52 
L 496.44 10.08 
" style="fill: none; stroke: #000000; stroke-width: 0.8; stroke-linejoin: miter; stroke-linecap: square"/>
   </g>
   <g id="patch_5">
    <path d="M 37.01 163.52 
L 496.44 163.52 
" style="fill: none; stroke: #000000; stroke-width: 0.8; stroke-linejoin: miter; stroke-linecap: square"/>
   </g>
   <g id="patch_6">
    <path d="M 37.01 10.08 
L 496.44 10.08 
" style="fill: none; stroke: #000000; stroke-width: 0.8; stroke-linejoin: miter; stroke-linecap: square"/>
   </g>
   <g id="legend_1">
    <g id="patch_7">
     <path d="M 445.010781 35.689062 
L 491.54 35.689062 
Q 492.94 35.689062 492.94 34.289062 
L 492.94 14.98 
Q 492.94 13.58 491.54 13.58 
L 445.010781 13.58 
Q 443.610781 13.58 443.610781 14.98 
L 443.610781 34.289062 
Q 443.610781 35.689062 445.010781 35.689062 
z
" style="fill: #ffffff; opacity: 0.8; stroke: #cccccc; stroke-linejoin: miter"/>
    </g>
    <g id="line2d_17">
     <path d="M 446.410781 18.96125 
L 453.410781 18.96125 
L 460.410781 18.96125 
" style="fill: none; stroke: #1f77b4; stroke-width: 1.5; stroke-linecap: square"/>
    </g>
    <g id="text_11">
     <!-- Agent 1 -->
     <g transform="translate(466.010781 21.41125) scale(0.07 -0.07)">
      <defs>
       <path id="ArialMT-41" d="M -9 0 
L 1750 4581 
L 2403 4581 
L 4278 0 
L 3588 0 
L 3053 1388 
L 1138 1388 
L 634 0 
L -9 0 
z
M 1313 1881 
L 2866 1881 
L 2388 3150 
Q 2169 3728 2063 4100 
Q 1975 3659 1816 3225 
L 1313 1881 
z
" transform="scale(0.015625)"/>
       <path id="ArialMT-65" d="M 2694 1069 
L 3275 997 
Q 3138 488 2766 206 
Q 2394 -75 1816 -75 
Q 1088 -75 661 373 
Q 234 822 234 1631 
Q 234 2469 665 2931 
Q 1097 3394 1784 3394 
Q 2450 3394 2872 2941 
Q 3294 2488 3294 1666 
Q 3294 1616 3291 1516 
L 816 1516 
Q 847 969 1125 678 
Q 1403 388 1819 388 
Q 2128 388 2347 550 
Q 2566 713 2694 1069 
z
M 847 1978 
L 2700 1978 
Q 2663 2397 2488 2606 
Q 2219 2931 1791 2931 
Q 1403 2931 1139 2672 
Q 875 2413 847 1978 
z
" transform="scale(0.015625)"/>
       <path id="ArialMT-74" d="M 1650 503 
L 1731 6 
Q 1494 -44 1306 -44 
Q 1000 -44 831 53 
Q 663 150 594 308 
Q 525 466 525 972 
L 525 2881 
L 113 2881 
L 113 3319 
L 525 3319 
L 525 4141 
L 1084 4478 
L 1084 3319 
L 1650 3319 
L 1650 2881 
L 1084 2881 
L 1084 941 
Q 1084 700 1114 631 
Q 1144 563 1211 522 
Q 1278 481 1403 481 
Q 1497 481 1650 503 
z
" transform="scale(0.015625)"/>
      </defs>
      <use xlink:href="#ArialMT-41"/>
      <use xlink:href="#ArialMT-67" transform="translate(66.699219 0)"/>
      <use xlink:href="#ArialMT-65" transform="translate(122.314453 0)"/>
      <use xlink:href="#ArialMT-6e" transform="translate(177.929688 0)"/>
      <use xlink:href="#ArialMT-74" transform="translate(233.544922 0)"/>
      <use xlink:href="#ArialMT-20" transform="translate(261.328125 0)"/>
      <use xlink:href="#ArialMT-31" transform="translate(289.111328 0)"/>
     </g>
    </g>
    <g id="line2d_18">
     <path d="M 446.410781 28.965781 
L 453.410781 28.965781 
L 460.410781 28.965781 
" style="fill: none; stroke: #ff7f0e; stroke-width: 1.5; stroke-linecap: square"/>
    </g>
    <g id="text_12">
     <!-- Agent 2 -->
     <g transform="translate(466.010781 31.415781) scale(0.07 -0.07)">
      <use xlink:href="#ArialMT-41"/>
      <use xlink:href="#ArialMT-67" transform="translate(66.699219 0)"/>
      <use xlink:href="#ArialMT-65" transform="translate(122.314453 0)"/>
      <use xlink:href="#ArialMT-6e" transform="translate(177.929688 0)"/>
      <use xlink:href="#ArialMT-74" transform="translate(233.544922 0)"/>
      <use xlink:href="#ArialMT-20" transform="translate(261.328125 0)"/>
      <use xlink:href="#ArialMT-32" transform="translate(289.111328 0)"/>
     </g>
    </g>
   </g>
  </g>
  <g id="axes_2">
   <g id="patch_8">
    <path d="M 37.01 328.48 
L 496.44 328.48 
L 496.44 175.04 
L 37.01 175.04 
z
" style="fill: #ffffff"/>
   </g>
   <g id="matplotlib.axis_3">
    <g id="xtick_6">
     <g id="line2d_19">
      <g>
       <use xlink:href="#me2aca62b34" x="37.01" y="328.48" style="stroke: #000000; stroke-width: 0.8"/>
      </g>
     </g>
     <g id="text_13">
      <!-- 0 -->
      <g transform="translate(35.341719 339.774688) scale(0.06 -0.06)">
       <use xlink:href="#ArialMT-30"/>
      </g>
     </g>
    </g>
    <g id="xtick_7">
     <g id="line2d_20">
      <g>
       <use xlink:href="#me2aca62b34" x="129.08014" y="328.48" style="stroke: #000000; stroke-width: 0.8"/>
      </g>
     </g>
     <g id="text_14">
      <!-- 100 -->
      <g transform="translate(124.075297 339.774688) scale(0.06 -0.06)">
       <use xlink:href="#ArialMT-31"/>
       <use xlink:href="#ArialMT-30" transform="translate(55.615234 0)"/>
       <use xlink:href="#ArialMT-30" transform="translate(111.230469 0)"/>
      </g>
     </g>
    </g>
    <g id="xtick_8">
     <g id="line2d_21">
      <g>
       <use xlink:href="#me2aca62b34" x="221.150281" y="328.48" style="stroke: #000000; stroke-width: 0.8"/>
      </g>
     </g>
     <g id="text_15">
      <!-- 200 -->
      <g transform="translate(216.145437 339.774688) scale(0.06 -0.06)">
       <use xlink:href="#ArialMT-32"/>
       <use xlink:href="#ArialMT-30" transform="translate(55.615234 0)"/>
       <use xlink:href="#ArialMT-30" transform="translate(111.230469 0)"/>
      </g>
     </g>
    </g>
    <g id="xtick_9">
     <g id="line2d_22">
      <g>
       <use xlink:href="#me2aca62b34" x="313.220421" y="328.48" style="stroke: #000000; stroke-width: 0.8"/>
      </g>
     </g>
     <g id="text_16">
      <!-- 300 -->
      <g transform="translate(308.215577 339.774688) scale(0.06 -0.06)">
       <use xlink:href="#ArialMT-33"/>
       <use xlink:href="#ArialMT-30" transform="translate(55.615234 0)"/>
       <use xlink:href="#ArialMT-30" transform="translate(111.230469 0)"/>
      </g>
     </g>
    </g>
    <g id="xtick_10">
     <g id="line2d_23">
      <g>
       <use xlink:href="#me2aca62b34" x="405.290561" y="328.48" style="stroke: #000000; stroke-width: 0.8"/>
      </g>
     </g>
     <g id="text_17">
      <!-- 400 -->
      <g transform="translate(400.285717 339.774688) scale(0.06 -0.06)">
       <use xlink:href="#ArialMT-34"/>
       <use xlink:href="#ArialMT-30" transform="translate(55.615234 0)"/>
       <use xlink:href="#ArialMT-30" transform="translate(111.230469 0)"/>
      </g>
     </g>
    </g>
    <g id="text_18">
     <!-- Timesteps (0.1 s) -->
     <g transform="translate(239.823672 350.062969) scale(0.07 -0.07)">
      <defs>
       <path id="ArialMT-54" d="M 1659 0 
L 1659 4041 
L 150 4041 
L 150 4581 
L 3781 4581 
L 3781 4041 
L 2266 4041 
L 2266 0 
L 1659 0 
z
" transform="scale(0.015625)"/>
       <path id="ArialMT-6d" d="M 422 0 
L 422 3319 
L 925 3319 
L 925 2853 
Q 1081 3097 1340 3245 
Q 1600 3394 1931 3394 
Q 2300 3394 2536 3241 
Q 2772 3088 2869 2813 
Q 3263 3394 3894 3394 
Q 4388 3394 4653 3120 
Q 4919 2847 4919 2278 
L 4919 0 
L 4359 0 
L 4359 2091 
Q 4359 2428 4304 2576 
Q 4250 2725 4106 2815 
Q 3963 2906 3769 2906 
Q 3419 2906 3187 2673 
Q 2956 2441 2956 1928 
L 2956 0 
L 2394 0 
L 2394 2156 
Q 2394 2531 2256 2718 
Q 2119 2906 1806 2906 
Q 1569 2906 1367 2781 
Q 1166 2656 1075 2415 
Q 984 2175 984 1722 
L 984 0 
L 422 0 
z
" transform="scale(0.015625)"/>
       <path id="ArialMT-73" d="M 197 991 
L 753 1078 
Q 800 744 1014 566 
Q 1228 388 1613 388 
Q 2000 388 2187 545 
Q 2375 703 2375 916 
Q 2375 1106 2209 1216 
Q 2094 1291 1634 1406 
Q 1016 1563 777 1677 
Q 538 1791 414 1992 
Q 291 2194 291 2438 
Q 291 2659 392 2848 
Q 494 3038 669 3163 
Q 800 3259 1026 3326 
Q 1253 3394 1513 3394 
Q 1903 3394 2198 3281 
Q 2494 3169 2634 2976 
Q 2775 2784 2828 2463 
L 2278 2388 
Q 2241 2644 2061 2787 
Q 1881 2931 1553 2931 
Q 1166 2931 1000 2803 
Q 834 2675 834 2503 
Q 834 2394 903 2306 
Q 972 2216 1119 2156 
Q 1203 2125 1616 2013 
Q 2213 1853 2448 1751 
Q 2684 1650 2818 1456 
Q 2953 1263 2953 975 
Q 2953 694 2789 445 
Q 2625 197 2315 61 
Q 2006 -75 1616 -75 
Q 969 -75 630 194 
Q 291 463 197 991 
z
" transform="scale(0.015625)"/>
       <path id="ArialMT-28" d="M 1497 -1347 
Q 1031 -759 709 28 
Q 388 816 388 1659 
Q 388 2403 628 3084 
Q 909 3875 1497 4659 
L 1900 4659 
Q 1522 4009 1400 3731 
Q 1209 3300 1100 2831 
Q 966 2247 966 1656 
Q 966 153 1900 -1347 
L 1497 -1347 
z
" transform="scale(0.015625)"/>
       <path id="ArialMT-29" d="M 791 -1347 
L 388 -1347 
Q 1322 153 1322 1656 
Q 1322 2244 1188 2822 
Q 1081 3291 891 3722 
Q 769 4003 388 4659 
L 791 4659 
Q 1378 3875 1659 3084 
Q 1900 2403 1900 1659 
Q 1900 816 1576 28 
Q 1253 -759 791 -1347 
z
" transform="scale(0.015625)"/>
      </defs>
      <use xlink:href="#ArialMT-54"/>
      <use xlink:href="#ArialMT-69" transform="translate(57.333984 0)"/>
      <use xlink:href="#ArialMT-6d" transform="translate(79.550781 0)"/>
      <use xlink:href="#ArialMT-65" transform="translate(162.851562 0)"/>
      <use xlink:href="#ArialMT-73" transform="translate(218.466797 0)"/>
      <use xlink:href="#ArialMT-74" transform="translate(268.466797 0)"/>
      <use xlink:href="#ArialMT-65" transform="translate(296.25 0)"/>
      <use xlink:href="#ArialMT-70" transform="translate(351.865234 0)"/>
      <use xlink:href="#ArialMT-73" transform="translate(407.480469 0)"/>
      <use xlink:href="#ArialMT-20" transform="translate(457.480469 0)"/>
      <use xlink:href="#ArialMT-28" transform="translate(485.263672 0)"/>
      <use xlink:href="#ArialMT-30" transform="translate(518.564453 0)"/>
      <use xlink:href="#ArialMT-2e" transform="translate(574.179688 0)"/>
      <use xlink:href="#ArialMT-31" transform="translate(601.962891 0)"/>
      <use xlink:href="#ArialMT-20" transform="translate(657.578125 0)"/>
      <use xlink:href="#ArialMT-73" transform="translate(685.361328 0)"/>
      <use xlink:href="#ArialMT-29" transform="translate(735.361328 0)"/>
     </g>
    </g>
   </g>
   <g id="matplotlib.axis_4">
    <g id="ytick_10">
     <g id="line2d_24">
      <g>
       <use xlink:href="#m9d7aedbcdc" x="37.01" y="328.48" style="stroke: #000000; stroke-width: 0.8"/>
      </g>
     </g>
     <g id="text_19">
      <!-- 0 -->
      <g transform="translate(26.673438 330.627344) scale(0.06 -0.06)">
       <use xlink:href="#ArialMT-30"/>
      </g>
     </g>
    </g>
    <g id="ytick_11">
     <g id="line2d_25">
      <g>
       <use xlink:href="#m9d7aedbcdc" x="37.01" y="308.021333" style="stroke: #000000; stroke-width: 0.8"/>
      </g>
     </g>
     <g id="text_20">
      <!-- 2 -->
      <g transform="translate(26.673438 310.168677) scale(0.06 -0.06)">
       <use xlink:href="#ArialMT-32"/>
      </g>
     </g>
    </g>
    <g id="ytick_12">
     <g id="line2d_26">
      <g>
       <use xlink:href="#m9d7aedbcdc" x="37.01" y="287.562667" style="stroke: #000000; stroke-width: 0.8"/>
      </g>
     </g>
     <g id="text_21">
      <!-- 4 -->
      <g transform="translate(26.673438 289.71001) scale(0.06 -0.06)">
       <use xlink:href="#ArialMT-34"/>
      </g>
     </g>
    </g>
    <g id="ytick_13">
     <g id="line2d_27">
      <g>
       <use xlink:href="#m9d7aedbcdc" x="37.01" y="267.104" style="stroke: #000000; stroke-width: 0.8"/>
      </g>
     </g>
     <g id="text_22">
      <!-- 6 -->
      <g transform="translate(26.673438 269.251344) scale(0.06 -0.06)">
       <defs>
        <path id="ArialMT-36" d="M 3184 3459 
L 2625 3416 
Q 2550 3747 2413 3897 
Q 2184 4138 1850 4138 
Q 1581 4138 1378 3988 
Q 1113 3794 959 3422 
Q 806 3050 800 2363 
Q 1003 2672 1297 2822 
Q 1591 2972 1913 2972 
Q 2475 2972 2870 2558 
Q 3266 2144 3266 1488 
Q 3266 1056 3080 686 
Q 2894 316 2569 119 
Q 2244 -78 1831 -78 
Q 1128 -78 684 439 
Q 241 956 241 2144 
Q 241 3472 731 4075 
Q 1159 4600 1884 4600 
Q 2425 4600 2770 4297 
Q 3116 3994 3184 3459 
z
M 888 1484 
Q 888 1194 1011 928 
Q 1134 663 1356 523 
Q 1578 384 1822 384 
Q 2178 384 2434 671 
Q 2691 959 2691 1453 
Q 2691 1928 2437 2201 
Q 2184 2475 1800 2475 
Q 1419 2475 1153 2201 
Q 888 1928 888 1484 
z
" transform="scale(0.015625)"/>
       </defs>
       <use xlink:href="#ArialMT-36"/>
      </g>
     </g>
    </g>
    <g id="ytick_14">
     <g id="line2d_28">
      <g>
       <use xlink:href="#m9d7aedbcdc" x="37.01" y="246.645333" style="stroke: #000000; stroke-width: 0.8"/>
      </g>
     </g>
     <g id="text_23">
      <!-- 8 -->
      <g transform="translate(26.673438 248.792677) scale(0.06 -0.06)">
       <defs>
        <path id="ArialMT-38" d="M 1131 2484 
Q 781 2613 612 2850 
Q 444 3088 444 3419 
Q 444 3919 803 4259 
Q 1163 4600 1759 4600 
Q 2359 4600 2725 4251 
Q 3091 3903 3091 3403 
Q 3091 3084 2923 2848 
Q 2756 2613 2416 2484 
Q 2838 2347 3058 2040 
Q 3278 1734 3278 1309 
Q 3278 722 2862 322 
Q 2447 -78 1769 -78 
Q 1091 -78 675 323 
Q 259 725 259 1325 
Q 259 1772 486 2073 
Q 713 2375 1131 2484 
z
M 1019 3438 
Q 1019 3113 1228 2906 
Q 1438 2700 1772 2700 
Q 2097 2700 2305 2904 
Q 2513 3109 2513 3406 
Q 2513 3716 2298 3927 
Q 2084 4138 1766 4138 
Q 1444 4138 1231 3931 
Q 1019 3725 1019 3438 
z
M 838 1322 
Q 838 1081 952 856 
Q 1066 631 1291 507 
Q 1516 384 1775 384 
Q 2178 384 2440 643 
Q 2703 903 2703 1303 
Q 2703 1709 2433 1975 
Q 2163 2241 1756 2241 
Q 1359 2241 1098 1978 
Q 838 1716 838 1322 
z
" transform="scale(0.015625)"/>
       </defs>
       <use xlink:href="#ArialMT-38"/>
      </g>
     </g>
    </g>
    <g id="ytick_15">
     <g id="line2d_29">
      <g>
       <use xlink:href="#m9d7aedbcdc" x="37.01" y="226.186667" style="stroke: #000000; stroke-width: 0.8"/>
      </g>
     </g>
     <g id="text_24">
      <!-- 10 -->
      <g transform="translate(23.336875 228.33401) scale(0.06 -0.06)">
       <use xlink:href="#ArialMT-31"/>
       <use xlink:href="#ArialMT-30" transform="translate(55.615234 0)"/>
      </g>
     </g>
    </g>
    <g id="ytick_16">
     <g id="line2d_30">
      <g>
       <use xlink:href="#m9d7aedbcdc" x="37.01" y="205.728" style="stroke: #000000; stroke-width: 0.8"/>
      </g>
     </g>
     <g id="text_25">
      <!-- 12 -->
      <g transform="translate(23.336875 207.875344) scale(0.06 -0.06)">
       <use xlink:href="#ArialMT-31"/>
       <use xlink:href="#ArialMT-32" transform="translate(55.615234 0)"/>
      </g>
     </g>
    </g>
    <g id="ytick_17">
     <g id="line2d_31">
      <g>
       <use xlink:href="#m9d7aedbcdc" x="37.01" y="185.269333" style="stroke: #000000; stroke-width: 0.8"/>
      </g>
     </g>
     <g id="text_26">
      <!-- 14 -->
      <g transform="translate(23.336875 187.416677) scale(0.06 -0.06)">
       <use xlink:href="#ArialMT-31"/>
       <use xlink:href="#ArialMT-34" transform="translate(55.615234 0)"/>
      </g>
     </g>
    </g>
    <g id="text_27">
     <!-- Distance from leader (d/$\lambda_0$) -->
     <g transform="translate(17.796875 294.005) rotate(-90) scale(0.07 -0.07)">
      <defs>
       <path id="ArialMT-44" d="M 494 0 
L 494 4581 
L 2072 4581 
Q 2606 4581 2888 4516 
Q 3281 4425 3559 4188 
Q 3922 3881 4101 3404 
Q 4281 2928 4281 2316 
Q 4281 1794 4159 1391 
Q 4038 988 3847 723 
Q 3656 459 3429 307 
Q 3203 156 2883 78 
Q 2563 0 2147 0 
L 494 0 
z
M 1100 541 
L 2078 541 
Q 2531 541 2789 625 
Q 3047 709 3200 863 
Q 3416 1078 3536 1442 
Q 3656 1806 3656 2325 
Q 3656 3044 3420 3430 
Q 3184 3816 2847 3947 
Q 2603 4041 2063 4041 
L 1100 4041 
L 1100 541 
z
" transform="scale(0.015625)"/>
       <path id="ArialMT-66" d="M 556 0 
L 556 2881 
L 59 2881 
L 59 3319 
L 556 3319 
L 556 3672 
Q 556 4006 616 4169 
Q 697 4388 901 4523 
Q 1106 4659 1475 4659 
Q 1713 4659 2000 4603 
L 1916 4113 
Q 1741 4144 1584 4144 
Q 1328 4144 1222 4034 
Q 1116 3925 1116 3625 
L 1116 3319 
L 1763 3319 
L 1763 2881 
L 1116 2881 
L 1116 0 
L 556 0 
z
" transform="scale(0.015625)"/>
       <path id="ArialMT-72" d="M 416 0 
L 416 3319 
L 922 3319 
L 922 2816 
Q 1116 3169 1280 3281 
Q 1444 3394 1641 3394 
Q 1925 3394 2219 3213 
L 2025 2691 
Q 1819 2813 1613 2813 
Q 1428 2813 1281 2702 
Q 1134 2591 1072 2394 
Q 978 2094 978 1738 
L 978 0 
L 416 0 
z
" transform="scale(0.015625)"/>
       <path id="ArialMT-6f" d="M 213 1659 
Q 213 2581 725 3025 
Q 1153 3394 1769 3394 
Q 2453 3394 2887 2945 
Q 3322 2497 3322 1706 
Q 3322 1066 3130 698 
Q 2938 331 2570 128 
Q 2203 -75 1769 -75 
Q 1072 -75 642 372 
Q 213 819 213 1659 
z
M 791 1659 
Q 791 1022 1069 705 
Q 1347 388 1769 388 
Q 2188 388 2466 706 
Q 2744 1025 2744 1678 
Q 2744 2294 2464 2611 
Q 2184 2928 1769 2928 
Q 1347 2928 1069 2612 
Q 791 2297 791 1659 
z
" transform="scale(0.015625)"/>
       <path id="ArialMT-6c" d="M 409 0 
L 409 4581 
L 972 4581 
L 972 0 
L 409 0 
z
" transform="scale(0.015625)"/>
      </defs>
      <use xlink:href="#ArialMT-44" transform="translate(0 0.015625)"/>
      <use xlink:href="#ArialMT-69" transform="translate(72.216797 0.015625)"/>
      <use xlink:href="#ArialMT-73" transform="translate(94.433594 0.015625)"/>
      <use xlink:href="#ArialMT-74" transform="translate(144.433594 0.015625)"/>
      <use xlink:href="#ArialMT-61" transform="translate(172.216797 0.015625)"/>
      <use xlink:href="#ArialMT-6e" transform="translate(227.832031 0.015625)"/>
      <use xlink:href="#ArialMT-63" transform="translate(283.447266 0.015625)"/>
      <use xlink:href="#ArialMT-65" transform="translate(333.447266 0.015625)"/>
      <use xlink:href="#ArialMT-20" transform="translate(389.0625 0.015625)"/>
      <use xlink:href="#ArialMT-66" transform="translate(416.845703 0.015625)"/>
      <use xlink:href="#ArialMT-72" transform="translate(444.628906 0.015625)"/>
      <use xlink:href="#ArialMT-6f" transform="translate(477.929688 0.015625)"/>
      <use xlink:href="#ArialMT-6d" transform="translate(533.544922 0.015625)"/>
      <use xlink:href="#ArialMT-20" transform="translate(616.845703 0.015625)"/>
      <use xlink:href="#ArialMT-6c" transform="translate(644.628906 0.015625)"/>
      <use xlink:href="#ArialMT-65" transform="translate(666.845703 0.015625)"/>
      <use xlink:href="#ArialMT-61" transform="translate(722.460938 0.015625)"/>
      <use xlink:href="#ArialMT-64" transform="translate(778.076172 0.015625)"/>
      <use xlink:href="#ArialMT-65" transform="translate(833.691406 0.015625)"/>
      <use xlink:href="#ArialMT-72" transform="translate(889.306641 0.015625)"/>
      <use xlink:href="#ArialMT-20" transform="translate(922.607422 0.015625)"/>
      <use xlink:href="#ArialMT-28" transform="translate(950.390625 0.015625)"/>
      <use xlink:href="#ArialMT-64" transform="translate(983.691406 0.015625)"/>
      <use xlink:href="#ArialMT-2f" transform="translate(1039.306641 0.015625)"/>
      <use xlink:href="#DejaVuSans-Oblique-3bb" transform="translate(1067.089844 0.015625)"/>
      <use xlink:href="#DejaVuSans-30" transform="translate(1126.269531 -16.390625) scale(0.7)"/>
      <use xlink:href="#ArialMT-29" transform="translate(1173.540039 0.015625)"/>
     </g>
    </g>
   </g>
   <g id="line2d_32">
    <path d="M 37.01 305.062899 
L 37.930701 305.164517 
L 38.851403 305.132136 
L 41.613507 304.67986 
L 45.296313 304.848023 
L 47.137715 304.595749 
L 48.979118 304.824753 
L 50.820521 305.184156 
L 52.661924 305.076432 
L 55.424028 304.862759 
L 57.265431 304.931388 
L 61.868938 305.647614 
L 63.710341 305.569426 
L 68.313848 305.117776 
L 69.234549 305.261644 
L 71.075952 305.839547 
L 76.60016 306.740932 
L 78.441563 307.100118 
L 81.203667 306.982421 
L 82.124369 307.242099 
L 83.965772 308.051409 
L 84.886473 308.350084 
L 85.807174 308.499337 
L 86.727876 308.479995 
L 89.48998 308.029487 
L 90.410681 308.158961 
L 93.172786 308.960835 
L 95.014188 309.172681 
L 96.855591 309.066481 
L 98.696994 308.824924 
L 100.538397 308.933643 
L 102.3798 308.66499 
L 105.141904 308.246325 
L 107.904008 307.939097 
L 111.586814 308.400627 
L 112.507515 308.354943 
L 115.269619 308.647523 
L 117.111022 308.425728 
L 118.031723 308.294934 
L 119.873126 308.229653 
L 125.397335 307.308553 
L 127.238737 306.981962 
L 129.08014 307.135185 
L 130.921543 307.251255 
L 132.762946 307.0411 
L 134.604349 306.600188 
L 136.445752 306.002317 
L 142.890661 305.381674 
L 143.811363 305.486868 
L 146.573467 306.262799 
L 149.335571 307.030214 
L 152.097675 307.370946 
L 154.85978 307.56239 
L 157.621884 308.008074 
L 158.542585 308.029775 
L 160.383988 308.329448 
L 162.225391 308.283152 
L 165.908196 307.765063 
L 169.591002 307.563204 
L 171.432405 307.186311 
L 173.273808 306.820866 
L 174.194509 306.84133 
L 176.956613 307.337149 
L 177.877315 307.365521 
L 179.718717 307.0372 
L 181.56012 306.467249 
L 182.480822 306.392157 
L 188.925731 306.814475 
L 191.687836 306.419161 
L 197.212044 306.416788 
L 199.974148 306.993426 
L 201.815551 307.188793 
L 203.656954 307.180649 
L 204.577655 307.089291 
L 205.498357 307.143252 
L 206.419058 307.455433 
L 207.33976 307.910546 
L 208.260461 308.198416 
L 211.943267 308.568592 
L 215.626072 308.320828 
L 219.308878 307.699955 
L 223.912385 308.429653 
L 225.753788 308.183578 
L 226.674489 307.933337 
L 227.59519 307.807714 
L 228.515892 307.990704 
L 232.198697 309.441548 
L 234.0401 309.541614 
L 243.247114 308.743197 
L 245.088517 308.297958 
L 246.92992 307.863602 
L 248.771323 307.536419 
L 250.612725 307.01341 
L 251.533427 306.967979 
L 252.454128 307.160075 
L 254.295531 307.696669 
L 256.136934 307.725874 
L 257.978337 307.784946 
L 260.740441 307.903113 
L 262.581844 307.785514 
L 265.343948 307.337872 
L 266.264649 307.422668 
L 269.026754 308.125568 
L 269.947455 308.200149 
L 271.788858 307.946126 
L 274.550962 307.044479 
L 275.471663 307.003024 
L 279.154469 307.443637 
L 280.995872 307.238087 
L 284.678677 306.643651 
L 287.440782 306.568986 
L 290.202886 306.18902 
L 293.885691 306.255041 
L 296.647796 306.488482 
L 297.568497 306.651721 
L 300.330601 307.788383 
L 301.251303 307.88389 
L 303.092705 307.822219 
L 306.775511 308.3376 
L 307.696212 308.342632 
L 311.379018 307.896896 
L 315.982525 308.692315 
L 317.823928 308.645365 
L 322.427435 307.891572 
L 327.030942 307.375931 
L 330.713747 306.459413 
L 333.475852 306.11372 
L 336.237956 305.632769 
L 341.762164 305.4551 
L 343.603567 305.568281 
L 348.207074 305.278108 
L 349.127776 305.340157 
L 351.88988 305.990029 
L 353.731283 305.945039 
L 355.572685 305.73015 
L 357.414088 305.451992 
L 358.33479 305.453228 
L 360.176192 305.937016 
L 361.096894 306.171118 
L 362.017595 306.278812 
L 363.858998 306.246483 
L 365.700401 306.534703 
L 369.383206 307.56431 
L 371.224609 307.829214 
L 373.066012 308.332118 
L 376.748818 308.494951 
L 379.510922 308.817309 
L 383.193727 308.736914 
L 385.03513 308.582299 
L 387.797234 308.071804 
L 390.559339 307.508447 
L 392.400741 307.391571 
L 394.242144 307.180339 
L 395.162846 306.995585 
L 396.083547 306.935067 
L 397.92495 307.234884 
L 399.766353 307.150138 
L 402.528457 306.636065 
L 403.449158 306.630417 
L 404.36986 306.885018 
L 406.211263 307.695083 
L 407.131964 307.974538 
L 408.052665 308.092416 
L 408.973367 308.038372 
L 410.81477 307.581242 
L 411.735471 307.284795 
L 412.656172 307.205806 
L 414.497575 307.473674 
L 418.180381 308.466242 
L 420.942485 309.277814 
L 423.704589 309.613528 
L 426.466693 309.78614 
L 428.308096 309.446709 
L 430.149499 309.062137 
L 431.990902 308.704965 
L 434.753006 307.834145 
L 435.673707 307.489078 
L 437.51511 307.237373 
L 442.118617 306.682877 
L 443.96002 306.812241 
L 445.801423 306.609713 
L 450.40493 305.652921 
L 451.325631 305.79154 
L 453.167034 306.27026 
L 454.087735 306.363364 
L 455.929138 306.17334 
L 458.691242 305.630823 
L 461.453347 305.659593 
L 465.136152 305.4011 
L 467.898257 306.070324 
L 471.581062 306.349063 
L 473.422465 306.42657 
L 475.263868 306.575846 
L 477.105271 306.481385 
L 482.629479 306.147934 
L 485.391583 307.050342 
L 486.312285 307.146636 
L 488.153687 307.178179 
L 489.99509 307.809822 
L 491.836493 308.765771 
L 492.757194 308.949424 
L 494.598597 308.879913 
L 496.44 308.889126 
L 496.44 308.889126 
" clip-path="url(#p3d13bec156)" style="fill: none; stroke: #1f77b4; stroke-width: 1.5; stroke-linecap: square"/>
   </g>
   <g id="line2d_33">
    <path d="M 37.01 281.564156 
L 37.930701 281.644707 
L 38.851403 281.602325 
L 41.613507 281.107116 
L 43.45491 281.231937 
L 45.296313 281.503318 
L 50.820521 281.420683 
L 52.661924 281.716005 
L 54.503327 281.97226 
L 56.344729 282.46276 
L 58.186132 282.976067 
L 60.027535 283.168701 
L 61.868938 283.064332 
L 66.472445 282.279961 
L 68.313848 282.477048 
L 70.155251 282.787026 
L 71.075952 283.117401 
L 72.917355 283.415872 
L 74.758758 283.594211 
L 76.60016 283.480089 
L 78.441563 283.010806 
L 81.203667 281.996477 
L 82.124369 281.870976 
L 83.04507 282.019892 
L 84.886473 282.57445 
L 85.807174 282.663059 
L 87.648577 282.548335 
L 88.569279 282.682942 
L 90.410681 283.498201 
L 92.252084 284.304636 
L 93.172786 284.52802 
L 94.093487 284.595081 
L 95.93489 284.332366 
L 98.696994 283.727629 
L 101.459098 283.818951 
L 102.3798 283.984603 
L 104.221202 284.081306 
L 105.141904 284.256162 
L 106.983307 285.042442 
L 108.824709 285.868872 
L 109.745411 286.307347 
L 110.666112 286.581689 
L 111.586814 286.728731 
L 113.428216 286.689869 
L 116.190321 286.2247 
L 118.031723 285.708529 
L 120.793828 284.718631 
L 121.714529 284.766971 
L 122.63523 285.127043 
L 124.476633 286.342904 
L 125.397335 286.654639 
L 127.238737 286.938172 
L 130.921543 287.942279 
L 131.842244 288.01969 
L 133.683647 287.949635 
L 135.52505 288.441796 
L 138.287154 289.809412 
L 139.207856 290.087104 
L 141.96996 290.420613 
L 142.890661 290.448747 
L 144.732064 290.128832 
L 146.573467 289.482549 
L 149.335571 288.192981 
L 152.097675 286.604333 
L 157.621884 283.135894 
L 159.463287 282.340206 
L 160.383988 282.038758 
L 164.066794 281.392103 
L 164.987495 281.416428 
L 165.908196 281.767266 
L 168.670301 283.704911 
L 171.432405 284.221414 
L 172.353106 284.683481 
L 174.194509 286.115789 
L 175.11521 286.625459 
L 176.035912 286.876165 
L 177.877315 287.010835 
L 178.798016 287.281173 
L 182.480822 288.734917 
L 184.322224 288.729248 
L 185.242926 288.66323 
L 186.163627 288.893195 
L 188.925731 290.429273 
L 189.846433 290.594108 
L 191.687836 290.594855 
L 194.44994 290.260071 
L 198.132745 289.776757 
L 200.89485 289.557116 
L 203.656954 289.351286 
L 205.498357 289.385078 
L 208.260461 289.383645 
L 210.101864 289.03777 
L 212.863968 288.223485 
L 214.705371 287.67411 
L 216.546774 287.38293 
L 217.467475 287.40712 
L 220.229579 288.146241 
L 221.150281 288.127637 
L 222.991683 287.715547 
L 225.753788 286.882204 
L 226.674489 286.792663 
L 228.515892 286.763824 
L 231.277996 286.294768 
L 233.119399 285.753841 
L 237.722906 285.418191 
L 238.643607 285.570545 
L 241.405711 286.504195 
L 242.326413 287.037178 
L 243.247114 287.421151 
L 245.088517 287.763835 
L 249.692024 289.123481 
L 254.295531 291.151925 
L 255.216232 291.260898 
L 257.057635 291.107046 
L 261.661142 290.269685 
L 264.423246 290.594656 
L 266.264649 290.775994 
L 268.106052 290.517595 
L 269.947455 289.975638 
L 271.788858 289.257561 
L 273.630261 288.870134 
L 277.313066 288.059946 
L 279.154469 288.16542 
L 282.837275 288.479025 
L 283.757976 288.792215 
L 285.599379 289.770799 
L 287.440782 290.509971 
L 288.361483 290.761365 
L 290.202886 291.640601 
L 293.885691 293.444858 
L 294.806393 293.721221 
L 295.727094 293.787022 
L 297.568497 293.575213 
L 299.4099 293.081072 
L 302.172004 292.000051 
L 304.013407 291.076041 
L 309.537615 288.000147 
L 313.220421 286.100032 
L 315.061824 285.1057 
L 315.982525 284.829705 
L 319.665331 284.684451 
L 320.586032 284.98436 
L 321.506733 285.589645 
L 324.268838 288.002907 
L 326.11024 289.19593 
L 327.951643 289.939761 
L 329.793046 291.185708 
L 335.317255 293.497013 
L 336.237956 293.769553 
L 337.158657 293.922392 
L 339.920762 293.980045 
L 341.762164 293.666877 
L 343.603567 293.039171 
L 345.44497 292.205302 
L 348.207074 290.663081 
L 353.731283 287.275979 
L 357.414088 285.276408 
L 359.255491 284.334462 
L 361.096894 283.646684 
L 362.017595 283.482614 
L 363.858998 283.539995 
L 365.700401 283.359655 
L 368.462505 283.706601 
L 373.986713 283.303944 
L 374.907415 283.387573 
L 379.510922 284.60635 
L 381.352325 284.636428 
L 383.193727 284.651745 
L 385.03513 285.34516 
L 386.876533 286.155261 
L 387.797234 286.79242 
L 388.717936 287.610323 
L 389.638637 288.62577 
L 390.559339 289.362606 
L 391.48004 289.897006 
L 392.400741 290.258558 
L 393.321443 290.4438 
L 394.242144 290.493687 
L 397.92495 290.167282 
L 399.766353 289.649626 
L 401.607756 288.881718 
L 405.290561 287.034845 
L 407.131964 286.077469 
L 408.973367 285.429233 
L 411.735471 284.726768 
L 412.656172 284.790256 
L 414.497575 285.634591 
L 417.259679 286.748589 
L 418.180381 286.980083 
L 419.101082 287.016345 
L 420.942485 286.750044 
L 422.783888 286.161802 
L 427.387395 284.333286 
L 429.228798 284.138981 
L 431.0702 284.110878 
L 431.990902 284.361125 
L 432.911603 284.924987 
L 434.753006 286.346266 
L 435.673707 286.677575 
L 437.51511 287.161104 
L 439.356513 288.247567 
L 443.039319 289.578395 
L 443.96002 289.753579 
L 444.880721 289.746002 
L 446.722124 289.383678 
L 450.40493 288.25068 
L 451.325631 288.180984 
L 452.246333 288.343433 
L 455.008437 289.385186 
L 455.929138 289.511769 
L 456.84984 289.487393 
L 459.611944 289.107839 
L 461.453347 289.260904 
L 463.294749 289.304878 
L 466.056854 289.06598 
L 467.898257 288.806522 
L 469.739659 288.528276 
L 473.422465 288.492762 
L 477.105271 288.497667 
L 478.946673 288.428829 
L 483.55018 289.037717 
L 485.391583 289.100014 
L 487.232986 289.170753 
L 489.074389 288.869175 
L 490.915792 288.228034 
L 494.598597 286.805494 
L 495.519299 286.556749 
L 496.44 286.562592 
L 496.44 286.562592 
" clip-path="url(#p3d13bec156)" style="fill: none; stroke: #ff7f0e; stroke-width: 1.5; stroke-linecap: square"/>
   </g>
   <g id="patch_9">
    <path d="M 37.01 328.48 
L 37.01 175.04 
" style="fill: none; stroke: #000000; stroke-width: 0.8; stroke-linejoin: miter; stroke-linecap: square"/>
   </g>
   <g id="patch_10">
    <path d="M 496.44 328.48 
L 496.44 175.04 
" style="fill: none; stroke: #000000; stroke-width: 0.8; stroke-linejoin: miter; stroke-linecap: square"/>
   </g>
   <g id="patch_11">
    <path d="M 37.01 328.48 
L 496.44 328.48 
" style="fill: none; stroke: #000000; stroke-width: 0.8; stroke-linejoin: miter; stroke-linecap: square"/>
   </g>
   <g id="patch_12">
    <path d="M 37.01 175.04 
L 496.44 175.04 
" style="fill: none; stroke: #000000; stroke-width: 0.8; stroke-linejoin: miter; stroke-linecap: square"/>
   </g>
   <g id="legend_2">
    <g id="patch_13">
     <path d="M 445.010781 200.649063 
L 491.54 200.649063 
Q 492.94 200.649063 492.94 199.249063 
L 492.94 179.94 
Q 492.94 178.54 491.54 178.54 
L 445.010781 178.54 
Q 443.610781 178.54 443.610781 179.94 
L 443.610781 199.249063 
Q 443.610781 200.649063 445.010781 200.649063 
z
" style="fill: #ffffff; opacity: 0.8; stroke: #cccccc; stroke-linejoin: miter"/>
    </g>
    <g id="line2d_34">
     <path d="M 446.410781 183.92125 
L 453.410781 183.92125 
L 460.410781 183.92125 
" style="fill: none; stroke: #1f77b4; stroke-width: 1.5; stroke-linecap: square"/>
    </g>
    <g id="text_28">
     <!-- Agent 1 -->
     <g transform="translate(466.010781 186.37125) scale(0.07 -0.07)">
      <use xlink:href="#ArialMT-41"/>
      <use xlink:href="#ArialMT-67" transform="translate(66.699219 0)"/>
      <use xlink:href="#ArialMT-65" transform="translate(122.314453 0)"/>
      <use xlink:href="#ArialMT-6e" transform="translate(177.929688 0)"/>
      <use xlink:href="#ArialMT-74" transform="translate(233.544922 0)"/>
      <use xlink:href="#ArialMT-20" transform="translate(261.328125 0)"/>
      <use xlink:href="#ArialMT-31" transform="translate(289.111328 0)"/>
     </g>
    </g>
    <g id="line2d_35">
     <path d="M 446.410781 193.925781 
L 453.410781 193.925781 
L 460.410781 193.925781 
" style="fill: none; stroke: #ff7f0e; stroke-width: 1.5; stroke-linecap: square"/>
    </g>
    <g id="text_29">
     <!-- Agent 2 -->
     <g transform="translate(466.010781 196.375781) scale(0.07 -0.07)">
      <use xlink:href="#ArialMT-41"/>
      <use xlink:href="#ArialMT-67" transform="translate(66.699219 0)"/>
      <use xlink:href="#ArialMT-65" transform="translate(122.314453 0)"/>
      <use xlink:href="#ArialMT-6e" transform="translate(177.929688 0)"/>
      <use xlink:href="#ArialMT-74" transform="translate(233.544922 0)"/>
      <use xlink:href="#ArialMT-20" transform="translate(261.328125 0)"/>
      <use xlink:href="#ArialMT-32" transform="translate(289.111328 0)"/>
     </g>
    </g>
   </g>
  </g>
 </g>
 <defs>
  <clipPath id="p41a394456b">
   <rect x="37.01" y="10.08" width="459.43" height="153.44"/>
  </clipPath>
  <clipPath id="p3d13bec156">
   <rect x="37.01" y="175.04" width="459.43" height="153.44"/>
  </clipPath>
 </defs>
</svg>
