<?xml version="1.0" encoding="utf-8" standalone="no"?>
<!DOCTYPE svg PUBLIC "-//W3C//DTD SVG 1.1//EN"
  "http://www.w3.org/Graphics/SVG/1.1/DTD/svg11.dtd">
<svg xmlns:xlink="http://www.w3.org/1999/xlink" width="504pt" height="360pt" viewBox="0 0 504 360" xmlns="http://www.w3.org/2000/svg" version="1.1">
 <metadata>
  <rdf:RDF xmlns:dc="http://purl.org/dc/elements/1.1/" xmlns:cc="http://creativecommons.org/ns#" xmlns:rdf="http://www.w3.org/1999/02/22-rdf-syntax-ns#">
   <cc:Work>
    <dc:type rdf:resource="http://purl.org/dc/dcmitype/StillImage"/>
    <dc:date>2025-10-07T14:52:33.036642</dc:date>
    <dc:format>image/svg+xml</dc:format>
    <dc:creator>
     <cc:Agent>
      <dc:title>Matplotlib v3.10.3, https://matplotlib.org/</dc:title>
     </cc:Agent>
    </dc:creator>
   </cc:Work>
  </rdf:RDF>
 </metadata>
 <defs>
  <style type="text/css">*{stroke-linejoin: round; stroke-linecap: butt}</style>
 </defs>
 <g id="figure_1">
  <g id="patch_1">
   <path d="M 0 360 
L 504 360 
L 504 0 
L 0 0 
z
" style="fill: #ffffff"/>
  </g>
  <g id="axes_1">
   <g id="patch_2">
    <path d="M 37.1 164.47 
L 496.44 164.47 
L 496.44 9.36 
L 37.1 9.36 
z
" style="fill: #ffffff"/>
   </g>
   <g id="matplotlib.axis_1">
    <g id="xtick_1">
     <g id="line2d_1">
      <defs>
       <path id="mabba338412" d="M 0 0 
L 0 3.5 
" style="stroke: #000000; stroke-width: 0.8"/>
      </defs>
      <g>
       <use xlink:href="#mabba338412" x="37.1" y="164.47" style="stroke: #000000; stroke-width: 0.8"/>
      </g>
     </g>
    </g>
    <g id="xtick_2">
     <g id="line2d_2">
      <g>
       <use xlink:href="#mabba338412" x="129.152104" y="164.47" style="stroke: #000000; stroke-width: 0.8"/>
      </g>
     </g>
    </g>
    <g id="xtick_3">
     <g id="line2d_3">
      <g>
       <use xlink:href="#mabba338412" x="221.204208" y="164.47" style="stroke: #000000; stroke-width: 0.8"/>
      </g>
     </g>
    </g>
    <g id="xtick_4">
     <g id="line2d_4">
      <g>
       <use xlink:href="#mabba338412" x="313.256313" y="164.47" style="stroke: #000000; stroke-width: 0.8"/>
      </g>
     </g>
    </g>
    <g id="xtick_5">
     <g id="line2d_5">
      <g>
       <use xlink:href="#mabba338412" x="405.308417" y="164.47" style="stroke: #000000; stroke-width: 0.8"/>
      </g>
     </g>
    </g>
   </g>
   <g id="matplotlib.axis_2">
    <g id="ytick_1">
     <g id="line2d_6">
      <defs>
       <path id="m879c613c64" d="M 0 0 
L -3.5 0 
" style="stroke: #000000; stroke-width: 0.8"/>
      </defs>
      <g>
       <use xlink:href="#m879c613c64" x="37.1" y="164.47" style="stroke: #000000; stroke-width: 0.8"/>
      </g>
     </g>
     <g id="text_1">
      <!-- 0.0 -->
      <g transform="translate(21.76 166.617344) scale(0.06 -0.06)">
       <defs>
        <path id="ArialMT-30" d="M 266 2259 
Q 266 3072 433 3567 
Q 600 4063 929 4331 
Q 1259 4600 1759 4600 
Q 2128 4600 2406 4451 
Q 2684 4303 2865 4023 
Q 3047 3744 3150 3342 
Q 3253 2941 3253 2259 
Q 3253 1453 3087 958 
Q 2922 463 2592 192 
Q 2263 -78 1759 -78 
Q 1097 -78 719 397 
Q 266 969 266 2259 
z
M 844 2259 
Q 844 1131 1108 757 
Q 1372 384 1759 384 
Q 2147 384 2411 759 
Q 2675 1134 2675 2259 
Q 2675 3391 2411 3762 
Q 2147 4134 1753 4134 
Q 1366 4134 1134 3806 
Q 844 3388 844 2259 
z
" transform="scale(0.015625)"/>
        <path id="ArialMT-2e" d="M 581 0 
L 581 641 
L 1222 641 
L 1222 0 
L 581 0 
z
" transform="scale(0.015625)"/>
       </defs>
       <use xlink:href="#ArialMT-30"/>
       <use xlink:href="#ArialMT-2e" transform="translate(55.615234 0)"/>
       <use xlink:href="#ArialMT-30" transform="translate(83.398438 0)"/>
      </g>
     </g>
    </g>
    <g id="ytick_2">
     <g id="line2d_7">
      <g>
       <use xlink:href="#m879c613c64" x="37.1" y="145.08125" style="stroke: #000000; stroke-width: 0.8"/>
      </g>
     </g>
     <g id="text_2">
      <!-- 0.5 -->
      <g transform="translate(21.76 147.228594) scale(0.06 -0.06)">
       <defs>
        <path id="ArialMT-35" d="M 266 1200 
L 856 1250 
Q 922 819 1161 601 
Q 1400 384 1738 384 
Q 2144 384 2425 690 
Q 2706 997 2706 1503 
Q 2706 1984 2436 2262 
Q 2166 2541 1728 2541 
Q 1456 2541 1237 2417 
Q 1019 2294 894 2097 
L 366 2166 
L 809 4519 
L 3088 4519 
L 3088 3981 
L 1259 3981 
L 1013 2750 
Q 1425 3038 1878 3038 
Q 2478 3038 2890 2622 
Q 3303 2206 3303 1553 
Q 3303 931 2941 478 
Q 2500 -78 1738 -78 
Q 1113 -78 717 272 
Q 322 622 266 1200 
z
" transform="scale(0.015625)"/>
       </defs>
       <use xlink:href="#ArialMT-30"/>
       <use xlink:href="#ArialMT-2e" transform="translate(55.615234 0)"/>
       <use xlink:href="#ArialMT-35" transform="translate(83.398438 0)"/>
      </g>
     </g>
    </g>
    <g id="ytick_3">
     <g id="line2d_8">
      <g>
       <use xlink:href="#m879c613c64" x="37.1" y="125.6925" style="stroke: #000000; stroke-width: 0.8"/>
      </g>
     </g>
     <g id="text_3">
      <!-- 1.0 -->
      <g transform="translate(21.76 127.839844) scale(0.06 -0.06)">
       <defs>
        <path id="ArialMT-31" d="M 2384 0 
L 1822 0 
L 1822 3584 
Q 1619 3391 1289 3197 
Q 959 3003 697 2906 
L 697 3450 
Q 1169 3672 1522 3987 
Q 1875 4303 2022 4600 
L 2384 4600 
L 2384 0 
z
" transform="scale(0.015625)"/>
       </defs>
       <use xlink:href="#ArialMT-31"/>
       <use xlink:href="#ArialMT-2e" transform="translate(55.615234 0)"/>
       <use xlink:href="#ArialMT-30" transform="translate(83.398438 0)"/>
      </g>
     </g>
    </g>
    <g id="ytick_4">
     <g id="line2d_9">
      <g>
       <use xlink:href="#m879c613c64" x="37.1" y="106.30375" style="stroke: #000000; stroke-width: 0.8"/>
      </g>
     </g>
     <g id="text_4">
      <!-- 1.5 -->
      <g transform="translate(21.76 108.451094) scale(0.06 -0.06)">
       <use xlink:href="#ArialMT-31"/>
       <use xlink:href="#ArialMT-2e" transform="translate(55.615234 0)"/>
       <use xlink:href="#ArialMT-35" transform="translate(83.398438 0)"/>
      </g>
     </g>
    </g>
    <g id="ytick_5">
     <g id="line2d_10">
      <g>
       <use xlink:href="#m879c613c64" x="37.1" y="86.915" style="stroke: #000000; stroke-width: 0.8"/>
      </g>
     </g>
     <g id="text_5">
      <!-- 2.0 -->
      <g transform="translate(21.76 89.062344) scale(0.06 -0.06)">
       <defs>
        <path id="ArialMT-32" d="M 3222 541 
L 3222 0 
L 194 0 
Q 188 203 259 391 
Q 375 700 629 1000 
Q 884 1300 1366 1694 
Q 2113 2306 2375 2664 
Q 2638 3022 2638 3341 
Q 2638 3675 2398 3904 
Q 2159 4134 1775 4134 
Q 1369 4134 1125 3890 
Q 881 3647 878 3216 
L 300 3275 
Q 359 3922 746 4261 
Q 1134 4600 1788 4600 
Q 2447 4600 2831 4234 
Q 3216 3869 3216 3328 
Q 3216 3053 3103 2787 
Q 2991 2522 2730 2228 
Q 2469 1934 1863 1422 
Q 1356 997 1212 845 
Q 1069 694 975 541 
L 3222 541 
z
" transform="scale(0.015625)"/>
       </defs>
       <use xlink:href="#ArialMT-32"/>
       <use xlink:href="#ArialMT-2e" transform="translate(55.615234 0)"/>
       <use xlink:href="#ArialMT-30" transform="translate(83.398438 0)"/>
      </g>
     </g>
    </g>
    <g id="ytick_6">
     <g id="line2d_11">
      <g>
       <use xlink:href="#m879c613c64" x="37.1" y="67.52625" style="stroke: #000000; stroke-width: 0.8"/>
      </g>
     </g>
     <g id="text_6">
      <!-- 2.5 -->
      <g transform="translate(21.76 69.673594) scale(0.06 -0.06)">
       <use xlink:href="#ArialMT-32"/>
       <use xlink:href="#ArialMT-2e" transform="translate(55.615234 0)"/>
       <use xlink:href="#ArialMT-35" transform="translate(83.398438 0)"/>
      </g>
     </g>
    </g>
    <g id="ytick_7">
     <g id="line2d_12">
      <g>
       <use xlink:href="#m879c613c64" x="37.1" y="48.1375" style="stroke: #000000; stroke-width: 0.8"/>
      </g>
     </g>
     <g id="text_7">
      <!-- 3.0 -->
      <g transform="translate(21.76 50.284844) scale(0.06 -0.06)">
       <defs>
        <path id="ArialMT-33" d="M 269 1209 
L 831 1284 
Q 928 806 1161 595 
Q 1394 384 1728 384 
Q 2125 384 2398 659 
Q 2672 934 2672 1341 
Q 2672 1728 2419 1979 
Q 2166 2231 1775 2231 
Q 1616 2231 1378 2169 
L 1441 2663 
Q 1497 2656 1531 2656 
Q 1891 2656 2178 2843 
Q 2466 3031 2466 3422 
Q 2466 3731 2256 3934 
Q 2047 4138 1716 4138 
Q 1388 4138 1169 3931 
Q 950 3725 888 3313 
L 325 3413 
Q 428 3978 793 4289 
Q 1159 4600 1703 4600 
Q 2078 4600 2393 4439 
Q 2709 4278 2876 4000 
Q 3044 3722 3044 3409 
Q 3044 3113 2884 2869 
Q 2725 2625 2413 2481 
Q 2819 2388 3044 2092 
Q 3269 1797 3269 1353 
Q 3269 753 2831 336 
Q 2394 -81 1725 -81 
Q 1122 -81 723 278 
Q 325 638 269 1209 
z
" transform="scale(0.015625)"/>
       </defs>
       <use xlink:href="#ArialMT-33"/>
       <use xlink:href="#ArialMT-2e" transform="translate(55.615234 0)"/>
       <use xlink:href="#ArialMT-30" transform="translate(83.398438 0)"/>
      </g>
     </g>
    </g>
    <g id="ytick_8">
     <g id="line2d_13">
      <g>
       <use xlink:href="#m879c613c64" x="37.1" y="28.74875" style="stroke: #000000; stroke-width: 0.8"/>
      </g>
     </g>
     <g id="text_8">
      <!-- 3.5 -->
      <g transform="translate(21.76 30.896094) scale(0.06 -0.06)">
       <use xlink:href="#ArialMT-33"/>
       <use xlink:href="#ArialMT-2e" transform="translate(55.615234 0)"/>
       <use xlink:href="#ArialMT-35" transform="translate(83.398438 0)"/>
      </g>
     </g>
    </g>
    <g id="ytick_9">
     <g id="line2d_14">
      <g>
       <use xlink:href="#m879c613c64" x="37.1" y="9.36" style="stroke: #000000; stroke-width: 0.8"/>
      </g>
     </g>
     <g id="text_9">
      <!-- 4.0 -->
      <g transform="translate(21.76 11.507344) scale(0.06 -0.06)">
       <defs>
        <path id="ArialMT-34" d="M 2069 0 
L 2069 1097 
L 81 1097 
L 81 1613 
L 2172 4581 
L 2631 4581 
L 2631 1613 
L 3250 1613 
L 3250 1097 
L 2631 1097 
L 2631 0 
L 2069 0 
z
M 2069 1613 
L 2069 3678 
L 634 1613 
L 2069 1613 
z
" transform="scale(0.015625)"/>
       </defs>
       <use xlink:href="#ArialMT-34"/>
       <use xlink:href="#ArialMT-2e" transform="translate(55.615234 0)"/>
       <use xlink:href="#ArialMT-30" transform="translate(83.398438 0)"/>
      </g>
     </g>
    </g>
    <g id="text_10">
     <!-- Spacing d/$\lambda_0$ -->
     <g transform="translate(16.22 107.215) rotate(-90) scale(0.07 -0.07)">
      <defs>
       <path id="ArialMT-53" d="M 288 1472 
L 859 1522 
Q 900 1178 1048 958 
Q 1197 738 1509 602 
Q 1822 466 2213 466 
Q 2559 466 2825 569 
Q 3091 672 3220 851 
Q 3350 1031 3350 1244 
Q 3350 1459 3225 1620 
Q 3100 1781 2813 1891 
Q 2628 1963 1997 2114 
Q 1366 2266 1113 2400 
Q 784 2572 623 2826 
Q 463 3081 463 3397 
Q 463 3744 659 4045 
Q 856 4347 1234 4503 
Q 1613 4659 2075 4659 
Q 2584 4659 2973 4495 
Q 3363 4331 3572 4012 
Q 3781 3694 3797 3291 
L 3216 3247 
Q 3169 3681 2898 3903 
Q 2628 4125 2100 4125 
Q 1550 4125 1298 3923 
Q 1047 3722 1047 3438 
Q 1047 3191 1225 3031 
Q 1400 2872 2139 2705 
Q 2878 2538 3153 2413 
Q 3553 2228 3743 1945 
Q 3934 1663 3934 1294 
Q 3934 928 3725 604 
Q 3516 281 3123 101 
Q 2731 -78 2241 -78 
Q 1619 -78 1198 103 
Q 778 284 539 648 
Q 300 1013 288 1472 
z
" transform="scale(0.015625)"/>
       <path id="ArialMT-70" d="M 422 -1272 
L 422 3319 
L 934 3319 
L 934 2888 
Q 1116 3141 1344 3267 
Q 1572 3394 1897 3394 
Q 2322 3394 2647 3175 
Q 2972 2956 3137 2557 
Q 3303 2159 3303 1684 
Q 3303 1175 3120 767 
Q 2938 359 2589 142 
Q 2241 -75 1856 -75 
Q 1575 -75 1351 44 
Q 1128 163 984 344 
L 984 -1272 
L 422 -1272 
z
M 931 1641 
Q 931 1000 1190 694 
Q 1450 388 1819 388 
Q 2194 388 2461 705 
Q 2728 1022 2728 1688 
Q 2728 2322 2467 2637 
Q 2206 2953 1844 2953 
Q 1484 2953 1207 2617 
Q 931 2281 931 1641 
z
" transform="scale(0.015625)"/>
       <path id="ArialMT-61" d="M 2588 409 
Q 2275 144 1986 34 
Q 1697 -75 1366 -75 
Q 819 -75 525 192 
Q 231 459 231 875 
Q 231 1119 342 1320 
Q 453 1522 633 1644 
Q 813 1766 1038 1828 
Q 1203 1872 1538 1913 
Q 2219 1994 2541 2106 
Q 2544 2222 2544 2253 
Q 2544 2597 2384 2738 
Q 2169 2928 1744 2928 
Q 1347 2928 1158 2789 
Q 969 2650 878 2297 
L 328 2372 
Q 403 2725 575 2942 
Q 747 3159 1072 3276 
Q 1397 3394 1825 3394 
Q 2250 3394 2515 3294 
Q 2781 3194 2906 3042 
Q 3031 2891 3081 2659 
Q 3109 2516 3109 2141 
L 3109 1391 
Q 3109 606 3145 398 
Q 3181 191 3288 0 
L 2700 0 
Q 2613 175 2588 409 
z
M 2541 1666 
Q 2234 1541 1622 1453 
Q 1275 1403 1131 1340 
Q 988 1278 909 1158 
Q 831 1038 831 891 
Q 831 666 1001 516 
Q 1172 366 1500 366 
Q 1825 366 2078 508 
Q 2331 650 2450 897 
Q 2541 1088 2541 1459 
L 2541 1666 
z
" transform="scale(0.015625)"/>
       <path id="ArialMT-63" d="M 2588 1216 
L 3141 1144 
Q 3050 572 2676 248 
Q 2303 -75 1759 -75 
Q 1078 -75 664 370 
Q 250 816 250 1647 
Q 250 2184 428 2587 
Q 606 2991 970 3192 
Q 1334 3394 1763 3394 
Q 2303 3394 2647 3120 
Q 2991 2847 3088 2344 
L 2541 2259 
Q 2463 2594 2264 2762 
Q 2066 2931 1784 2931 
Q 1359 2931 1093 2626 
Q 828 2322 828 1663 
Q 828 994 1084 691 
Q 1341 388 1753 388 
Q 2084 388 2306 591 
Q 2528 794 2588 1216 
z
" transform="scale(0.015625)"/>
       <path id="ArialMT-69" d="M 425 3934 
L 425 4581 
L 988 4581 
L 988 3934 
L 425 3934 
z
M 425 0 
L 425 3319 
L 988 3319 
L 988 0 
L 425 0 
z
" transform="scale(0.015625)"/>
       <path id="ArialMT-6e" d="M 422 0 
L 422 3319 
L 928 3319 
L 928 2847 
Q 1294 3394 1984 3394 
Q 2284 3394 2536 3286 
Q 2788 3178 2913 3003 
Q 3038 2828 3088 2588 
Q 3119 2431 3119 2041 
L 3119 0 
L 2556 0 
L 2556 2019 
Q 2556 2363 2490 2533 
Q 2425 2703 2258 2804 
Q 2091 2906 1866 2906 
Q 1506 2906 1245 2678 
Q 984 2450 984 1813 
L 984 0 
L 422 0 
z
" transform="scale(0.015625)"/>
       <path id="ArialMT-67" d="M 319 -275 
L 866 -356 
Q 900 -609 1056 -725 
Q 1266 -881 1628 -881 
Q 2019 -881 2231 -725 
Q 2444 -569 2519 -288 
Q 2563 -116 2559 434 
Q 2191 0 1641 0 
Q 956 0 581 494 
Q 206 988 206 1678 
Q 206 2153 378 2554 
Q 550 2956 876 3175 
Q 1203 3394 1644 3394 
Q 2231 3394 2613 2919 
L 2613 3319 
L 3131 3319 
L 3131 450 
Q 3131 -325 2973 -648 
Q 2816 -972 2473 -1159 
Q 2131 -1347 1631 -1347 
Q 1038 -1347 672 -1080 
Q 306 -813 319 -275 
z
M 784 1719 
Q 784 1066 1043 766 
Q 1303 466 1694 466 
Q 2081 466 2343 764 
Q 2606 1063 2606 1700 
Q 2606 2309 2336 2618 
Q 2066 2928 1684 2928 
Q 1309 2928 1046 2623 
Q 784 2319 784 1719 
z
" transform="scale(0.015625)"/>
       <path id="ArialMT-20" transform="scale(0.015625)"/>
       <path id="ArialMT-64" d="M 2575 0 
L 2575 419 
Q 2259 -75 1647 -75 
Q 1250 -75 917 144 
Q 584 363 401 755 
Q 219 1147 219 1656 
Q 219 2153 384 2558 
Q 550 2963 881 3178 
Q 1213 3394 1622 3394 
Q 1922 3394 2156 3267 
Q 2391 3141 2538 2938 
L 2538 4581 
L 3097 4581 
L 3097 0 
L 2575 0 
z
M 797 1656 
Q 797 1019 1065 703 
Q 1334 388 1700 388 
Q 2069 388 2326 689 
Q 2584 991 2584 1609 
Q 2584 2291 2321 2609 
Q 2059 2928 1675 2928 
Q 1300 2928 1048 2622 
Q 797 2316 797 1656 
z
" transform="scale(0.015625)"/>
       <path id="ArialMT-2f" d="M 0 -78 
L 1328 4659 
L 1778 4659 
L 453 -78 
L 0 -78 
z
" transform="scale(0.015625)"/>
       <path id="DejaVuSans-Oblique-3bb" d="M 2350 4316 
L 3125 0 
L 2516 0 
L 2038 2588 
L 328 0 
L -281 0 
L 1903 3356 
L 1794 3975 
Q 1725 4369 1391 4369 
L 1091 4369 
L 1184 4863 
L 1550 4856 
Q 2253 4847 2350 4316 
z
" transform="scale(0.015625)"/>
       <path id="DejaVuSans-30" d="M 2034 4250 
Q 1547 4250 1301 3770 
Q 1056 3291 1056 2328 
Q 1056 1369 1301 889 
Q 1547 409 2034 409 
Q 2525 409 2770 889 
Q 3016 1369 3016 2328 
Q 3016 3291 2770 3770 
Q 2525 4250 2034 4250 
z
M 2034 4750 
Q 2819 4750 3233 4129 
Q 3647 3509 3647 2328 
Q 3647 1150 3233 529 
Q 2819 -91 2034 -91 
Q 1250 -91 836 529 
Q 422 1150 422 2328 
Q 422 3509 836 4129 
Q 1250 4750 2034 4750 
z
" transform="scale(0.015625)"/>
      </defs>
      <use xlink:href="#ArialMT-53" transform="translate(0 0.015625)"/>
      <use xlink:href="#ArialMT-70" transform="translate(66.699219 0.015625)"/>
      <use xlink:href="#ArialMT-61" transform="translate(122.314453 0.015625)"/>
      <use xlink:href="#ArialMT-63" transform="translate(177.929688 0.015625)"/>
      <use xlink:href="#ArialMT-69" transform="translate(227.929688 0.015625)"/>
      <use xlink:href="#ArialMT-6e" transform="translate(250.146484 0.015625)"/>
      <use xlink:href="#ArialMT-67" transform="translate(305.761719 0.015625)"/>
      <use xlink:href="#ArialMT-20" transform="translate(361.376953 0.015625)"/>
      <use xlink:href="#ArialMT-64" transform="translate(389.160156 0.015625)"/>
      <use xlink:href="#ArialMT-2f" transform="translate(444.775391 0.015625)"/>
      <use xlink:href="#DejaVuSans-Oblique-3bb" transform="translate(472.558594 0.015625)"/>
      <use xlink:href="#DejaVuSans-30" transform="translate(531.738281 -16.390625) scale(0.7)"/>
     </g>
    </g>
   </g>
   <g id="line2d_15">
    <path d="M 37.1 84.553729 
L 38.020521 84.81252 
L 38.941042 84.567889 
L 39.861563 84.088461 
L 40.782084 84.036877 
L 42.623126 84.957951 
L 43.543647 84.832667 
L 44.464168 84.441605 
L 45.384689 84.449605 
L 47.225731 85.409924 
L 48.146253 85.288921 
L 49.066774 84.900172 
L 49.987295 84.901968 
L 51.828337 85.820585 
L 52.748858 85.680781 
L 53.669379 85.276999 
L 54.5899 85.260599 
L 56.430942 86.130067 
L 57.351463 85.970946 
L 58.271984 85.55179 
L 59.192505 85.518499 
L 61.033547 86.347887 
L 61.954068 86.17359 
L 62.874589 85.742316 
L 63.79511 85.696055 
L 65.636152 86.496152 
L 66.556673 86.310949 
L 67.477194 85.870939 
L 68.397715 85.815428 
L 70.238758 86.595156 
L 71.159279 86.402439 
L 72.0798 85.956397 
L 73.000321 85.894534 
L 74.841363 86.660482 
L 75.761884 86.462709 
L 76.682405 86.012603 
L 77.602926 85.946474 
L 79.443968 86.703251 
L 80.364489 86.502127 
L 81.28501 86.049323 
L 82.205531 85.980369 
L 84.046573 86.731111 
L 84.967094 86.527785 
L 85.887615 86.073208 
L 86.808136 86.0024 
L 88.649178 86.749196 
L 89.569699 86.544433 
L 90.49022 86.088699 
L 91.410741 86.016681 
L 93.251784 86.760909 
L 94.172305 86.555212 
L 95.092826 86.098725 
L 96.013347 86.025922 
L 97.854389 86.768484 
L 98.77491 86.562182 
L 99.695431 86.105207 
L 100.615952 86.031895 
L 102.456994 86.773379 
L 103.377515 86.566685 
L 104.298036 86.109394 
L 105.218557 86.035752 
L 107.059599 86.776539 
L 107.98012 86.569592 
L 108.900641 86.112097 
L 109.821162 86.038242 
L 111.662204 86.778578 
L 112.582725 86.571468 
L 113.503246 86.113841 
L 114.423768 86.039849 
L 116.26481 86.779894 
L 117.185331 86.572678 
L 118.105852 86.114966 
L 119.026373 86.040885 
L 120.867415 86.780743 
L 121.787936 86.573459 
L 122.708457 86.115692 
L 123.628978 86.041554 
L 125.47002 86.781291 
L 126.390541 86.573962 
L 127.311062 86.11616 
L 128.231583 86.041985 
L 130.072625 86.781644 
L 130.993146 86.574287 
L 131.913667 86.116462 
L 132.834188 86.042263 
L 134.67523 86.781872 
L 135.595752 86.574496 
L 136.516273 86.116657 
L 137.436794 86.042442 
L 139.277836 86.782019 
L 140.198357 86.574632 
L 141.118878 86.116782 
L 142.039399 86.042558 
L 143.880441 86.782113 
L 144.800962 86.574719 
L 145.721483 86.116863 
L 146.642004 86.042633 
L 148.483046 86.782174 
L 149.403567 86.574775 
L 150.324088 86.116915 
L 151.244609 86.042681 
L 153.085651 86.782214 
L 154.006172 86.574811 
L 154.926693 86.116949 
L 155.847214 86.042712 
L 157.688257 86.782239 
L 158.608778 86.574834 
L 159.529299 86.116971 
L 160.44982 86.042732 
L 162.290862 86.782256 
L 163.211383 86.57485 
L 164.131904 86.116985 
L 165.052425 86.042745 
L 166.893467 86.782266 
L 167.813988 86.574859 
L 168.734509 86.116994 
L 169.65503 86.042753 
L 171.496072 86.782273 
L 172.416593 86.574866 
L 173.337114 86.117 
L 174.257635 86.042758 
L 176.098677 86.782277 
L 177.019198 86.57487 
L 177.939719 86.117003 
L 178.86024 86.042762 
L 180.701283 86.78228 
L 181.621804 86.574872 
L 182.542325 86.117006 
L 183.462846 86.042764 
L 185.303888 86.782282 
L 186.224409 86.574874 
L 187.14493 86.117007 
L 188.065451 86.042766 
L 189.906493 86.782283 
L 190.827014 86.574875 
L 191.747535 86.117008 
L 192.668056 86.042766 
L 194.509098 86.782284 
L 195.429619 86.574876 
L 196.35014 86.117009 
L 197.270661 86.042767 
L 199.111703 86.782284 
L 200.032224 86.574876 
L 200.952745 86.117009 
L 201.873267 86.042767 
L 203.714309 86.782285 
L 204.63483 86.574876 
L 205.555351 86.11701 
L 206.475872 86.042768 
L 208.316914 86.782285 
L 209.237435 86.574877 
L 210.157956 86.11701 
L 211.078477 86.042768 
L 212.919519 86.782285 
L 213.84004 86.574877 
L 214.760561 86.11701 
L 215.681082 86.042768 
L 217.522124 86.782285 
L 218.442645 86.574877 
L 219.363166 86.11701 
L 220.283687 86.042768 
L 222.124729 86.782285 
L 223.045251 86.574877 
L 223.965772 86.11701 
L 224.886293 86.042768 
L 226.727335 86.782285 
L 227.647856 86.574877 
L 228.568377 86.11701 
L 229.488898 86.042768 
L 231.32994 86.782285 
L 232.250461 86.574877 
L 233.170982 86.11701 
L 234.091503 86.042768 
L 235.932545 86.782285 
L 236.853066 86.574877 
L 237.773587 86.11701 
L 238.694108 86.042768 
L 240.53515 86.782285 
L 241.455671 86.574877 
L 242.376192 86.11701 
L 243.296713 86.042768 
L 245.137756 86.782285 
L 246.058277 86.574877 
L 246.978798 86.11701 
L 247.899319 86.042768 
L 249.740361 86.782285 
L 250.660882 86.574877 
L 251.581403 86.11701 
L 252.501924 86.042768 
L 254.342966 86.782285 
L 255.263487 86.574877 
L 256.184008 86.11701 
L 257.104529 86.042768 
L 258.945571 86.782285 
L 259.866092 86.574877 
L 260.786613 86.11701 
L 261.707134 86.042768 
L 263.548176 86.782285 
L 264.468697 86.574877 
L 265.389218 86.11701 
L 266.309739 86.042768 
L 268.150782 86.782285 
L 269.071303 86.574877 
L 269.991824 86.11701 
L 270.912345 86.042768 
L 272.753387 86.782285 
L 273.673908 86.574877 
L 274.594429 86.11701 
L 275.51495 86.042768 
L 277.355992 86.782285 
L 278.276513 86.574877 
L 279.197034 86.11701 
L 280.117555 86.042768 
L 281.958597 86.782285 
L 282.879118 86.574877 
L 283.799639 86.11701 
L 284.72016 86.042768 
L 286.561202 86.782285 
L 287.481723 86.574877 
L 288.402244 86.11701 
L 289.322766 86.042768 
L 291.163808 86.782285 
L 292.084329 86.574877 
L 293.00485 86.11701 
L 293.925371 86.042768 
L 295.766413 86.782285 
L 296.686934 86.574877 
L 297.607455 86.11701 
L 298.527976 86.042768 
L 300.369018 86.782285 
L 301.289539 86.574877 
L 302.21006 86.11701 
L 303.130581 86.042768 
L 304.971623 86.782285 
L 305.892144 86.574877 
L 306.812665 86.11701 
L 307.733186 86.042768 
L 309.574228 86.782285 
L 310.494749 86.574877 
L 311.415271 86.11701 
L 312.335792 86.042768 
L 314.176834 86.782285 
L 315.097355 86.574877 
L 316.017876 86.11701 
L 316.938397 86.042768 
L 318.779439 86.782285 
L 319.69996 86.574877 
L 320.620481 86.11701 
L 321.541002 86.042768 
L 323.382044 86.782285 
L 324.302565 86.574877 
L 325.223086 86.11701 
L 326.143607 86.042768 
L 327.984649 86.782285 
L 328.90517 86.574877 
L 329.825691 86.11701 
L 330.746212 86.042768 
L 332.587255 86.782285 
L 333.507776 86.574877 
L 334.428297 86.11701 
L 335.348818 86.042768 
L 337.18986 86.782285 
L 338.110381 86.574877 
L 339.030902 86.11701 
L 339.951423 86.042768 
L 341.792465 86.782285 
L 342.712986 86.574877 
L 343.633507 86.11701 
L 344.554028 86.042768 
L 346.39507 86.782285 
L 347.315591 86.574877 
L 348.236112 86.11701 
L 349.156633 86.042768 
L 350.997675 86.782285 
L 351.918196 86.574877 
L 352.838717 86.11701 
L 353.759238 86.042768 
L 355.600281 86.782285 
L 356.520802 86.574877 
L 357.441323 86.11701 
L 358.361844 86.042768 
L 360.202886 86.782285 
L 361.123407 86.574877 
L 362.043928 86.11701 
L 362.964449 86.042768 
L 364.805491 86.782285 
L 365.726012 86.574877 
L 366.646533 86.11701 
L 367.567054 86.042768 
L 369.408096 86.782285 
L 370.328617 86.574877 
L 371.249138 86.11701 
L 372.169659 86.042768 
L 374.010701 86.782285 
L 374.931222 86.574877 
L 375.851743 86.11701 
L 376.772265 86.042768 
L 378.613307 86.782285 
L 379.533828 86.574877 
L 380.454349 86.11701 
L 381.37487 86.042768 
L 383.215912 86.782285 
L 384.136433 86.574877 
L 385.056954 86.11701 
L 385.977475 86.042768 
L 387.818517 86.782285 
L 388.739038 86.574877 
L 389.659559 86.11701 
L 390.58008 86.042768 
L 392.421122 86.782285 
L 393.341643 86.574877 
L 394.262164 86.11701 
L 395.182685 86.042768 
L 397.023727 86.782285 
L 397.944248 86.574877 
L 398.86477 86.11701 
L 399.785291 86.042768 
L 401.626333 86.782285 
L 402.546854 86.574877 
L 403.467375 86.11701 
L 404.387896 86.042768 
L 406.228938 86.782285 
L 407.149459 86.574877 
L 408.06998 86.11701 
L 408.990501 86.042768 
L 410.831543 86.782285 
L 411.752064 86.574877 
L 412.672585 86.11701 
L 413.593106 86.042768 
L 415.434148 86.782285 
L 416.354669 86.574877 
L 417.27519 86.11701 
L 418.195711 86.042768 
L 420.036754 86.782285 
L 420.957275 86.574877 
L 421.877796 86.11701 
L 422.798317 86.042768 
L 424.639359 86.782285 
L 425.55988 86.574877 
L 426.480401 86.11701 
L 427.400922 86.042768 
L 429.241964 86.782285 
L 430.162485 86.574877 
L 431.083006 86.11701 
L 432.003527 86.042768 
L 433.844569 86.782285 
L 434.76509 86.574877 
L 435.685611 86.11701 
L 436.606132 86.042768 
L 438.447174 86.782285 
L 439.367695 86.574877 
L 440.288216 86.11701 
L 441.208737 86.042768 
L 443.04978 86.782285 
L 443.970301 86.574877 
L 444.890822 86.11701 
L 445.811343 86.042768 
L 447.652385 86.782285 
L 448.572906 86.574877 
L 449.493427 86.11701 
L 450.413948 86.042768 
L 452.25499 86.782285 
L 453.175511 86.574877 
L 454.096032 86.11701 
L 455.016553 86.042768 
L 456.857595 86.782285 
L 457.778116 86.574877 
L 458.698637 86.11701 
L 459.619158 86.042768 
L 461.4602 86.782285 
L 462.380721 86.574877 
L 463.301242 86.11701 
L 464.221764 86.042768 
L 466.062806 86.782285 
L 466.983327 86.574877 
L 467.903848 86.11701 
L 468.824369 86.042768 
L 470.665411 86.782285 
L 471.585932 86.574877 
L 472.506453 86.11701 
L 473.426974 86.042768 
L 475.268016 86.782285 
L 476.188537 86.574877 
L 477.109058 86.11701 
L 478.029579 86.042768 
L 479.870621 86.782285 
L 480.791142 86.574877 
L 481.711663 86.11701 
L 482.632184 86.042768 
L 484.473226 86.782285 
L 485.393747 86.574877 
L 486.314269 86.11701 
L 487.23479 86.042768 
L 489.075832 86.782285 
L 489.996353 86.574877 
L 490.916874 86.11701 
L 491.837395 86.042768 
L 493.678437 86.782285 
L 494.598958 86.574877 
L 495.519479 86.11701 
L 496.44 86.042768 
L 496.44 86.042768 
" clip-path="url(#p9b47e39bb7)" style="fill: none; stroke: #1f77b4; stroke-width: 1.5; stroke-linecap: square"/>
   </g>
   <g id="line2d_16">
    <path d="M 37.1 84.298164 
L 39.861563 84.108343 
L 41.702605 83.778344 
L 44.464168 83.204866 
L 65.636152 79.3634 
L 67.477194 79.112575 
L 69.318236 78.72714 
L 72.0798 78.39782 
L 73.920842 78.00486 
L 76.682405 77.716 
L 78.523447 77.318587 
L 81.28501 77.068671 
L 83.126052 76.669624 
L 85.887615 76.457231 
L 87.728657 76.059041 
L 90.49022 75.882764 
L 92.331263 75.487563 
L 95.092826 75.345919 
L 96.933868 74.955452 
L 99.695431 74.846829 
L 101.536473 74.46245 
L 104.298036 74.38509 
L 106.139078 74.007779 
L 108.900641 73.959792 
L 110.741683 73.590189 
L 113.503246 73.569593 
L 115.344289 73.208044 
L 118.105852 73.212814 
L 119.946894 72.859422 
L 122.708457 72.887537 
L 124.549499 72.542215 
L 127.311062 72.591701 
L 129.152104 72.254218 
L 131.913667 72.32318 
L 133.754709 71.993203 
L 136.516273 72.079849 
L 138.357315 71.75698 
L 141.118878 71.859636 
L 142.95992 71.543437 
L 145.721483 71.660551 
L 147.562525 71.350567 
L 150.324088 71.480716 
L 152.16513 71.176487 
L 154.926693 71.318373 
L 156.767735 71.01945 
L 159.529299 71.171892 
L 161.370341 70.877841 
L 164.131904 71.039772 
L 165.972946 70.75018 
L 168.734509 70.920635 
L 170.575551 70.635116 
L 173.337114 70.813229 
L 175.178156 70.53142 
L 177.939719 70.716409 
L 179.780762 70.437977 
L 182.542325 70.629141 
L 184.383367 70.353775 
L 187.14493 70.550485 
L 188.985972 70.277902 
L 191.747535 70.479594 
L 193.588577 70.209533 
L 196.35014 70.415701 
L 198.191182 70.147924 
L 200.952745 70.358114 
L 202.793788 70.092405 
L 205.555351 70.30621 
L 207.396393 70.042372 
L 210.157956 70.259426 
L 211.998998 69.99728 
L 214.760561 70.217256 
L 216.601603 69.95664 
L 219.363166 70.179243 
L 221.204208 69.920009 
L 223.965772 70.144976 
L 225.806814 69.88699 
L 228.568377 70.114084 
L 230.409419 69.857227 
L 233.170982 70.086234 
L 235.012024 69.830395 
L 237.773587 70.061126 
L 239.614629 69.806207 
L 242.376192 70.038488 
L 244.217234 69.784399 
L 246.978798 70.018077 
L 248.81984 69.764737 
L 251.581403 69.999673 
L 253.422445 69.74701 
L 256.184008 69.983078 
L 258.02505 69.731025 
L 260.786613 69.968114 
L 262.627655 69.716612 
L 265.389218 69.95462 
L 267.230261 69.703616 
L 269.991824 69.942452 
L 271.832866 69.691896 
L 274.594429 69.931478 
L 276.435471 69.681328 
L 279.197034 69.921582 
L 281.038076 69.671797 
L 283.799639 69.912658 
L 285.640681 69.663202 
L 288.402244 69.904609 
L 290.243287 69.655451 
L 293.00485 69.89735 
L 294.845892 69.648461 
L 297.607455 69.890804 
L 299.448497 69.642156 
L 302.21006 69.8849 
L 304.051102 69.63647 
L 306.812665 69.879575 
L 308.653707 69.631342 
L 311.415271 69.874772 
L 313.256313 69.626717 
L 316.017876 69.87044 
L 317.858918 69.622546 
L 320.620481 69.866533 
L 322.461523 69.618784 
L 325.223086 69.863009 
L 327.064128 69.61539 
L 329.825691 69.859831 
L 331.666733 69.61233 
L 334.428297 69.856964 
L 336.269339 69.609569 
L 339.030902 69.854379 
L 340.871944 69.607079 
L 343.633507 69.852047 
L 345.474549 69.604834 
L 348.236112 69.849943 
L 350.077154 69.602808 
L 352.838717 69.848046 
L 354.67976 69.600981 
L 357.441323 69.846334 
L 359.282365 69.599333 
L 362.043928 69.844791 
L 363.88497 69.597847 
L 366.646533 69.843398 
L 368.487575 69.596506 
L 371.249138 69.842143 
L 373.09018 69.595297 
L 375.851743 69.84101 
L 377.692786 69.594206 
L 380.454349 69.839988 
L 382.295391 69.593222 
L 385.056954 69.839066 
L 386.897996 69.592335 
L 389.659559 69.838235 
L 391.500601 69.591534 
L 394.262164 69.837485 
L 396.103206 69.590812 
L 398.86477 69.836809 
L 400.705812 69.590161 
L 403.467375 69.836199 
L 405.308417 69.589573 
L 408.06998 69.835649 
L 409.911022 69.589043 
L 412.672585 69.835152 
L 414.513627 69.588565 
L 417.27519 69.834705 
L 419.116232 69.588134 
L 421.877796 69.834301 
L 423.718838 69.587745 
L 426.480401 69.833936 
L 428.321443 69.587395 
L 431.083006 69.833608 
L 432.924048 69.587078 
L 435.685611 69.833311 
L 437.526653 69.586793 
L 440.288216 69.833044 
L 442.129259 69.586535 
L 444.890822 69.832803 
L 446.731864 69.586303 
L 449.493427 69.832585 
L 451.334469 69.586094 
L 454.096032 69.832389 
L 455.937074 69.585905 
L 458.698637 69.832212 
L 460.539679 69.585734 
L 463.301242 69.832053 
L 465.142285 69.585581 
L 467.903848 69.831909 
L 469.74489 69.585442 
L 472.506453 69.831779 
L 474.347495 69.585317 
L 477.109058 69.831662 
L 478.9501 69.585204 
L 481.711663 69.831556 
L 483.552705 69.585102 
L 486.314269 69.831461 
L 488.155311 69.585011 
L 490.916874 69.831375 
L 492.757916 69.584928 
L 495.519479 69.831297 
L 496.44 69.663097 
L 496.44 69.663097 
" clip-path="url(#p9b47e39bb7)" style="fill: none; stroke: #ff7f0e; stroke-width: 1.5; stroke-linecap: square"/>
   </g>
   <g id="line2d_17">
    <path d="M 37.1 84.298164 
L 40.782084 84.224756 
L 49.066774 83.576298 
L 51.828337 83.252803 
L 59.192505 82.677838 
L 61.954068 82.5134 
L 80.364489 82.09835 
L 119.026373 82.490758 
L 120.867415 82.525022 
L 122.708457 82.467778 
L 124.549499 82.612887 
L 127.311062 82.513706 
L 129.152104 82.665512 
L 131.913667 82.557491 
L 133.754709 82.715143 
L 136.516273 82.598904 
L 138.357315 82.761645 
L 141.118878 82.637795 
L 142.95992 82.804956 
L 145.721483 82.674076 
L 147.562525 82.845066 
L 150.324088 82.707707 
L 152.16513 82.882005 
L 154.926693 82.738689 
L 156.767735 82.915839 
L 159.529299 82.767051 
L 161.370341 82.946655 
L 164.131904 82.792849 
L 165.972946 82.974557 
L 168.734509 82.816156 
L 170.575551 82.999661 
L 173.337114 82.837054 
L 175.178156 83.02209 
L 177.939719 82.855636 
L 179.780762 83.041969 
L 182.542325 82.871998 
L 184.383367 83.059421 
L 187.14493 82.886235 
L 188.985972 83.074566 
L 191.747535 82.898441 
L 193.588577 83.087518 
L 196.35014 82.908707 
L 198.191182 83.098386 
L 200.952745 82.917116 
L 202.793788 83.107268 
L 205.555351 82.923747 
L 207.396393 83.114254 
L 210.157956 82.92867 
L 211.998998 83.119424 
L 214.760561 82.931946 
L 216.601603 83.12285 
L 219.363166 82.933629 
L 221.204208 83.124591 
L 223.965772 82.933763 
L 225.806814 83.124698 
L 228.568377 82.932384 
L 230.409419 83.12321 
L 233.170982 82.929518 
L 235.012024 83.120156 
L 237.773587 82.925183 
L 239.614629 83.115557 
L 242.376192 82.919385 
L 244.217234 83.109422 
L 246.978798 82.912125 
L 248.81984 83.10175 
L 251.581403 82.903391 
L 253.422445 83.092531 
L 256.184008 82.893164 
L 258.02505 83.081745 
L 260.786613 82.881415 
L 262.627655 83.069362 
L 265.389218 82.868107 
L 267.230261 83.055342 
L 269.991824 82.853192 
L 271.832866 83.039635 
L 274.594429 82.836613 
L 276.435471 83.022183 
L 279.197034 82.818305 
L 281.038076 83.002915 
L 283.799639 82.79819 
L 285.640681 82.981751 
L 288.402244 82.776183 
L 290.243287 82.958599 
L 293.00485 82.752187 
L 294.845892 82.93336 
L 297.607455 82.726094 
L 299.448497 82.905918 
L 302.21006 82.697787 
L 304.051102 82.87615 
L 306.812665 82.667135 
L 308.653707 82.843919 
L 311.415271 82.633995 
L 313.256313 82.809074 
L 316.017876 82.598214 
L 317.858918 82.771454 
L 320.620481 82.559623 
L 322.461523 82.730881 
L 325.223086 82.51804 
L 327.064128 82.687164 
L 329.825691 82.473268 
L 331.666733 82.640096 
L 334.428297 82.425096 
L 336.269339 82.589454 
L 339.030902 82.373297 
L 340.871944 82.535 
L 343.633507 82.317625 
L 345.474549 82.476475 
L 348.236112 82.257818 
L 350.077154 82.413605 
L 352.838717 82.193595 
L 354.67976 82.346094 
L 357.441323 82.124656 
L 359.282365 82.273627 
L 362.043928 82.050681 
L 363.88497 82.195868 
L 366.646533 81.971328 
L 368.487575 82.112458 
L 371.249138 81.886233 
L 373.09018 82.023018 
L 375.851743 81.795011 
L 377.692786 81.927143 
L 380.454349 81.697253 
L 382.295391 81.824405 
L 385.056954 81.592527 
L 387.818517 81.637103 
L 389.659559 81.480377 
L 392.421122 81.518881 
L 394.262164 81.360324 
L 397.023727 81.392347 
L 398.86477 81.231865 
L 401.626333 81.256978 
L 403.467375 81.094476 
L 406.228938 81.112228 
L 408.06998 80.947612 
L 410.831543 80.957535 
L 412.672585 80.790709 
L 415.434148 80.792316 
L 417.27519 80.623189 
L 420.036754 80.615978 
L 421.877796 80.444462 
L 424.639359 80.427918 
L 426.480401 80.253929 
L 429.241964 80.227531 
L 431.083006 80.050996 
L 433.844569 80.01422 
L 435.685611 79.835074 
L 438.447174 79.7874 
L 440.288216 79.605593 
L 443.04978 79.546514 
L 444.890822 79.362014 
L 447.652385 79.291046 
L 449.493427 79.103841 
L 452.25499 79.020535 
L 454.096032 78.83064 
L 456.857595 78.734596 
L 458.698637 78.542056 
L 462.380721 78.316183 
L 464.221764 78.202102 
L 466.062806 78.115387 
L 468.824369 77.875723 
L 470.665411 77.781916 
L 473.426974 77.533723 
L 475.268016 77.432663 
L 478.029579 77.176378 
L 479.870621 77.067961 
L 482.632184 76.804168 
L 484.473226 76.688363 
L 487.23479 76.417806 
L 489.075832 76.294665 
L 491.837395 76.01825 
L 493.678437 75.887919 
L 496.44 75.606719 
L 496.44 75.606719 
" clip-path="url(#p9b47e39bb7)" style="fill: none; stroke: #2ca02c; stroke-width: 1.5; stroke-linecap: square"/>
   </g>
   <g id="line2d_18">
    <path d="M 37.1 84.298164 
L 42.623126 84.375071 
L 49.066774 84.565728 
L 51.828337 84.641642 
L 67.477194 85.386448 
L 70.238758 85.587835 
L 73.000321 85.769863 
L 75.761884 85.903941 
L 77.602926 86.072938 
L 79.443968 86.17624 
L 81.28501 86.248882 
L 83.126052 86.468762 
L 85.887615 86.553972 
L 87.728657 86.784334 
L 90.49022 86.863684 
L 92.331263 87.101897 
L 95.092826 87.176149 
L 96.933868 87.420018 
L 99.695431 87.490073 
L 101.536473 87.737797 
L 104.298036 87.804791 
L 106.139078 88.054923 
L 108.900641 88.120258 
L 110.741683 88.371672 
L 112.582725 88.379218 
L 113.503246 88.436991 
L 114.423768 88.622712 
L 116.26481 88.671023 
L 118.105852 88.75599 
L 119.026373 88.94585 
L 120.867415 88.988461 
L 122.708457 89.078638 
L 123.628978 89.272205 
L 136.516273 90.085934 
L 137.436794 90.288637 
L 141.118878 90.441168 
L 142.039399 90.646306 
L 145.721483 90.809264 
L 146.642004 91.016477 
L 150.324088 91.191894 
L 151.244609 91.400735 
L 154.926693 91.590484 
L 155.847214 91.80039 
L 159.529299 92.006138 
L 160.44982 92.216397 
L 163.211383 92.333305 
L 170.575551 93.109808 
L 172.416593 93.240305 
L 175.178156 93.569274 
L 177.019198 93.719641 
L 179.780762 94.043592 
L 181.621804 94.214862 
L 184.383367 94.531353 
L 186.224409 94.724392 
L 188.065451 95.053139 
L 189.906493 95.085877 
L 192.668056 95.572482 
L 194.509098 95.604135 
L 197.270661 96.099933 
L 198.191182 96.056359 
L 199.111703 96.130035 
L 201.873267 96.633126 
L 202.793788 96.578114 
L 203.714309 96.661337 
L 206.475872 97.169766 
L 207.396393 97.103018 
L 208.316914 97.195917 
L 210.157956 97.581816 
L 211.078477 97.707751 
L 211.998998 97.629193 
L 212.919519 97.731884 
L 214.760561 98.135676 
L 215.681082 98.24527 
L 216.601603 98.155067 
L 217.522124 98.267658 
L 219.363166 98.688441 
L 220.283687 98.780872 
L 221.204208 98.67942 
L 222.124729 98.80202 
L 223.965772 99.238797 
L 224.886293 99.313493 
L 225.806814 99.201412 
L 226.727335 99.33413 
L 228.568377 99.785829 
L 229.488898 99.842461 
L 230.409419 99.720568 
L 231.32994 99.863513 
L 233.170982 100.329 
L 234.091503 100.367461 
L 235.012024 100.236749 
L 235.932545 100.390025 
L 237.773587 100.868112 
L 238.694108 100.888499 
L 239.614629 100.750105 
L 240.53515 100.913803 
L 242.376192 101.403248 
L 243.296713 101.405836 
L 244.217234 101.261015 
L 245.137756 101.435211 
L 246.058277 101.745093 
L 246.978798 101.934717 
L 247.899319 101.919934 
L 248.81984 101.770037 
L 249.740361 101.954773 
L 250.660882 102.273304 
L 251.581403 102.462983 
L 252.501924 102.431389 
L 253.422445 102.277839 
L 254.342966 102.473123 
L 255.263487 102.799394 
L 256.184008 102.988613 
L 258.02505 102.785158 
L 258.945571 102.990946 
L 259.866092 103.323983 
L 260.786613 103.512221 
L 262.627655 103.292745 
L 263.548176 103.508933 
L 264.468697 103.847697 
L 265.389218 104.034422 
L 267.230261 103.801329 
L 268.150782 104.027745 
L 269.071303 104.371127 
L 269.991824 104.555795 
L 271.832866 104.311586 
L 274.594429 105.076859 
L 276.435471 104.824118 
L 279.197034 105.598054 
L 281.038076 105.339436 
L 283.799639 106.119739 
L 285.640681 105.857962 
L 288.402244 106.642194 
L 290.243287 106.380039 
L 293.00485 107.165646 
L 294.845892 106.905951 
L 297.607455 107.690294 
L 299.448497 107.435966 
L 302.21006 108.216361 
L 304.051102 107.970379 
L 306.812665 108.744149 
L 308.653707 108.509585 
L 310.494749 109.13218 
L 311.415271 109.274102 
L 313.256313 109.054146 
L 315.097355 109.671776 
L 316.017876 109.806892 
L 317.858918 109.604882 
L 319.69996 110.215293 
L 320.620481 110.343494 
L 321.541002 110.190217 
L 322.461523 110.162969 
L 324.302565 110.763966 
L 325.223086 110.885281 
L 326.143607 110.73723 
L 327.064128 110.730039 
L 328.90517 111.319507 
L 329.825691 111.434124 
L 330.746212 111.293886 
L 331.666733 111.308298 
L 333.507776 111.884213 
L 334.428297 111.992498 
L 335.348818 111.862972 
L 336.269339 111.900655 
L 338.110381 112.461077 
L 339.030902 112.563605 
L 339.951423 112.448085 
L 340.871944 112.51087 
L 342.712986 113.053935 
L 343.633507 113.151523 
L 344.554028 113.053794 
L 345.474549 113.143724 
L 347.315591 113.667621 
L 348.236112 113.761374 
L 349.156633 113.68585 
L 350.077154 113.805227 
L 351.918196 114.308158 
L 352.838717 114.399536 
L 353.759238 114.351424 
L 354.67976 114.502852 
L 356.520802 114.982988 
L 359.282365 115.245792 
L 361.123407 115.701207 
L 363.88497 116.045194 
L 365.726012 116.473769 
L 367.567054 116.648147 
L 369.408096 117.16544 
L 373.09018 117.867852 
L 374.931222 118.234825 
L 376.772265 118.563789 
L 377.692786 118.92133 
L 379.533828 119.252028 
L 380.454349 119.39096 
L 383.215912 120.281318 
L 385.056954 120.538096 
L 386.897996 121.368389 
L 389.659559 121.794571 
L 391.500601 122.747632 
L 394.262164 123.133818 
L 396.103206 124.174335 
L 398.86477 124.493151 
L 399.785291 125.106785 
L 400.705812 125.559997 
L 402.546854 125.562611 
L 403.467375 125.775399 
L 404.387896 126.401106 
L 405.308417 126.796071 
L 407.149459 126.688424 
L 408.06998 126.876211 
L 408.990501 127.477372 
L 409.911022 127.79475 
L 411.752064 127.574729 
L 412.672585 127.727564 
L 413.593106 128.285267 
L 414.513627 128.525027 
L 416.354669 128.205601 
L 417.27519 128.323909 
L 418.195711 128.838236 
L 419.116232 129.015369 
L 420.957275 128.619934 
L 421.877796 128.711036 
L 422.798317 129.192709 
L 423.718838 129.327326 
L 425.55988 128.881171 
L 426.480401 128.954199 
L 427.400922 129.41579 
L 428.321443 129.52546 
L 430.162485 129.049346 
L 431.083006 129.111947 
L 432.003527 129.563318 
L 432.924048 129.660214 
L 434.76509 129.168218 
L 435.685611 129.225529 
L 436.606132 129.672925 
L 437.526653 129.76424 
L 439.367695 129.264576 
L 440.288216 129.319535 
L 441.208737 129.766346 
L 442.129259 129.855824 
L 443.970301 129.352683 
L 444.890822 129.406742 
L 445.811343 129.854557 
L 446.731864 129.943939 
L 448.572906 129.439163 
L 449.493427 129.492914 
L 450.413948 129.942339 
L 451.334469 130.032343 
L 453.175511 129.52656 
L 454.096032 129.580152 
L 455.016553 130.031306 
L 455.937074 130.122187 
L 457.778116 129.615449 
L 458.698637 129.668824 
L 459.619158 130.121596 
L 460.539679 130.213422 
L 462.380721 129.705528 
L 463.301242 129.75853 
L 464.221764 130.212703 
L 465.142285 130.305472 
L 466.983327 129.796107 
L 467.903848 129.848535 
L 468.824369 130.303826 
L 469.74489 130.397518 
L 471.585932 129.886302 
L 472.506453 129.937923 
L 473.426974 130.394006 
L 474.347495 130.48859 
L 476.188537 129.975095 
L 477.109058 130.025653 
L 478.029579 130.482161 
L 478.9501 130.577603 
L 480.791142 130.061352 
L 481.711663 130.110572 
L 482.632184 130.567099 
L 483.552705 130.663359 
L 485.393747 130.143834 
L 486.314269 130.191418 
L 487.23479 130.647527 
L 488.155311 130.744564 
L 489.996353 130.221203 
L 490.916874 130.266841 
L 491.837395 130.722072 
L 492.757916 130.819845 
L 494.598958 130.292059 
L 495.519479 130.335429 
L 496.44 130.789309 
L 496.44 130.789309 
" clip-path="url(#p9b47e39bb7)" style="fill: none; stroke: #d62728; stroke-width: 1.5; stroke-linecap: square"/>
   </g>
   <g id="patch_3">
    <path d="M 37.1 164.47 
L 37.1 9.36 
" style="fill: none; stroke: #000000; stroke-width: 0.8; stroke-linejoin: miter; stroke-linecap: square"/>
   </g>
   <g id="patch_4">
    <path d="M 496.44 164.47 
L 496.44 9.36 
" style="fill: none; stroke: #000000; stroke-width: 0.8; stroke-linejoin: miter; stroke-linecap: square"/>
   </g>
   <g id="patch_5">
    <path d="M 37.1 164.47 
L 496.44 164.47 
" style="fill: none; stroke: #000000; stroke-width: 0.8; stroke-linejoin: miter; stroke-linecap: square"/>
   </g>
   <g id="patch_6">
    <path d="M 37.1 9.36 
L 496.44 9.36 
" style="fill: none; stroke: #000000; stroke-width: 0.8; stroke-linejoin: miter; stroke-linecap: square"/>
   </g>
   <g id="legend_1">
    <g id="patch_7">
     <path d="M 445.010781 54.957344 
L 491.54 54.957344 
Q 492.94 54.957344 492.94 53.557344 
L 492.94 14.26 
Q 492.94 12.86 491.54 12.86 
L 445.010781 12.86 
Q 443.610781 12.86 443.610781 14.26 
L 443.610781 53.557344 
Q 443.610781 54.957344 445.010781 54.957344 
z
" style="fill: #ffffff; opacity: 0.8; stroke: #cccccc; stroke-linejoin: miter"/>
    </g>
    <g id="line2d_19">
     <path d="M 446.410781 18.24125 
L 453.410781 18.24125 
L 460.410781 18.24125 
" style="fill: none; stroke: #1f77b4; stroke-width: 1.5; stroke-linecap: square"/>
    </g>
    <g id="text_11">
     <!-- Agent 1 -->
     <g transform="translate(466.010781 20.69125) scale(0.07 -0.07)">
      <defs>
       <path id="ArialMT-41" d="M -9 0 
L 1750 4581 
L 2403 4581 
L 4278 0 
L 3588 0 
L 3053 1388 
L 1138 1388 
L 634 0 
L -9 0 
z
M 1313 1881 
L 2866 1881 
L 2388 3150 
Q 2169 3728 2063 4100 
Q 1975 3659 1816 3225 
L 1313 1881 
z
" transform="scale(0.015625)"/>
       <path id="ArialMT-65" d="M 2694 1069 
L 3275 997 
Q 3138 488 2766 206 
Q 2394 -75 1816 -75 
Q 1088 -75 661 373 
Q 234 822 234 1631 
Q 234 2469 665 2931 
Q 1097 3394 1784 3394 
Q 2450 3394 2872 2941 
Q 3294 2488 3294 1666 
Q 3294 1616 3291 1516 
L 816 1516 
Q 847 969 1125 678 
Q 1403 388 1819 388 
Q 2128 388 2347 550 
Q 2566 713 2694 1069 
z
M 847 1978 
L 2700 1978 
Q 2663 2397 2488 2606 
Q 2219 2931 1791 2931 
Q 1403 2931 1139 2672 
Q 875 2413 847 1978 
z
" transform="scale(0.015625)"/>
       <path id="ArialMT-74" d="M 1650 503 
L 1731 6 
Q 1494 -44 1306 -44 
Q 1000 -44 831 53 
Q 663 150 594 308 
Q 525 466 525 972 
L 525 2881 
L 113 2881 
L 113 3319 
L 525 3319 
L 525 4141 
L 1084 4478 
L 1084 3319 
L 1650 3319 
L 1650 2881 
L 1084 2881 
L 1084 941 
Q 1084 700 1114 631 
Q 1144 563 1211 522 
Q 1278 481 1403 481 
Q 1497 481 1650 503 
z
" transform="scale(0.015625)"/>
      </defs>
      <use xlink:href="#ArialMT-41"/>
      <use xlink:href="#ArialMT-67" transform="translate(66.699219 0)"/>
      <use xlink:href="#ArialMT-65" transform="translate(122.314453 0)"/>
      <use xlink:href="#ArialMT-6e" transform="translate(177.929688 0)"/>
      <use xlink:href="#ArialMT-74" transform="translate(233.544922 0)"/>
      <use xlink:href="#ArialMT-20" transform="translate(261.328125 0)"/>
      <use xlink:href="#ArialMT-31" transform="translate(289.111328 0)"/>
     </g>
    </g>
    <g id="line2d_20">
     <path d="M 446.410781 28.245781 
L 453.410781 28.245781 
L 460.410781 28.245781 
" style="fill: none; stroke: #ff7f0e; stroke-width: 1.5; stroke-linecap: square"/>
    </g>
    <g id="text_12">
     <!-- Agent 2 -->
     <g transform="translate(466.010781 30.695781) scale(0.07 -0.07)">
      <use xlink:href="#ArialMT-41"/>
      <use xlink:href="#ArialMT-67" transform="translate(66.699219 0)"/>
      <use xlink:href="#ArialMT-65" transform="translate(122.314453 0)"/>
      <use xlink:href="#ArialMT-6e" transform="translate(177.929688 0)"/>
      <use xlink:href="#ArialMT-74" transform="translate(233.544922 0)"/>
      <use xlink:href="#ArialMT-20" transform="translate(261.328125 0)"/>
      <use xlink:href="#ArialMT-32" transform="translate(289.111328 0)"/>
     </g>
    </g>
    <g id="line2d_21">
     <path d="M 446.410781 38.250312 
L 453.410781 38.250312 
L 460.410781 38.250312 
" style="fill: none; stroke: #2ca02c; stroke-width: 1.5; stroke-linecap: square"/>
    </g>
    <g id="text_13">
     <!-- Agent 3 -->
     <g transform="translate(466.010781 40.700312) scale(0.07 -0.07)">
      <use xlink:href="#ArialMT-41"/>
      <use xlink:href="#ArialMT-67" transform="translate(66.699219 0)"/>
      <use xlink:href="#ArialMT-65" transform="translate(122.314453 0)"/>
      <use xlink:href="#ArialMT-6e" transform="translate(177.929688 0)"/>
      <use xlink:href="#ArialMT-74" transform="translate(233.544922 0)"/>
      <use xlink:href="#ArialMT-20" transform="translate(261.328125 0)"/>
      <use xlink:href="#ArialMT-33" transform="translate(289.111328 0)"/>
     </g>
    </g>
    <g id="line2d_22">
     <path d="M 446.410781 48.234063 
L 453.410781 48.234063 
L 460.410781 48.234063 
" style="fill: none; stroke: #d62728; stroke-width: 1.5; stroke-linecap: square"/>
    </g>
    <g id="text_14">
     <!-- Agent 4 -->
     <g transform="translate(466.010781 50.684063) scale(0.07 -0.07)">
      <use xlink:href="#ArialMT-41"/>
      <use xlink:href="#ArialMT-67" transform="translate(66.699219 0)"/>
      <use xlink:href="#ArialMT-65" transform="translate(122.314453 0)"/>
      <use xlink:href="#ArialMT-6e" transform="translate(177.929688 0)"/>
      <use xlink:href="#ArialMT-74" transform="translate(233.544922 0)"/>
      <use xlink:href="#ArialMT-20" transform="translate(261.328125 0)"/>
      <use xlink:href="#ArialMT-34" transform="translate(289.111328 0)"/>
     </g>
    </g>
   </g>
  </g>
  <g id="axes_2">
   <g id="patch_8">
    <path d="M 37.1 330.64 
L 496.44 330.64 
L 496.44 175.53 
L 37.1 175.53 
z
" style="fill: #ffffff"/>
   </g>
   <g id="matplotlib.axis_3">
    <g id="xtick_6">
     <g id="line2d_23">
      <g>
       <use xlink:href="#mabba338412" x="37.1" y="330.64" style="stroke: #000000; stroke-width: 0.8"/>
      </g>
     </g>
     <g id="text_15">
      <!-- 0 -->
      <g transform="translate(35.431719 341.934687) scale(0.06 -0.06)">
       <use xlink:href="#ArialMT-30"/>
      </g>
     </g>
    </g>
    <g id="xtick_7">
     <g id="line2d_24">
      <g>
       <use xlink:href="#mabba338412" x="129.152104" y="330.64" style="stroke: #000000; stroke-width: 0.8"/>
      </g>
     </g>
     <g id="text_16">
      <!-- 100 -->
      <g transform="translate(124.14726 341.934687) scale(0.06 -0.06)">
       <use xlink:href="#ArialMT-31"/>
       <use xlink:href="#ArialMT-30" transform="translate(55.615234 0)"/>
       <use xlink:href="#ArialMT-30" transform="translate(111.230469 0)"/>
      </g>
     </g>
    </g>
    <g id="xtick_8">
     <g id="line2d_25">
      <g>
       <use xlink:href="#mabba338412" x="221.204208" y="330.64" style="stroke: #000000; stroke-width: 0.8"/>
      </g>
     </g>
     <g id="text_17">
      <!-- 200 -->
      <g transform="translate(216.199365 341.934687) scale(0.06 -0.06)">
       <use xlink:href="#ArialMT-32"/>
       <use xlink:href="#ArialMT-30" transform="translate(55.615234 0)"/>
       <use xlink:href="#ArialMT-30" transform="translate(111.230469 0)"/>
      </g>
     </g>
    </g>
    <g id="xtick_9">
     <g id="line2d_26">
      <g>
       <use xlink:href="#mabba338412" x="313.256313" y="330.64" style="stroke: #000000; stroke-width: 0.8"/>
      </g>
     </g>
     <g id="text_18">
      <!-- 300 -->
      <g transform="translate(308.251469 341.934687) scale(0.06 -0.06)">
       <use xlink:href="#ArialMT-33"/>
       <use xlink:href="#ArialMT-30" transform="translate(55.615234 0)"/>
       <use xlink:href="#ArialMT-30" transform="translate(111.230469 0)"/>
      </g>
     </g>
    </g>
    <g id="xtick_10">
     <g id="line2d_27">
      <g>
       <use xlink:href="#mabba338412" x="405.308417" y="330.64" style="stroke: #000000; stroke-width: 0.8"/>
      </g>
     </g>
     <g id="text_19">
      <!-- 400 -->
      <g transform="translate(400.303573 341.934687) scale(0.06 -0.06)">
       <use xlink:href="#ArialMT-34"/>
       <use xlink:href="#ArialMT-30" transform="translate(55.615234 0)"/>
       <use xlink:href="#ArialMT-30" transform="translate(111.230469 0)"/>
      </g>
     </g>
    </g>
    <g id="text_20">
     <!-- Timesteps (0.1 s) -->
     <g transform="translate(239.868672 352.222969) scale(0.07 -0.07)">
      <defs>
       <path id="ArialMT-54" d="M 1659 0 
L 1659 4041 
L 150 4041 
L 150 4581 
L 3781 4581 
L 3781 4041 
L 2266 4041 
L 2266 0 
L 1659 0 
z
" transform="scale(0.015625)"/>
       <path id="ArialMT-6d" d="M 422 0 
L 422 3319 
L 925 3319 
L 925 2853 
Q 1081 3097 1340 3245 
Q 1600 3394 1931 3394 
Q 2300 3394 2536 3241 
Q 2772 3088 2869 2813 
Q 3263 3394 3894 3394 
Q 4388 3394 4653 3120 
Q 4919 2847 4919 2278 
L 4919 0 
L 4359 0 
L 4359 2091 
Q 4359 2428 4304 2576 
Q 4250 2725 4106 2815 
Q 3963 2906 3769 2906 
Q 3419 2906 3187 2673 
Q 2956 2441 2956 1928 
L 2956 0 
L 2394 0 
L 2394 2156 
Q 2394 2531 2256 2718 
Q 2119 2906 1806 2906 
Q 1569 2906 1367 2781 
Q 1166 2656 1075 2415 
Q 984 2175 984 1722 
L 984 0 
L 422 0 
z
" transform="scale(0.015625)"/>
       <path id="ArialMT-73" d="M 197 991 
L 753 1078 
Q 800 744 1014 566 
Q 1228 388 1613 388 
Q 2000 388 2187 545 
Q 2375 703 2375 916 
Q 2375 1106 2209 1216 
Q 2094 1291 1634 1406 
Q 1016 1563 777 1677 
Q 538 1791 414 1992 
Q 291 2194 291 2438 
Q 291 2659 392 2848 
Q 494 3038 669 3163 
Q 800 3259 1026 3326 
Q 1253 3394 1513 3394 
Q 1903 3394 2198 3281 
Q 2494 3169 2634 2976 
Q 2775 2784 2828 2463 
L 2278 2388 
Q 2241 2644 2061 2787 
Q 1881 2931 1553 2931 
Q 1166 2931 1000 2803 
Q 834 2675 834 2503 
Q 834 2394 903 2306 
Q 972 2216 1119 2156 
Q 1203 2125 1616 2013 
Q 2213 1853 2448 1751 
Q 2684 1650 2818 1456 
Q 2953 1263 2953 975 
Q 2953 694 2789 445 
Q 2625 197 2315 61 
Q 2006 -75 1616 -75 
Q 969 -75 630 194 
Q 291 463 197 991 
z
" transform="scale(0.015625)"/>
       <path id="ArialMT-28" d="M 1497 -1347 
Q 1031 -759 709 28 
Q 388 816 388 1659 
Q 388 2403 628 3084 
Q 909 3875 1497 4659 
L 1900 4659 
Q 1522 4009 1400 3731 
Q 1209 3300 1100 2831 
Q 966 2247 966 1656 
Q 966 153 1900 -1347 
L 1497 -1347 
z
" transform="scale(0.015625)"/>
       <path id="ArialMT-29" d="M 791 -1347 
L 388 -1347 
Q 1322 153 1322 1656 
Q 1322 2244 1188 2822 
Q 1081 3291 891 3722 
Q 769 4003 388 4659 
L 791 4659 
Q 1378 3875 1659 3084 
Q 1900 2403 1900 1659 
Q 1900 816 1576 28 
Q 1253 -759 791 -1347 
z
" transform="scale(0.015625)"/>
      </defs>
      <use xlink:href="#ArialMT-54"/>
      <use xlink:href="#ArialMT-69" transform="translate(57.333984 0)"/>
      <use xlink:href="#ArialMT-6d" transform="translate(79.550781 0)"/>
      <use xlink:href="#ArialMT-65" transform="translate(162.851562 0)"/>
      <use xlink:href="#ArialMT-73" transform="translate(218.466797 0)"/>
      <use xlink:href="#ArialMT-74" transform="translate(268.466797 0)"/>
      <use xlink:href="#ArialMT-65" transform="translate(296.25 0)"/>
      <use xlink:href="#ArialMT-70" transform="translate(351.865234 0)"/>
      <use xlink:href="#ArialMT-73" transform="translate(407.480469 0)"/>
      <use xlink:href="#ArialMT-20" transform="translate(457.480469 0)"/>
      <use xlink:href="#ArialMT-28" transform="translate(485.263672 0)"/>
      <use xlink:href="#ArialMT-30" transform="translate(518.564453 0)"/>
      <use xlink:href="#ArialMT-2e" transform="translate(574.179688 0)"/>
      <use xlink:href="#ArialMT-31" transform="translate(601.962891 0)"/>
      <use xlink:href="#ArialMT-20" transform="translate(657.578125 0)"/>
      <use xlink:href="#ArialMT-73" transform="translate(685.361328 0)"/>
      <use xlink:href="#ArialMT-29" transform="translate(735.361328 0)"/>
     </g>
    </g>
   </g>
   <g id="matplotlib.axis_4">
    <g id="ytick_10">
     <g id="line2d_28">
      <g>
       <use xlink:href="#m879c613c64" x="37.1" y="330.64" style="stroke: #000000; stroke-width: 0.8"/>
      </g>
     </g>
     <g id="text_21">
      <!-- 0 -->
      <g transform="translate(26.763438 332.787344) scale(0.06 -0.06)">
       <use xlink:href="#ArialMT-30"/>
      </g>
     </g>
    </g>
    <g id="ytick_11">
     <g id="line2d_29">
      <g>
       <use xlink:href="#m879c613c64" x="37.1" y="309.958667" style="stroke: #000000; stroke-width: 0.8"/>
      </g>
     </g>
     <g id="text_22">
      <!-- 2 -->
      <g transform="translate(26.763438 312.10601) scale(0.06 -0.06)">
       <use xlink:href="#ArialMT-32"/>
      </g>
     </g>
    </g>
    <g id="ytick_12">
     <g id="line2d_30">
      <g>
       <use xlink:href="#m879c613c64" x="37.1" y="289.277333" style="stroke: #000000; stroke-width: 0.8"/>
      </g>
     </g>
     <g id="text_23">
      <!-- 4 -->
      <g transform="translate(26.763438 291.424677) scale(0.06 -0.06)">
       <use xlink:href="#ArialMT-34"/>
      </g>
     </g>
    </g>
    <g id="ytick_13">
     <g id="line2d_31">
      <g>
       <use xlink:href="#m879c613c64" x="37.1" y="268.596" style="stroke: #000000; stroke-width: 0.8"/>
      </g>
     </g>
     <g id="text_24">
      <!-- 6 -->
      <g transform="translate(26.763438 270.743344) scale(0.06 -0.06)">
       <defs>
        <path id="ArialMT-36" d="M 3184 3459 
L 2625 3416 
Q 2550 3747 2413 3897 
Q 2184 4138 1850 4138 
Q 1581 4138 1378 3988 
Q 1113 3794 959 3422 
Q 806 3050 800 2363 
Q 1003 2672 1297 2822 
Q 1591 2972 1913 2972 
Q 2475 2972 2870 2558 
Q 3266 2144 3266 1488 
Q 3266 1056 3080 686 
Q 2894 316 2569 119 
Q 2244 -78 1831 -78 
Q 1128 -78 684 439 
Q 241 956 241 2144 
Q 241 3472 731 4075 
Q 1159 4600 1884 4600 
Q 2425 4600 2770 4297 
Q 3116 3994 3184 3459 
z
M 888 1484 
Q 888 1194 1011 928 
Q 1134 663 1356 523 
Q 1578 384 1822 384 
Q 2178 384 2434 671 
Q 2691 959 2691 1453 
Q 2691 1928 2437 2201 
Q 2184 2475 1800 2475 
Q 1419 2475 1153 2201 
Q 888 1928 888 1484 
z
" transform="scale(0.015625)"/>
       </defs>
       <use xlink:href="#ArialMT-36"/>
      </g>
     </g>
    </g>
    <g id="ytick_14">
     <g id="line2d_32">
      <g>
       <use xlink:href="#m879c613c64" x="37.1" y="247.914667" style="stroke: #000000; stroke-width: 0.8"/>
      </g>
     </g>
     <g id="text_25">
      <!-- 8 -->
      <g transform="translate(26.763438 250.06201) scale(0.06 -0.06)">
       <defs>
        <path id="ArialMT-38" d="M 1131 2484 
Q 781 2613 612 2850 
Q 444 3088 444 3419 
Q 444 3919 803 4259 
Q 1163 4600 1759 4600 
Q 2359 4600 2725 4251 
Q 3091 3903 3091 3403 
Q 3091 3084 2923 2848 
Q 2756 2613 2416 2484 
Q 2838 2347 3058 2040 
Q 3278 1734 3278 1309 
Q 3278 722 2862 322 
Q 2447 -78 1769 -78 
Q 1091 -78 675 323 
Q 259 725 259 1325 
Q 259 1772 486 2073 
Q 713 2375 1131 2484 
z
M 1019 3438 
Q 1019 3113 1228 2906 
Q 1438 2700 1772 2700 
Q 2097 2700 2305 2904 
Q 2513 3109 2513 3406 
Q 2513 3716 2298 3927 
Q 2084 4138 1766 4138 
Q 1444 4138 1231 3931 
Q 1019 3725 1019 3438 
z
M 838 1322 
Q 838 1081 952 856 
Q 1066 631 1291 507 
Q 1516 384 1775 384 
Q 2178 384 2440 643 
Q 2703 903 2703 1303 
Q 2703 1709 2433 1975 
Q 2163 2241 1756 2241 
Q 1359 2241 1098 1978 
Q 838 1716 838 1322 
z
" transform="scale(0.015625)"/>
       </defs>
       <use xlink:href="#ArialMT-38"/>
      </g>
     </g>
    </g>
    <g id="ytick_15">
     <g id="line2d_33">
      <g>
       <use xlink:href="#m879c613c64" x="37.1" y="227.233333" style="stroke: #000000; stroke-width: 0.8"/>
      </g>
     </g>
     <g id="text_26">
      <!-- 10 -->
      <g transform="translate(23.426875 229.380677) scale(0.06 -0.06)">
       <use xlink:href="#ArialMT-31"/>
       <use xlink:href="#ArialMT-30" transform="translate(55.615234 0)"/>
      </g>
     </g>
    </g>
    <g id="ytick_16">
     <g id="line2d_34">
      <g>
       <use xlink:href="#m879c613c64" x="37.1" y="206.552" style="stroke: #000000; stroke-width: 0.8"/>
      </g>
     </g>
     <g id="text_27">
      <!-- 12 -->
      <g transform="translate(23.426875 208.699344) scale(0.06 -0.06)">
       <use xlink:href="#ArialMT-31"/>
       <use xlink:href="#ArialMT-32" transform="translate(55.615234 0)"/>
      </g>
     </g>
    </g>
    <g id="ytick_17">
     <g id="line2d_35">
      <g>
       <use xlink:href="#m879c613c64" x="37.1" y="185.870667" style="stroke: #000000; stroke-width: 0.8"/>
      </g>
     </g>
     <g id="text_28">
      <!-- 14 -->
      <g transform="translate(23.426875 188.01801) scale(0.06 -0.06)">
       <use xlink:href="#ArialMT-31"/>
       <use xlink:href="#ArialMT-34" transform="translate(55.615234 0)"/>
      </g>
     </g>
    </g>
    <g id="text_29">
     <!-- Distance from leader (d/$\lambda_0$) -->
     <g transform="translate(17.886875 295.33) rotate(-90) scale(0.07 -0.07)">
      <defs>
       <path id="ArialMT-44" d="M 494 0 
L 494 4581 
L 2072 4581 
Q 2606 4581 2888 4516 
Q 3281 4425 3559 4188 
Q 3922 3881 4101 3404 
Q 4281 2928 4281 2316 
Q 4281 1794 4159 1391 
Q 4038 988 3847 723 
Q 3656 459 3429 307 
Q 3203 156 2883 78 
Q 2563 0 2147 0 
L 494 0 
z
M 1100 541 
L 2078 541 
Q 2531 541 2789 625 
Q 3047 709 3200 863 
Q 3416 1078 3536 1442 
Q 3656 1806 3656 2325 
Q 3656 3044 3420 3430 
Q 3184 3816 2847 3947 
Q 2603 4041 2063 4041 
L 1100 4041 
L 1100 541 
z
" transform="scale(0.015625)"/>
       <path id="ArialMT-66" d="M 556 0 
L 556 2881 
L 59 2881 
L 59 3319 
L 556 3319 
L 556 3672 
Q 556 4006 616 4169 
Q 697 4388 901 4523 
Q 1106 4659 1475 4659 
Q 1713 4659 2000 4603 
L 1916 4113 
Q 1741 4144 1584 4144 
Q 1328 4144 1222 4034 
Q 1116 3925 1116 3625 
L 1116 3319 
L 1763 3319 
L 1763 2881 
L 1116 2881 
L 1116 0 
L 556 0 
z
" transform="scale(0.015625)"/>
       <path id="ArialMT-72" d="M 416 0 
L 416 3319 
L 922 3319 
L 922 2816 
Q 1116 3169 1280 3281 
Q 1444 3394 1641 3394 
Q 1925 3394 2219 3213 
L 2025 2691 
Q 1819 2813 1613 2813 
Q 1428 2813 1281 2702 
Q 1134 2591 1072 2394 
Q 978 2094 978 1738 
L 978 0 
L 416 0 
z
" transform="scale(0.015625)"/>
       <path id="ArialMT-6f" d="M 213 1659 
Q 213 2581 725 3025 
Q 1153 3394 1769 3394 
Q 2453 3394 2887 2945 
Q 3322 2497 3322 1706 
Q 3322 1066 3130 698 
Q 2938 331 2570 128 
Q 2203 -75 1769 -75 
Q 1072 -75 642 372 
Q 213 819 213 1659 
z
M 791 1659 
Q 791 1022 1069 705 
Q 1347 388 1769 388 
Q 2188 388 2466 706 
Q 2744 1025 2744 1678 
Q 2744 2294 2464 2611 
Q 2184 2928 1769 2928 
Q 1347 2928 1069 2612 
Q 791 2297 791 1659 
z
" transform="scale(0.015625)"/>
       <path id="ArialMT-6c" d="M 409 0 
L 409 4581 
L 972 4581 
L 972 0 
L 409 0 
z
" transform="scale(0.015625)"/>
      </defs>
      <use xlink:href="#ArialMT-44" transform="translate(0 0.015625)"/>
      <use xlink:href="#ArialMT-69" transform="translate(72.216797 0.015625)"/>
      <use xlink:href="#ArialMT-73" transform="translate(94.433594 0.015625)"/>
      <use xlink:href="#ArialMT-74" transform="translate(144.433594 0.015625)"/>
      <use xlink:href="#ArialMT-61" transform="translate(172.216797 0.015625)"/>
      <use xlink:href="#ArialMT-6e" transform="translate(227.832031 0.015625)"/>
      <use xlink:href="#ArialMT-63" transform="translate(283.447266 0.015625)"/>
      <use xlink:href="#ArialMT-65" transform="translate(333.447266 0.015625)"/>
      <use xlink:href="#ArialMT-20" transform="translate(389.0625 0.015625)"/>
      <use xlink:href="#ArialMT-66" transform="translate(416.845703 0.015625)"/>
      <use xlink:href="#ArialMT-72" transform="translate(444.628906 0.015625)"/>
      <use xlink:href="#ArialMT-6f" transform="translate(477.929688 0.015625)"/>
      <use xlink:href="#ArialMT-6d" transform="translate(533.544922 0.015625)"/>
      <use xlink:href="#ArialMT-20" transform="translate(616.845703 0.015625)"/>
      <use xlink:href="#ArialMT-6c" transform="translate(644.628906 0.015625)"/>
      <use xlink:href="#ArialMT-65" transform="translate(666.845703 0.015625)"/>
      <use xlink:href="#ArialMT-61" transform="translate(722.460938 0.015625)"/>
      <use xlink:href="#ArialMT-64" transform="translate(778.076172 0.015625)"/>
      <use xlink:href="#ArialMT-65" transform="translate(833.691406 0.015625)"/>
      <use xlink:href="#ArialMT-72" transform="translate(889.306641 0.015625)"/>
      <use xlink:href="#ArialMT-20" transform="translate(922.607422 0.015625)"/>
      <use xlink:href="#ArialMT-28" transform="translate(950.390625 0.015625)"/>
      <use xlink:href="#ArialMT-64" transform="translate(983.691406 0.015625)"/>
      <use xlink:href="#ArialMT-2f" transform="translate(1039.306641 0.015625)"/>
      <use xlink:href="#DejaVuSans-Oblique-3bb" transform="translate(1067.089844 0.015625)"/>
      <use xlink:href="#DejaVuSans-30" transform="translate(1126.269531 -16.390625) scale(0.7)"/>
      <use xlink:href="#ArialMT-29" transform="translate(1173.540039 0.015625)"/>
     </g>
    </g>
   </g>
   <g id="line2d_36">
    <path d="M 37.1 306.953532 
L 38.020521 307.022544 
L 40.782084 306.815705 
L 42.623126 307.061325 
L 45.384689 306.925766 
L 47.225731 307.181851 
L 49.987295 307.046396 
L 51.828337 307.291361 
L 54.5899 307.142031 
L 56.430942 307.373889 
L 59.192505 307.210805 
L 61.033547 307.431975 
L 63.79511 307.258153 
L 65.636152 307.471512 
L 68.397715 307.289986 
L 70.238758 307.497913 
L 73.000321 307.311081 
L 74.841363 307.515333 
L 77.602926 307.324931 
L 79.443968 307.526739 
L 82.205531 307.33397 
L 84.046573 307.534168 
L 86.808136 307.339845 
L 88.649178 307.53899 
L 91.410741 307.343653 
L 93.251784 307.542114 
L 96.013347 307.346118 
L 97.854389 307.544134 
L 100.615952 307.34771 
L 102.456994 307.545439 
L 105.218557 307.348739 
L 107.059599 307.546282 
L 109.821162 307.349403 
L 111.662204 307.546826 
L 114.423768 307.349831 
L 116.26481 307.547177 
L 119.026373 307.350108 
L 120.867415 307.547403 
L 123.628978 307.350286 
L 125.47002 307.547549 
L 128.231583 307.350401 
L 130.072625 307.547643 
L 132.834188 307.350475 
L 134.67523 307.547704 
L 137.436794 307.350523 
L 139.277836 307.547743 
L 142.039399 307.350554 
L 143.880441 307.547768 
L 146.642004 307.350574 
L 148.483046 307.547785 
L 151.244609 307.350586 
L 153.085651 307.547795 
L 155.847214 307.350595 
L 157.688257 307.547802 
L 160.44982 307.3506 
L 162.290862 307.547806 
L 165.052425 307.350603 
L 166.893467 307.547809 
L 169.65503 307.350606 
L 171.496072 307.547811 
L 174.257635 307.350607 
L 176.098677 307.547812 
L 178.86024 307.350608 
L 180.701283 307.547813 
L 183.462846 307.350609 
L 185.303888 307.547813 
L 188.065451 307.350609 
L 189.906493 307.547814 
L 192.668056 307.350609 
L 194.509098 307.547814 
L 197.270661 307.350609 
L 199.111703 307.547814 
L 201.873267 307.35061 
L 203.714309 307.547814 
L 206.475872 307.35061 
L 208.316914 307.547814 
L 211.078477 307.35061 
L 212.919519 307.547814 
L 215.681082 307.35061 
L 217.522124 307.547814 
L 220.283687 307.35061 
L 222.124729 307.547814 
L 224.886293 307.35061 
L 226.727335 307.547814 
L 229.488898 307.35061 
L 231.32994 307.547814 
L 234.091503 307.35061 
L 235.932545 307.547814 
L 238.694108 307.35061 
L 240.53515 307.547814 
L 243.296713 307.35061 
L 245.137756 307.547814 
L 247.899319 307.35061 
L 249.740361 307.547814 
L 252.501924 307.35061 
L 254.342966 307.547814 
L 257.104529 307.35061 
L 258.945571 307.547814 
L 261.707134 307.35061 
L 263.548176 307.547814 
L 266.309739 307.35061 
L 268.150782 307.547814 
L 270.912345 307.35061 
L 272.753387 307.547814 
L 275.51495 307.35061 
L 277.355992 307.547814 
L 280.117555 307.35061 
L 281.958597 307.547814 
L 284.72016 307.35061 
L 286.561202 307.547814 
L 289.322766 307.35061 
L 291.163808 307.547814 
L 293.925371 307.35061 
L 295.766413 307.547814 
L 298.527976 307.35061 
L 300.369018 307.547814 
L 303.130581 307.35061 
L 304.971623 307.547814 
L 307.733186 307.35061 
L 309.574228 307.547814 
L 312.335792 307.35061 
L 314.176834 307.547814 
L 316.938397 307.35061 
L 318.779439 307.547814 
L 321.541002 307.35061 
L 323.382044 307.547814 
L 326.143607 307.35061 
L 327.984649 307.547814 
L 330.746212 307.35061 
L 332.587255 307.547814 
L 335.348818 307.35061 
L 337.18986 307.547814 
L 339.951423 307.35061 
L 341.792465 307.547814 
L 344.554028 307.35061 
L 346.39507 307.547814 
L 349.156633 307.35061 
L 350.997675 307.547814 
L 353.759238 307.35061 
L 355.600281 307.547814 
L 358.361844 307.35061 
L 360.202886 307.547814 
L 362.964449 307.35061 
L 364.805491 307.547814 
L 367.567054 307.35061 
L 369.408096 307.547814 
L 372.169659 307.35061 
L 374.010701 307.547814 
L 376.772265 307.35061 
L 378.613307 307.547814 
L 381.37487 307.35061 
L 383.215912 307.547814 
L 385.977475 307.35061 
L 387.818517 307.547814 
L 390.58008 307.35061 
L 392.421122 307.547814 
L 395.182685 307.35061 
L 397.023727 307.547814 
L 399.785291 307.35061 
L 401.626333 307.547814 
L 404.387896 307.35061 
L 406.228938 307.547814 
L 408.990501 307.35061 
L 410.831543 307.547814 
L 413.593106 307.35061 
L 415.434148 307.547814 
L 418.195711 307.35061 
L 420.036754 307.547814 
L 422.798317 307.35061 
L 424.639359 307.547814 
L 427.400922 307.35061 
L 429.241964 307.547814 
L 432.003527 307.35061 
L 433.844569 307.547814 
L 436.606132 307.35061 
L 438.447174 307.547814 
L 441.208737 307.35061 
L 443.04978 307.547814 
L 445.811343 307.35061 
L 447.652385 307.547814 
L 450.413948 307.35061 
L 452.25499 307.547814 
L 455.016553 307.35061 
L 456.857595 307.547814 
L 459.619158 307.35061 
L 461.4602 307.547814 
L 464.221764 307.35061 
L 466.062806 307.547814 
L 468.824369 307.35061 
L 470.665411 307.547814 
L 473.426974 307.35061 
L 475.268016 307.547814 
L 478.029579 307.35061 
L 479.870621 307.547814 
L 482.632184 307.35061 
L 484.473226 307.547814 
L 487.23479 307.35061 
L 489.075832 307.547814 
L 491.837395 307.35061 
L 493.678437 307.547814 
L 496.44 307.35061 
L 496.44 307.35061 
" clip-path="url(#p63f919e2d9)" style="fill: none; stroke: #1f77b4; stroke-width: 1.5; stroke-linecap: square"/>
   </g>
   <g id="line2d_37">
    <path d="M 37.1 283.198914 
L 38.020521 283.256872 
L 41.702605 283.054388 
L 42.623126 283.107204 
L 45.384689 282.834275 
L 47.225731 282.983718 
L 49.987295 282.710072 
L 51.828337 282.860641 
L 55.510421 282.662021 
L 56.430942 282.721526 
L 60.113026 282.506013 
L 61.033547 282.566499 
L 64.715631 282.33867 
L 65.636152 282.400957 
L 69.318236 282.165864 
L 70.238758 282.230606 
L 73.920842 281.992442 
L 74.841363 282.06007 
L 78.523447 281.822014 
L 79.443968 281.892774 
L 83.126052 281.657156 
L 84.046573 281.731162 
L 85.887615 281.513193 
L 86.808136 281.426241 
L 88.649178 281.576927 
L 90.49022 281.364133 
L 91.410741 281.277046 
L 93.251784 281.431188 
L 95.092826 281.223648 
L 96.013347 281.136886 
L 97.854389 281.294621 
L 99.695431 281.092286 
L 100.615952 281.006191 
L 102.456994 281.167547 
L 104.298036 280.970272 
L 105.218557 280.885088 
L 107.98012 281.001106 
L 109.821162 280.773472 
L 112.582725 280.895503 
L 114.423768 280.671061 
L 117.185331 280.798758 
L 119.026373 280.577444 
L 121.787936 280.71043 
L 123.628978 280.492132 
L 126.390541 280.630014 
L 128.231583 280.414581 
L 130.993146 280.556968 
L 132.834188 280.34423 
L 135.595752 280.490737 
L 137.436794 280.280514 
L 140.198357 280.430776 
L 142.039399 280.22288 
L 144.800962 280.376552 
L 146.642004 280.170801 
L 149.403567 280.327561 
L 151.244609 280.123778 
L 154.006172 280.28333 
L 155.847214 280.081345 
L 158.608778 280.243416 
L 160.44982 280.043071 
L 163.211383 280.207414 
L 165.052425 280.00856 
L 167.813988 280.174949 
L 169.65503 279.977449 
L 172.416593 280.145681 
L 174.257635 279.949407 
L 177.019198 280.119297 
L 178.86024 279.924135 
L 181.621804 280.095516 
L 183.462846 279.90136 
L 186.224409 280.074083 
L 188.065451 279.880836 
L 190.827014 280.054766 
L 192.668056 279.862341 
L 195.429619 280.037357 
L 197.270661 279.845674 
L 200.032224 280.021666 
L 201.873267 279.830653 
L 204.63483 280.007523 
L 206.475872 279.817116 
L 209.237435 279.994777 
L 211.078477 279.804916 
L 213.84004 279.983287 
L 215.681082 279.793919 
L 218.442645 279.972931 
L 220.283687 279.784007 
L 223.045251 279.963595 
L 224.886293 279.775072 
L 227.647856 279.955179 
L 229.488898 279.767018 
L 232.250461 279.947592 
L 234.091503 279.759758 
L 236.853066 279.940752 
L 238.694108 279.753212 
L 241.455671 279.934585 
L 243.296713 279.74731 
L 246.058277 279.929025 
L 247.899319 279.74199 
L 250.660882 279.924011 
L 252.501924 279.737192 
L 255.263487 279.919491 
L 257.104529 279.732866 
L 259.866092 279.915414 
L 261.707134 279.728966 
L 264.468697 279.911739 
L 266.309739 279.725449 
L 269.071303 279.908424 
L 270.912345 279.722277 
L 273.673908 279.905435 
L 275.51495 279.719417 
L 278.276513 279.902739 
L 280.117555 279.716838 
L 282.879118 279.900309 
L 284.72016 279.714511 
L 287.481723 279.898116 
L 289.322766 279.712414 
L 292.084329 279.896139 
L 293.925371 279.710522 
L 296.686934 279.894356 
L 298.527976 279.708816 
L 301.289539 279.892748 
L 303.130581 279.707277 
L 305.892144 279.891297 
L 307.733186 279.705889 
L 310.494749 279.889989 
L 312.335792 279.704637 
L 315.097355 279.888809 
L 316.938397 279.703508 
L 319.69996 279.887745 
L 321.541002 279.70249 
L 324.302565 279.886785 
L 326.143607 279.701572 
L 328.90517 279.885919 
L 330.746212 279.700743 
L 333.507776 279.885139 
L 335.348818 279.699996 
L 338.110381 279.884434 
L 339.951423 279.699322 
L 342.712986 279.883799 
L 344.554028 279.698715 
L 347.315591 279.883226 
L 349.156633 279.698166 
L 351.918196 279.882709 
L 353.759238 279.697672 
L 356.520802 279.882243 
L 358.361844 279.697226 
L 361.123407 279.881823 
L 362.964449 279.696824 
L 365.726012 279.881444 
L 367.567054 279.696461 
L 370.328617 279.881102 
L 372.169659 279.696134 
L 374.931222 279.880793 
L 376.772265 279.695838 
L 379.533828 279.880515 
L 381.37487 279.695572 
L 384.136433 279.880264 
L 385.977475 279.695332 
L 388.739038 279.880037 
L 390.58008 279.695115 
L 393.341643 279.879833 
L 395.182685 279.69492 
L 397.944248 279.879649 
L 399.785291 279.694744 
L 402.546854 279.879483 
L 404.387896 279.694585 
L 407.149459 279.879333 
L 408.990501 279.694441 
L 411.752064 279.879198 
L 413.593106 279.694312 
L 416.354669 279.879076 
L 418.195711 279.694195 
L 420.957275 279.878966 
L 422.798317 279.69409 
L 425.55988 279.878866 
L 427.400922 279.693995 
L 430.162485 279.878777 
L 432.003527 279.693909 
L 434.76509 279.878696 
L 436.606132 279.693832 
L 439.367695 279.878623 
L 441.208737 279.693762 
L 443.970301 279.878558 
L 445.811343 279.6937 
L 448.572906 279.878498 
L 450.413948 279.693643 
L 453.175511 279.878445 
L 455.016553 279.693592 
L 457.778116 279.878397 
L 459.619158 279.693546 
L 462.380721 279.878353 
L 464.221764 279.693504 
L 466.983327 279.878314 
L 468.824369 279.693466 
L 471.585932 279.878279 
L 473.426974 279.693433 
L 476.188537 279.878247 
L 478.029579 279.693402 
L 480.791142 279.878218 
L 482.632184 279.693375 
L 485.393747 279.878192 
L 487.23479 279.69335 
L 489.996353 279.878169 
L 491.837395 279.693327 
L 494.598958 279.878148 
L 496.44 279.693307 
L 496.44 279.693307 
" clip-path="url(#p63f919e2d9)" style="fill: none; stroke: #ff7f0e; stroke-width: 1.5; stroke-linecap: square"/>
   </g>
   <g id="line2d_38">
    <path d="M 37.1 259.444296 
L 38.020521 259.502254 
L 41.702605 259.263144 
L 42.623126 259.305378 
L 46.30521 259.03472 
L 47.225731 259.072162 
L 50.907816 258.78829 
L 51.828337 258.82726 
L 55.510421 258.538724 
L 56.430942 258.5818 
L 60.113026 258.295703 
L 61.033547 258.344426 
L 64.715631 258.066874 
L 65.636152 258.121632 
L 69.318236 257.855717 
L 70.238758 257.916037 
L 73.920842 257.662352 
L 74.841363 257.727424 
L 78.523447 257.485387 
L 79.443968 257.554415 
L 83.126052 257.323177 
L 84.046573 257.395514 
L 87.728657 257.17433 
L 88.649178 257.249489 
L 92.331263 257.037781 
L 93.251784 257.115398 
L 96.933868 256.912711 
L 97.854389 256.992508 
L 101.536473 256.798439 
L 102.456994 256.880192 
L 106.139078 256.694346 
L 107.059599 256.777861 
L 110.741683 256.599816 
L 111.662204 256.684921 
L 115.344289 256.514225 
L 116.26481 256.60076 
L 119.946894 256.436928 
L 120.867415 256.524743 
L 124.549499 256.367273 
L 125.47002 256.456229 
L 129.152104 256.304611 
L 130.072625 256.394578 
L 133.754709 256.248309 
L 134.67523 256.339169 
L 138.357315 256.19776 
L 139.277836 256.289404 
L 142.95992 256.152393 
L 143.880441 256.244724 
L 147.562525 256.111674 
L 148.483046 256.204606 
L 152.16513 256.075115 
L 153.085651 256.168571 
L 156.767735 256.042269 
L 157.688257 256.13618 
L 161.370341 256.012728 
L 162.290862 256.107037 
L 165.972946 255.986129 
L 166.893467 256.080784 
L 170.575551 255.962142 
L 171.496072 256.057098 
L 175.178156 255.940472 
L 176.098677 256.03569 
L 179.780762 255.920856 
L 180.701283 256.016301 
L 184.383367 255.903056 
L 185.303888 255.998701 
L 188.985972 255.886862 
L 189.906493 255.98268 
L 193.588577 255.872085 
L 194.509098 255.968054 
L 198.191182 255.858554 
L 199.111703 255.954655 
L 202.793788 255.846118 
L 203.714309 255.942334 
L 207.396393 255.834639 
L 208.316914 255.930955 
L 211.998998 255.823993 
L 212.919519 255.920396 
L 216.601603 255.814069 
L 217.522124 255.910549 
L 221.204208 255.804765 
L 222.124729 255.901311 
L 225.806814 255.795989 
L 226.727335 255.892591 
L 230.409419 255.787655 
L 231.32994 255.884307 
L 235.012024 255.779686 
L 235.932545 255.87638 
L 239.614629 255.772009 
L 240.53515 255.868739 
L 244.217234 255.764557 
L 245.137756 255.861318 
L 248.81984 255.757268 
L 249.740361 255.854054 
L 253.422445 255.750083 
L 254.342966 255.846888 
L 258.02505 255.742944 
L 258.945571 255.839765 
L 262.627655 255.735798 
L 263.548176 255.832631 
L 267.230261 255.728594 
L 268.150782 255.825435 
L 271.832866 255.72128 
L 272.753387 255.818126 
L 276.435471 255.713808 
L 277.355992 255.810655 
L 281.038076 255.706128 
L 281.958597 255.802974 
L 285.640681 255.698193 
L 286.561202 255.795033 
L 290.243287 255.689952 
L 291.163808 255.786785 
L 294.845892 255.681357 
L 295.766413 255.778179 
L 299.448497 255.672358 
L 300.369018 255.769166 
L 304.051102 255.662904 
L 304.971623 255.759695 
L 308.653707 255.652941 
L 309.574228 255.749713 
L 313.256313 255.642416 
L 314.176834 255.739165 
L 317.858918 255.631272 
L 318.779439 255.727996 
L 322.461523 255.619449 
L 323.382044 255.716144 
L 327.064128 255.606886 
L 327.984649 255.70355 
L 331.666733 255.593519 
L 332.587255 255.690147 
L 336.269339 255.579278 
L 337.18986 255.675868 
L 340.871944 255.564093 
L 341.792465 255.660641 
L 345.474549 255.547888 
L 346.39507 255.644389 
L 350.077154 255.530582 
L 350.997675 255.627034 
L 354.67976 255.512092 
L 355.600281 255.60849 
L 359.282365 255.492328 
L 360.202886 255.588668 
L 363.88497 255.471196 
L 364.805491 255.567472 
L 368.487575 255.448596 
L 369.408096 255.544804 
L 373.09018 255.424422 
L 374.010701 255.520558 
L 377.692786 255.398565 
L 378.613307 255.494622 
L 382.295391 255.370906 
L 383.215912 255.466878 
L 386.897996 255.341322 
L 387.818517 255.437204 
L 391.500601 255.309685 
L 392.421122 255.405469 
L 396.103206 255.275858 
L 397.023727 255.371538 
L 400.705812 255.239702 
L 401.626333 255.335269 
L 405.308417 255.201068 
L 406.228938 255.296516 
L 409.911022 255.159807 
L 410.831543 255.255126 
L 414.513627 255.115761 
L 415.434148 255.210943 
L 419.116232 255.068771 
L 420.036754 255.163807 
L 423.718838 255.018676 
L 424.639359 255.113556 
L 428.321443 254.965314 
L 429.241964 255.060028 
L 432.924048 254.908525 
L 433.844569 255.003063 
L 437.526653 254.848152 
L 438.447174 254.942503 
L 442.129259 254.784047 
L 443.04978 254.878199 
L 446.731864 254.716071 
L 447.652385 254.810014 
L 451.334469 254.644101 
L 452.25499 254.737823 
L 455.937074 254.568033 
L 456.857595 254.661523 
L 460.539679 254.487788 
L 461.4602 254.581037 
L 465.142285 254.403319 
L 466.062806 254.496316 
L 467.903848 254.302086 
L 468.824369 254.226197 
L 470.665411 254.407355 
L 472.506453 254.212522 
L 473.426974 254.134964 
L 475.268016 254.314188 
L 477.109058 254.118813 
L 478.029579 254.039641 
L 479.870621 254.216905 
L 481.711663 254.021064 
L 482.632184 253.940358 
L 484.473226 254.115652 
L 486.314269 253.919439 
L 487.23479 253.837303 
L 489.075832 254.010642 
L 490.916874 253.814168 
L 491.837395 253.730732 
L 493.678437 253.902155 
L 495.519479 253.705549 
L 496.44 253.62097 
L 496.44 253.62097 
" clip-path="url(#p63f919e2d9)" style="fill: none; stroke: #2ca02c; stroke-width: 1.5; stroke-linecap: square"/>
   </g>
   <g id="line2d_39">
    <path d="M 37.1 235.689678 
L 38.020521 235.747636 
L 41.702605 235.515163 
L 42.623126 235.571269 
L 46.30521 235.320185 
L 47.225731 235.37197 
L 50.907816 235.111405 
L 51.828337 235.164236 
L 55.510421 234.910116 
L 56.430942 234.967284 
L 60.113026 234.728777 
L 61.033547 234.790708 
L 64.715631 234.570876 
L 65.636152 234.636949 
L 69.318236 234.43589 
L 70.238758 234.505332 
L 73.920842 234.321873 
L 74.841363 234.393973 
L 78.523447 234.226463 
L 79.443968 234.300617 
L 83.126052 234.147385 
L 84.046573 234.223108 
L 87.728657 234.082691 
L 88.649178 234.159625 
L 92.331263 234.030825 
L 93.251784 234.108727 
L 96.013347 233.884996 
L 97.854389 234.069307 
L 100.615952 233.853614 
L 102.456994 234.040522 
L 105.218557 233.832495 
L 107.059599 234.021727 
L 109.821162 233.821065 
L 111.662204 234.012426 
L 114.423768 233.818884 
L 116.26481 234.012237 
L 119.026373 233.825616 
L 120.867415 234.020871 
L 123.628978 233.84101 
L 125.47002 234.038107 
L 128.231583 233.864882 
L 130.072625 234.063786 
L 132.834188 233.897101 
L 134.67523 234.09779 
L 137.436794 233.937574 
L 139.277836 234.140034 
L 142.039399 233.986231 
L 143.880441 234.190445 
L 146.642004 234.043008 
L 148.483046 234.248951 
L 151.244609 234.107828 
L 153.085651 234.315459 
L 155.847214 234.180581 
L 157.688257 234.389839 
L 161.370341 234.375631 
L 162.290862 234.471904 
L 165.972946 234.462979 
L 166.893467 234.561394 
L 170.575551 234.557296 
L 171.496072 234.657961 
L 175.178156 234.65815 
L 176.098677 234.761164 
L 179.780762 234.765018 
L 180.701283 234.870465 
L 184.383367 234.877288 
L 185.303888 234.985238 
L 188.985972 234.994276 
L 189.906493 235.104785 
L 193.588577 235.115249 
L 194.509098 235.228361 
L 198.191182 235.239455 
L 199.111703 235.355203 
L 202.793788 235.366153 
L 203.714309 235.484562 
L 211.998998 235.624316 
L 213.84004 235.760864 
L 215.681082 235.664947 
L 218.442645 235.897476 
L 220.283687 235.798304 
L 223.045251 236.034197 
L 224.886293 235.931418 
L 227.647856 236.170689 
L 229.488898 236.064022 
L 232.250461 236.306723 
L 234.091503 236.195954 
L 236.853066 236.442165 
L 238.694108 236.327141 
L 241.455671 236.576966 
L 243.296713 236.457584 
L 246.058277 236.71114 
L 247.899319 236.587342 
L 250.660882 236.844747 
L 252.501924 236.716515 
L 255.263487 236.977881 
L 257.104529 236.845226 
L 260.786613 237.031156 
L 261.707134 236.973612 
L 265.389218 237.163262 
L 266.309739 237.101808 
L 269.991824 237.295072 
L 270.912345 237.22994 
L 274.594429 237.426676 
L 275.51495 237.358117 
L 279.197034 237.55814 
L 280.117555 237.486428 
L 283.799639 237.689512 
L 284.72016 237.614942 
L 288.402244 237.820819 
L 289.322766 237.743707 
L 292.084329 238.037759 
L 293.925371 237.872757 
L 296.686934 238.17046 
L 298.527976 238.00212 
L 301.289539 238.303254 
L 303.130581 238.131834 
L 305.892144 238.436154 
L 307.733186 238.261957 
L 310.494749 238.569202 
L 312.335792 238.392589 
L 315.097355 238.702498 
L 316.938397 238.523893 
L 319.69996 238.836212 
L 321.541002 238.656118 
L 324.302565 238.970614 
L 326.143607 238.789625 
L 328.90517 239.106101 
L 330.746212 238.924917 
L 333.507776 239.243218 
L 335.348818 239.062671 
L 338.110381 239.382696 
L 339.951423 239.203774 
L 342.712986 239.525485 
L 344.554028 239.349371 
L 347.315591 239.672798 
L 349.156633 239.500918 
L 351.918196 239.826163 
L 353.759238 239.660243 
L 355.600281 239.983678 
L 356.520802 239.987477 
L 358.361844 239.829627 
L 360.202886 240.159744 
L 362.043928 240.051899 
L 362.964449 240.011873 
L 364.805491 240.349011 
L 366.646533 240.237733 
L 367.567054 240.210363 
L 369.408096 240.554793 
L 373.09018 240.621721 
L 374.010701 240.78081 
L 376.772265 240.672102 
L 378.613307 241.030827 
L 381.37487 240.943449 
L 383.215912 241.307768 
L 385.977475 241.245022 
L 387.818517 241.611927 
L 390.58008 241.57416 
L 392.421122 241.938055 
L 395.182685 241.919987 
L 396.103206 242.154886 
L 397.023727 242.27203 
L 398.86477 242.151176 
L 399.785291 242.261075 
L 400.705812 242.488239 
L 401.626333 242.589901 
L 403.467375 242.456308 
L 407.149459 242.795481 
L 408.06998 242.710548 
L 410.831543 243.07021 
L 412.672585 242.895602 
L 415.434148 243.204854 
L 417.27519 243.009836 
L 420.036754 243.276266 
L 421.877796 243.065302 
L 424.639359 243.30102 
L 426.480401 243.07924 
L 429.241964 243.295452 
L 431.083006 243.067102 
L 433.844569 243.271785 
L 435.685611 243.039733 
L 438.447174 243.237636 
L 440.288216 243.003535 
L 443.04978 243.197094 
L 444.890822 242.961771 
L 447.652385 243.152041 
L 449.493427 242.915846 
L 452.25499 243.103168 
L 454.096032 242.866204 
L 456.857595 243.050589 
L 458.698637 242.812847 
L 461.4602 242.994178 
L 463.301242 242.755601 
L 466.062806 242.93372 
L 467.903848 242.694233 
L 470.665411 242.868982 
L 472.506453 242.628506 
L 475.268016 242.799741 
L 477.109058 242.558192 
L 479.870621 242.725792 
L 481.711663 242.483088 
L 484.473226 242.646962 
L 486.314269 242.403022 
L 489.075832 242.563117 
L 490.916874 242.317864 
L 494.598958 242.360149 
L 495.519479 242.227535 
L 496.44 242.263991 
L 496.44 242.263991 
" clip-path="url(#p63f919e2d9)" style="fill: none; stroke: #d62728; stroke-width: 1.5; stroke-linecap: square"/>
   </g>
   <g id="patch_9">
    <path d="M 37.1 330.64 
L 37.1 175.53 
" style="fill: none; stroke: #000000; stroke-width: 0.8; stroke-linejoin: miter; stroke-linecap: square"/>
   </g>
   <g id="patch_10">
    <path d="M 496.44 330.64 
L 496.44 175.53 
" style="fill: none; stroke: #000000; stroke-width: 0.8; stroke-linejoin: miter; stroke-linecap: square"/>
   </g>
   <g id="patch_11">
    <path d="M 37.1 330.64 
L 496.44 330.64 
" style="fill: none; stroke: #000000; stroke-width: 0.8; stroke-linejoin: miter; stroke-linecap: square"/>
   </g>
   <g id="patch_12">
    <path d="M 37.1 175.53 
L 496.44 175.53 
" style="fill: none; stroke: #000000; stroke-width: 0.8; stroke-linejoin: miter; stroke-linecap: square"/>
   </g>
   <g id="legend_2">
    <g id="patch_13">
     <path d="M 445.010781 221.127344 
L 491.54 221.127344 
Q 492.94 221.127344 492.94 219.727344 
L 492.94 180.43 
Q 492.94 179.03 491.54 179.03 
L 445.010781 179.03 
Q 443.610781 179.03 443.610781 180.43 
L 443.610781 219.727344 
Q 443.610781 221.127344 445.010781 221.127344 
z
" style="fill: #ffffff; opacity: 0.8; stroke: #cccccc; stroke-linejoin: miter"/>
    </g>
    <g id="line2d_40">
     <path d="M 446.410781 184.41125 
L 453.410781 184.41125 
L 460.410781 184.41125 
" style="fill: none; stroke: #1f77b4; stroke-width: 1.5; stroke-linecap: square"/>
    </g>
    <g id="text_30">
     <!-- Agent 1 -->
     <g transform="translate(466.010781 186.86125) scale(0.07 -0.07)">
      <use xlink:href="#ArialMT-41"/>
      <use xlink:href="#ArialMT-67" transform="translate(66.699219 0)"/>
      <use xlink:href="#ArialMT-65" transform="translate(122.314453 0)"/>
      <use xlink:href="#ArialMT-6e" transform="translate(177.929688 0)"/>
      <use xlink:href="#ArialMT-74" transform="translate(233.544922 0)"/>
      <use xlink:href="#ArialMT-20" transform="translate(261.328125 0)"/>
      <use xlink:href="#ArialMT-31" transform="translate(289.111328 0)"/>
     </g>
    </g>
    <g id="line2d_41">
     <path d="M 446.410781 194.415781 
L 453.410781 194.415781 
L 460.410781 194.415781 
" style="fill: none; stroke: #ff7f0e; stroke-width: 1.5; stroke-linecap: square"/>
    </g>
    <g id="text_31">
     <!-- Agent 2 -->
     <g transform="translate(466.010781 196.865781) scale(0.07 -0.07)">
      <use xlink:href="#ArialMT-41"/>
      <use xlink:href="#ArialMT-67" transform="translate(66.699219 0)"/>
      <use xlink:href="#ArialMT-65" transform="translate(122.314453 0)"/>
      <use xlink:href="#ArialMT-6e" transform="translate(177.929688 0)"/>
      <use xlink:href="#ArialMT-74" transform="translate(233.544922 0)"/>
      <use xlink:href="#ArialMT-20" transform="translate(261.328125 0)"/>
      <use xlink:href="#ArialMT-32" transform="translate(289.111328 0)"/>
     </g>
    </g>
    <g id="line2d_42">
     <path d="M 446.410781 204.420312 
L 453.410781 204.420312 
L 460.410781 204.420312 
" style="fill: none; stroke: #2ca02c; stroke-width: 1.5; stroke-linecap: square"/>
    </g>
    <g id="text_32">
     <!-- Agent 3 -->
     <g transform="translate(466.010781 206.870312) scale(0.07 -0.07)">
      <use xlink:href="#ArialMT-41"/>
      <use xlink:href="#ArialMT-67" transform="translate(66.699219 0)"/>
      <use xlink:href="#ArialMT-65" transform="translate(122.314453 0)"/>
      <use xlink:href="#ArialMT-6e" transform="translate(177.929688 0)"/>
      <use xlink:href="#ArialMT-74" transform="translate(233.544922 0)"/>
      <use xlink:href="#ArialMT-20" transform="translate(261.328125 0)"/>
      <use xlink:href="#ArialMT-33" transform="translate(289.111328 0)"/>
     </g>
    </g>
    <g id="line2d_43">
     <path d="M 446.410781 214.404063 
L 453.410781 214.404063 
L 460.410781 214.404063 
" style="fill: none; stroke: #d62728; stroke-width: 1.5; stroke-linecap: square"/>
    </g>
    <g id="text_33">
     <!-- Agent 4 -->
     <g transform="translate(466.010781 216.854062) scale(0.07 -0.07)">
      <use xlink:href="#ArialMT-41"/>
      <use xlink:href="#ArialMT-67" transform="translate(66.699219 0)"/>
      <use xlink:href="#ArialMT-65" transform="translate(122.314453 0)"/>
      <use xlink:href="#ArialMT-6e" transform="translate(177.929688 0)"/>
      <use xlink:href="#ArialMT-74" transform="translate(233.544922 0)"/>
      <use xlink:href="#ArialMT-20" transform="translate(261.328125 0)"/>
      <use xlink:href="#ArialMT-34" transform="translate(289.111328 0)"/>
     </g>
    </g>
   </g>
  </g>
 </g>
 <defs>
  <clipPath id="p9b47e39bb7">
   <rect x="37.1" y="9.36" width="459.34" height="155.11"/>
  </clipPath>
  <clipPath id="p63f919e2d9">
   <rect x="37.1" y="175.53" width="459.34" height="155.11"/>
  </clipPath>
 </defs>
</svg>
